<svg width="190" height="361" viewBox="0 0 190 361" fill="none" xmlns="http://www.w3.org/2000/svg">
<path d="M78.7138 38.3538C78.0934 38.2142 76.8525 38.3538 76.8525 40.0286C76.8525 41.7033 78.0934 41.8429 78.7138 41.7033C79.1791 41.7033 80.1098 41.3684 80.1098 40.0286C80.1098 38.6888 79.1791 38.3538 78.7138 38.3538Z" fill="#1C75BC"/>
<path d="M95 40.4473C94.3796 40.4473 93.1387 40.7822 93.1387 42.122C93.1387 43.4618 94.3796 43.7968 95 43.7968C95.6205 43.7968 96.8613 43.4618 96.8613 42.122C96.8613 40.7822 95.6205 40.4473 95 40.4473Z" fill="#1C75BC"/>
<path fill-rule="evenodd" clip-rule="evenodd" d="M66.6155 42.9598C66.6155 41.7037 66.6155 40.4477 64.2889 38.7729C61.9623 37.0982 58.705 35.8421 61.0316 31.2365C61.5515 30.2074 62.1875 29.5964 62.8618 29.2914C60.276 6.12095 82.8641 6.96314 73.13 9.88268C65.3126 12.2273 64.3015 23.6994 64.7731 29.1424C66.5022 29.5649 68.0114 31.3003 68.0114 32.4926C68.0114 34.586 74.0606 26.2119 73.5953 24.5372C73.13 22.8624 88.4855 23.6998 92.2081 24.5372C95.9307 25.3745 102.445 28.305 102.91 29.5611C103.283 30.566 103.066 34.7249 102.91 36.6788C103.066 36.958 103.562 37.3487 104.306 36.6788C109.27 29.9798 113.799 14.321 92.2081 5.27726C91.5877 3.3233 88.3925 -0.333394 80.5751 0.671462C79.3342 0.950677 76.8525 1.67658 76.8525 2.34649C76.8525 3.18387 71.734 -0.165651 69.4074 2.34649C67.0808 4.85863 64.2889 4.85863 61.0316 15.3259C57.8674 25.4942 59.0944 45.9355 56.6076 47.0948L58.2397 46.728C58.8229 46.5531 59.5278 46.3307 60.2783 46.0791C60.8396 44.3414 61.9623 40.6147 61.9623 39.6099C61.9623 38.3538 64.2889 41.7394 61.9623 45.4896C64.3364 44.6197 66.6155 43.6018 66.6155 42.9598ZM80.5751 7.37071C82.5915 6.67289 87.1826 5.361 89.4162 5.69595C92.2081 6.11464 83.367 1.50905 80.5751 7.37071Z" fill="#1C75BC"/>
<path d="M23.3406 94.4582C23.0304 94.0396 22.41 92.5323 22.41 89.8527C19.6181 94.1791 14.0342 104.591 14.0342 111.625C14.66 112.348 15.7442 113.337 17.2915 114.441C20.8075 116.95 26.7144 120.057 35.0644 122.024C31.4865 114.304 28.8001 104.818 27.5285 99.0638C24.9227 99.0638 23.6509 95.9934 23.3406 94.4582Z" fill="#1C75BC"/>
<path d="M34.5083 334.368C33.5777 334.368 31.7164 331.855 31.7164 330.599C31.7164 330.263 31.5083 328.646 31.1965 326.412C28.1748 326.747 28.1126 335.484 28.4592 339.81C29.9482 339.81 40.5575 347.068 45.676 350.696C46.2965 352.232 47.9096 355.469 49.3986 356.139C50.8876 356.809 52.5007 354.465 53.1212 353.209C58.5499 353.488 69.9658 353.795 72.1993 352.79C72.5498 352.632 72.6955 352.342 72.6792 351.952C72.6567 351.414 72.3246 350.687 71.796 349.859C70.2703 347.47 67.108 344.245 65.0286 342.323C64.9681 342.357 64.8775 342.36 64.7542 342.323C63.3582 341.904 58.2397 345.253 54.9825 346.091C51.7252 346.928 51.2599 346.091 51.2599 344.416C51.2599 343.076 57.1539 339.671 60.101 338.136L58.705 336.731C55.1046 337.785 49.2742 339.616 48.9333 340.229C48.468 341.067 45.676 339.81 46.6067 338.554C47.5373 337.298 48.9333 333.949 54.9825 332.693L54.5171 331.437C54.0785 330.055 53.5107 328.025 53.023 326.219C52.6829 324.959 52.3817 323.808 52.1905 323.063C52.0354 322.784 50.7946 322.393 47.072 323.063C46.7502 323.121 46.44 323.227 46.1414 323.375C42.9856 324.941 41.1243 331.18 40.5575 334.368H34.5083Z" fill="#1C75BC"/>
<path d="M54.5171 331.437L54.9825 332.693C55.9131 332.693 57.9605 332.944 58.705 333.949C59.4495 334.954 59.6357 336.042 59.6357 336.461C65.2195 335.791 72.5095 343.16 75.4566 346.928C75.6117 345.393 77.8762 342.909 85.6936 345.253C94.6296 347.934 96.9504 343.961 96.5703 343.262C96.5153 343.227 96.4572 343.193 96.396 343.16C95.6515 343.16 89.8815 337.019 87.0896 333.949C83.6772 336.182 76.5733 340.313 75.4566 338.973C74.0606 337.298 79.1791 331.437 85.6936 331.437C84.763 330.599 82.4364 330.599 81.9711 330.181C81.5988 329.846 81.1955 328.645 81.0404 328.087C77.7832 330.599 70.7103 335.121 68.4768 333.111C66.2432 331.102 72.8197 326.412 76.3872 324.319C75.2704 324.319 74.0606 322.644 73.5953 321.807C73.7504 319.853 73.5953 315.861 71.734 315.526C69.8727 315.192 67.8563 317.899 67.0808 319.295C66.1501 320.411 64.3819 323.733 64.7542 328.087C59.1703 330.432 54.6068 327.819 53.023 326.219C53.5107 328.025 54.0785 330.055 54.5171 331.437Z" fill="#1C75BC"/>
<path d="M46.6067 298.779C42.5119 303.803 29.3898 302.826 23.3406 301.71C24.1162 304.78 25.9464 310.921 27.0632 310.921C27.316 310.921 27.9806 310.962 28.9245 311.015C32.5766 311.218 40.41 311.591 44.7454 310.407C45.4781 310.207 46.1109 309.962 46.6067 309.665C46.9789 308.66 46.7618 301.989 46.6067 298.779Z" fill="#1C75BC"/>
<path d="M59.1703 295.848C52.842 296.518 49.5307 293.615 48.6662 292.08C48.5133 293.417 48.3161 294.524 48.0986 295.429L48.9333 303.803C49.3436 303.967 49.979 304.165 50.7946 304.346C52.7539 304.779 55.7533 305.114 59.1703 304.641C62.3702 304.198 64.9327 303.608 66.6155 303.139C67.4776 302.898 68.1089 302.689 68.4768 302.547L68.9136 293.336C67.0809 294.23 63.8208 295.356 59.1703 295.848Z" fill="#1C75BC"/>
<path fill-rule="evenodd" clip-rule="evenodd" d="M69.4074 58.8696C65.3126 57.8648 60.2561 50.3565 58.2397 46.728L56.6076 47.0948C56.5345 47.1289 56.4581 47.1463 56.3784 47.1463C51.415 47.4254 40.4644 49.6584 36.3696 56.3575C31.2511 64.7313 22.41 86.5031 22.41 89.8527C22.41 92.5323 23.0304 94.0396 23.3406 94.4582C24.415 93.9928 25.8997 93.5237 27.6517 93.2022C31.7272 92.4543 37.2494 92.505 42.4188 95.2582C43.6899 95.9352 44.9397 96.7757 46.1414 97.8078C45.5452 98.0296 44.1594 98.4734 43.3858 98.4734C45.5944 106.013 48.5031 117.261 47.5373 119.408C47.2289 120.093 48.7119 121.757 51.2589 123.96C54.6822 123.808 56.3545 123.097 56.8437 122.51L67.5461 101.157C69.538 99.0335 71.8198 94.036 74.0436 88.0062C75.8204 83.1883 77.5602 77.7113 79.0852 72.5146C80.6454 67.1982 81.981 62.175 82.9017 58.4509C81.6608 58.5905 78.6207 58.5347 76.3872 57.1949C76.0344 56.9832 75.6229 56.6505 75.1719 56.2286C75.1567 56.2143 75.0993 56.2201 74.9912 56.3575L73.5953 58.0322C72.4785 59.372 70.338 59.1487 69.4074 58.8696ZM46.1414 97.8078H47.5373C52.7489 92.251 52.5007 82.5381 51.7252 78.3763C51.7252 86.0802 48.0026 94.5406 46.1414 97.8078Z" fill="#1C75BC"/>
<path d="M58.2397 46.728C58.8229 46.5531 59.5278 46.3307 60.2783 46.0791M58.2397 46.728C60.2561 50.3565 65.3126 57.8648 69.4074 58.8696C70.338 59.1487 72.4785 59.372 73.5953 58.0322L74.9912 56.3575C75.0993 56.2201 75.1567 56.2143 75.1719 56.2286M58.2397 46.728L56.6076 47.0948M104.306 36.6788C103.562 37.3487 103.066 36.958 102.91 36.6788C103.066 34.7249 103.283 30.566 102.91 29.5611C102.445 28.305 95.9307 25.3745 92.2081 24.5372C88.4855 23.6998 73.13 22.8624 73.5953 24.5372C74.0606 26.2119 68.0114 34.586 68.0114 32.4926C68.0114 31.3003 66.5022 29.5649 64.7731 29.1424M104.306 36.6788C105.237 35.8414 108.029 35.424 108.029 38.7729C108.029 42.1218 106.168 45.0526 100.584 45.4713C98.587 54.8498 87.9637 58.0321 82.9017 58.4509M104.306 36.6788C109.27 29.9798 113.799 14.321 92.2081 5.27726C91.5877 3.3233 88.3925 -0.333394 80.5751 0.671462C79.3342 0.950677 76.8525 1.67658 76.8525 2.34649C76.8525 3.18387 71.734 -0.165651 69.4074 2.34649C67.0808 4.85863 64.2889 4.85863 61.0316 15.3259C57.8674 25.4942 59.0944 45.9355 56.6076 47.0948M64.7731 29.1424C64.3015 23.6994 65.3126 12.2273 73.13 9.88268C82.8641 6.96314 60.276 6.12095 62.8618 29.2914M64.7731 29.1424C64.1444 28.9888 63.4867 29.0087 62.8618 29.2914M62.8929 29.5611C62.8822 29.4708 62.8718 29.3809 62.8618 29.2914M56.3784 47.1463C51.415 47.4254 40.4644 49.6584 36.3696 56.3575C31.2511 64.7313 22.41 86.5031 22.41 89.8527M56.3784 47.1463L56.6076 47.0948M56.3784 47.1463C56.4581 47.1463 56.5345 47.1289 56.6076 47.0948M60.2783 46.0791C60.8396 44.3414 61.9623 40.6147 61.9623 39.6099C61.9623 38.3538 64.2889 41.7394 61.9623 45.4896M60.2783 46.0791C60.8253 45.8958 61.3965 45.6969 61.9623 45.4896M61.9623 45.4896C64.3364 44.6197 66.6155 43.6018 66.6155 42.9598C66.6155 41.7037 66.6155 40.4477 64.2889 38.7729C61.9623 37.0982 58.705 35.8421 61.0316 31.2365C61.5515 30.2074 62.1875 29.5964 62.8618 29.2914M67.5461 46.728C69.244 49.1959 72.7677 53.9792 75.1719 56.2286M82.9017 58.4509C81.6608 58.5905 78.6207 58.5347 76.3872 57.1949C76.0344 56.9832 75.6229 56.6505 75.1719 56.2286M82.9017 58.4509C81.981 62.175 80.6454 67.1982 79.0852 72.5146M87.5549 41.2846C86.9345 43.099 85.8797 46.9788 86.6243 47.9837C87.5549 49.2397 83.367 47.9837 83.367 47.565M74.5259 33.3295C76.8525 33.0504 82.0641 33.2458 84.2977 36.2604M91.7428 37.5164C93.1387 36.6791 96.9544 35.3392 101.049 36.6791M78.7138 48.8211C79.4893 50.3563 82.4364 52.8405 88.0202 50.4958M22.41 89.8527C22.41 92.5323 23.0304 94.0396 23.3406 94.4582M22.41 89.8527C19.6181 94.1791 14.0342 104.591 14.0342 111.625C14.66 112.348 15.7442 113.337 17.2915 114.441M23.3406 94.4582C23.6509 95.9934 24.9227 99.0638 27.5285 99.0638M23.3406 94.4582C24.415 93.9928 25.8997 93.5237 27.6517 93.2022M46.1414 97.8078C48.0026 94.5406 51.7252 86.0802 51.7252 78.3763C52.5007 82.5381 52.7489 92.251 47.5373 97.8078H46.1414ZM46.1414 97.8078C44.9397 96.7757 43.6899 95.9352 42.4188 95.2582M46.1414 97.8078C45.5452 98.0296 44.1594 98.4734 43.3858 98.4734M27.5285 99.0638L27.6517 93.2022M27.5285 99.0638C28.8001 104.818 31.4865 114.304 35.0644 122.024M27.6517 93.2022C31.7272 92.4543 37.2494 92.505 42.4188 95.2582M56.8437 122.51L67.5461 101.157C69.538 99.0335 71.8198 94.036 74.0436 88.0062C75.8204 83.1883 77.5602 77.7113 79.0852 72.5146M56.8437 122.51C56.3545 123.097 54.6822 123.808 51.2589 123.96M56.8437 122.51C58.0214 124.63 59.1166 127.482 60.1278 130.857M56.8437 122.51C58.3328 123.988 59.6535 128.69 60.1278 130.857M17.2915 114.441L7.51974 133.815C5.34824 136.467 1.00525 145.287 1.00525 159.355C1.00525 173.423 7.51974 221.6 10.777 243.931C13.1036 261.934 18.8736 298.695 23.3406 301.71M17.2915 114.441C20.8075 116.95 26.7144 120.057 35.0644 122.024M23.3406 301.71C29.3898 302.826 42.5119 303.803 46.6067 298.779M23.3406 301.71C24.1162 304.78 25.9464 310.921 27.0632 310.921C27.316 310.921 27.9806 310.962 28.9245 311.015M46.6067 298.779C46.7618 301.989 46.9789 308.66 46.6067 309.665C46.1109 309.962 45.4781 310.207 44.7454 310.407M46.6067 298.779C47.0249 298.465 47.6123 297.453 48.0986 295.429M48.9333 153.494C48.0026 156.424 40.5575 160.611 42.4188 161.449C44.2801 162.286 48.468 269.052 48.9333 282.869C49.0634 286.733 48.932 289.754 48.6662 292.08M48.6662 292.08C49.5307 293.615 52.842 296.518 59.1703 295.848C63.8208 295.356 67.0809 294.23 68.9136 293.336M48.6662 292.08C48.5133 293.417 48.3161 294.524 48.0986 295.429M68.9421 200.387C71.5479 212.78 70.9585 266.958 70.338 292.499C70.0502 292.721 69.5748 293.013 68.9136 293.336M68.9421 200.387C68.9421 189.642 67.1287 165.481 63.6346 146.157M68.9421 200.387C68.0406 184.807 65.717 152.149 63.6346 146.157M48.0986 295.429L48.9333 303.803C49.3436 303.967 49.979 304.165 50.7946 304.346M68.9136 293.336L68.4768 302.547C68.1089 302.689 67.4776 302.898 66.6155 303.139M28.9245 311.015C29.544 315.081 30.5758 321.967 31.1965 326.412M28.9245 311.015C32.5766 311.218 40.41 311.591 44.7454 310.407M34.5083 334.368C33.5777 334.368 31.7164 331.855 31.7164 330.599C31.7164 330.263 31.5083 328.646 31.1965 326.412M34.5083 334.368C35.2529 334.368 38.8513 334.368 40.5575 334.368M34.5083 334.368H40.5575M40.5575 334.368C41.1243 331.18 42.9856 324.941 46.1414 323.375M52.1905 323.063C52.0354 322.784 50.7946 322.393 47.072 323.063C46.7502 323.121 46.44 323.227 46.1414 323.375M52.1905 323.063L50.7946 304.346M52.1905 323.063C52.3817 323.808 52.6829 324.959 53.023 326.219M54.9825 332.693L54.5171 331.437C54.0785 330.055 53.5107 328.025 53.023 326.219M54.9825 332.693C55.9131 332.693 57.9605 332.944 58.705 333.949C59.4495 334.954 59.6357 336.042 59.6357 336.461M54.9825 332.693C48.9333 333.949 47.5373 337.298 46.6067 338.554C45.676 339.81 48.468 341.067 48.9333 340.229C49.2742 339.616 55.1046 337.785 58.705 336.731M59.6357 336.461C59.3483 336.543 59.0361 336.634 58.705 336.731M59.6357 336.461C65.2195 335.791 72.5095 343.16 75.4566 346.928C75.6117 345.393 77.8762 342.909 85.6936 345.253C94.6296 347.934 96.9504 343.961 96.5703 343.262M58.705 336.731L60.101 338.136M60.101 338.136C57.1539 339.671 51.2599 343.076 51.2599 344.416C51.2599 346.091 51.7252 346.928 54.9825 346.091C58.2397 345.253 63.3582 341.904 64.7542 342.323C64.8775 342.36 64.9681 342.357 65.0286 342.323M60.101 338.136C63.0706 338.136 65.6534 341.964 65.0286 342.323M65.0286 342.323C67.108 344.245 70.2703 347.47 71.796 349.859M28.4592 339.81C29.9482 339.81 40.5575 347.068 45.676 350.696C46.2965 352.232 47.9096 355.469 49.3986 356.139C50.8876 356.809 52.5007 354.465 53.1212 353.209C58.5499 353.488 69.9658 353.795 72.1993 352.79C72.5498 352.632 72.6955 352.342 72.6792 351.952M28.4592 339.81C28.1126 335.484 28.1748 326.747 31.1965 326.412M28.4592 339.81C27.5285 340.229 25.4811 341.82 24.7366 344.835C23.9921 347.849 24.4264 351.394 24.7366 352.79C25.3207 353.069 27.4303 353.878 31.1965 354.883C34.9627 355.888 43.6596 358.372 47.5373 359.489C55.4478 360.885 71.9201 361.917 74.5259 354.883C74.6907 354.185 74.5521 352.622 72.6792 351.952M72.6792 351.952C72.6567 351.414 72.3246 350.687 71.796 349.859M44.7454 310.407L46.1414 323.375M50.7946 304.346C52.7539 304.779 55.7533 305.114 59.1703 304.641C62.3702 304.198 64.9327 303.608 66.6155 303.139M66.6155 303.139L67.0808 319.295M67.0808 319.295C66.1501 320.411 64.3819 323.733 64.7542 328.087C59.1703 330.432 54.6068 327.819 53.023 326.219M67.0808 319.295C67.8563 317.899 69.8727 315.192 71.734 315.526C73.5953 315.861 73.7504 319.853 73.5953 321.807C74.0606 322.644 75.2704 324.319 76.3872 324.319M76.3872 324.319C77.7832 324.319 81.5057 325.994 81.0404 328.087M76.3872 324.319C72.8197 326.412 66.2432 331.102 68.4768 333.111C70.7103 335.121 77.7832 330.599 81.0404 328.087M81.0404 328.087C81.1955 328.645 81.5988 329.846 81.9711 330.181C82.4364 330.599 84.763 330.599 85.6936 331.437M85.6936 331.437C86.4381 332.107 86.9345 333.391 87.0896 333.949M85.6936 331.437C79.1791 331.437 74.0606 337.298 75.4566 338.973C76.5733 340.313 83.6772 336.182 87.0896 333.949M87.0896 333.949C89.8815 337.019 95.6515 343.16 96.396 343.16M96.396 343.16C96.4572 343.193 96.5153 343.227 96.5703 343.262M96.396 343.16C96.4756 343.16 96.5348 343.197 96.5703 343.262M71.796 349.859C79.2205 350.557 94.5347 350.948 96.396 346.928C97.146 346.118 98.1861 344.29 96.5703 343.262M42.4188 95.2582C42.7124 96.2067 43.0405 97.2948 43.3858 98.4734M35.0644 122.024C37.5965 127.488 40.5751 132.067 43.8148 133.815C48.2255 136.194 56.1025 141.21 63.6346 146.157M51.2589 123.96C48.7119 121.757 47.2289 120.093 47.5373 119.408C48.5031 117.261 45.5944 106.013 43.3858 98.4734M51.2589 123.96C53.5374 125.931 56.6673 128.335 60.1278 130.857M63.6346 146.157C69.4521 149.979 75.0638 153.759 78.7138 156.253C78.6641 156.499 78.6184 156.784 78.5843 157.09M60.1278 130.857C66.8045 135.722 74.712 141.03 80.1098 144.529C82.2813 143.134 86.7173 140.677 87.0896 142.017C87.4618 143.357 86.6243 145.088 86.1589 145.785C87.5549 145.506 90.3468 145.367 90.3468 147.041C90.3468 148.716 86.314 149.135 84.2977 149.135C86.3639 148.869 90.3963 149.033 90.7823 151.647M79.0852 72.5146C88.7332 64.2232 108.774 47.7583 111.752 48.2306M61.4969 96.727C80.042 89.6356 100.869 67.4009 108.964 57.1699C109.041 56.6387 109.076 56.1426 109.077 55.68C110.327 55.2661 113.048 54.4384 113.931 54.4384C114.814 54.4384 114.851 53.4452 114.759 52.9485M111.723 48.2306C114.152 49.2239 114.759 50.7965 114.759 51.4587L111.723 51.9553L114.759 52.9485M114.759 52.9485L115.587 52.4519C137.573 68.7578 183.034 105.591 188.995 122.476M188.995 122.476C175.932 128.25 138.768 141.944 94.6134 150.536M188.995 122.476C186.695 141.017 178.894 184.207 166.089 208.641M94.6134 150.536L166.089 208.641M94.6134 150.536L90.7823 151.647M166.089 208.641C139.357 205.91 82.7074 198.659 69.9689 191.508M72.5442 103.853C78.521 104.743 85.5945 105.817 93.2232 107.003M93.2232 107.003C102.628 108.465 112.878 110.097 122.955 111.761M93.2232 107.003L93.2125 96.9001M93.2232 107.003L93.2335 116.765M122.955 111.761C151.083 116.405 177.877 121.301 181.268 123.47M122.955 111.761C126.393 106.556 130.705 100.107 133.525 95.9068M122.955 111.761C119.89 116.402 117.519 120.054 117.519 120.242M148.979 119.497L132.421 129.926M90.7823 151.647C90.8019 151.78 90.8121 151.92 90.8121 152.066C90.8121 155.08 86.4692 153.322 84.2977 152.066C86.1589 154.02 89.3231 157.927 87.0896 157.927C84.856 157.927 83.367 155.973 82.9017 154.997C82.7466 156.95 81.9711 160.858 80.1098 160.858C78.5468 160.858 78.4057 158.693 78.5843 157.09M78.5843 157.09C76.9213 157.788 73.5022 159.435 73.13 160.44M80.5751 7.37071C82.5915 6.67289 87.1826 5.361 89.4162 5.69595C92.2081 6.11464 83.367 1.50905 80.5751 7.37071ZM95 40.4473C94.3796 40.4473 93.1387 40.7822 93.1387 42.122C93.1387 43.4618 94.3796 43.7968 95 43.7968C95.6205 43.7968 96.8613 43.4618 96.8613 42.122C96.8613 40.7822 95.6205 40.4473 95 40.4473ZM78.7138 38.3538C78.0934 38.2142 76.8525 38.3538 76.8525 40.0286C76.8525 41.7033 78.0934 41.8429 78.7138 41.7033C79.1791 41.7033 80.1098 41.3684 80.1098 40.0286C80.1098 38.6888 79.1791 38.3538 78.7138 38.3538Z" stroke="#1C75BC" stroke-width="0.83738"/>
</svg>
