<svg width="234" height="300" viewBox="0 0 234 300" fill="none" xmlns="http://www.w3.org/2000/svg">
<path d="M197.924 298.663L122.461 293.195H10.4073C6.50765 293.195 5.47012 288.091 5.43881 285.539V253.276C4.60612 250.466 3.97156 245.615 3.48986 239.5L2.15781 285.539C1.04079 289.914 -0.256625 298.663 3.48986 298.663H197.924Z" fill="#1C75BC"/>
<path d="M61.2334 53.6787C60.0667 53.5121 57.7334 54.0787 57.7334 57.6787C57.7334 61.2787 60.0667 61.8454 61.2334 61.6787C62.2334 61.6787 64.2334 60.8787 64.2334 57.6787C64.2334 54.4787 62.2334 53.6787 61.2334 53.6787Z" fill="#1C75BC"/>
<path d="M80.7334 49.6787C79.5667 49.8454 77.2334 50.8787 77.2334 53.6787C77.2334 56.4787 79.5667 57.1787 80.7334 57.1787C82.0667 57.1787 84.7334 56.4787 84.7334 53.6787C84.7334 50.1787 82.2334 49.6787 80.7334 49.6787Z" fill="#1C75BC"/>
<path d="M35.7333 47.6789C36.7333 47.1789 39.5333 47.2789 42.7333 51.6789C45.9333 56.0789 46.0667 44.5122 45.7333 38.1788C51.2333 35.1788 63.5333 29.1788 68.7333 29.1788C73.4 28.1788 83.0333 27.4788 84.2333 32.6788C85.4333 37.8788 85.4 39.8455 85.2333 40.1788C85.4673 40.7638 86.0135 41.5624 86.7334 41.4328C87.0389 41.3778 87.3758 41.1555 87.7333 40.6788C88.0441 40.2644 88.2905 39.5711 88.4725 38.6787C89.169 35.264 88.9226 28.9357 87.7333 24.1788C86.2333 18.1788 74.7333 3.67878 57.2333 1.67878C53.4 2.01211 43.5333 5.57877 34.7334 17.1787C25.9334 28.7787 30.3528 43.355 33.6625 49.1931C34.6232 47.8999 35.0674 47.3461 35.7333 47.6789Z" fill="#1C75BC"/>
<path d="M36.7333 2.67878C30.4 5.17876 17.6333 13.8787 17.2333 28.6787C16.7333 47.1787 27.2333 83.6787 32.2333 90.1787C32.9 91.0121 34.2334 91.2787 34.2334 85.6787C34.2334 78.6787 32.7334 61.1787 32.7334 60.6787C32.7334 60.1787 29.2334 54.6791 31.7334 51.6789C32.5685 50.6767 33.1805 49.8419 33.6625 49.1931C30.3528 43.355 25.9334 28.7787 34.7334 17.1787C33.6859 17.478 33.0862 17.5086 32.7334 17.3777C28.2334 22.0766 25.2334 37.6787 24.2334 32.1787C23.4334 27.7787 29.2334 20.0313 32.2334 16.7075C32.131 16.2255 32.164 15.6094 31.7334 15.1787C31.4908 14.9362 32.3145 13.9414 33.7334 12.5505C33.3334 12.5505 26.9 17.3026 23.7334 19.6787C25.3334 14.4787 31.0667 12.7599 33.7334 12.5505C34.6812 11.6213 35.8947 10.5153 37.2334 9.33866C37.2334 8.4986 32.2334 9.67871 32.7334 8.46648C33.1334 7.4967 36.5667 8.06241 38.2334 8.46648C38.914 7.87714 39.6164 7.27708 40.3242 6.67872C40.415 5.67872 35.7334 5.17872 36.7333 4.67872C37.5333 4.27872 40.6531 4.84538 42.113 5.17872C43.9812 3.62431 45.7898 2.15524 47.2334 1.00249C40.4613 0.942907 37.448 1.96408 36.7333 2.67878Z" fill="#1C75BC"/>
<path d="M42.7333 63.6787C39.583 63.6787 37.3126 63.2494 35.7333 62.6892C37.2334 67.1877 39.6334 78.2836 37.2334 86.6787C38.0667 87.1787 40.0334 87.5787 41.2334 85.1787C42.7333 82.1787 45.7333 70.3696 45.7333 68.5242C44.4294 66.7781 43.4216 65.0914 42.7333 63.6787Z" fill="#1C75BC"/>
<path fill-rule="evenodd" clip-rule="evenodd" d="M51.6438 92.1787C52.1737 92.8454 55.1334 94.1787 62.7334 94.1787C70.3334 94.1787 74.5667 91.5121 75.7334 90.1787C76.4 90.3454 78.5334 90.0787 81.7334 87.6787C84.9334 85.2787 125.067 95.0121 144.733 100.179C143.63 100.914 141.888 102.725 140.48 105.679C139.336 108.079 138.413 111.234 138.233 115.179C138.041 119.421 138.072 122.517 138.194 124.679C138.326 127.002 138.561 128.247 138.733 128.679L109.733 129.679C107.605 130.135 103.454 133.086 102.436 141.187C88.5752 141.013 74.3947 140.834 60.8849 140.663C60.5799 139.27 60.1194 138.065 59.7334 137.679C58.9334 136.879 56.4 138.012 55.2334 138.679C55.4 138.179 55.1334 136.979 52.7334 136.179C50.3334 135.379 48.0667 136.397 47.2334 137.006C46.2358 136.432 44.8674 135.895 43.7334 136.179C42.1334 136.579 41.0817 138.012 40.7559 138.679C39.8093 137.795 38.7713 137.437 37.7334 138.179C36.8074 138.84 36.2569 139.593 35.959 140.346C35.3559 141.87 35.7872 143.398 36.2334 144.179C37.744 143.963 39.2547 144.865 40.5643 145.879C26.5336 145.912 17.0426 145.979 15.2818 146.097C8.7198 146.534 7.80841 150.654 8.17297 152.659L5.43881 253.276C4.60612 250.466 3.97156 245.615 3.48986 239.5C1.76018 217.543 2.00153 179.292 2.11876 160.711C2.1404 157.281 2.15781 154.522 2.15781 152.659C2.15781 148.649 3.16619 145.828 4.66945 143.88C4.35956 142.207 4.11008 137.416 5.23337 129.179C6.45206 120.242 10.3111 115.595 13.0564 112.29C13.6901 111.527 14.2645 110.835 14.7334 110.179C17.2334 106.679 48.7334 88.1787 49.2334 89.6787C49.6334 90.8787 51.007 91.8454 51.6438 92.1787ZM44.6632 145.871C45.4992 145.87 46.3486 145.868 47.2108 145.867C45.9622 143.141 43.6845 140.249 42.3207 140.679C43.5319 142.637 44.4157 145.015 44.6632 145.871ZM58.7586 144.347C58.9282 144.952 59.0819 145.5 59.2914 145.856L59.3322 145.856C57.9001 145.857 56.4908 145.858 55.1061 145.859C55.2931 144.349 55.3352 142.509 55.3122 140.913C57.6716 140.47 58.2788 142.636 58.7586 144.347ZM51.9796 145.861L51.6433 145.862C51.6734 145.645 51.7035 145.418 51.7334 145.179C51.8141 145.34 51.8947 145.58 51.9796 145.861Z" fill="#1C75BC"/>
<path fill-rule="evenodd" clip-rule="evenodd" d="M113.856 219.919H141.745L179.476 218.826H203.537C207.911 218.826 210.828 214.815 211.739 212.81C211.557 211.899 211.302 208.436 211.739 201.874C211.981 198.241 210.783 196.34 209.293 195.429C209.58 196.993 210 197.5 208.733 198.179C207 199.5 205.004 196.776 203.884 194.777C175.758 194.958 121.488 195.193 115.497 194.765C109.372 194.327 108.206 197.864 108.388 199.686C108.206 202.238 107.95 208.654 108.388 213.904C108.825 219.154 112.216 220.101 113.856 219.919Z" fill="#1C75BC"/>
<path d="M104.013 207.342V194.218C104.196 192.942 105.216 190.281 107.841 189.843L195.233 186.379C194.857 186.128 194.517 185.891 194.233 185.679C193.883 185.416 193.607 184.958 193.39 184.375H151.588C134.964 184.813 115.497 184.557 107.841 184.375C105.289 184.375 100.295 186.344 100.732 194.218C101.17 202.092 103.102 206.248 104.013 207.342Z" fill="#1C75BC"/>
<path fill-rule="evenodd" clip-rule="evenodd" d="M61.0796 141.724C62.913 141.724 66.7334 141.979 66.7334 143.179C66.7334 143.378 66.6319 143.543 66.4541 143.679H102.233C102.269 142.798 102.338 141.969 102.436 141.187C88.5752 141.013 74.3947 140.834 60.8849 140.663C60.9606 141.008 61.0266 141.365 61.0796 141.724Z" fill="#1C75BC"/>
<path d="M224.407 152.659C224.407 157.033 225.449 239.483 226.907 282.5C227.09 284.505 200.549 291.554 197.924 291.554C195.299 291.554 146.522 292.648 122.461 293.195L197.924 298.663C200.84 298.845 233.407 294.937 233.407 284C233.407 273.063 231.912 186.38 229.907 146.097C230.046 143.87 212.355 142.813 201.251 142.437C201.701 143.156 202.842 145.086 203.801 147.048C213.09 148.107 224.407 150.017 224.407 152.659Z" fill="#1C75BC"/>
<path d="M66.4541 143.679C65.559 144.364 62.7307 144.318 61.1889 144.179C61.1243 144.879 60.9525 145.475 60.6341 145.856C96.4377 145.845 145.872 145.957 180.698 146.062C179.793 144.652 178.819 143.338 177.803 142.108C160.832 141.912 132.38 141.562 102.436 141.187C102.338 141.969 102.269 142.798 102.233 143.679H66.4541Z" fill="#1C75BC"/>
<path d="M5.43881 253.276L8.17297 152.659C7.80841 150.654 8.7198 146.534 15.2818 146.097C17.0426 145.979 26.5336 145.912 40.5643 145.879M5.43881 253.276V285.539C5.47012 288.091 6.50765 293.195 10.4073 293.195M5.43881 253.276C4.60612 250.466 3.97156 245.615 3.48986 239.5M122.461 293.195C146.522 292.648 195.299 291.554 197.924 291.554C200.549 291.554 227.09 284.505 226.907 282.5C225.449 239.483 224.407 157.033 224.407 152.659C224.407 150.017 213.09 148.107 203.801 147.048M122.461 293.195L197.924 298.663M122.461 293.195C86.7346 293.195 14.3069 293.195 10.4073 293.195M122.461 293.195H10.4073M197.924 298.663C200.84 298.845 233.407 294.937 233.407 284C233.407 273.063 231.912 186.38 229.907 146.097C230.046 143.87 212.355 142.813 201.251 142.437M197.924 298.663C134.674 298.663 7.23635 298.663 3.48986 298.663M197.924 298.663H3.48986M203.537 218.826C207.911 218.826 210.828 214.815 211.739 212.81C211.557 211.899 211.302 208.436 211.739 201.874C211.981 198.241 210.783 196.34 209.293 195.429M203.537 218.826C199.162 218.826 185.674 218.826 179.476 218.826M203.537 218.826H179.476M179.476 218.826L141.745 219.919H113.856C112.216 220.101 108.825 219.154 108.388 213.904C107.95 208.654 108.206 202.238 108.388 199.686C108.206 197.864 109.372 194.327 115.497 194.765C121.488 195.193 175.758 194.958 203.884 194.777M3.48986 239.5L2.15781 285.539C1.04079 289.914 -0.256625 298.663 3.48986 298.663M3.48986 239.5C1.76018 217.543 2.00153 179.292 2.11876 160.711C2.1404 157.281 2.15781 154.522 2.15781 152.659C2.15781 148.649 3.16619 145.828 4.66945 143.88M57.2333 1.67878C74.7333 3.67878 86.2333 18.1788 87.7333 24.1788C88.9226 28.9357 89.169 35.264 88.4725 38.6787M57.2333 1.67878C53.4 2.01211 43.5333 5.57877 34.7334 17.1787M57.2333 1.67878C53.2391 1.22229 49.9367 1.02628 47.2334 1.00249M32.7334 60.6787C32.7334 61.1787 34.2334 78.6787 34.2334 85.6787C34.2334 91.2787 32.9 91.0121 32.2333 90.1787C27.2333 83.6787 16.7333 47.1787 17.2333 28.6787C17.6333 13.8787 30.4 5.17876 36.7333 2.67878C37.448 1.96408 40.4613 0.942907 47.2334 1.00249M32.7334 60.6787C32.7334 60.1787 29.2334 54.6791 31.7334 51.6789C32.5685 50.6767 33.1805 49.8419 33.6625 49.1931M32.7334 60.6787C33.0017 61.2154 33.9038 62.0402 35.7333 62.6892M87.7333 53.6787C87.7333 50.1787 93.2334 53.1787 92.7334 43.1787C92.3334 35.1787 89.7261 36.8454 88.4725 38.6787M87.7333 53.6787C87.7742 51.2787 87.0837 44.5148 86.7334 41.4328M87.7333 53.6787C87.7333 56.7766 88.1251 72.0177 75.7334 77.9057M88.4725 38.6787C88.2905 39.5711 88.0441 40.2644 87.7333 40.6788C87.3758 41.1555 87.0389 41.3778 86.7334 41.4328M86.7334 41.4328C86.0135 41.5624 85.4673 40.7638 85.2333 40.1788C85.4 39.8455 85.4333 37.8788 84.2333 32.6788C83.0333 27.4788 73.4 28.1788 68.7333 29.1788C63.5333 29.1788 51.2333 35.1788 45.7333 38.1788C46.0667 44.5122 45.9333 56.0789 42.7333 51.6789C39.5333 47.2789 36.7333 47.1789 35.7333 47.6789C35.0674 47.3461 34.6232 47.8999 33.6625 49.1931M52.2334 50.6787C54.4 49.5121 60.1334 47.3787 65.7334 48.1787M75.7334 46.6787C76.5667 45.3454 79.6333 42.7787 85.2333 43.1787M71.2334 55.1787C72.2334 57.5121 74.4334 62.3787 75.2334 63.1787C76.2334 64.1787 70.2334 64.6787 70.2334 63.6787M64.2334 69.1787C67.0667 70.1787 74.0334 71.1787 79.2334 67.1787C85.7334 62.1787 74.2334 76.6787 67.7334 73.6787M33.6625 49.1931C30.3528 43.355 25.9334 28.7787 34.7334 17.1787M34.7334 17.1787C33.6859 17.478 33.0862 17.5086 32.7334 17.3777M47.2334 1.00249C45.7898 2.15524 43.9812 3.62431 42.113 5.17872M51.6438 74.6787C56.4013 78.4809 62.7073 81.1421 70.2334 79.6787C72.3013 79.2766 74.125 78.67 75.7334 77.9057M51.6438 74.6787V92.1787M51.6438 74.6787C49.2769 72.7871 47.2933 70.6131 45.7333 68.5242M51.6438 92.1787C52.1737 92.8454 55.1334 94.1787 62.7334 94.1787C70.3334 94.1787 74.5667 91.5121 75.7334 90.1787M51.6438 92.1787C51.007 91.8454 49.6334 90.8787 49.2334 89.6787C48.7334 88.1787 17.2334 106.679 14.7334 110.179C14.2645 110.835 13.6901 111.527 13.0564 112.29C10.3111 115.595 6.45206 120.242 5.23337 129.179C4.11008 137.416 4.35956 142.207 4.66945 143.88M75.7334 90.1787V77.9057M75.7334 90.1787C76.4 90.3454 78.5334 90.0787 81.7334 87.6787C84.9334 85.2787 125.067 95.0121 144.733 100.179C143.63 100.914 141.888 102.725 140.48 105.679M36.2334 144.179H4.73337C4.71206 144.093 4.69061 143.994 4.66945 143.88M36.2334 144.179C35.7872 143.398 35.3559 141.87 35.959 140.346M36.2334 144.179C37.744 143.963 39.2547 144.865 40.5643 145.879M40.7559 138.679C39.8093 137.795 38.7713 137.437 37.7334 138.179C36.8074 138.84 36.2569 139.593 35.959 140.346M40.7559 138.679C41.0817 138.012 42.1334 136.579 43.7334 136.179C44.8674 135.895 46.2358 136.432 47.2334 137.006M40.7559 138.679C41.2537 139.143 41.7263 139.753 42.1603 140.425M51.7334 145.179C51.9402 143.524 51.3541 141.888 50.5554 140.532C49.8092 139.265 48.8774 138.242 48.2334 137.679C47.9907 137.485 47.6433 137.242 47.2334 137.006M51.7334 145.179C51.7035 145.418 51.6734 145.645 51.6433 145.862M51.7334 145.179C51.8141 145.34 51.8947 145.58 51.9796 145.861M42.3207 140.679C42.2679 140.593 42.2144 140.509 42.1603 140.425M42.3207 140.679C43.5319 142.637 44.4157 145.015 44.6632 145.871M42.3207 140.679C43.6845 140.249 45.9622 143.141 47.2108 145.867M47.2334 137.006C48.0667 136.397 50.3334 135.379 52.7334 136.179C55.1334 136.979 55.4 138.179 55.2334 138.679M55.2334 138.679C56.4 138.012 58.9334 136.879 59.7334 137.679C60.1194 138.065 60.5799 139.27 60.8849 140.663M55.2334 138.679C55.2652 139.22 55.2922 139.877 55.3067 140.592C55.3088 140.698 55.3106 140.805 55.3122 140.913M55.3122 140.913C55.3352 142.509 55.2931 144.349 55.1061 145.859M55.3122 140.913C57.6716 140.47 58.2788 142.636 58.7586 144.347C58.9282 144.952 59.0819 145.5 59.2914 145.856M61.1889 144.179C62.7307 144.318 65.559 144.364 66.4541 143.679M61.1889 144.179C61.2862 143.123 61.14 141.827 60.8849 140.663M61.1889 144.179C61.1243 144.879 60.9525 145.475 60.6341 145.856M66.4541 143.679C66.6319 143.543 66.7334 143.378 66.7334 143.179C66.7334 141.979 62.913 141.724 61.0796 141.724C61.0266 141.365 60.9606 141.008 60.8849 140.663M66.4541 143.679H102.233C102.269 142.798 102.338 141.969 102.436 141.187M138.733 128.679L109.733 129.679C107.605 130.135 103.454 133.086 102.436 141.187M138.733 128.679C139.9 128.012 142.333 126.279 142.733 124.679M138.733 128.679C138.561 128.247 138.326 127.002 138.194 124.679M142.733 124.679C141.374 124.512 138.563 124.279 138.194 124.679M142.733 124.679C149.233 125.845 163.233 128.979 167.233 132.179C170.609 134.879 174.44 138.035 177.803 142.108M145.233 100.179C145.4 100.512 145.633 102.079 145.233 105.679M145.233 105.679C143.898 105.679 141.077 105.679 140.48 105.679M145.233 105.679C148.067 106.845 156.633 109.479 168.233 110.679C179.833 111.879 190.4 123.845 194.233 129.679C196.181 133.235 198.642 137.714 201.251 142.437M140.48 105.679C139.336 108.079 138.413 111.234 138.233 115.179C138.041 119.421 138.072 122.517 138.194 124.679M195.233 177.679C198.05 179.244 199.622 183.767 200.332 187.179M200.332 187.179C200.53 188.127 200.661 188.99 200.733 189.679C199 191.5 196.979 187.54 195.233 186.379M200.332 187.179C200.799 187.179 201.733 187.379 201.733 188.179C201.733 188.751 202.388 192.105 203.884 194.777M210.233 182.179C210.642 184.088 210.791 185.551 210.761 186.679M210.761 186.679C210.68 189.687 210.761 190.17 209.293 190.271C207.716 190.379 205.733 182.679 204.733 184.179C203.733 185.679 204.733 186.679 207.733 191.679C208.655 193.214 209.114 194.455 209.293 195.429M210.761 186.679C211.918 187.512 214.433 188.679 215.233 186.679C215.462 186.107 215.614 185.413 215.712 184.679M215.733 179.679C215.852 180.75 215.954 182.842 215.712 184.679M215.712 184.679C216.719 184.845 218.833 184.579 219.233 182.179C219.733 179.179 220.233 174.679 218.733 173.179C217.936 172.382 210.77 159.626 203.801 147.048M35.7333 62.6892C37.3126 63.2494 39.583 63.6787 42.7333 63.6787C43.4216 65.0914 44.4294 66.7781 45.7333 68.5242M35.7333 62.6892C37.2334 67.1877 39.6334 78.2836 37.2334 86.6787C38.0667 87.1787 40.0334 87.5787 41.2334 85.1787C42.7333 82.1787 45.7333 70.3696 45.7333 68.5242M32.2334 16.7075C32.131 16.2255 32.164 15.6094 31.7334 15.1787C31.4908 14.9362 32.3145 13.9414 33.7334 12.5505M32.2334 16.7075C29.2334 20.0313 23.4334 27.7787 24.2334 32.1787C25.2334 37.6787 28.2334 22.0766 32.7334 17.3777M32.2334 16.7075C32.2976 17.0099 32.415 17.2595 32.7334 17.3777M33.7334 12.5505C31.0667 12.7599 25.3334 14.4787 23.7334 19.6787C26.9 17.3026 33.3334 12.5505 33.7334 12.5505ZM33.7334 12.5505C34.6812 11.6213 35.8947 10.5153 37.2334 9.33866M38.2334 8.46648C36.5667 8.06241 33.1334 7.4967 32.7334 8.46648C32.2334 9.67871 37.2334 8.4986 37.2334 9.33866M38.2334 8.46648C37.8939 8.76038 37.5599 9.05163 37.2334 9.33866M38.2334 8.46648C38.914 7.87714 39.6164 7.27708 40.3242 6.67872M42.113 5.17872C40.6531 4.84538 37.5333 4.27872 36.7333 4.67872C35.7334 5.17872 40.415 5.67872 40.3242 6.67872M42.113 5.17872C41.5195 5.67257 40.92 6.17504 40.3242 6.67872M35.959 140.346L36.2251 140.349C36.1363 140.348 36.0476 140.347 35.959 140.346ZM35.959 140.346C28.508 140.251 21.5412 140.162 15.2818 140.082C12.3923 139.6 7.5942 140.089 4.66945 143.88M40.5643 145.879C42.2889 147.216 43.665 148.747 44.2334 148.179C45.2334 147.179 44.7334 146.679 44.7334 146.179C44.7334 146.137 44.7093 146.031 44.6632 145.871M44.6632 145.871C45.4992 145.87 46.3486 145.868 47.2108 145.867M42.1603 140.425L41.528 140.417C41.7384 140.42 41.9492 140.422 42.1603 140.425ZM47.2108 145.867C47.4155 146.314 47.5925 146.756 47.7334 147.179C48.5334 149.579 50.0667 149.845 50.7334 149.679C50.8876 149.524 51.2701 148.543 51.6433 145.862M51.6433 145.862C51.7552 145.862 51.8673 145.861 51.9796 145.861M51.6433 145.862L51.9796 145.861M51.9796 145.861C52.4208 147.326 52.9754 149.937 54.2334 148.679C54.6697 148.242 54.943 147.176 55.1061 145.859M55.1061 145.859C56.4908 145.858 57.9001 145.857 59.3322 145.856M55.1061 145.859C56.4776 145.858 57.8733 145.857 59.2914 145.856M60.8849 140.663L60.2963 140.655C60.4923 140.658 60.6885 140.66 60.8849 140.663ZM60.8849 140.663C74.3947 140.834 88.5752 141.013 102.436 141.187M60.6341 145.856L60.5991 145.856C60.6108 145.856 60.6224 145.856 60.6341 145.856ZM60.6341 145.856C60.5199 145.993 60.387 146.102 60.2334 146.179C59.7992 146.396 59.5139 146.234 59.2914 145.856M60.6341 145.856C96.4377 145.845 145.872 145.957 180.698 146.062M59.3322 145.856L59.2914 145.856M59.3322 145.856C59.3186 145.856 59.305 145.856 59.2914 145.856M102.436 141.187C132.38 141.562 160.832 141.912 177.803 142.108M209.293 195.429C209.58 196.993 210 197.5 208.733 198.179C207 199.5 205.004 196.776 203.884 194.777M193.39 184.375C192.615 182.294 192.603 178.632 192.733 176.679C192.4 176.179 191.733 174.879 191.733 173.679C191.733 172.179 186.233 156.179 182.233 148.679C181.749 147.771 181.235 146.899 180.698 146.062M193.39 184.375C193.607 184.958 193.883 185.416 194.233 185.679C194.517 185.891 194.857 186.128 195.233 186.379M193.39 184.375H151.588C134.964 184.813 115.497 184.557 107.841 184.375C105.289 184.375 100.295 186.344 100.732 194.218C101.17 202.092 103.102 206.248 104.013 207.342V194.218C104.196 192.942 105.216 190.281 107.841 189.843L195.233 186.379M177.803 142.108C178.819 143.338 179.793 144.652 180.698 146.062M177.803 142.108C178.667 143.113 180.456 145.311 180.698 146.062M201.251 142.437C202.09 143.956 202.944 145.5 203.801 147.048M201.251 142.437C201.701 143.156 202.842 145.086 203.801 147.048M61.2334 53.6787C60.0667 53.5121 57.7334 54.0787 57.7334 57.6787C57.7334 61.2787 60.0667 61.8454 61.2334 61.6787C62.2334 61.6787 64.2334 60.8787 64.2334 57.6787C64.2334 54.4787 62.2334 53.6787 61.2334 53.6787ZM80.7334 49.6787C79.5667 49.8454 77.2334 50.8787 77.2334 53.6787C77.2334 56.4787 79.5667 57.1787 80.7334 57.1787C82.0667 57.1787 84.7334 56.4787 84.7334 53.6787C84.7334 50.1787 82.2334 49.6787 80.7334 49.6787Z" stroke="#1C75BC" stroke-width="1.09367"/>
</svg>
