<svg width="182" height="278" viewBox="0 0 182 278" fill="none" xmlns="http://www.w3.org/2000/svg">
<path d="M44.1287 204.685C42.927 204.445 40.5237 204.685 40.5237 207.569C40.5237 210.454 42.927 210.934 44.1287 210.814C45.0901 210.814 47.0128 210.165 47.0128 207.569C47.0128 204.974 45.0901 204.565 44.1287 204.685Z" fill="#1C75BC"/>
<path d="M24.301 212.256C20.2633 211.679 7.23708 223.311 1.22866 229.2C0.868155 234.727 4.2569 249.388 20.6959 263.808C37.135 278.228 54.2229 277.988 60.712 276.065C67.9221 262.799 70.9263 254.916 71.5272 252.632C71.2888 251.768 71.0554 250.929 70.8212 250.109C68.2216 241.009 65.5267 234.315 54.9439 223.071C45.715 213.265 30.6699 211.775 24.301 212.256Z" fill="#1C75BC"/>
<path d="M131.371 5.68657C130.65 5.68657 129.208 6.11917 129.208 7.8496C129.208 9.58002 130.65 10.0126 131.371 10.0126C132.092 10.0126 133.534 9.58002 133.534 7.8496C133.534 6.11917 132.092 5.68657 131.371 5.68657Z" fill="#1C75BC"/>
<path d="M24.301 212.256C20.2633 211.679 7.23708 223.311 1.22866 229.2C0.868155 234.727 4.2569 249.388 20.6959 263.808C37.135 278.228 54.2229 277.988 60.712 276.065C67.9221 262.799 70.9263 254.916 71.5272 252.632C71.2888 251.768 71.0554 250.929 70.8212 250.109M24.301 212.256C30.6699 211.775 45.715 213.265 54.9439 223.071C65.5267 234.315 68.2216 241.009 70.8212 250.109M24.301 212.256C28.7472 208.29 38.0722 200.359 39.8027 200.359C41.5595 200.359 44.2676 200.121 47.7338 200.998M70.8212 250.109C72.4985 247.345 76.2858 241.024 78.0162 237.852C79.7466 234.679 78.0162 229.32 76.9347 227.037C65.759 206.488 54.9439 203.604 50.2573 201.801C49.3772 201.463 48.5352 201.201 47.7338 200.998M47.7338 200.998C50.4977 197.661 56.1696 190.914 56.7464 190.626C57.4674 190.265 55.6649 158.541 75.4927 141.237M75.4927 141.237V154.675M75.4927 141.237L87.0288 13.9782L87.7499 8.2101C87.7499 5.80674 89.1198 1 94.5995 1C100.079 1 143.748 4.60505 164.898 6.40758M65.3985 166.472C66.6522 163.289 69.8368 158.842 75.4927 154.675M79.0977 208.29C90.101 198.938 91.4839 178.347 90.754 167.914M75.4927 154.675C77.6475 153.088 80.1611 151.541 83.0633 150.121M164.898 6.40758C167.902 6.28741 173.911 7.6333 173.911 13.9782C173.911 20.3231 165.018 116.842 160.572 164.309C160.572 167.073 158.193 172.528 148.675 172.24M164.898 6.40758C177.876 6.40758 180.88 11.4547 180.76 13.9782C176.554 60.4834 167.926 155.801 167.061 165.03C166.196 174.259 154.443 173.682 148.675 172.24M148.675 172.24C144.222 172.105 134.613 171.439 124.077 170.632M90.754 167.914C90.7186 167.409 90.6783 166.927 90.6339 166.472C95.606 165.361 99.7729 164.047 103.252 162.61M90.754 167.914C98.9167 168.617 112.096 169.715 124.077 170.632M83.0633 150.121C82.4865 149.153 90.5137 60.3977 94.5995 16.1412C94.5995 14.3387 95.681 10.7336 100.007 10.7336C105.415 10.7336 121.277 9.65212 161.293 16.5017C163.095 16.9824 166.556 19.3137 165.979 24.7933C165.258 31.6429 155.525 152.773 154.804 156.017C154.083 159.262 156.606 165.03 144.349 165.03C134.543 165.03 112.865 163.417 103.252 162.61M83.0633 150.121C88.093 147.659 94.2899 145.577 101.81 144.32M103.252 162.61C107.897 160.69 111.315 158.55 113.785 156.378M90.6339 147.005C90.2734 144.842 90.8502 140.443 96.0415 140.155C101.233 139.867 102.05 142.811 101.81 144.32M101.81 144.32C104.519 143.866 107.401 143.52 110.462 143.302M110.462 143.302C113.201 143.107 116.083 143.014 119.114 143.039C120.144 146.062 119.549 151.307 113.785 156.378M110.462 143.302C111.303 141.893 113.995 139.001 118.032 138.713C123.079 138.352 127.405 141.237 127.405 149.168C127.405 155.513 121.878 157.579 119.114 157.82C118.325 157.82 116.155 157.531 113.785 156.378M91.3549 131.142L107.217 131.863M112.625 132.945H121.637M125.603 134.387H132.453M134.976 135.108L149.036 136.189M78.0162 228.974C80.398 225.093 86.1422 217.391 90.0644 217.636C93.9865 217.882 99.4611 211.027 101.708 207.569C107.122 195.625 119.174 171.515 124.077 170.632M44.1287 204.685C42.927 204.445 40.5237 204.685 40.5237 207.569C40.5237 210.454 42.927 210.934 44.1287 210.814C45.0901 210.814 47.0128 210.165 47.0128 207.569C47.0128 204.974 45.0901 204.565 44.1287 204.685ZM131.371 5.68657C130.65 5.68657 129.208 6.11917 129.208 7.8496C129.208 9.58002 130.65 10.0126 131.371 10.0126C132.092 10.0126 133.534 9.58002 133.534 7.8496C133.534 6.11917 132.092 5.68657 131.371 5.68657ZM140.744 144.842C138.701 144.962 134.543 146.428 134.255 151.331C133.967 156.234 138.461 157.459 140.744 157.459C142.911 157.459 147.207 156.234 147.059 151.331C146.873 145.202 142.547 144.842 140.744 144.842Z" stroke="#1C75BC" stroke-width="0.865919"/>
<path d="M118.733 113.236C120.743 116.201 123.996 117.415 125.372 117.651C126.511 117.69 129.556 117.045 132.617 114.153C132.181 112.39 130.257 108.748 126.052 108.288C121.847 107.829 119.142 110.965 118.315 112.59C118.448 112.807 118.588 113.022 118.733 113.236Z" fill="#1C75BC"/>
<path d="M127.025 99.3863C125.659 99.3228 122.893 99.9813 122.755 103.123C122.764 104.354 123.463 106.856 126.191 107.017C128.918 107.177 130.011 105.032 130.216 103.939C130.424 102.56 130.077 99.7199 127.025 99.3863Z" fill="#1C75BC"/>
<path d="M122.669 96.8511L119.749 96.8752M122.669 96.8511C123.188 95.5065 124.981 92.9686 128.003 93.5735C131.026 94.1783 131.81 96.6778 131.825 97.8519M122.669 96.8511C124.729 96.9705 128.711 97.3062 131.825 97.8519M119.749 96.8752C118.327 97.063 115.482 98.2447 115.472 101.47C115.461 105.267 116.136 109.064 118.315 112.59M119.749 96.8752C119.99 94.6709 121.975 90.3237 127.988 90.5691C134.001 90.8145 134.949 95.9626 134.671 98.506M132.617 114.153C129.556 117.045 126.511 117.69 125.372 117.651C123.996 117.415 120.743 116.201 118.733 113.236C118.588 113.022 118.448 112.807 118.315 112.59M132.617 114.153C135.679 111.262 137.04 106.658 137.338 104.717C137.664 103.037 137.588 99.4426 134.671 98.506M132.617 114.153C132.181 112.39 130.257 108.748 126.052 108.288C121.847 107.829 119.142 110.965 118.315 112.59M134.671 98.506C133.911 98.2621 132.922 98.044 131.825 97.8519M127.025 99.3863C125.659 99.3228 122.893 99.9813 122.755 103.123C122.764 104.354 123.463 106.856 126.191 107.017C128.918 107.177 130.011 105.032 130.216 103.939C130.424 102.56 130.077 99.7199 127.025 99.3863Z" stroke="#1C75BC" stroke-width="0.865919"/>
<path d="M138.4 39.1939C137.008 38.2794 135.851 38.9108 135.446 39.3408L131.181 45.9929C132.291 48.077 133.543 50.4428 134.74 52.7085C136.722 52.8493 141.062 53.1106 142.566 53.0293C144.07 52.9481 144.551 51.8008 144.604 51.2373C144.766 49.029 143.437 48.4804 142.752 48.4821L134.906 48.1605L138.532 42.5038C139.068 41.7815 139.791 40.1083 138.4 39.1939Z" fill="#1C75BC"/>
<path d="M137.093 62.3613C138.4 61.8433 138.377 60.0918 138.201 59.2809C137.288 57.5423 136.048 55.1852 134.74 52.7085C133.543 50.4428 132.291 48.077 131.181 45.9929L128.34 50.4231L130.648 54.7736L134.183 61.4383C134.608 61.9618 135.785 62.8793 137.093 62.3613Z" fill="#1C75BC"/>
<path d="M127.053 47.9965L119.653 47.6932C118.875 47.7873 117.301 48.4213 117.228 50.2046C117.155 51.9878 118.991 52.2119 119.919 52.1011L127.076 52.3945L128.34 50.4231L127.053 47.9965Z" fill="#1C75BC"/>
<path d="M122.947 58.8343C122.706 59.6282 122.613 61.3391 124.164 61.8314C125.716 62.3237 129.133 57.3314 130.648 54.7736L128.34 50.4231L127.076 52.3945L122.947 58.8343Z" fill="#1C75BC"/>
<path d="M128.002 40.1074C126.669 37.7664 125.053 37.9622 124.412 38.3527C122.736 39.1414 123.319 41.0468 123.82 41.9008L127.053 47.9965L128.34 50.4231L131.181 45.9929C129.725 43.2587 128.516 41.0094 128.002 40.1074Z" fill="#1C75BC"/>
<path d="M106.113 71.3754C105.88 71.3646 105.669 71.3135 105.479 71.2222C105.289 71.1279 105.128 71.0011 104.997 70.8418C104.866 70.6825 104.767 70.4983 104.702 70.2891C104.64 70.08 104.619 69.8537 104.639 69.6102C104.659 69.3637 104.718 69.1397 104.814 68.938C104.911 68.7364 105.038 68.5626 105.194 68.4168C105.351 68.2709 105.532 68.1616 105.735 68.0886C105.94 68.0127 106.158 67.9802 106.39 67.9911C106.617 68.0016 106.816 68.0507 106.989 68.1383C107.165 68.226 107.309 68.3358 107.422 68.4678C107.538 68.5998 107.616 68.739 107.657 68.8852L107.253 69.0563C107.193 68.862 107.086 68.7054 106.934 68.5863C106.781 68.4673 106.589 68.4024 106.357 68.3915C106.127 68.3808 105.918 68.4255 105.73 68.5257C105.545 68.626 105.394 68.7707 105.278 68.9596C105.162 69.1486 105.093 69.3722 105.071 69.6304C105.05 69.8856 105.081 70.1124 105.165 70.3107C105.252 70.5091 105.379 70.6667 105.546 70.7835C105.717 70.9005 105.917 70.9643 106.146 70.975C106.346 70.9843 106.53 70.9502 106.699 70.8727C106.868 70.7952 107.006 70.6838 107.112 70.5385C107.219 70.3933 107.28 70.2224 107.297 70.0258L107.314 69.8234L107.497 70.0175L106.226 69.9582L106.257 69.5841L107.766 69.6546L107.742 69.945C107.723 70.1738 107.666 70.3788 107.571 70.56C107.476 70.7411 107.354 70.8944 107.205 71.02C107.056 71.1426 106.888 71.2349 106.699 71.2968C106.511 71.3587 106.316 71.3849 106.113 71.3754ZM109.282 71.5234C109.052 71.5127 108.849 71.4502 108.673 71.3359C108.497 71.2187 108.362 71.0637 108.269 70.8708C108.176 70.678 108.139 70.4628 108.159 70.2251C108.178 69.9875 108.249 69.7787 108.37 69.5988C108.494 69.4191 108.654 69.2792 108.848 69.1793C109.042 69.0794 109.256 69.0349 109.488 69.0457C109.717 69.0565 109.92 69.1204 110.096 69.2376C110.273 69.3519 110.406 69.5039 110.497 69.6937C110.59 69.8836 110.627 70.0988 110.607 70.3394C110.587 70.58 110.513 70.7915 110.386 70.9741C110.259 71.1537 110.098 71.2935 109.904 71.3934C109.712 71.4905 109.505 71.5338 109.282 71.5234ZM109.315 71.1273C109.462 71.1342 109.597 71.1037 109.721 71.0358C109.847 70.9681 109.95 70.8713 110.028 70.7454C110.11 70.6196 110.157 70.4774 110.17 70.319C110.184 70.1577 110.16 70.0137 110.1 69.8872C110.043 69.7579 109.957 69.6537 109.842 69.5748C109.731 69.493 109.602 69.4487 109.455 69.4418C109.305 69.4348 109.167 69.4666 109.04 69.5373C108.916 69.6051 108.813 69.7005 108.732 69.8234C108.652 69.9433 108.604 70.0839 108.591 70.2453C108.578 70.4037 108.601 70.5491 108.661 70.6815C108.721 70.8139 108.806 70.9195 108.918 70.9983C109.032 71.0773 109.165 71.1203 109.315 71.1273ZM112.168 71.6581C111.938 71.6474 111.736 71.5849 111.559 71.4707C111.383 71.3535 111.248 71.1984 111.155 71.0056C111.062 70.8127 111.025 70.5975 111.045 70.3599C111.065 70.1222 111.135 69.9134 111.256 69.7336C111.381 69.5538 111.54 69.414 111.734 69.3141C111.929 69.2142 112.142 69.1696 112.374 69.1805C112.604 69.1912 112.806 69.2551 112.983 69.3724C113.159 69.4866 113.293 69.6386 113.383 69.8284C113.476 70.0183 113.513 70.2336 113.493 70.4741C113.473 70.7147 113.399 70.9263 113.272 71.1088C113.145 71.2884 112.984 71.4282 112.79 71.5281C112.599 71.6252 112.391 71.6686 112.168 71.6581ZM112.201 71.2621C112.348 71.2689 112.483 71.2384 112.607 71.1706C112.734 71.1028 112.836 71.006 112.915 70.8801C112.996 70.7543 113.043 70.6122 113.056 70.4538C113.07 70.2924 113.046 70.1485 112.986 70.0219C112.929 69.8926 112.843 69.7885 112.729 69.7095C112.617 69.6277 112.488 69.5834 112.341 69.5766C112.191 69.5696 112.053 69.6014 111.926 69.672C111.802 69.7399 111.7 69.8352 111.619 69.9581C111.538 70.078 111.491 70.2187 111.477 70.38C111.464 70.5385 111.487 70.6839 111.547 70.8163C111.607 70.9486 111.693 71.0542 111.804 71.1331C111.919 71.2121 112.051 71.255 112.201 71.2621ZM114.982 72.7084C114.815 72.7006 114.661 72.6669 114.521 72.6074C114.385 72.548 114.269 72.4689 114.173 72.3703C114.081 72.2746 114.014 72.164 113.971 72.0383L114.369 71.8802C114.401 71.9936 114.471 72.0911 114.58 72.1727C114.691 72.2574 114.834 72.3039 115.011 72.3121C115.146 72.3185 115.27 72.2978 115.384 72.25C115.499 72.2054 115.594 72.1332 115.667 72.0335C115.74 71.9368 115.783 71.8166 115.795 71.6728L115.839 71.1403L115.908 71.223C115.812 71.3805 115.682 71.4982 115.519 71.576C115.359 71.654 115.187 71.6886 115.001 71.68C114.778 71.6695 114.582 71.6088 114.414 71.4979C114.247 71.3841 114.12 71.2353 114.035 71.0517C113.95 70.8651 113.917 70.6618 113.936 70.4418C113.954 70.2188 114.021 70.0202 114.136 69.8459C114.251 69.6716 114.399 69.5371 114.581 69.4426C114.766 69.3452 114.971 69.3017 115.194 69.3121C115.38 69.3208 115.544 69.3712 115.686 69.4632C115.833 69.5525 115.945 69.6726 116.024 69.8236L115.953 69.9307L115.997 69.4026L116.399 69.4214L116.209 71.6922C116.192 71.8975 116.129 72.0786 116.018 72.2355C115.908 72.3923 115.762 72.5121 115.581 72.595C115.402 72.6809 115.203 72.7187 114.982 72.7084ZM115.07 71.2855C115.211 71.2921 115.34 71.2628 115.458 71.1976C115.578 71.1326 115.677 71.0429 115.755 70.9287C115.833 70.8116 115.877 70.6797 115.89 70.533C115.902 70.3893 115.879 70.2556 115.821 70.1322C115.764 70.0088 115.68 69.9092 115.572 69.8334C115.466 69.7578 115.342 69.7166 115.201 69.7101C115.057 69.7033 114.923 69.7324 114.8 69.7973C114.676 69.8623 114.575 69.9533 114.498 70.0704C114.423 70.1848 114.38 70.3153 114.368 70.462C114.356 70.6087 114.377 70.7437 114.432 70.867C114.489 70.9875 114.573 71.0856 114.682 71.1614C114.793 71.2373 114.923 71.2787 115.07 71.2855ZM116.837 71.8231L117.114 68.4917L117.525 68.5108L117.247 71.8422L116.837 71.8231ZM118.973 71.9758C118.744 71.9651 118.544 71.9013 118.374 71.7844C118.203 71.6674 118.075 71.5127 117.987 71.3201C117.9 71.1246 117.867 70.9095 117.886 70.6748C117.906 70.4372 117.973 70.2283 118.089 70.0481C118.207 69.8681 118.357 69.7293 118.54 69.6318C118.725 69.5315 118.927 69.4864 119.144 69.4965C119.321 69.5048 119.474 69.5443 119.604 69.6152C119.737 69.6832 119.846 69.7738 119.931 69.8867C120.019 69.9968 120.083 70.122 120.121 70.2623C120.163 70.3997 120.178 70.5417 120.166 70.6884C120.163 70.7207 120.157 70.7572 120.148 70.798C120.141 70.836 120.134 70.8725 120.125 70.9074L118.175 70.8164L118.205 70.4644L119.916 70.5443L119.709 70.6936C119.748 70.5423 119.745 70.4052 119.699 70.2823C119.653 70.1594 119.579 70.0602 119.476 69.9847C119.373 69.9092 119.252 69.8683 119.114 69.8618C118.976 69.8554 118.846 69.8847 118.726 69.9497C118.605 70.0148 118.507 70.1118 118.431 70.2408C118.359 70.367 118.321 70.5199 118.318 70.6994C118.292 70.8719 118.306 71.0257 118.359 71.1608C118.416 71.293 118.502 71.3986 118.616 71.4776C118.734 71.5538 118.865 71.5952 119.009 71.602C119.168 71.6094 119.305 71.5789 119.42 71.5107C119.534 71.4424 119.63 71.3526 119.708 71.2414L120.037 71.4335C119.981 71.5398 119.899 71.6362 119.792 71.7224C119.687 71.8059 119.565 71.8709 119.425 71.9174C119.289 71.964 119.138 71.9835 118.973 71.9758ZM122.048 72.1194C121.893 72.1121 121.757 72.0778 121.641 72.0164C121.528 71.9522 121.442 71.8687 121.383 71.7658C121.324 71.6599 121.3 71.541 121.311 71.409C121.321 71.2828 121.357 71.1711 121.418 71.0738C121.483 70.9738 121.575 70.8912 121.696 70.8261C121.819 70.7612 121.97 70.7182 122.149 70.6971L123.044 70.5931L123.015 70.9363L122.214 71.0315C122.059 71.0507 121.943 71.0939 121.867 71.1611C121.793 71.2283 121.752 71.3133 121.744 71.416C121.736 71.5128 121.767 71.5953 121.838 71.6634C121.912 71.7316 122.008 71.7685 122.126 71.774C122.276 71.781 122.408 71.7562 122.522 71.6997C122.639 71.6404 122.733 71.5579 122.804 71.4522C122.877 71.3467 122.92 71.2279 122.931 71.0959L122.981 70.493C122.992 70.3639 122.952 70.2574 122.861 70.1737C122.774 70.0872 122.653 70.0403 122.497 70.033C122.361 70.0267 122.238 70.0562 122.126 70.1217C122.018 70.1844 121.934 70.2718 121.874 70.3838L121.532 70.1823C121.585 70.0758 121.664 69.9823 121.768 69.9018C121.873 69.8183 121.991 69.7546 122.125 69.7108C122.259 69.667 122.396 69.6483 122.537 69.6549C122.719 69.6634 122.877 69.7061 123.009 69.783C123.142 69.8569 123.241 69.9573 123.307 70.0841C123.377 70.2081 123.405 70.3507 123.391 70.5121L123.257 72.1228L122.856 72.104L122.893 71.6552L122.966 71.6851C122.908 71.7766 122.834 71.8556 122.742 71.922C122.651 71.9885 122.547 72.0395 122.429 72.0753C122.31 72.111 122.184 72.1257 122.048 72.1194ZM124.731 72.2446C124.561 72.2367 124.41 72.1898 124.278 72.1042C124.149 72.0186 124.053 71.9037 123.988 71.7593C123.926 71.6121 123.903 71.4461 123.919 71.2613L124.042 69.7782L124.452 69.7973L124.333 71.2364C124.323 71.3538 124.338 71.4575 124.378 71.5477C124.42 71.6381 124.482 71.7102 124.563 71.7641C124.647 71.8181 124.745 71.8477 124.857 71.8529C124.969 71.8581 125.069 71.8378 125.159 71.7919C125.251 71.7461 125.325 71.6774 125.38 71.5857C125.437 71.4941 125.472 71.3838 125.482 71.2547L125.599 69.8509L126.014 69.8702L125.816 72.2423L125.415 72.2235L125.454 71.7614L125.516 71.8041C125.448 71.9512 125.343 72.064 125.2 72.1428C125.061 72.2188 124.905 72.2527 124.731 72.2446ZM127.416 72.3434C127.184 72.3326 127.01 72.2582 126.894 72.1203C126.782 71.9825 126.735 71.7933 126.755 71.5527L126.86 70.3029L126.427 70.2827L126.46 69.8911L126.548 69.8952C126.654 69.9001 126.74 69.8718 126.808 69.8101C126.875 69.7484 126.913 69.6648 126.921 69.5592L126.938 69.3655L127.348 69.3847L127.302 69.9304L127.836 69.9553L127.804 70.347L127.27 70.3221L127.167 71.5587C127.16 71.6379 127.166 71.7074 127.185 71.7672C127.206 71.8271 127.245 71.876 127.301 71.914C127.357 71.949 127.434 71.9688 127.531 71.9733C127.551 71.9742 127.577 71.9739 127.606 71.9724C127.639 71.971 127.668 71.9694 127.695 71.9677L127.665 72.3286C127.626 72.3356 127.583 72.3395 127.536 72.3402C127.488 72.3439 127.448 72.3449 127.416 72.3434ZM128.201 72.3536L128.478 69.0222L128.889 69.0413L128.77 70.4628L128.699 70.4197C128.77 70.2728 128.874 70.1613 129.01 70.0852C129.149 70.0063 129.307 69.971 129.484 69.9792C129.654 69.9872 129.802 70.0324 129.928 70.1148C130.057 70.1974 130.154 70.308 130.22 70.4465C130.288 70.5852 130.315 70.7396 130.301 70.9098L130.173 72.4456L129.758 72.4263L129.875 71.0224C129.886 70.8904 129.87 70.7777 129.828 70.6845C129.788 70.5913 129.728 70.5178 129.647 70.464C129.566 70.4072 129.47 70.3762 129.358 70.371C129.249 70.3659 129.149 70.3877 129.056 70.4364C128.964 70.4821 128.888 70.5508 128.831 70.6423C128.773 70.7309 128.739 70.8398 128.728 70.9689L128.611 72.3727L128.201 72.3536ZM131.849 72.5769C131.62 72.5662 131.42 72.5024 131.25 72.3855C131.079 72.2685 130.951 72.1138 130.863 71.9212C130.776 71.7257 130.743 71.5106 130.762 71.2759C130.782 71.0383 130.849 70.8293 130.965 70.6492C131.083 70.4692 131.233 70.3304 131.416 70.2329C131.601 70.1325 131.803 70.0875 132.02 70.0976C132.197 70.1059 132.35 70.1454 132.48 70.2163C132.613 70.2843 132.722 70.3748 132.807 70.4878C132.895 70.5979 132.959 70.7231 132.997 70.8633C133.039 71.0008 133.054 71.1428 133.042 71.2895C133.039 71.3218 133.033 71.3583 133.024 71.3991C133.017 71.4371 133.01 71.4736 133.001 71.5085L131.051 71.4175L131.081 71.0655L132.792 71.1454L132.585 71.2947C132.624 71.1434 132.621 71.0063 132.575 70.8834C132.529 70.7605 132.455 70.6613 132.352 70.5858C132.249 70.5103 132.128 70.4693 131.99 70.4629C131.852 70.4564 131.722 70.4857 131.602 70.5508C131.481 70.6159 131.383 70.7129 131.307 70.8419C131.235 70.9681 131.197 71.121 131.194 71.3005C131.168 71.473 131.182 71.6268 131.235 71.7619C131.292 71.8941 131.378 71.9997 131.492 72.0787C131.61 72.1549 131.741 72.1963 131.885 72.2031C132.044 72.2105 132.181 72.18 132.296 72.1118C132.41 72.0435 132.507 71.9537 132.584 71.8425L132.913 72.0346C132.857 72.1409 132.775 72.2372 132.668 72.3235C132.563 72.407 132.441 72.472 132.302 72.5185C132.165 72.5651 132.014 72.5846 131.849 72.5769ZM133.469 72.5995L133.667 70.2275L134.068 70.2462L134.03 70.7083L133.967 70.6656C134.038 70.5188 134.142 70.4073 134.278 70.3312C134.418 70.2522 134.576 70.2169 134.752 70.2252C134.923 70.2331 135.071 70.2783 135.197 70.3608C135.326 70.4434 135.423 70.5539 135.488 70.6925C135.556 70.8311 135.583 70.9855 135.569 71.1557L135.441 72.6916L135.027 72.6722L135.143 71.2684C135.154 71.1363 135.14 71.0238 135.101 70.9306C135.061 70.8375 135 70.7639 134.915 70.7099C134.835 70.6531 134.738 70.6221 134.626 70.6169C134.515 70.6117 134.413 70.6334 134.32 70.6821C134.23 70.728 134.157 70.7967 134.099 70.8883C134.041 70.9769 134.007 71.0857 133.997 71.2148L133.88 72.6187L133.469 72.5995ZM136.992 72.7905C136.76 72.7796 136.586 72.7052 136.47 72.5673C136.358 72.4295 136.312 72.2404 136.332 71.9998L136.436 70.75L136.004 70.7298L136.036 70.3381L136.124 70.3422C136.23 70.3472 136.317 70.3188 136.384 70.2571C136.451 70.1955 136.489 70.1118 136.498 70.0062L136.514 69.8126L136.924 69.8317L136.879 70.3774L137.412 70.4024L137.38 70.794L136.846 70.7691L136.743 72.0057C136.736 72.0849 136.742 72.1544 136.761 72.2142C136.783 72.2741 136.821 72.3231 136.877 72.361C136.933 72.396 137.01 72.4158 137.107 72.4203C137.128 72.4213 137.153 72.421 137.182 72.4194C137.215 72.418 137.245 72.4164 137.271 72.4147L137.241 72.7756C137.202 72.7826 137.159 72.7865 137.112 72.7872C137.064 72.7909 137.024 72.792 136.992 72.7905ZM137.777 72.8006L137.975 70.4286L138.385 70.4478L138.187 72.8198L137.777 72.8006ZM138.006 70.0501L138.05 69.5221L138.46 69.5412L138.417 70.0693L138.006 70.0501ZM139.922 72.9538C139.69 72.9429 139.487 72.879 139.314 72.7619C139.144 72.645 139.015 72.4902 138.928 72.2977C138.84 72.1051 138.806 71.8915 138.826 71.6568C138.846 71.4191 138.915 71.2103 139.033 71.0303C139.151 70.8502 139.305 70.7101 139.493 70.6099C139.685 70.5099 139.896 70.4653 140.129 70.4762C140.285 70.4834 140.428 70.5181 140.559 70.5802C140.689 70.6422 140.802 70.7226 140.897 70.8213C140.992 70.92 141.058 71.0335 141.095 71.1618L140.714 71.3208C140.668 71.1949 140.591 71.0912 140.483 71.0096C140.375 70.925 140.246 70.8792 140.096 70.8722C139.952 70.8655 139.818 70.8961 139.694 70.9639C139.573 71.0319 139.474 71.1274 139.396 71.2504C139.317 71.3734 139.272 71.517 139.258 71.6813C139.245 71.8398 139.267 71.9851 139.323 72.1173C139.381 72.2467 139.463 72.3507 139.572 72.4294C139.684 72.5082 139.811 72.551 139.955 72.5577C140.105 72.5647 140.241 72.5328 140.362 72.4618C140.483 72.388 140.577 72.2878 140.644 72.1613L140.995 72.3632C140.937 72.4843 140.853 72.5908 140.742 72.6828C140.631 72.7719 140.506 72.8411 140.366 72.8906C140.226 72.94 140.078 72.9611 139.922 72.9538ZM142.144 73.0575C141.989 73.0502 141.853 73.0159 141.737 72.9545C141.624 72.8904 141.538 72.8068 141.479 72.7039C141.419 72.5981 141.395 72.4791 141.406 72.3471C141.417 72.221 141.453 72.1093 141.514 72.012C141.578 71.9119 141.671 71.8293 141.792 71.7643C141.915 71.6993 142.066 71.6563 142.245 71.6352L143.139 71.5312L143.111 71.8745L142.31 71.9696C142.155 71.9889 142.039 72.0321 141.963 72.0992C141.889 72.1664 141.848 72.2514 141.84 72.3541C141.832 72.4509 141.863 72.5334 141.934 72.6015C142.008 72.6698 142.104 72.7066 142.222 72.7121C142.372 72.7191 142.504 72.6944 142.618 72.6378C142.735 72.5785 142.829 72.496 142.9 72.3903C142.973 72.2848 143.016 72.166 143.027 72.034L143.077 71.4311C143.088 71.302 143.048 71.1956 142.957 71.1118C142.87 71.0253 142.749 70.9784 142.593 70.9711C142.457 70.9648 142.334 70.9944 142.222 71.0598C142.114 71.1225 142.03 71.2099 141.97 71.322L141.628 71.1205C141.681 71.014 141.76 70.9205 141.864 70.8399C141.968 70.7564 142.087 70.6928 142.221 70.6489C142.355 70.6051 142.492 70.5865 142.633 70.5931C142.815 70.6016 142.973 70.6443 143.105 70.7211C143.238 70.7951 143.337 70.8954 143.403 71.0222C143.473 71.1462 143.501 71.2889 143.487 71.4502L143.353 73.0609L142.952 73.0422L142.989 72.5933L143.062 72.6232C143.004 72.7148 142.929 72.7937 142.838 72.8602C142.747 72.9266 142.643 72.9777 142.524 73.0134C142.406 73.0491 142.28 73.0638 142.144 73.0575ZM144.91 73.1601C144.678 73.1493 144.504 73.0749 144.388 72.9369C144.276 72.7992 144.229 72.61 144.249 72.3694L144.354 71.1196L143.921 71.0994L143.954 70.7077L144.042 70.7119C144.148 70.7168 144.234 70.6884 144.302 70.6268C144.369 70.5651 144.407 70.4815 144.415 70.3759L144.432 70.1822L144.842 70.2014L144.796 70.7471L145.33 70.772L145.298 71.1636L144.764 71.1387L144.661 72.3753C144.654 72.4546 144.66 72.5241 144.679 72.5838C144.7 72.6437 144.739 72.6927 144.795 72.7306C144.851 72.7656 144.928 72.7854 145.025 72.79C145.045 72.7909 145.071 72.7906 145.1 72.7891C145.133 72.7876 145.162 72.7861 145.189 72.7844L145.159 73.1452C145.12 73.1522 145.077 73.1561 145.03 73.1569C144.982 73.1605 144.942 73.1616 144.91 73.1601ZM146.755 73.2728C146.526 73.262 146.323 73.1996 146.146 73.0853C145.97 72.9681 145.836 72.8131 145.742 72.6202C145.649 72.4274 145.612 72.2121 145.632 71.9745C145.652 71.7369 145.723 71.5281 145.844 71.3482C145.968 71.1684 146.127 71.0286 146.322 70.9287C146.516 70.8288 146.729 70.7843 146.962 70.7951C147.191 70.8058 147.394 70.8698 147.57 70.987C147.746 71.1013 147.88 71.2533 147.97 71.4431C148.064 71.633 148.101 71.8482 148.08 72.0888C148.06 72.3294 147.987 72.5409 147.859 72.7235C147.732 72.9031 147.572 73.0428 147.377 73.1427C147.186 73.2399 146.979 73.2832 146.755 73.2728ZM146.788 72.8767C146.935 72.8836 147.071 72.8531 147.194 72.7852C147.321 72.7175 147.424 72.6207 147.502 72.4947C147.583 72.3689 147.631 72.2268 147.644 72.0684C147.657 71.907 147.634 71.7631 147.573 71.6366C147.516 71.5073 147.431 71.4031 147.316 71.3241C147.205 71.2424 147.076 71.1981 146.929 71.1912C146.779 71.1842 146.64 71.216 146.513 71.2867C146.389 71.3545 146.287 71.4499 146.206 71.5727C146.125 71.6927 146.078 71.8333 146.065 71.9947C146.051 72.1531 146.075 72.2985 146.135 72.4309C146.194 72.5633 146.28 72.6689 146.392 72.7477C146.506 72.8267 146.638 72.8697 146.788 72.8767ZM148.517 73.302L148.714 70.93L149.116 70.9487L149.079 71.3844L149.04 71.3207C149.107 71.1884 149.201 71.0926 149.321 71.0334C149.441 70.9713 149.584 70.944 149.749 70.9517L149.894 70.9585L149.862 71.3458L149.655 71.3361C149.487 71.3283 149.347 71.3748 149.236 71.4756C149.124 71.5735 149.06 71.7178 149.044 71.9085L148.927 73.3211L148.517 73.302Z" fill="#1C75BC"/>
<path d="M100.748 123.885L101.021 120.606L101.418 120.625L102.503 122.429L102.3 122.42L103.668 120.73L104.065 120.748L103.792 124.027L103.355 124.006L103.583 121.273L103.733 121.329L102.368 122.988L102.333 122.987L101.267 121.214L101.408 121.172L101.18 123.905L100.748 123.885ZM104.473 124.059L104.671 121.686L105.081 121.706L104.883 124.078L104.473 124.059ZM104.702 121.308L104.746 120.78L105.156 120.799L105.112 121.327L104.702 121.308ZM106.618 124.212C106.386 124.201 106.183 124.137 106.01 124.02C105.84 123.903 105.711 123.748 105.624 123.556C105.536 123.363 105.502 123.149 105.522 122.915C105.542 122.677 105.611 122.468 105.729 122.288C105.847 122.108 106.001 121.968 106.189 121.868C106.381 121.768 106.592 121.723 106.825 121.734C106.981 121.741 107.124 121.776 107.254 121.838C107.385 121.9 107.498 121.98 107.593 122.079C107.688 122.178 107.754 122.291 107.791 122.42L107.41 122.579C107.364 122.453 107.287 122.349 107.179 122.267C107.071 122.183 106.942 122.137 106.792 122.13C106.648 122.123 106.514 122.154 106.39 122.222C106.269 122.29 106.17 122.385 106.092 122.508C106.013 122.631 105.968 122.775 105.954 122.939C105.941 123.098 105.962 123.243 106.019 123.375C106.077 123.505 106.159 123.609 106.268 123.687C106.379 123.766 106.507 123.809 106.651 123.816C106.801 123.823 106.937 123.791 107.058 123.72C107.179 123.646 107.273 123.546 107.34 123.419L107.691 123.621C107.633 123.742 107.549 123.849 107.438 123.941C107.327 124.03 107.202 124.099 107.062 124.148C106.922 124.198 106.774 124.219 106.618 124.212ZM108.178 124.231L108.375 121.859L108.777 121.878L108.741 122.314L108.702 122.25C108.769 122.118 108.862 122.022 108.982 121.963C109.103 121.901 109.245 121.874 109.41 121.881L109.555 121.888L109.523 122.275L109.316 122.266C109.148 122.258 109.009 122.304 108.897 122.405C108.785 122.503 108.722 122.647 108.706 122.838L108.588 124.251L108.178 124.231ZM110.845 124.409C110.616 124.398 110.413 124.336 110.236 124.222C110.06 124.104 109.925 123.949 109.832 123.756C109.739 123.564 109.702 123.348 109.722 123.111C109.742 122.873 109.812 122.664 109.934 122.484C110.058 122.305 110.217 122.165 110.411 122.065C110.606 121.965 110.819 121.921 111.051 121.931C111.281 121.942 111.483 122.006 111.66 122.123C111.836 122.237 111.97 122.389 112.06 122.579C112.154 122.769 112.19 122.984 112.17 123.225C112.15 123.466 112.076 123.677 111.949 123.86C111.822 124.039 111.661 124.179 111.467 124.279C111.276 124.376 111.068 124.419 110.845 124.409ZM110.878 124.013C111.025 124.02 111.16 123.989 111.284 123.921C111.411 123.854 111.513 123.757 111.592 123.631C111.673 123.505 111.72 123.363 111.734 123.205C111.747 123.043 111.724 122.899 111.663 122.773C111.606 122.643 111.52 122.539 111.406 122.46C111.295 122.379 111.165 122.334 111.018 122.327C110.868 122.32 110.73 122.352 110.603 122.423C110.479 122.491 110.377 122.586 110.296 122.709C110.215 122.829 110.168 122.97 110.154 123.131C110.141 123.289 110.164 123.435 110.224 123.567C110.284 123.699 110.37 123.805 110.481 123.884C110.596 123.963 110.728 124.006 110.878 124.013ZM113.453 124.531C113.215 124.52 113.013 124.451 112.846 124.326C112.679 124.2 112.568 124.036 112.511 123.833L112.85 123.69C112.906 123.834 112.989 123.949 113.1 124.037C113.211 124.125 113.339 124.172 113.483 124.179C113.612 124.185 113.722 124.159 113.812 124.101C113.903 124.044 113.952 123.965 113.96 123.865C113.966 123.795 113.95 123.738 113.913 123.695C113.878 123.649 113.834 123.613 113.78 123.587C113.726 123.558 113.676 123.537 113.63 123.523L113.281 123.405C113.072 123.333 112.922 123.238 112.831 123.119C112.744 123 112.706 122.864 112.719 122.712C112.731 122.571 112.776 122.451 112.855 122.351C112.938 122.249 113.043 122.172 113.171 122.119C113.303 122.066 113.446 122.043 113.602 122.05C113.811 122.06 113.993 122.122 114.149 122.235C114.308 122.348 114.415 122.502 114.47 122.696L114.122 122.835C114.079 122.709 114.008 122.608 113.908 122.533C113.808 122.455 113.692 122.412 113.559 122.406C113.439 122.401 113.341 122.427 113.265 122.485C113.189 122.541 113.148 122.614 113.14 122.705C113.135 122.772 113.148 122.829 113.179 122.875C113.211 122.917 113.251 122.951 113.299 122.977C113.348 123 113.395 123.02 113.44 123.037L113.819 123.169C114.009 123.234 114.151 123.328 114.247 123.45C114.346 123.573 114.389 123.716 114.375 123.88C114.364 124.012 114.318 124.129 114.235 124.231C114.153 124.334 114.045 124.411 113.911 124.464C113.776 124.516 113.624 124.539 113.453 124.531ZM115.984 124.649C115.755 124.638 115.552 124.576 115.375 124.461C115.199 124.344 115.064 124.189 114.971 123.996C114.878 123.804 114.841 123.588 114.861 123.351C114.881 123.113 114.952 122.904 115.073 122.724C115.197 122.545 115.356 122.405 115.551 122.305C115.745 122.205 115.958 122.16 116.191 122.171C116.42 122.182 116.623 122.246 116.799 122.363C116.975 122.477 117.109 122.629 117.199 122.819C117.293 123.009 117.329 123.224 117.309 123.465C117.289 123.705 117.216 123.917 117.088 124.1C116.961 124.279 116.8 124.419 116.606 124.519C116.415 124.616 116.208 124.659 115.984 124.649ZM116.017 124.253C116.164 124.26 116.3 124.229 116.423 124.161C116.55 124.094 116.653 123.997 116.731 123.871C116.812 123.745 116.86 123.603 116.873 123.445C116.886 123.283 116.863 123.139 116.802 123.013C116.745 122.883 116.659 122.779 116.545 122.7C116.434 122.619 116.305 122.574 116.158 122.567C116.008 122.56 115.869 122.592 115.742 122.663C115.618 122.731 115.516 122.826 115.435 122.949C115.354 123.069 115.307 123.209 115.294 123.371C115.28 123.529 115.304 123.675 115.363 123.807C115.423 123.939 115.509 124.045 115.621 124.124C115.735 124.203 115.867 124.246 116.017 124.253ZM117.924 124.686L118.089 122.706L117.634 122.685L117.667 122.293L118.121 122.314L118.135 122.147C118.149 121.977 118.198 121.835 118.281 121.721C118.368 121.607 118.475 121.522 118.604 121.467C118.735 121.411 118.878 121.387 119.03 121.394C119.063 121.395 119.098 121.4 119.136 121.407C119.177 121.412 119.21 121.418 119.236 121.425L119.206 121.791C119.183 121.784 119.155 121.779 119.122 121.778C119.09 121.774 119.065 121.771 119.048 121.77C118.913 121.764 118.798 121.791 118.705 121.851C118.614 121.912 118.562 122.017 118.55 122.167L118.536 122.334L119.101 122.36L119.068 122.752L118.503 122.725L118.338 124.706L117.924 124.686ZM120.454 124.831C120.222 124.82 120.048 124.746 119.932 124.608C119.82 124.47 119.774 124.281 119.794 124.04L119.898 122.791L119.465 122.77L119.498 122.379L119.586 122.383C119.692 122.388 119.779 122.359 119.846 122.298C119.913 122.236 119.951 122.152 119.96 122.047L119.976 121.853L120.386 121.872L120.341 122.418L120.874 122.443L120.842 122.835L120.308 122.81L120.205 124.046C120.198 124.126 120.204 124.195 120.223 124.255C120.245 124.315 120.283 124.364 120.339 124.402C120.395 124.437 120.472 124.456 120.569 124.461C120.59 124.462 120.615 124.462 120.644 124.46C120.677 124.459 120.707 124.457 120.733 124.455L120.703 124.816C120.664 124.823 120.621 124.827 120.574 124.828C120.526 124.831 120.486 124.833 120.454 124.831ZM122.694 124.962C122.538 124.955 122.402 124.921 122.287 124.859C122.174 124.795 122.088 124.711 122.028 124.609C121.969 124.503 121.945 124.384 121.956 124.252C121.967 124.126 122.003 124.014 122.064 123.917C122.128 123.817 122.221 123.734 122.341 123.669C122.465 123.604 122.616 123.561 122.795 123.54L123.689 123.436L123.661 123.779L122.86 123.874C122.705 123.894 122.589 123.937 122.513 124.004C122.439 124.071 122.398 124.156 122.39 124.259C122.382 124.356 122.413 124.438 122.484 124.506C122.558 124.574 122.654 124.611 122.772 124.617C122.922 124.624 123.054 124.599 123.168 124.542C123.285 124.483 123.379 124.401 123.449 124.295C123.523 124.189 123.566 124.071 123.577 123.939L123.627 123.336C123.638 123.207 123.598 123.1 123.507 123.016C123.42 122.93 123.298 122.883 123.143 122.876C123.007 122.869 122.884 122.899 122.772 122.964C122.663 123.027 122.579 123.115 122.52 123.227L122.178 123.025C122.231 122.919 122.31 122.825 122.414 122.745C122.518 122.661 122.637 122.597 122.771 122.554C122.904 122.51 123.042 122.491 123.183 122.498C123.365 122.506 123.523 122.549 123.655 122.626C123.788 122.7 123.887 122.8 123.953 122.927C124.022 123.051 124.05 123.194 124.037 123.355L123.903 124.966L123.501 124.947L123.539 124.498L123.612 124.528C123.554 124.619 123.479 124.698 123.388 124.765C123.297 124.831 123.192 124.882 123.074 124.918C122.956 124.954 122.83 124.968 122.694 124.962ZM125.377 125.087C125.207 125.079 125.055 125.033 124.924 124.947C124.795 124.861 124.698 124.746 124.634 124.602C124.572 124.455 124.549 124.289 124.564 124.104L124.688 122.621L125.098 122.64L124.978 124.079C124.969 124.197 124.984 124.3 125.023 124.391C125.066 124.481 125.128 124.553 125.209 124.607C125.293 124.661 125.391 124.69 125.503 124.696C125.614 124.701 125.715 124.681 125.805 124.635C125.897 124.589 125.971 124.52 126.025 124.428C126.083 124.337 126.117 124.227 126.128 124.097L126.245 122.694L126.66 122.713L126.462 125.085L126.061 125.066L126.099 124.604L126.162 124.647C126.094 124.794 125.989 124.907 125.846 124.986C125.707 125.062 125.551 125.095 125.377 125.087ZM128.062 125.186C127.829 125.175 127.655 125.101 127.54 124.963C127.427 124.825 127.381 124.636 127.401 124.395L127.505 123.146L127.073 123.125L127.106 122.734L127.194 122.738C127.3 122.743 127.386 122.715 127.453 122.653C127.521 122.591 127.558 122.508 127.567 122.402L127.583 122.208L127.994 122.227L127.948 122.773L128.482 122.798L128.449 123.19L127.916 123.165L127.813 124.401C127.806 124.481 127.812 124.55 127.831 124.61C127.852 124.67 127.891 124.719 127.947 124.757C128.003 124.792 128.08 124.812 128.177 124.816C128.197 124.817 128.222 124.817 128.252 124.815C128.285 124.814 128.314 124.812 128.341 124.81L128.311 125.171C128.272 125.178 128.229 125.182 128.182 125.183C128.134 125.187 128.094 125.188 128.062 125.186ZM128.847 125.196L129.124 121.865L129.534 121.884L129.416 123.306L129.344 123.262C129.416 123.116 129.519 123.004 129.656 122.928C129.795 122.849 129.953 122.814 130.129 122.822C130.3 122.83 130.448 122.875 130.574 122.958C130.703 123.04 130.8 123.151 130.865 123.289C130.934 123.428 130.961 123.582 130.946 123.753L130.819 125.288L130.404 125.269L130.521 123.865C130.532 123.733 130.516 123.621 130.474 123.527C130.434 123.434 130.374 123.361 130.293 123.307C130.212 123.25 130.116 123.219 130.004 123.214C129.895 123.209 129.794 123.23 129.702 123.279C129.609 123.325 129.534 123.394 129.476 123.485C129.419 123.574 129.385 123.683 129.374 123.812L129.257 125.215L128.847 125.196ZM132.495 125.42C132.266 125.409 132.066 125.345 131.896 125.228C131.725 125.111 131.596 124.957 131.509 124.764C131.422 124.568 131.388 124.353 131.408 124.119C131.428 123.881 131.495 123.672 131.611 123.492C131.729 123.312 131.879 123.173 132.062 123.076C132.247 122.975 132.449 122.93 132.666 122.94C132.843 122.949 132.996 122.988 133.126 123.059C133.259 123.127 133.368 123.218 133.453 123.331C133.541 123.441 133.605 123.566 133.643 123.706C133.685 123.844 133.7 123.986 133.687 124.132C133.685 124.165 133.679 124.201 133.669 124.242C133.663 124.28 133.656 124.316 133.647 124.351L131.697 124.26L131.727 123.908L133.438 123.988L133.231 124.137C133.27 123.986 133.267 123.849 133.221 123.726C133.175 123.603 133.101 123.504 132.998 123.429C132.895 123.353 132.774 123.312 132.636 123.306C132.498 123.299 132.368 123.329 132.248 123.394C132.127 123.459 132.029 123.556 131.953 123.685C131.881 123.811 131.843 123.964 131.84 124.143C131.814 124.316 131.827 124.47 131.881 124.605C131.938 124.737 132.024 124.842 132.138 124.921C132.256 124.998 132.387 125.039 132.531 125.046C132.69 125.053 132.826 125.023 132.941 124.955C133.056 124.886 133.152 124.797 133.229 124.685L133.559 124.877C133.503 124.984 133.421 125.08 133.313 125.166C133.209 125.25 133.087 125.315 132.947 125.361C132.811 125.408 132.66 125.427 132.495 125.42ZM134.115 125.442L134.313 123.07L134.714 123.089L134.676 123.551L134.613 123.508C134.684 123.362 134.788 123.25 134.924 123.174C135.064 123.095 135.221 123.06 135.398 123.068C135.568 123.076 135.717 123.121 135.843 123.204C135.972 123.286 136.069 123.397 136.134 123.535C136.202 123.674 136.229 123.828 136.215 123.998L136.087 125.534L135.672 125.515L135.789 124.111C135.8 123.979 135.786 123.867 135.747 123.773C135.707 123.68 135.645 123.607 135.561 123.553C135.48 123.496 135.384 123.465 135.272 123.46C135.161 123.454 135.058 123.476 134.966 123.525C134.876 123.571 134.803 123.639 134.745 123.731C134.687 123.82 134.653 123.929 134.642 124.058L134.525 125.461L134.115 125.442ZM137.638 125.633C137.406 125.622 137.232 125.548 137.116 125.41C137.004 125.272 136.957 125.083 136.978 124.843L137.082 123.593L136.649 123.573L136.682 123.181L136.77 123.185C136.876 123.19 136.963 123.162 137.03 123.1C137.097 123.038 137.135 122.955 137.144 122.849L137.16 122.655L137.57 122.675L137.524 123.22L138.058 123.245L138.026 123.637L137.492 123.612L137.389 124.848C137.382 124.928 137.388 124.997 137.407 125.057C137.429 125.117 137.467 125.166 137.523 125.204C137.579 125.239 137.656 125.259 137.753 125.263C137.773 125.264 137.799 125.264 137.828 125.262C137.861 125.261 137.89 125.259 137.917 125.258L137.887 125.618C137.848 125.625 137.805 125.629 137.758 125.63C137.71 125.634 137.67 125.635 137.638 125.633ZM138.423 125.643L138.621 123.271L139.031 123.291L138.833 125.663L138.423 125.643ZM138.652 122.893L138.696 122.365L139.106 122.384L139.062 122.912L138.652 122.893ZM140.568 125.797C140.336 125.786 140.133 125.722 139.96 125.605C139.789 125.488 139.661 125.333 139.573 125.14C139.486 124.948 139.452 124.734 139.472 124.5C139.492 124.262 139.561 124.053 139.679 123.873C139.797 123.693 139.951 123.553 140.139 123.453C140.33 123.353 140.542 123.308 140.775 123.319C140.93 123.326 141.074 123.361 141.204 123.423C141.335 123.485 141.448 123.565 141.543 123.664C141.638 123.763 141.704 123.876 141.74 124.005L141.36 124.164C141.314 124.038 141.237 123.934 141.129 123.852C141.021 123.768 140.892 123.722 140.742 123.715C140.597 123.708 140.464 123.739 140.34 123.807C140.219 123.875 140.12 123.97 140.041 124.093C139.963 124.216 139.917 124.36 139.904 124.524C139.89 124.683 139.912 124.828 139.969 124.96C140.026 125.089 140.109 125.193 140.218 125.272C140.329 125.351 140.457 125.394 140.601 125.4C140.751 125.407 140.887 125.376 141.008 125.305C141.129 125.231 141.223 125.131 141.29 125.004L141.64 125.206C141.583 125.327 141.499 125.434 141.388 125.526C141.277 125.615 141.152 125.684 141.012 125.733C140.872 125.783 140.724 125.804 140.568 125.797ZM142.79 125.9C142.634 125.893 142.498 125.859 142.382 125.797C142.27 125.733 142.184 125.65 142.124 125.547C142.065 125.441 142.041 125.322 142.052 125.19C142.063 125.064 142.099 124.952 142.16 124.855C142.224 124.755 142.317 124.672 142.437 124.607C142.561 124.542 142.712 124.499 142.891 124.478L143.785 124.374L143.757 124.717L142.956 124.812C142.801 124.832 142.685 124.875 142.609 124.942C142.535 125.009 142.494 125.094 142.486 125.197C142.478 125.294 142.509 125.376 142.58 125.444C142.654 125.513 142.75 125.549 142.868 125.555C143.018 125.562 143.15 125.537 143.264 125.481C143.381 125.421 143.475 125.339 143.545 125.233C143.619 125.128 143.662 125.009 143.673 124.877L143.723 124.274C143.733 124.145 143.694 124.038 143.603 123.955C143.516 123.868 143.394 123.821 143.238 123.814C143.103 123.808 142.98 123.837 142.868 123.903C142.759 123.965 142.675 124.053 142.616 124.165L142.274 123.963C142.327 123.857 142.406 123.763 142.51 123.683C142.614 123.599 142.733 123.536 142.867 123.492C143 123.448 143.138 123.429 143.279 123.436C143.461 123.444 143.618 123.487 143.751 123.564C143.883 123.638 143.983 123.738 144.049 123.865C144.118 123.989 144.146 124.132 144.133 124.293L143.999 125.904L143.597 125.885L143.635 125.436L143.708 125.466C143.65 125.558 143.575 125.637 143.484 125.703C143.393 125.769 143.288 125.82 143.17 125.856C143.052 125.892 142.925 125.907 142.79 125.9ZM145.556 126.003C145.323 125.992 145.149 125.918 145.034 125.78C144.921 125.642 144.875 125.453 144.895 125.212L144.999 123.962L144.567 123.942L144.6 123.55L144.688 123.555C144.794 123.56 144.88 123.531 144.947 123.47C145.015 123.408 145.052 123.324 145.061 123.219L145.077 123.025L145.488 123.044L145.442 123.59L145.976 123.615L145.943 124.006L145.41 123.981L145.307 125.218C145.3 125.297 145.306 125.367 145.325 125.427C145.346 125.487 145.385 125.535 145.441 125.573C145.497 125.608 145.574 125.628 145.671 125.633C145.691 125.634 145.716 125.633 145.746 125.632C145.779 125.63 145.808 125.629 145.835 125.627L145.805 125.988C145.766 125.995 145.723 125.999 145.676 126C145.628 126.003 145.588 126.004 145.556 126.003ZM147.401 126.116C147.172 126.105 146.969 126.042 146.792 125.928C146.616 125.811 146.481 125.656 146.388 125.463C146.295 125.27 146.258 125.055 146.278 124.817C146.298 124.58 146.368 124.371 146.49 124.191C146.614 124.011 146.773 123.871 146.967 123.771C147.162 123.672 147.375 123.627 147.607 123.638C147.837 123.649 148.04 123.713 148.216 123.83C148.392 123.944 148.526 124.096 148.616 124.286C148.71 124.476 148.746 124.691 148.726 124.932C148.706 125.172 148.633 125.384 148.505 125.566C148.378 125.746 148.217 125.886 148.023 125.986C147.832 126.083 147.625 126.126 147.401 126.116ZM147.434 125.719C147.581 125.726 147.716 125.696 147.84 125.628C147.967 125.56 148.069 125.463 148.148 125.337C148.229 125.212 148.276 125.07 148.29 124.911C148.303 124.75 148.28 124.606 148.219 124.479C148.162 124.35 148.076 124.246 147.962 124.167C147.851 124.085 147.721 124.041 147.574 124.034C147.424 124.027 147.286 124.059 147.159 124.129C147.035 124.197 146.933 124.293 146.852 124.416C146.771 124.535 146.724 124.676 146.71 124.837C146.697 124.996 146.72 125.141 146.78 125.274C146.84 125.406 146.926 125.512 147.037 125.59C147.152 125.669 147.284 125.712 147.434 125.719ZM149.162 126.145L149.36 123.773L149.761 123.791L149.725 124.227L149.686 124.163C149.753 124.031 149.847 123.935 149.967 123.876C150.087 123.814 150.23 123.787 150.394 123.794L150.54 123.801L150.508 124.189L150.3 124.179C150.133 124.171 149.993 124.218 149.881 124.318C149.77 124.416 149.706 124.561 149.69 124.751L149.573 126.164L149.162 126.145Z" fill="#1C75BC"/>
</svg>
