<svg width="193" height="311" viewBox="0 0 193 311" fill="none" xmlns="http://www.w3.org/2000/svg">
<path d="M34.2786 9.56561C33.7088 9.67957 32.5692 10.2494 32.5692 11.6169C32.5692 12.9845 33.7088 13.3263 34.2786 13.3263C34.9624 13.3263 36.2615 12.9845 35.988 11.6169C35.6461 9.9075 35.3042 9.56561 34.2786 9.56561Z" fill="#1C75BC"/>
<path d="M26.7571 8.88184C26.1873 8.99581 25.0477 9.56561 25.0477 10.9332C25.0477 12.3007 26.1873 12.6426 26.7571 12.6426C27.4409 12.6426 28.7401 12.3007 28.4665 10.9332C28.1246 9.22373 27.7828 8.88184 26.7571 8.88184Z" fill="#1C75BC"/>
<path d="M19.2356 8.19807C18.6658 8.31204 17.5262 8.88184 17.5262 10.2494C17.5262 11.6169 18.6658 11.9588 19.2356 11.9588C19.9194 11.9588 21.2186 11.6169 20.9451 10.2494C20.6032 8.53996 20.2613 8.19807 19.2356 8.19807Z" fill="#1C75BC"/>
<path d="M13.6341 2.29021C10.5828 1.23704 5.18416 2.22523 5.44698 14.0523C5.72049 26.3602 5.56094 139.98 5.44698 195.252C4.7632 197.873 6.88289 202.636 20.8318 200.722C4.69482 205.098 0.888504 196.163 1.00247 191.149V6.53103C1.00247 -0.65434 9.20219 0.640444 13.6341 2.29021Z" fill="#1C75BC"/>
<path d="M99.7528 67.4741C99.4884 67.4741 98.9597 67.6328 98.9597 68.2672C98.9597 68.9017 99.4884 69.0603 99.7528 69.0603C100.017 69.0603 100.546 68.9017 100.546 68.2672C100.546 67.6328 100.017 67.4741 99.7528 67.4741Z" fill="#1C75BC"/>
<path d="M87.0631 67.2759C87.0631 66.0201 87.1821 63.35 87.6579 62.7155C88.1579 62.0489 89.078 59.4214 92.6552 58.6001C92.6338 58.4637 92.5984 58.3395 92.551 58.2267C91.5944 57.714 89.5 58 88.8476 57.3621C87.6111 56.153 91.7184 56.2469 92.551 58.2267C92.7457 58.331 92.9153 58.4311 93.0517 58.5187C93.5341 58.4309 94.0613 58.3748 94.6379 58.3585C92.551 56.5 92.6552 56.1724 93.4483 56.1724C94.0828 56.1724 94.7432 57.6264 94.9941 58.3534C95.6293 58.3534 96.2384 58.3924 96.819 58.4702C96.837 58.3918 96.8541 58.3018 96.8686 58.2035C95.5 56.5 95.2479 55.4113 96.2241 55.9741C96.9473 56.3911 96.9717 57.5072 96.8686 58.2035C96.8587 58.2915 96.8425 58.3805 96.819 58.4702C101.313 59.0728 104.092 62.0081 103.917 67.2759C104.181 67.4081 104.868 67.6724 105.503 67.6724C105.965 65.6236 106.415 60.8517 104.511 58.1552C102.132 54.7845 97.9683 53 95.589 53C92.6552 53 87.658 55.181 86.0717 58.5517C84.8028 61.2483 84.6177 65.2965 84.6838 66.9835C85.5363 66.8171 86.4752 67.0338 87.0631 67.2759Z" fill="#1C75BC"/>
<path d="M139.576 133.952C139.667 133.952 139.85 134.007 139.85 134.229C139.85 134.451 139.667 134.507 139.576 134.507C139.484 134.507 139.301 134.451 139.301 134.229C139.301 134.007 139.484 133.952 139.576 133.952Z" fill="#1C75BC"/>
<path fill-rule="evenodd" clip-rule="evenodd" d="M164.85 140.889C168.696 134.507 165.4 122.297 157.707 123.962C157.201 123.911 156.381 123.882 155.674 123.979C159.349 126.959 160 135.617 159 131.702C158.2 128.57 156 125.349 155 124.13C154.734 124.221 154.523 124.346 154.411 124.517C154.167 124.887 153.814 125.586 153.521 126.297C156.042 130.595 155.658 141.945 155 138C154.5 135 153.913 129.158 153.349 126.737C153.078 127.47 152.91 128.144 153.037 128.402C153.169 128.668 152.782 131.229 152.453 134.253C152.305 135.613 152.169 137.067 152.097 138.448C151.994 140.398 152.02 142.202 152.322 143.387C152.591 144.453 152.947 146.081 154.296 148.104C155.415 149.783 157.218 151.735 160.224 153.863C160 153.5 156.5 148.5 158 148C158.976 147.675 158.981 152.795 160.754 154.232C160.835 154.287 160.917 154.343 161 154.399C161.181 154.52 161.365 154.642 161.554 154.764C161.512 154.203 161.501 153.452 161.543 152.566C159.5 150.5 160 145.5 160.5 145.5C160.9 145.5 161.369 150.067 161.554 152.351C161.575 151.974 161.605 151.575 161.647 151.157C161.943 148.185 162.807 144.28 164.85 140.889ZM157 131C157.333 134.334 158.1 141.101 158.5 141.5C159 141.999 158.326 132 157 131Z" fill="#1C75BC"/>
<path fill-rule="evenodd" clip-rule="evenodd" d="M133.257 168.362L133.806 168.084L132.433 166.419L131.439 166.635L128.587 167.252L125.839 170.027L125.565 170.304L125.839 171.692L127.488 173.357L127.766 173.079L130.785 170.068L131.059 168.362H133.257ZM128.587 168.362L126.664 170.304L128.037 171.414L129.686 169.472L128.587 168.362Z" fill="#1C75BC"/>
<path fill-rule="evenodd" clip-rule="evenodd" d="M151.521 129.482C151.546 129.422 151.567 129.371 151.585 129.328C151.646 129.178 151.664 129.134 151.664 129.234C151.664 129.284 151.613 129.368 151.521 129.482ZM152.684 131.548C152.745 131.398 152.762 131.354 152.762 131.454C152.762 131.47 152.758 131.488 152.748 131.51C152.727 131.559 152.684 131.623 152.62 131.702C152.645 131.642 152.666 131.591 152.684 131.548Z" fill="#1C75BC"/>
<path fill-rule="evenodd" clip-rule="evenodd" d="M140.4 126.737C140.839 123.407 143.33 121.834 144.521 121.464C146.134 122.236 149.244 123.867 149.687 124.631C149.725 124.769 149.739 124.866 149.743 124.905C149.742 124.885 149.74 124.849 149.74 124.794C149.74 124.746 149.722 124.691 149.687 124.631C149.487 123.892 148.614 121.962 144.959 121.291C145.893 120.95 147.197 120.627 148.642 120.533C150.189 120.433 151.898 120.597 153.483 121.284C154.253 121.618 154.995 122.076 155.674 122.687C155.458 122.719 155.221 122.773 154.96 122.852C152.213 123.684 151.938 126.459 151.938 127.014C151.938 127.569 151.664 128.957 153.037 128.402C153.169 128.668 152.782 131.229 152.453 134.253C152.534 133.074 152.612 132.072 152.748 131.51C152.758 131.488 152.762 131.47 152.762 131.454C152.762 131.354 152.745 131.398 152.684 131.548C152.666 131.591 152.645 131.642 152.62 131.702C151.888 132.604 148.508 135.33 146.719 136.727C151 136 152.245 132.59 152.62 131.702C152.684 131.623 152.727 131.559 152.748 131.51C152.612 132.072 152.534 133.074 152.453 134.253C152.305 135.613 152.169 137.067 152.097 138.448C151.905 139.946 151.612 141.281 151.114 141.999C148.642 142.277 147.268 140.889 144.795 139.502C142.817 138.392 142.323 136.634 142.323 135.894C142.598 135.709 142.927 135.173 142.048 134.507C140.949 133.674 139.85 130.899 140.4 126.737ZM151.521 129.482C150.789 130.384 147.409 133.11 145.62 134.507C149 134.229 151.146 130.37 151.521 129.482C151.613 129.368 151.664 129.284 151.664 129.234C151.664 129.134 151.646 129.178 151.585 129.328C151.567 129.371 151.546 129.422 151.521 129.482Z" fill="#1C75BC"/>
<path fill-rule="evenodd" clip-rule="evenodd" d="M106.987 160.037H82.3711C81.1176 160.037 78.6104 160.926 78.6104 164.482V172.345C78.3825 172.915 78.6788 174.123 81.6874 174.397C84.696 174.67 100.491 174.511 108.013 174.397C108.81 174.283 110.406 173.713 110.406 172.345C110.27 169.538 110 163.533 110 161.979C110 160.425 107.991 160.037 106.987 160.037ZM90.5 171L86 167.5L86.5 165.5L90.5 169L101 162.5L102 163.5L90.5 171Z" fill="#1C75BC"/>
<path d="M84.4855 71.9645C85.1609 72.4601 85.91 72.8229 86.4683 73.0259C87.1332 74.134 88.5289 75.9358 90.4338 77.4759L90.0373 83.7328L88.624 83.7893C89.5 81 90 77.5 88.2528 77.1897V83.8041L86.4683 83.8755C87.5 81 87 76 85.9138 75.8017L86.0717 83.8914L85.0804 83.931L84.4855 71.9645Z" fill="#1C75BC"/>
<path fill-rule="evenodd" clip-rule="evenodd" d="M139.935 186.399C140.085 186.3 140.125 185.651 140.125 185.289H157.707C157.707 185.588 157.732 185.963 157.788 186.399C157.956 187.688 158.406 189.514 159.341 191.5C160.047 192.999 161.03 194.591 162.378 196.112C166.114 200.33 167.964 216.554 168.422 224.139L173.641 278.807C171.169 280.195 165.62 282.581 163.202 281.027C160.929 279.566 158.034 264.604 156.388 256.096C155.846 253.292 155.439 251.19 155.235 250.502C154.584 248.31 151.517 227.909 150.008 217.598C149.989 217.464 149.97 217.332 149.951 217.202C149.577 217.51 149.227 217.79 148.916 218.034L135.455 252.722L134.905 279.917C133.009 281.416 128.692 283.456 125.283 280.929C124.907 280.65 124.541 280.315 124.191 279.917C121.035 276.331 121.278 267.308 121.463 260.451C121.535 257.757 121.599 255.397 121.444 253.832C121.004 249.392 124.557 236.072 126.389 229.967C127.946 224.509 131.664 212.207 134.081 206.657C135.435 203.549 136.812 198.963 137.927 194.749C138.804 191.436 139.52 188.353 139.935 186.399ZM149.951 217.202C151.483 215.942 153.423 214.232 154.76 212.762C154.978 212.762 155.228 212.76 155.498 212.755C154.611 214.397 152.93 216.296 150.008 217.598L149.951 217.202Z" fill="#1C75BC"/>
<path d="M176.663 301.84C177.671 302.58 179.521 304.781 178.861 307.667C178.202 310.553 170.711 310.165 167.048 309.61C163.202 308.685 155.62 306.058 156.059 302.95C156.151 302.58 156.444 301.784 156.883 301.562C157.071 301.467 157.098 301.632 157.141 301.891C157.223 302.387 157.361 303.227 158.806 303.227C160.011 303.227 160.225 304.228 160.399 305.041C160.542 305.711 160.658 306.253 161.279 306.002C162.075 305.68 162.595 304.799 162.998 304.115C163.29 303.619 163.521 303.227 163.751 303.227C164.301 303.227 176.114 303.227 176.663 301.84Z" fill="white"/>
<path d="M135.73 300.73C136.737 302.672 138.312 306.779 136.554 307.667C134.795 308.555 122.085 308.962 115.949 309.055C113.477 308.777 109.191 307.223 111.828 303.227C111.92 303.69 112.213 304.615 112.653 304.615C113.202 304.615 114.85 304.615 115.125 304.892C115.213 304.981 115.356 305.238 115.529 305.548C115.897 306.211 116.399 307.112 116.774 307.112C117.024 307.112 117.617 306.593 118.293 306.002C119.099 305.296 120.022 304.488 120.62 304.337C120.859 304.277 121.698 304.111 122.867 303.88C127.064 303.051 135.515 301.381 135.73 300.73Z" fill="white"/>
<path d="M91.4252 67.4741C91.1608 67.4741 90.6321 67.6328 90.6321 68.2672C90.6321 68.9017 91.1608 69.0603 91.4252 69.0603C91.6896 69.0603 92.2183 68.9017 92.2183 68.2672C92.2183 67.6328 91.6896 67.4741 91.4252 67.4741Z" fill="#1C75BC"/>
<path d="M57.2249 118.53L57.0611 124.346L56.3795 124.327L53.3389 119.671L53.2821 119.669L53.1535 124.236L52.4493 124.216L52.6131 118.4L53.2946 118.419L56.3463 123.087L56.403 123.088L56.532 118.51L57.2249 118.53ZM60.2057 124.525C59.7854 124.513 59.4255 124.41 59.1259 124.216C58.8283 124.02 58.6018 123.753 58.4466 123.413C58.2932 123.071 58.2229 122.677 58.2354 122.23C58.248 121.783 58.3405 121.392 58.5129 121.056C58.6873 120.718 58.9239 120.457 59.2227 120.274C59.5235 120.09 59.8708 120.003 60.2646 120.014C60.4917 120.02 60.715 120.064 60.9344 120.146C61.1538 120.228 61.3519 120.357 61.5289 120.533C61.7059 120.706 61.8444 120.934 61.9445 121.215C62.0445 121.496 62.0889 121.84 62.0774 122.248L62.0694 122.531L58.7071 122.437L58.7234 121.857L61.4042 121.933C61.4111 121.687 61.3681 121.466 61.2751 121.27C61.1839 121.074 61.05 120.918 60.8733 120.801C60.6985 120.684 60.4899 120.623 60.2476 120.616C59.9807 120.608 59.7478 120.668 59.5491 120.795C59.3523 120.92 59.1989 121.086 59.0889 121.294C58.9788 121.501 58.9204 121.725 58.9136 121.965L58.9027 122.351C58.8935 122.681 58.9424 122.962 59.0495 123.194C59.1586 123.424 59.3137 123.602 59.5148 123.727C59.716 123.85 59.9519 123.916 60.2227 123.923C60.3987 123.928 60.5584 123.908 60.7018 123.863C60.8471 123.816 60.9733 123.744 61.0802 123.646C61.1872 123.547 61.2713 123.422 61.3323 123.272L61.9747 123.472C61.9003 123.69 61.7804 123.88 61.6147 124.042C61.4492 124.202 61.2468 124.325 61.0075 124.411C60.7683 124.496 60.501 124.534 60.2057 124.525ZM64.0221 124.542L62.8159 120.142L63.5202 120.162L64.3689 123.528L64.4144 123.53L65.4399 120.216L66.1555 120.237L66.9819 123.591L67.0273 123.592L68.0638 120.29L68.7681 120.31L67.3162 124.635L66.6574 124.616L65.7976 121.238L65.7295 121.236L64.6809 124.56L64.0221 124.542ZM71.8713 124.763L72.035 118.947L74.0002 119.002C74.4564 119.015 74.8271 119.108 75.1121 119.281C75.3991 119.452 75.6087 119.679 75.7409 119.961C75.8732 120.243 75.9345 120.556 75.9248 120.898C75.9152 121.241 75.8364 121.55 75.6884 121.827C75.5423 122.103 75.3221 122.32 75.0277 122.479C74.7334 122.635 74.36 122.707 73.9076 122.694L72.499 122.655L72.5166 122.03L73.9024 122.069C74.2148 122.078 74.4672 122.031 74.6595 121.928C74.8519 121.826 74.9933 121.684 75.0836 121.503C75.1759 121.319 75.2254 121.112 75.2319 120.879C75.2385 120.646 75.2008 120.436 75.1189 120.25C75.0389 120.064 74.9047 119.916 74.7164 119.807C74.5282 119.695 74.276 119.635 73.9599 119.626L72.7217 119.592L72.5755 124.783L71.8713 124.763ZM78.1372 125.042C77.8608 125.034 77.6114 124.975 77.3891 124.864C77.1667 124.752 76.9921 124.594 76.8652 124.392C76.7383 124.188 76.6789 123.943 76.6869 123.659C76.6939 123.409 76.7489 123.208 76.8517 123.056C76.9546 122.901 77.0896 122.782 77.2568 122.698C77.424 122.613 77.6076 122.552 77.8076 122.514C78.0096 122.475 78.2122 122.444 78.4156 122.423C78.6816 122.397 78.8972 122.377 79.0623 122.365C79.2295 122.351 79.3515 122.323 79.4285 122.281C79.5073 122.24 79.5483 122.165 79.5513 122.058L79.5519 122.035C79.5598 121.755 79.4893 121.535 79.3403 121.375C79.1932 121.216 78.9654 121.132 78.6568 121.123C78.3369 121.114 78.084 121.177 77.8984 121.312C77.7127 121.447 77.5807 121.593 77.5023 121.75L76.8726 121.505C76.9937 121.243 77.1509 121.041 77.3444 120.898C77.5399 120.754 77.751 120.656 77.978 120.604C78.2069 120.549 78.4311 120.525 78.6507 120.532C78.7908 120.536 78.9513 120.557 79.132 120.596C79.3148 120.634 79.4899 120.706 79.6574 120.813C79.8268 120.92 79.9654 121.078 80.0732 121.288C80.181 121.497 80.23 121.775 80.2202 122.122L80.1393 124.996L79.4691 124.977L79.4857 124.386L79.4517 124.385C79.4035 124.479 79.325 124.578 79.2159 124.683C79.1069 124.788 78.9632 124.875 78.785 124.946C78.6068 125.017 78.3909 125.049 78.1372 125.042ZM78.2564 124.442C78.5214 124.45 78.7463 124.404 78.931 124.305C79.1175 124.206 79.2595 124.076 79.3569 123.914C79.4562 123.752 79.5084 123.58 79.5136 123.398L79.5308 122.785C79.5015 122.818 79.4381 122.847 79.3408 122.873C79.2454 122.897 79.1349 122.917 79.0094 122.935C78.8858 122.95 78.7651 122.964 78.6473 122.976C78.5314 122.986 78.4374 122.994 78.3652 123.002C78.1904 123.02 78.0265 123.052 77.8736 123.099C77.7227 123.144 77.5994 123.215 77.5038 123.313C77.4101 123.409 77.3609 123.542 77.3561 123.712C77.3496 123.945 77.4307 124.124 77.5997 124.248C77.7705 124.37 77.9894 124.435 78.2564 124.442ZM84.5475 121.732L83.9407 121.886C83.9057 121.784 83.8526 121.685 83.7814 121.588C83.7122 121.49 83.616 121.408 83.4928 121.342C83.3696 121.276 83.2105 121.24 83.0155 121.234C82.7486 121.227 82.5244 121.282 82.3429 121.4C82.1635 121.516 82.0711 121.668 82.0658 121.856C82.0611 122.022 82.118 122.155 82.2364 122.255C82.3549 122.355 82.5419 122.441 82.7976 122.513L83.4406 122.69C83.8279 122.796 84.1144 122.949 84.3002 123.149C84.4859 123.348 84.5745 123.599 84.5659 123.904C84.5589 124.154 84.4807 124.375 84.3313 124.568C84.1837 124.761 83.9806 124.911 83.7218 125.017C83.463 125.123 83.1642 125.172 82.8253 125.162C82.3804 125.15 82.0149 125.043 81.7288 124.842C81.4427 124.64 81.266 124.353 81.1988 123.98L81.8394 123.839C81.8934 124.075 82.003 124.254 82.1682 124.376C82.3353 124.499 82.5561 124.564 82.8306 124.571C83.1429 124.58 83.3928 124.521 83.5802 124.393C83.7695 124.264 83.8668 124.106 83.8721 123.919C83.8763 123.767 83.8269 123.639 83.7238 123.534C83.6207 123.426 83.4601 123.344 83.2419 123.287L82.5197 123.096C82.1229 122.99 81.8336 122.835 81.6518 122.631C81.4719 122.425 81.3862 122.172 81.3947 121.871C81.4016 121.625 81.4768 121.409 81.6204 121.223C81.7658 121.038 81.9602 120.895 82.2037 120.794C82.4491 120.693 82.7251 120.646 83.0318 120.655C83.4635 120.667 83.7997 120.771 84.0405 120.968C84.2831 121.164 84.4522 121.419 84.5475 121.732ZM88.7256 121.85L88.1187 122.003C88.0837 121.902 88.0306 121.803 87.9594 121.706C87.8902 121.607 87.794 121.525 87.6708 121.459C87.5476 121.393 87.3885 121.357 87.1935 121.352C86.9266 121.344 86.7024 121.4 86.521 121.518C86.3415 121.634 86.2491 121.786 86.2438 121.973C86.2391 122.14 86.296 122.273 86.4145 122.373C86.5329 122.473 86.72 122.559 86.9756 122.63L87.6186 122.808C88.0059 122.913 88.2925 123.066 88.4782 123.267C88.664 123.465 88.7526 123.717 88.744 124.022C88.7369 124.272 88.6587 124.493 88.5093 124.686C88.3617 124.879 88.1586 125.028 87.8998 125.135C87.641 125.241 87.3422 125.29 87.0033 125.28C86.5584 125.267 86.1929 125.161 85.9068 124.959C85.6207 124.758 85.444 124.471 85.3769 124.097L86.0175 123.956C86.0714 124.193 86.181 124.372 86.3462 124.494C86.5133 124.616 86.7341 124.681 87.0086 124.689C87.321 124.698 87.5708 124.639 87.7582 124.511C87.9475 124.382 88.0448 124.224 88.0501 124.036C88.0544 123.885 88.0049 123.756 87.9018 123.651C87.7987 123.544 87.6381 123.462 87.4199 123.405L86.6977 123.214C86.3009 123.108 86.0116 122.953 85.8298 122.749C85.6499 122.543 85.5642 122.289 85.5727 121.988C85.5796 121.742 85.6549 121.527 85.7984 121.341C85.9438 121.156 86.1383 121.012 86.3817 120.911C86.6271 120.81 86.9031 120.764 87.2098 120.773C87.6415 120.785 87.9777 120.889 88.2185 121.085C88.4612 121.282 88.6302 121.536 88.7256 121.85ZM90.7068 125.293L89.5006 120.894L90.2049 120.914L91.0537 124.28L91.0991 124.281L92.1246 120.968L92.8402 120.988L93.6666 124.342L93.712 124.343L94.7486 121.042L95.4528 121.062L94.001 125.386L93.3421 125.368L92.4824 121.99L92.4142 121.988L91.3657 125.312L90.7068 125.293ZM97.8371 125.585C97.4433 125.574 97.1004 125.471 96.8085 125.275C96.5184 125.079 96.2948 124.81 96.1377 124.469C95.9825 124.127 95.9113 123.731 95.9239 123.28C95.9367 122.826 96.0303 122.432 96.2045 122.097C96.3807 121.763 96.619 121.507 96.9197 121.327C97.2222 121.148 97.5703 121.064 97.9641 121.076C98.3579 121.087 98.6998 121.19 98.9899 121.386C99.2818 121.582 99.5054 121.851 99.6605 122.195C99.8176 122.538 99.8897 122.937 99.8769 123.392C99.8642 123.842 99.7698 124.234 99.5938 124.566C99.4196 124.898 99.1812 125.154 98.8787 125.333C98.5781 125.512 98.2309 125.596 97.8371 125.585ZM97.854 124.983C98.1532 124.991 98.4014 124.922 98.5989 124.774C98.7963 124.626 98.9449 124.428 99.0447 124.181C99.1445 123.934 99.1985 123.664 99.2067 123.373C99.2149 123.081 99.1762 122.808 99.0905 122.554C99.0049 122.299 98.8677 122.092 98.6789 121.931C98.4902 121.771 98.2463 121.686 97.9471 121.678C97.648 121.669 97.3997 121.74 97.2022 121.89C97.0048 122.039 96.8561 122.239 96.7562 122.488C96.6564 122.737 96.6023 123.008 96.5941 123.299C96.5859 123.591 96.6247 123.863 96.7104 124.115C96.7961 124.368 96.9334 124.573 97.1222 124.732C97.311 124.891 97.5549 124.975 97.854 124.983ZM100.839 125.579L100.962 121.217L101.609 121.235L101.591 121.894L101.636 121.895C101.722 121.682 101.871 121.51 102.083 121.382C102.295 121.253 102.531 121.193 102.793 121.2C102.842 121.202 102.903 121.204 102.977 121.208C103.051 121.212 103.107 121.217 103.145 121.221L103.125 121.903C103.103 121.897 103.051 121.887 102.97 121.873C102.891 121.858 102.807 121.848 102.718 121.846C102.506 121.84 102.315 121.879 102.146 121.963C101.979 122.046 101.845 122.163 101.744 122.316C101.645 122.467 101.593 122.64 101.587 122.837L101.509 125.598L100.839 125.579ZM105.326 125.796C104.963 125.786 104.645 125.685 104.371 125.493C104.098 125.3 103.888 125.033 103.74 124.691C103.593 124.348 103.525 123.945 103.538 123.483C103.551 123.025 103.641 122.63 103.808 122.297C103.974 121.965 104.2 121.711 104.486 121.535C104.771 121.359 105.097 121.276 105.465 121.287C105.749 121.295 105.972 121.348 106.134 121.448C106.298 121.545 106.422 121.655 106.505 121.776C106.591 121.896 106.657 121.995 106.704 122.072L106.761 122.074L106.822 119.927L107.492 119.946L107.328 125.761L106.681 125.743L106.699 125.073L106.62 125.071C106.569 125.149 106.496 125.247 106.401 125.366C106.307 125.483 106.174 125.586 106.003 125.676C105.832 125.764 105.606 125.804 105.326 125.796ZM105.434 125.197C105.703 125.204 105.932 125.14 106.122 125.006C106.311 124.869 106.458 124.677 106.561 124.43C106.665 124.181 106.721 123.891 106.731 123.562C106.74 123.236 106.701 122.95 106.613 122.703C106.525 122.454 106.39 122.259 106.209 122.118C106.027 121.974 105.8 121.899 105.527 121.891C105.243 121.883 105.005 121.949 104.811 122.09C104.62 122.228 104.473 122.42 104.371 122.666C104.272 122.909 104.218 123.184 104.209 123.491C104.2 123.801 104.24 124.085 104.327 124.341C104.417 124.596 104.553 124.8 104.736 124.955C104.921 125.108 105.154 125.189 105.434 125.197Z" fill="#1C75BC"/>
<path fill-rule="evenodd" clip-rule="evenodd" d="M122.637 291.221C122.665 292.084 123.608 293.741 124.191 294.625V297.955H129.96C130.384 297.431 131.1 296.653 131.844 296.051C132.6 296.654 134.052 297.323 133.806 295.18C134.905 295.402 135.546 298.972 135.73 300.73C135.515 301.381 127.064 303.051 122.867 303.88C121.698 304.111 120.859 304.277 120.62 304.337C120.022 304.488 119.099 305.296 118.293 306.002C117.617 306.593 117.024 307.112 116.774 307.112C116.399 307.112 115.897 306.211 115.529 305.548C115.356 305.238 115.213 304.981 115.125 304.892C114.85 304.615 113.202 304.615 112.653 304.615C112.213 304.615 111.92 303.69 111.828 303.227C114.484 301.285 120.345 296.956 122.543 295.18C122.467 294.179 122.403 292.23 122.637 291.221Z" fill="#1C75BC"/>
<path fill-rule="evenodd" clip-rule="evenodd" d="M164.576 292.127C164.136 292.793 165.491 295.18 166.224 296.29L165.949 298.232L169.246 298.51C169.885 297.649 171.35 296.088 173 295.326C174 296.5 174.6 296.517 175 294.954C176.693 295.499 176.83 299.646 176.663 301.84C176.114 303.227 164.301 303.227 163.751 303.227C163.521 303.227 163.29 303.619 162.998 304.115C162.595 304.799 162.075 305.68 161.279 306.002C160.658 306.253 160.542 305.711 160.399 305.041C160.225 304.228 160.011 303.227 158.806 303.227C157.361 303.227 157.223 302.387 157.141 301.891C157.098 301.632 157.071 301.467 156.883 301.562C157.799 300.73 160.4 299.176 163.477 299.62C165.602 299.926 165.043 297.861 164.488 295.81C164.039 294.15 163.592 292.5 164.576 292.127Z" fill="#1C75BC"/>
<path d="M145.345 147.272C147.512 147.772 147.298 152.749 151.845 155.272C154.96 157 163.345 159.272 160.845 150.272C164.845 163.772 155.5 166.5 150.845 160.272C149.085 157.918 146.678 150.772 145.345 147.272Z" fill="#1C75BC"/>
<path d="M192.117 42.7706C193.028 39.1239 192.254 31.4201 181.86 29.779C171.467 28.138 65.6189 10.8614 13.9941 2.42819M192.117 42.7706V178.157C192.343 182.944 189.924 192.243 178.441 191.149C177.849 191.093 177.28 191.045 176.731 191.004M192.117 42.7706L176.048 40.2985M13.9941 2.42819C13.8772 2.38204 13.7571 2.33599 13.6341 2.29021M13.9941 2.42819C13.8784 2.37922 13.7582 2.33303 13.6341 2.29021M5.44698 14.0523C5.72048 26.3602 5.56094 139.98 5.44698 195.252C4.76321 197.873 6.88289 202.636 20.8318 200.722M5.44698 14.0523L171.945 39.6673M5.44698 14.0523C5.18416 2.22523 10.5828 1.23704 13.6341 2.29021M20.8318 200.722C34.7807 198.807 95.4767 196.277 124.081 195.252L137.927 194.749M20.8318 200.722C4.69482 205.098 0.88851 196.163 1.00247 191.149M176.048 40.2985L171.945 39.6673M176.048 40.2985L176.23 80.3782L176.38 113.541L176.731 191.004M176.731 191.004C174.907 190.869 173.321 190.82 171.945 190.836M171.945 39.6673V80.3782V113.541V190.836M171.945 190.836L159.341 191.5M111.431 97.4725C115.876 101.575 124.765 102.601 127.158 95.0793C129.073 89.0621 126.5 84.5 122.03 82.7714M111.431 97.4725C110.356 96.307 108.687 93.5476 108.823 90.2929C108.86 89.4103 109.03 88.4913 109.38 87.5578C111.021 83.1817 117.5 81.5 122.03 82.7714M111.431 97.4725C108.833 98.7716 102.537 101.315 96.0466 102.29C95.1355 102.427 94.2205 102.533 93.3115 102.601C90.0206 102.845 85.3393 101.959 80.6617 99.5865C76.2424 97.3455 71.8263 93.778 68.5894 88.5835C65.6421 83.8539 63.6723 77.7756 63.5675 70.1217C63.294 50.1556 81 43.1127 93.3115 43.1127C122.5 43.5 124.423 71.7171 122.03 82.7714M117.585 85.1646V97.4725M123.055 91.3186H111.773M106.987 160.037C103.978 160.037 89.3228 160.037 82.3711 160.037M106.987 160.037H82.3711M106.987 160.037C107.991 160.037 110 160.425 110 161.979C110 163.533 110.27 169.538 110.406 172.345C110.406 173.713 108.81 174.283 108.013 174.397C100.491 174.511 84.696 174.67 81.6874 174.397C78.6788 174.123 78.3825 172.915 78.6104 172.345M82.3711 160.037C81.1176 160.037 78.6104 160.926 78.6104 164.482M78.6104 164.482C78.6104 168.038 78.6104 171.206 78.6104 172.345M78.6104 164.482V172.345M1.00247 6.53103C1.00247 13.9157 1.00247 132.687 1.00247 191.149M1.00247 6.53103V191.149M1.00247 6.53103C1.00247 -0.65434 9.2022 0.640444 13.6341 2.29021M94.9941 58.3534C94.7432 57.6264 94.0828 56.1724 93.4483 56.1724C92.6552 56.1724 92.551 56.5 94.6379 58.3585M94.9941 58.3534C94.8734 58.3534 94.7546 58.3551 94.6379 58.3585M94.9941 58.3534C95.6293 58.3534 96.2384 58.3924 96.819 58.4702M105.503 67.6724C104.868 67.6724 104.181 67.408 103.917 67.2759C104.092 62.0081 101.313 59.0728 96.819 58.4702M105.503 67.6724C106.296 67.6724 107.486 68.2672 107.684 70.0517C107.882 71.8362 106.891 73.4224 104.511 73.4224H103.917C103.356 75.2896 101.827 78.3568 99.3562 79.6622M105.503 67.6724C105.965 65.6236 106.415 60.8517 104.511 58.1552C102.132 54.7845 97.9683 53 95.589 53C92.6552 53 87.658 55.181 86.0717 58.5517C84.8028 61.2483 84.6177 65.2965 84.6838 66.9835M95.7873 67.8707C96.1177 68.8621 96.6993 70.8845 96.3821 71.0431C96.0648 71.2017 95.4568 70.977 95.1924 70.8448M88.8476 65.4914C89.5746 64.8966 91.5442 63.9448 93.6062 64.8966M97.9683 65.0948C98.9597 64.6983 101.18 64.2621 102.132 65.6897M84.6838 66.9835C83.907 67.1352 83.2018 67.605 82.8993 68.6638C82.5084 70.0319 83.4019 71.1692 84.4855 71.9645M84.6838 66.9835C85.5363 66.8171 86.4752 67.0338 87.0631 67.2759C87.0631 66.0201 87.1821 63.35 87.6579 62.7155C88.1579 62.0489 89.078 59.4214 92.6552 58.6001M84.4855 71.9645C85.1609 72.4601 85.91 72.8229 86.4683 73.0259C87.1332 74.134 88.5289 75.9358 90.4338 77.4759M84.4855 71.9645L85.0804 83.931M85.0804 83.931C81.5775 85.7816 74.889 90.7517 76.158 95.8276M85.0804 83.931L86.0717 83.8914M90.0373 83.7328L90.4338 77.4759M90.0373 83.7328C92.258 86.2707 96.9108 84.7902 98.9597 83.7328M90.0373 83.7328L88.624 83.7893M90.4338 77.4759C91.9373 78.6914 93.7581 79.744 95.7873 80.1638C97.1384 80.4433 98.3287 80.2051 99.3562 79.6622M99.3562 79.6622L98.9597 83.7328M98.9597 83.7328C101.075 83.9971 105.701 84.8035 107.287 85.9138C108.873 87.0241 108.873 95.1006 108.675 99M86.0717 83.8914L85.9138 75.8017C87 76 87.5 81 86.4683 83.8755M86.0717 83.8914L86.4683 83.8755M86.4683 83.8755L88.2528 83.8041M88.2528 83.8041V77.1897C90 77.5 89.5 81 88.624 83.7893M88.2528 83.8041L88.624 83.7893M93.0517 58.5187C92.916 58.5434 92.7839 58.5706 92.6552 58.6001M93.0517 58.5187C93.5341 58.4309 94.0613 58.3748 94.6379 58.3585M93.0517 58.5187C92.9153 58.4311 92.7457 58.331 92.551 58.2267M92.6552 58.6001C92.6338 58.4637 92.5984 58.3395 92.551 58.2267M96.819 58.4702C96.837 58.3918 96.8541 58.3018 96.8686 58.2035M96.819 58.4702C96.8425 58.3805 96.8587 58.2915 96.8686 58.2035M92.551 58.2267C91.5944 57.714 89.5 58 88.8476 57.3621C87.6111 56.153 91.7184 56.2469 92.551 58.2267ZM96.8686 58.2035C95.5 56.5 95.2479 55.4113 96.2241 55.9741C96.9473 56.3911 96.9717 57.5072 96.8686 58.2035ZM144.521 121.464C143.33 121.834 140.839 123.407 140.4 126.737M144.521 121.464C144.656 121.407 144.802 121.349 144.959 121.291M144.521 121.464C146.134 122.236 149.244 123.867 149.687 124.631M140.4 126.737C139.85 130.899 140.949 133.674 142.048 134.507C142.927 135.173 142.598 135.709 142.323 135.894C142.323 136.634 142.817 138.392 144.795 139.502C147.268 140.889 148.642 142.277 151.114 141.999M140.4 126.737C140.353 126.904 140.302 127.09 140.248 127.292M151.114 141.999C151.612 141.281 151.905 139.946 152.097 138.448M151.114 141.999C151.396 143.5 152.032 146.5 152.322 146.5M157.707 123.962C165.4 122.297 168.696 134.507 164.85 140.889C162.807 144.28 161.943 148.185 161.647 151.157M157.707 123.962C157.707 123.391 157.281 122.447 155.674 122.687M157.707 123.962C157.201 123.911 156.381 123.882 155.674 123.979M153.037 128.402C151.664 128.957 151.938 127.569 151.938 127.014C151.938 126.459 152.213 123.684 154.96 122.852C155.221 122.773 155.458 122.719 155.674 122.687M153.037 128.402C152.91 128.144 153.078 127.47 153.349 126.737M153.037 128.402C153.169 128.668 152.782 131.229 152.453 134.253M155.674 122.687C154.995 122.076 154.253 121.618 153.483 121.284M149.74 124.794C149.74 124.746 149.722 124.691 149.687 124.631M149.74 124.794C149.74 124.849 149.742 124.885 149.743 124.905M149.74 124.794C149.74 124.92 149.748 124.949 149.743 124.905M144.959 121.291C145.893 120.95 147.197 120.627 148.642 120.533C150.189 120.433 151.898 120.597 153.483 121.284M144.959 121.291C148.614 121.962 149.487 123.892 149.687 124.631M152.762 131.454C152.762 131.354 152.745 131.398 152.684 131.548C152.666 131.591 152.645 131.642 152.62 131.702M152.762 131.454C152.762 131.47 152.758 131.488 152.748 131.51M152.762 131.454C152.758 131.472 152.753 131.491 152.748 131.51M145.345 147.272C143.33 147.919 138.971 150.602 137.653 156.152C136.334 161.702 136.554 167.899 136.828 170.304M145.345 147.272C147.512 147.772 147.298 152.749 151.845 155.272C154.96 157 163.345 159.272 160.845 150.272C164.845 163.772 155.5 166.5 150.845 160.272C149.085 157.918 146.678 150.772 145.345 147.272ZM145.345 147.272C145.332 147.178 145.318 147.088 145.305 147M139.14 132.842C139.285 132.749 139.686 132.62 140.125 132.842M139.14 132.842C139.117 133.029 139.096 133.214 139.078 133.397M139.14 132.842C139.38 130.878 139.876 128.698 140.248 127.292M139.433 139.351C139.209 138.189 139.142 136.903 139.026 135.617C138.97 134.987 138.997 134.221 139.078 133.397M139.433 139.351C139.74 140.946 140.343 142.306 141.773 143.109C144.186 144.463 144.768 143.439 145.305 147M139.433 139.351C139.847 139.67 140.894 140.118 141.773 139.351M154.296 148.104C152.947 146.081 152.591 144.453 152.322 143.387C152.02 142.202 151.994 140.398 152.097 138.448M154.296 148.104C155.415 149.783 157.218 151.735 160.224 153.863M154.296 148.104L152.322 146.5M136.828 170.304C136.737 170.582 136.828 171.192 137.927 171.414M136.828 170.304C137.144 170.266 137.515 170.226 137.927 170.186M145.62 171.414V170.068M145.62 171.414C146.806 171.344 148.512 171.123 148.092 170.727M145.62 171.414C145.345 173.727 144.631 178.796 143.971 180.572C143.597 181.58 142.996 182.474 142.246 183.071C141.344 183.789 140.226 184.079 139.026 183.624M145.62 170.068C146.125 170.125 146.59 170.202 146.993 170.304C147.621 170.463 147.961 170.604 148.092 170.727M145.62 170.068C143.277 169.806 140.052 169.984 137.927 170.186M148.092 170.727C148.184 167.626 148.202 161.258 147.543 160.592M137.927 171.414V170.186M137.927 171.414L138.065 173.634M138.202 175.854L138.065 173.634M138.065 173.634L133.257 168.362M133.257 168.362L133.806 168.084L132.433 166.419L131.439 166.635M133.257 168.362H131.059L130.785 170.068L127.766 173.079M131.439 166.635L128.587 167.252L125.839 170.027M131.439 166.635C129.572 165.453 125.675 162.701 125.015 161.147C124.636 160.252 124.238 160.05 123.916 160.128M125.839 170.027L125.565 170.304L125.839 171.692L127.488 173.357L127.766 173.079M125.839 170.027C125.565 169.749 122.817 170.304 117.048 169.194C112.433 168.306 114.759 166.974 116.499 166.419C115.675 166.491 114.026 166.369 114.026 165.309C114.026 164.249 115.675 163.943 116.499 163.922C115.675 163.829 113.971 163.422 113.752 162.534C113.532 161.646 115.675 161.979 116.774 162.257C115.858 161.794 114.246 160.703 115.125 160.037C115.205 159.977 115.297 159.933 115.4 159.902M123.916 160.128C123.679 160.186 123.484 160.396 123.367 160.592C122.909 161.239 121.774 162.423 120.894 161.979C119.875 161.464 116.727 159.516 115.4 159.902M123.916 160.128V159.204M123.916 159.204H115.4M123.916 159.204H124.466V158.649H123.642V157.539H117.872V156.707H114.301V159.204H115.4M115.4 159.204V159.902M127.766 173.079C129.781 175.239 133.335 178.912 136 181.317M139.026 183.624V185.289M139.026 183.624C138.441 183.403 137.331 182.518 136 181.317M161.647 151.157C161.952 152.729 162.38 156.041 161.647 156.707C160.913 157.373 160.546 159.265 160.455 160.128V183.071V185.289M161.647 151.157C161.605 151.575 161.575 151.974 161.554 152.351M160.455 185.289H157.707M160.455 185.289C160.455 185.655 159.919 186.381 157.788 186.399M139.026 185.289C138.935 185.474 138.971 185.955 139.85 186.399C139.882 186.417 139.91 186.416 139.935 186.399M139.026 185.289H140.125M157.707 186.399C157.735 186.399 157.762 186.399 157.788 186.399M140.125 185.289C140.125 185.651 140.085 186.3 139.935 186.399M140.125 185.289H157.707M139.935 186.399C139.52 188.353 138.804 191.436 137.927 194.749M124.191 279.917L124.741 284.912C124.948 284.977 125.225 285.046 125.565 285.111M124.191 279.917C121.035 276.331 121.278 267.308 121.463 260.451C121.535 257.757 121.599 255.397 121.444 253.832C121.004 249.392 124.557 236.072 126.389 229.967C127.946 224.509 131.664 212.207 134.081 206.657C135.435 203.549 136.812 198.963 137.927 194.749M124.191 279.917C124.541 280.315 124.907 280.65 125.283 280.929C128.692 283.456 133.009 281.416 134.905 279.917M134.905 279.917L135.455 252.722L148.916 218.034M134.905 279.917L133.806 284.912M148.916 218.034C149.227 217.79 149.577 217.51 149.951 217.202M148.916 218.034C149.298 217.898 149.662 217.752 150.008 217.598M154.76 212.762C155.694 211.734 156.334 210.823 156.334 210.264C156.276 210.881 156.029 211.772 155.498 212.755M154.76 212.762C153.423 214.232 151.483 215.942 149.951 217.202M154.76 212.762C154.978 212.762 155.228 212.76 155.498 212.755M159.631 212.207C159.442 212.588 157.122 212.724 155.498 212.755M149.951 217.202L150.008 217.598M149.951 217.202C149.97 217.332 149.989 217.464 150.008 217.598M163.202 281.027C165.62 282.581 171.169 280.195 173.641 278.807M163.202 281.027L164.301 286.022C164.612 286.033 164.96 286.037 165.336 286.034M163.202 281.027C160.929 279.566 158.034 264.604 156.388 256.096C155.846 253.292 155.439 251.19 155.235 250.502C154.584 248.31 151.517 227.909 150.008 217.598M173.641 278.807L168.422 224.139C167.964 216.554 166.114 200.33 162.378 196.112C161.03 194.591 160.047 192.999 159.341 191.5M173.641 278.807V283.525M157.707 185.289C157.707 185.588 157.732 185.963 157.788 186.399M133.806 284.912C130.177 285.645 127.172 285.42 125.565 285.111M133.806 284.912L131.892 296.012M173.641 283.525C172.862 285.494 168.279 286.007 165.336 286.034M173.641 283.525V295.076M125.565 285.111V292.405M124.191 294.625L125.565 294.07V292.405M124.191 294.625V297.955H129.96C130.384 297.431 131.1 296.653 131.844 296.051M124.191 294.625C123.608 293.741 122.665 292.084 122.637 291.221M122.817 290.74C123.477 290.296 124.924 291.665 125.565 292.405M122.817 290.74C122.744 290.851 122.684 291.017 122.637 291.221M122.817 290.74C122.683 290.83 122.63 290.999 122.637 291.221M133.806 295.18C134.905 295.402 135.546 298.972 135.73 300.73M133.806 295.18C133.285 295.074 132.578 295.464 131.892 296.012M133.806 295.18C134.052 297.323 132.6 296.654 131.844 296.051M135.73 300.73C136.737 302.672 138.312 306.779 136.554 307.667C134.795 308.555 122.085 308.962 115.949 309.055C113.477 308.777 109.191 307.223 111.828 303.227M135.73 300.73C135.515 301.381 127.064 303.051 122.867 303.88C121.698 304.111 120.859 304.277 120.62 304.337C120.022 304.488 119.099 305.296 118.293 306.002C117.617 306.593 117.024 307.112 116.774 307.112C116.399 307.112 115.897 306.211 115.529 305.548C115.356 305.238 115.213 304.981 115.125 304.892C114.85 304.615 113.202 304.615 112.653 304.615C112.213 304.615 111.92 303.69 111.828 303.227M111.828 303.227C114.484 301.285 120.345 296.956 122.543 295.18C122.467 294.179 122.403 292.23 122.637 291.221M165.336 286.034L166.174 291.85M166.224 296.29L166.773 296.012L166.174 291.85M166.224 296.29C165.491 295.18 164.136 292.793 164.576 292.127M166.224 296.29L165.949 298.232L169.246 298.51C169.885 297.649 171.35 296.088 173 295.326M164.576 292.127C165.015 291.461 165.824 291.665 166.174 291.85M164.576 292.127C163.592 292.5 164.039 294.15 164.488 295.81C165.043 297.861 165.602 299.926 163.477 299.62C160.4 299.176 157.799 300.73 156.883 301.562M176.663 301.84C177.671 302.58 179.521 304.781 178.861 307.667C178.202 310.553 170.711 310.165 167.048 309.61C163.202 308.685 155.62 306.058 156.059 302.95C156.151 302.58 156.444 301.784 156.883 301.562M176.663 301.84C176.114 303.227 164.301 303.227 163.751 303.227C163.521 303.227 163.29 303.619 162.998 304.115C162.595 304.799 162.075 305.68 161.279 306.002C160.658 306.253 160.542 305.711 160.399 305.041C160.225 304.228 160.011 303.227 158.806 303.227C157.361 303.227 157.223 302.387 157.141 301.891C157.098 301.632 157.071 301.467 156.883 301.562M176.663 301.84C176.83 299.646 176.693 295.499 175 294.954M139.078 133.397C137.942 131.863 136.242 129.565 134.722 127.5M131.334 122.852C130.784 122.019 132.708 122.297 132.982 122.574C133.017 122.61 133.066 122.664 133.125 122.73M131.334 122.852C131.398 122.949 131.557 123.173 131.789 123.495M131.334 122.852C131.242 123.007 131.059 123.336 131.059 123.406C131.059 123.477 131.318 123.664 131.447 123.748M135.455 122.297C136.279 123.407 134.905 124.239 134.631 124.239C134.481 124.239 134.086 123.827 133.713 123.406M135.455 122.297L136.828 121.187M135.455 122.297L133.713 123.406M136.828 121.187C137.286 121.649 138.202 123.018 138.202 124.794L140.248 127.292M136.828 121.187C136.92 120.909 137.103 120.299 137.103 120.076C137.103 119.854 136.554 120.169 136.279 120.354M132.433 122.297C132.708 121.834 133.367 120.909 133.806 120.909C133.859 120.909 133.925 120.902 134 120.888M136.279 120.354C136.279 120.576 134.176 122.031 133.125 122.73M136.279 120.354C136.279 120.103 134.708 120.759 134 120.888M133.125 122.73C133.275 122.9 133.49 123.155 133.713 123.406M132.158 124.004C131.975 124.082 131.664 124.294 131.883 124.516C132.103 124.738 132.407 124.609 132.532 124.516M132.158 124.004C132.273 124.162 132.398 124.334 132.532 124.516M132.158 124.004C132.021 123.815 131.897 123.644 131.789 123.495M132.158 124.004L131.334 124.794L130.51 124.794L130.784 124.239L131.447 123.748M132.532 124.516C132.407 124.609 132.213 124.849 132.433 125.071C132.653 125.293 132.814 125.1 132.868 124.976M132.532 124.516C132.639 124.663 132.751 124.816 132.868 124.976M132.868 124.976C132.738 125.1 132.557 125.404 132.868 125.626C133.179 125.848 133.315 125.719 133.344 125.626M132.868 124.976C133.019 125.183 133.179 125.401 133.344 125.626M133.344 125.626C133.769 126.206 134.236 126.841 134.722 127.5M131.789 123.495L131.447 123.748M131.892 296.012C131.876 296.025 131.86 296.038 131.844 296.051M173.641 295.076C173.914 294.99 174.19 294.93 174.466 294.902C174.659 294.883 174.837 294.902 175 294.954M173.641 295.076C173.426 295.144 173.211 295.229 173 295.326M149.687 124.631C149.725 124.769 149.739 124.866 149.743 124.905M149.743 124.905C149.746 124.93 149.745 124.931 149.743 124.905ZM151.521 129.482C150.789 130.384 147.409 133.11 145.62 134.507C149 134.229 151.146 130.37 151.521 129.482ZM151.521 129.482C151.613 129.368 151.664 129.284 151.664 129.234C151.664 129.134 151.646 129.178 151.585 129.328C151.567 129.371 151.546 129.422 151.521 129.482ZM152.62 131.702C151.888 132.604 148.508 135.33 146.719 136.727C151 136 152.245 132.59 152.62 131.702ZM152.62 131.702C152.684 131.623 152.727 131.559 152.748 131.51M157.788 186.399C157.956 187.688 158.406 189.514 159.341 191.5M153.349 126.737C153.913 129.158 154.5 135 155 138C155.658 141.945 156.042 130.595 153.521 126.297M153.349 126.737C153.403 126.592 153.461 126.444 153.521 126.297M153.521 126.297C153.814 125.586 154.167 124.887 154.411 124.517C154.523 124.346 154.734 124.221 155 124.13M155 124.13C156 125.349 158.2 128.57 159 131.702C160 135.617 159.349 126.959 155.674 123.979M155 124.13C155.199 124.062 155.43 124.013 155.674 123.979M160.224 153.863C160 153.5 156.5 148.5 158 148C158.976 147.675 158.981 152.795 160.754 154.232M160.224 153.863C160.396 153.985 160.573 154.108 160.754 154.232M161 154.399C161.181 154.52 161.365 154.642 161.554 154.764C161.512 154.203 161.501 153.452 161.543 152.566M161 154.399C160.917 154.343 160.835 154.287 160.754 154.232M161 154.399C160.915 154.352 160.833 154.296 160.754 154.232M161.554 152.351C161.369 150.067 160.9 145.5 160.5 145.5C160 145.5 159.5 150.5 161.543 152.566M161.554 152.351C161.55 152.423 161.546 152.495 161.543 152.566M134 120.888C134 117.998 131.24 117.293 129.859 117.302H125.449L58.0973 114.567C54.4505 113.883 46.9518 113.951 46.1313 119.695C45.3108 125.439 51.4875 128.014 54.6784 128.584L123.739 129.952L129 130C130.815 129.833 134.499 129.1 134.722 127.5M153.483 121.284V104.764L154.851 52.0018C154.851 48.1007 152.594 40.2985 143.569 40.2985C134.543 40.2985 68.6957 29.8668 36.9004 24.6509C32.228 23.6253 22.8147 24.0356 22.5412 33.8818C22.2677 43.7281 22.4273 134.168 22.5412 178.157C23.5669 180.551 28.1482 185.474 38.268 186.021C48.3878 186.568 104.138 183.235 130.748 181.5L136 181.317M152.453 134.253C152.534 133.074 152.612 132.072 152.748 131.51M152.453 134.253C152.305 135.613 152.169 137.067 152.097 138.448M152.453 134.253C152.365 135.553 152.273 137.069 152.097 138.448M155.498 212.755C154.611 214.397 152.93 216.296 150.008 217.598M173 295.326C174 296.5 174.6 296.517 175 294.954M152.322 146.5C152.611 146.5 150.686 147.833 149.687 148.5C148.396 147.841 145.713 146.619 145.305 147M128.526 139.524L53.9947 138.499C51.3736 138.727 46.1313 140.413 46.1313 145.336C46.1313 150.26 51.8294 151.718 54.6784 151.832H123.947C127.234 151.832 133.845 150.666 134 146C134.155 141.334 130.415 139.739 128.526 139.524ZM34.2786 9.56561C33.7088 9.67957 32.5692 10.2494 32.5692 11.6169C32.5692 12.9845 33.7088 13.3263 34.2786 13.3263C34.9624 13.3263 36.2615 12.9845 35.988 11.6169C35.6461 9.9075 35.3043 9.56561 34.2786 9.56561ZM26.7571 8.88184C26.1873 8.99581 25.0477 9.56561 25.0477 10.9332C25.0477 12.3007 26.1873 12.6426 26.7571 12.6426C27.4409 12.6426 28.74 12.3007 28.4665 10.9332C28.1247 9.22373 27.7828 8.88184 26.7571 8.88184ZM19.2356 8.19807C18.6658 8.31204 17.5262 8.88184 17.5262 10.2494C17.5262 11.6169 18.6658 11.9588 19.2356 11.9588C19.9194 11.9588 21.2186 11.6169 20.9451 10.2494C20.6032 8.53996 20.2613 8.19807 19.2356 8.19807ZM86 167.5L90.5 171L102 163.5L101 162.5L90.5 169L86.5 165.5L86 167.5ZM92.2183 73.4224H97.77C97.5057 74.2155 96.5804 75.7621 94.9942 75.6034C93.408 75.4448 92.4827 74.0833 92.2183 73.4224ZM91.4252 67.4741C91.1608 67.4741 90.6321 67.6328 90.6321 68.2672C90.6321 68.9017 91.1608 69.0603 91.4252 69.0603C91.6896 69.0603 92.2183 68.9017 92.2183 68.2672C92.2183 67.6328 91.6896 67.4741 91.4252 67.4741ZM99.7528 67.4741C99.4884 67.4741 98.9597 67.6328 98.9597 68.2672C98.9597 68.9017 99.4884 69.0603 99.7528 69.0603C100.017 69.0603 100.546 68.9017 100.546 68.2672C100.546 67.6328 100.017 67.4741 99.7528 67.4741ZM139.576 133.952C139.667 133.952 139.85 134.007 139.85 134.229C139.85 134.451 139.667 134.507 139.576 134.507C139.484 134.507 139.301 134.451 139.301 134.229C139.301 134.007 139.484 133.952 139.576 133.952ZM126.664 170.304L128.587 168.362L129.686 169.472L128.037 171.414L126.664 170.304ZM157 131C157.333 134.334 158.1 141.101 158.5 141.5C159 141.999 158.326 132 157 131ZM57.2249 118.53L57.0611 124.346L56.3795 124.327L53.3389 119.671L53.2821 119.669L53.1535 124.236L52.4493 124.216L52.6131 118.4L53.2946 118.419L56.3463 123.087L56.403 123.088L56.532 118.51L57.2249 118.53ZM60.2057 124.525C59.7854 124.513 59.4255 124.41 59.1259 124.216C58.8283 124.02 58.6018 123.753 58.4466 123.413C58.2932 123.071 58.2229 122.677 58.2354 122.23C58.248 121.783 58.3405 121.392 58.5129 121.056C58.6873 120.718 58.9239 120.457 59.2227 120.274C59.5235 120.09 59.8708 120.003 60.2646 120.014C60.4917 120.02 60.715 120.064 60.9344 120.146C61.1538 120.228 61.3519 120.357 61.5289 120.533C61.7059 120.706 61.8444 120.934 61.9445 121.215C62.0445 121.496 62.0889 121.84 62.0774 122.248L62.0694 122.531L58.7071 122.437L58.7234 121.857L61.4042 121.933C61.4111 121.687 61.3681 121.466 61.2751 121.27C61.1839 121.074 61.05 120.918 60.8733 120.801C60.6985 120.684 60.4899 120.623 60.2476 120.616C59.9806 120.608 59.7478 120.668 59.5491 120.795C59.3523 120.92 59.1989 121.086 59.0889 121.294C58.9788 121.501 58.9204 121.725 58.9136 121.965L58.9027 122.351C58.8935 122.681 58.9424 122.962 59.0495 123.194C59.1586 123.424 59.3137 123.602 59.5148 123.727C59.716 123.85 59.9519 123.916 60.2227 123.923C60.3987 123.928 60.5584 123.908 60.7018 123.863C60.8471 123.816 60.9733 123.744 61.0802 123.646C61.1872 123.547 61.2713 123.422 61.3323 123.272L61.9747 123.472C61.9003 123.69 61.7804 123.88 61.6147 124.042C61.4492 124.202 61.2468 124.325 61.0075 124.411C60.7683 124.496 60.501 124.534 60.2057 124.525ZM64.0221 124.542L62.8159 120.142L63.5202 120.162L64.3689 123.528L64.4144 123.53L65.4399 120.216L66.1555 120.237L66.9819 123.591L67.0273 123.592L68.0638 120.29L68.7681 120.31L67.3162 124.635L66.6574 124.616L65.7976 121.238L65.7295 121.236L64.6809 124.56L64.0221 124.542ZM71.8713 124.763L72.035 118.947L74.0002 119.002C74.4564 119.015 74.8271 119.108 75.1121 119.281C75.3991 119.452 75.6087 119.679 75.7409 119.961C75.8732 120.243 75.9345 120.556 75.9248 120.898C75.9152 121.241 75.8364 121.55 75.6884 121.827C75.5423 122.103 75.3221 122.32 75.0277 122.479C74.7334 122.635 74.36 122.707 73.9076 122.694L72.499 122.655L72.5166 122.03L73.9024 122.069C74.2148 122.078 74.4672 122.031 74.6595 121.928C74.8519 121.826 74.9933 121.684 75.0836 121.503C75.1759 121.319 75.2254 121.112 75.2319 120.879C75.2385 120.646 75.2008 120.436 75.1189 120.25C75.0389 120.064 74.9047 119.916 74.7164 119.807C74.5282 119.695 74.276 119.635 73.9599 119.626L72.7217 119.592L72.5755 124.783L71.8713 124.763ZM78.1372 125.042C77.8608 125.034 77.6114 124.975 77.3891 124.864C77.1667 124.752 76.9921 124.594 76.8652 124.392C76.7383 124.188 76.6789 123.943 76.6869 123.659C76.6939 123.409 76.7489 123.208 76.8517 123.056C76.9546 122.901 77.0896 122.782 77.2568 122.698C77.424 122.613 77.6076 122.552 77.8076 122.514C78.0096 122.475 78.2122 122.444 78.4156 122.423C78.6816 122.397 78.8972 122.377 79.0623 122.365C79.2295 122.351 79.3515 122.323 79.4285 122.281C79.5073 122.24 79.5483 122.165 79.5513 122.058L79.5519 122.035C79.5598 121.755 79.4893 121.535 79.3403 121.375C79.1932 121.216 78.9654 121.132 78.6568 121.123C78.3369 121.114 78.084 121.177 77.8984 121.312C77.7127 121.447 77.5807 121.593 77.5023 121.75L76.8726 121.505C76.9937 121.243 77.151 121.041 77.3444 120.898C77.5399 120.754 77.751 120.656 77.978 120.604C78.2069 120.549 78.4311 120.525 78.6507 120.532C78.7908 120.536 78.9513 120.557 79.132 120.596C79.3148 120.634 79.4899 120.706 79.6574 120.813C79.8268 120.92 79.9654 121.078 80.0732 121.288C80.181 121.497 80.23 121.775 80.2202 122.122L80.1393 124.996L79.4691 124.977L79.4857 124.386L79.4517 124.385C79.4035 124.479 79.325 124.578 79.2159 124.683C79.1069 124.788 78.9632 124.875 78.785 124.946C78.6068 125.017 78.3909 125.049 78.1372 125.042ZM78.2564 124.442C78.5214 124.45 78.7463 124.404 78.931 124.305C79.1175 124.206 79.2595 124.076 79.3569 123.914C79.4562 123.752 79.5084 123.58 79.5136 123.398L79.5308 122.785C79.5015 122.818 79.4381 122.847 79.3408 122.873C79.2454 122.897 79.1349 122.917 79.0094 122.935C78.8858 122.95 78.7651 122.964 78.6473 122.976C78.5314 122.986 78.4374 122.994 78.3652 123.002C78.1904 123.02 78.0265 123.052 77.8736 123.099C77.7227 123.144 77.5994 123.215 77.5038 123.313C77.4101 123.409 77.3609 123.542 77.3561 123.712C77.3496 123.945 77.4307 124.124 77.5997 124.248C77.7705 124.37 77.9894 124.435 78.2564 124.442ZM84.5475 121.732L83.9407 121.886C83.9057 121.784 83.8526 121.685 83.7814 121.588C83.7122 121.49 83.616 121.408 83.4928 121.342C83.3696 121.276 83.2105 121.24 83.0155 121.234C82.7485 121.227 82.5244 121.282 82.3429 121.4C82.1635 121.516 82.0711 121.668 82.0658 121.856C82.0611 122.022 82.118 122.155 82.2364 122.255C82.3549 122.355 82.5419 122.441 82.7976 122.513L83.4406 122.69C83.8279 122.796 84.1144 122.949 84.3002 123.149C84.4859 123.348 84.5745 123.599 84.5659 123.904C84.5589 124.154 84.4807 124.375 84.3313 124.568C84.1837 124.761 83.9806 124.911 83.7218 125.017C83.463 125.123 83.1642 125.172 82.8253 125.162C82.3804 125.15 82.0149 125.043 81.7288 124.842C81.4427 124.64 81.266 124.353 81.1988 123.98L81.8394 123.839C81.8934 124.075 82.003 124.254 82.1682 124.376C82.3353 124.499 82.5561 124.564 82.8306 124.571C83.1429 124.58 83.3928 124.521 83.5802 124.393C83.7695 124.264 83.8668 124.106 83.8721 123.919C83.8763 123.767 83.8269 123.639 83.7238 123.534C83.6207 123.426 83.4601 123.344 83.2419 123.287L82.5197 123.096C82.1229 122.99 81.8336 122.835 81.6518 122.631C81.4719 122.425 81.3862 122.172 81.3947 121.871C81.4016 121.625 81.4768 121.409 81.6204 121.223C81.7658 121.038 81.9602 120.895 82.2037 120.794C82.4491 120.693 82.7251 120.646 83.0318 120.655C83.4635 120.667 83.7997 120.771 84.0405 120.968C84.2831 121.164 84.4522 121.419 84.5475 121.732ZM88.7256 121.85L88.1187 122.003C88.0837 121.902 88.0306 121.803 87.9594 121.706C87.8902 121.607 87.794 121.525 87.6708 121.459C87.5476 121.393 87.3885 121.357 87.1935 121.352C86.9266 121.344 86.7024 121.4 86.521 121.518C86.3415 121.634 86.2491 121.786 86.2438 121.973C86.2391 122.14 86.296 122.273 86.4145 122.373C86.5329 122.473 86.72 122.559 86.9756 122.63L87.6186 122.808C88.0059 122.913 88.2925 123.066 88.4782 123.267C88.664 123.465 88.7526 123.717 88.744 124.022C88.7369 124.272 88.6587 124.493 88.5093 124.686C88.3617 124.879 88.1586 125.028 87.8998 125.135C87.641 125.241 87.3422 125.29 87.0033 125.28C86.5584 125.267 86.1929 125.161 85.9068 124.959C85.6207 124.758 85.444 124.471 85.3769 124.097L86.0175 123.956C86.0714 124.193 86.181 124.372 86.3462 124.494C86.5133 124.616 86.7341 124.681 87.0086 124.689C87.321 124.698 87.5708 124.639 87.7582 124.511C87.9475 124.382 88.0448 124.224 88.0501 124.036C88.0544 123.885 88.0049 123.756 87.9018 123.651C87.7987 123.544 87.6381 123.462 87.4199 123.405L86.6977 123.214C86.3009 123.108 86.0116 122.953 85.8298 122.749C85.6499 122.543 85.5642 122.289 85.5727 121.988C85.5796 121.742 85.6549 121.527 85.7984 121.341C85.9438 121.156 86.1383 121.012 86.3817 120.911C86.6271 120.81 86.9031 120.764 87.2098 120.773C87.6415 120.785 87.9777 120.889 88.2185 121.085C88.4612 121.282 88.6302 121.536 88.7256 121.85ZM90.7068 125.293L89.5006 120.894L90.2049 120.914L91.0537 124.28L91.0991 124.281L92.1246 120.968L92.8402 120.988L93.6666 124.342L93.712 124.343L94.7486 121.042L95.4528 121.062L94.001 125.386L93.3421 125.368L92.4824 121.99L92.4142 121.988L91.3657 125.312L90.7068 125.293ZM97.8371 125.585C97.4433 125.574 97.1004 125.471 96.8085 125.275C96.5184 125.079 96.2948 124.81 96.1377 124.469C95.9825 124.127 95.9113 123.731 95.9239 123.28C95.9367 122.826 96.0303 122.432 96.2045 122.097C96.3807 121.763 96.619 121.507 96.9197 121.327C97.2222 121.148 97.5703 121.064 97.9641 121.076C98.3579 121.087 98.6998 121.19 98.9899 121.386C99.2818 121.582 99.5054 121.851 99.6605 122.195C99.8176 122.538 99.8897 122.937 99.8769 123.392C99.8642 123.842 99.7698 124.234 99.5938 124.566C99.4196 124.898 99.1812 125.154 98.8787 125.333C98.5781 125.512 98.2309 125.596 97.8371 125.585ZM97.854 124.983C98.1532 124.991 98.4014 124.922 98.5989 124.774C98.7963 124.626 98.9449 124.428 99.0447 124.181C99.1445 123.934 99.1985 123.664 99.2067 123.373C99.2149 123.081 99.1762 122.808 99.0905 122.554C99.0049 122.299 98.8677 122.092 98.6789 121.931C98.4902 121.771 98.2463 121.686 97.9471 121.678C97.648 121.669 97.3997 121.74 97.2022 121.89C97.0048 122.039 96.8561 122.239 96.7562 122.488C96.6564 122.737 96.6023 123.008 96.5941 123.299C96.5859 123.591 96.6247 123.863 96.7104 124.115C96.7961 124.368 96.9334 124.573 97.1222 124.732C97.311 124.891 97.5549 124.975 97.854 124.983ZM100.839 125.579L100.962 121.217L101.609 121.235L101.591 121.894L101.636 121.895C101.722 121.682 101.871 121.51 102.083 121.382C102.295 121.253 102.531 121.193 102.793 121.2C102.842 121.202 102.903 121.204 102.977 121.208C103.051 121.212 103.107 121.217 103.145 121.221L103.125 121.903C103.103 121.897 103.051 121.887 102.97 121.873C102.891 121.858 102.807 121.848 102.718 121.846C102.506 121.84 102.315 121.879 102.146 121.963C101.979 122.046 101.845 122.163 101.744 122.316C101.645 122.467 101.593 122.64 101.587 122.837L101.509 125.598L100.839 125.579ZM105.326 125.796C104.963 125.786 104.645 125.685 104.371 125.493C104.098 125.3 103.888 125.033 103.74 124.691C103.593 124.348 103.525 123.945 103.538 123.483C103.551 123.025 103.641 122.63 103.808 122.297C103.974 121.965 104.2 121.711 104.486 121.535C104.771 121.359 105.097 121.276 105.465 121.287C105.749 121.295 105.972 121.348 106.134 121.448C106.298 121.545 106.422 121.655 106.505 121.776C106.591 121.896 106.657 121.995 106.704 122.072L106.761 122.074L106.822 119.927L107.492 119.946L107.328 125.761L106.681 125.743L106.699 125.073L106.62 125.071C106.569 125.149 106.496 125.247 106.401 125.366C106.307 125.483 106.174 125.586 106.003 125.676C105.832 125.764 105.607 125.804 105.326 125.796ZM105.434 125.197C105.703 125.204 105.932 125.14 106.122 125.006C106.311 124.869 106.458 124.677 106.561 124.43C106.665 124.181 106.721 123.891 106.731 123.562C106.74 123.236 106.701 122.95 106.613 122.703C106.525 122.454 106.39 122.259 106.209 122.118C106.027 121.974 105.8 121.899 105.527 121.891C105.243 121.883 105.005 121.949 104.811 122.09C104.62 122.228 104.473 122.42 104.371 122.666C104.272 122.909 104.218 123.184 104.209 123.491C104.2 123.801 104.24 124.085 104.327 124.341C104.417 124.596 104.553 124.8 104.736 124.955C104.921 125.108 105.154 125.189 105.434 125.197Z" stroke="#1C75BC" stroke-width="0.68377"/>
</svg>
