<svg width="281" height="279" viewBox="0 0 281 279" fill="none" xmlns="http://www.w3.org/2000/svg">
<path d="M118.39 198.648C116.422 199.005 112.754 201.194 113.824 207.097C114.894 213.001 119.523 211.908 121.704 210.623C122.99 210.009 125.348 207.6 124.492 202.877C123.636 198.154 120.067 198.09 118.39 198.648Z" fill="#1C75BC"/>
<path d="M49.6708 171.884L47.1908 223.614L47.1908 231.785C47.1117 233.451 49.254 237.28 58.4562 239.27C55.1578 236.21 59.3962 147.637 61.9276 103.733L62.3546 96.7958C62.3914 95.9404 62.4298 95.0426 62.4698 94.1072C63.3034 74.6034 64.7824 38.8221 64.8368 32.7028C64.8939 26.2901 67.4125 24.487 68.6647 24.387L158.88 9.96535C162.24 9.45501 169.359 8.74053 170.959 9.96535C168.74 8.13237 161.817 4.46642 151.88 4.46642C125.959 8.49644 69.3518 18.927 61.0868 20.4252C52.8219 21.9234 52.3623 28.3584 53.1657 31.3886L49.6708 171.884Z" fill="#1C75BC"/>
<path d="M58.4562 239.27C49.254 237.28 47.1117 233.451 47.1908 231.785L47.1908 223.614M58.4562 239.27C59.4062 239.606 62.0912 239.983 65.2311 238.804C68.3711 237.625 106.678 220.62 125.439 212.265L164.459 194.171C166.975 192.708 171.737 188.742 173.959 182.29M58.4562 239.27C55.1578 236.21 59.3962 147.637 61.9276 103.733L62.3546 96.7958M58.4562 239.27C51.4301 237.385 37.1779 233.248 36.3779 231.785C35.5779 230.321 38.0445 228.728 39.3778 228.115L47.1908 223.614M58.4562 239.27L89.8779 251.114C91.7112 252.114 96.5779 253.514 101.378 251.114C106.178 248.714 159.378 223.12 185.378 210.623L201.378 203.114C205.211 200.781 213.278 196.971 206.878 194.171C200.478 191.371 182.765 183.731 173.959 182.29M62.3546 96.7958C62.3914 95.9404 62.4298 95.0426 62.4698 94.1072M62.3546 96.7958L62.4698 94.1072M62.4698 94.1072C63.3034 74.6034 64.7824 38.8221 64.8368 32.7028C64.8938 26.2901 67.4125 24.487 68.6647 24.387L158.88 9.96535C162.24 9.45501 169.359 8.74053 170.959 9.96535M170.959 9.96535C172.625 58.6424 173.359 159.174 174.959 171.884C175.461 175.872 174.975 179.341 173.959 182.29M170.959 9.96535C168.74 8.13237 161.817 4.46642 151.88 4.46642C125.959 8.49644 69.3518 18.927 61.0868 20.4252C52.8219 21.9234 52.3623 28.3584 53.1657 31.3886L49.6708 171.884L47.1908 223.614M118.39 198.648C116.422 199.005 112.754 201.194 113.824 207.097C114.894 213.001 119.523 211.908 121.704 210.623C122.99 210.009 125.348 207.6 124.492 202.877C123.636 198.154 120.067 198.09 118.39 198.648ZM120.138 194.171L66.8195 216.032C65.6565 216.624 63.4785 216.942 64.0706 213.481C64.6627 210.02 66.8959 145.515 67.9384 113.695L68.4101 98.7469L70.1362 32.5044L160.88 16.9654L160.88 171.884C161.073 173.922 159.759 177.096 154.959 179.496C150.159 181.896 129.911 190.78 120.138 194.171Z" stroke="#1C75BC" stroke-width="0.695302"/>
<path d="M138.207 85.5705L127.905 89.4271C127.194 89.6933 126.516 90.5164 126.391 91.2654L124.58 102.115C124.455 102.864 124.93 103.256 125.641 102.989L135.943 99.1328C136.654 98.8666 137.332 98.0436 137.457 97.2945L139.268 86.4446C139.393 85.6956 138.918 85.3042 138.207 85.5705Z" fill="#1C75BC"/>
<path d="M127.14 79.5415L119.414 82.4339C118.703 82.7002 118.025 83.5232 117.9 84.2723L116.542 92.4097C116.417 93.1587 116.892 93.5501 117.603 93.2838L125.329 90.3914C126.041 90.1251 126.718 89.3021 126.843 88.553L128.202 80.4156C128.327 79.6666 127.851 79.2752 127.14 79.5415Z" fill="#1C75BC"/>
<path d="M146.245 95.2768L138.518 98.1693C137.807 98.4355 137.129 99.2586 137.004 100.008L135.646 108.145C135.521 108.894 135.996 109.285 136.707 109.019L144.434 106.127C145.145 105.86 145.823 105.037 145.948 104.288L147.306 96.151C147.431 95.4019 146.956 95.0106 146.245 95.2768Z" fill="#1C75BC"/>
<path d="M150.319 70.864L145.168 72.7923C144.457 73.0586 143.779 73.8816 143.654 74.6307L142.749 80.0556C142.624 80.8046 143.099 81.196 143.81 80.9298L148.961 79.0014C149.672 78.7352 150.35 77.9122 150.475 77.1631L151.381 71.7382C151.506 70.9891 151.03 70.5978 150.319 70.864Z" fill="#1C75BC"/>
<path d="M120.037 107.631L114.887 109.559C114.175 109.825 113.498 110.648 113.373 111.397L112.467 116.822C112.342 117.571 112.817 117.963 113.528 117.696L118.679 115.768C119.39 115.502 120.068 114.679 120.193 113.93L121.099 108.505C121.224 107.756 120.749 107.364 120.037 107.631Z" fill="#1C75BC"/>
<path d="M144.998 44.883L134.696 48.7396C133.985 49.0058 133.307 49.8289 133.182 50.5779L131.371 61.4278C131.246 62.1769 131.721 62.5682 132.432 62.302L142.734 58.4453C143.445 58.1791 144.123 57.3561 144.248 56.607L146.059 45.7571C146.184 45.0081 145.709 44.6167 144.998 44.883Z" fill="#1C75BC"/>
<path d="M152.794 34.335L129.615 43.0124C128.193 43.5449 126.837 45.191 126.587 46.689L122.513 71.1013C122.263 72.5994 123.213 73.3821 124.635 72.8497L147.814 64.1722C149.237 63.6397 150.592 61.9936 150.842 60.4956L154.917 36.0833C155.167 34.5852 154.217 33.8025 152.794 34.335Z" stroke="#1C75BC" stroke-width="5.5" stroke-linecap="round" stroke-linejoin="round"/>
<path d="M106.366 59.3458L96.0642 63.2025C95.353 63.4687 94.6751 64.2918 94.5501 65.0408L92.7392 75.8907C92.6142 76.6397 93.0894 77.0311 93.8005 76.7649L104.102 72.9082C104.813 72.642 105.491 71.8189 105.616 71.0699L107.427 60.22C107.552 59.471 107.077 59.0796 106.366 59.3458Z" fill="#1C75BC"/>
<path d="M114.163 48.7978L90.9838 57.4753C89.5614 58.0078 88.2056 59.6539 87.9556 61.1519L83.881 85.5642C83.631 87.0623 84.5813 87.845 86.0037 87.3125L109.183 78.6351C110.605 78.1026 111.961 76.4565 112.211 74.9585L116.285 50.5462C116.535 49.0481 115.585 48.2653 114.163 48.7978Z" stroke="#1C75BC" stroke-width="5.5" stroke-linecap="round" stroke-linejoin="round"/>
<path d="M99.575 100.033L89.2732 103.89C88.562 104.156 87.8841 104.979 87.7591 105.728L85.9482 116.578C85.8232 117.327 86.2983 117.719 87.0095 117.452L97.3113 113.596C98.0225 113.329 98.7004 112.506 98.8254 111.757L100.636 100.908C100.761 100.158 100.286 99.7671 99.575 100.033Z" fill="#1C75BC"/>
<path d="M107.372 89.4853L84.1927 98.1628C82.7704 98.6953 81.4146 100.341 81.1646 101.839L77.09 126.252C76.84 127.75 77.7903 128.533 79.2127 128L102.392 119.323C103.814 118.79 105.17 117.144 105.42 115.646L109.494 91.2337C109.744 89.7356 108.794 88.9528 107.372 89.4853Z" stroke="#1C75BC" stroke-width="5.5" stroke-linecap="round" stroke-linejoin="round"/>
<path d="M138.447 85.2257L128.145 89.0824C127.434 89.3486 126.756 90.1717 126.631 90.9207L124.82 101.771C124.695 102.52 125.171 102.911 125.882 102.645L136.183 98.7881C136.895 98.5219 137.573 97.6988 137.698 96.9498L139.509 86.0999C139.634 85.3509 139.158 84.9595 138.447 85.2257Z" fill="#1C75BC"/>
<path d="M127.381 79.1967L119.655 82.0892C118.943 82.3555 118.265 83.1785 118.14 83.9275L116.782 92.065C116.657 92.814 117.132 93.2054 117.844 92.9391L125.57 90.0466C126.281 89.7804 126.959 88.9573 127.084 88.2083L128.442 80.0709C128.567 79.3219 128.092 78.9305 127.381 79.1967Z" fill="#1C75BC"/>
<path d="M146.485 94.9321L138.759 97.8246C138.048 98.0908 137.37 98.9138 137.245 99.6629L135.887 107.8C135.762 108.549 136.237 108.941 136.948 108.674L144.674 105.782C145.385 105.516 146.063 104.693 146.188 103.944L147.547 95.8062C147.672 95.0572 147.196 94.6658 146.485 94.9321Z" fill="#1C75BC"/>
<path d="M150.56 70.5193L145.409 72.4476C144.698 72.7139 144.02 73.5369 143.895 74.2859L142.989 79.7109C142.864 80.4599 143.34 80.8513 144.051 80.585L149.202 78.6567C149.913 78.3905 150.591 77.5674 150.716 76.8184L151.621 71.3934C151.746 70.6444 151.271 70.253 150.56 70.5193Z" fill="#1C75BC"/>
<path d="M120.278 107.286L115.127 109.214C114.416 109.48 113.738 110.303 113.613 111.053L112.708 116.477C112.583 117.227 113.058 117.618 113.769 117.352L118.92 115.423C119.631 115.157 120.309 114.334 120.434 113.585L121.339 108.16C121.464 107.411 120.989 107.02 120.278 107.286Z" fill="#1C75BC"/>
<path d="M145.238 44.5382L134.936 48.3949C134.225 48.6611 133.547 49.4842 133.422 50.2332L131.611 61.0831C131.486 61.8321 131.962 62.2235 132.673 61.9573L142.975 58.1006C143.686 57.8344 144.364 57.0113 144.489 56.2623L146.3 45.4124C146.425 44.6634 145.949 44.272 145.238 44.5382Z" fill="#1C75BC"/>
<path d="M153.035 33.9902L129.856 42.6677C128.434 43.2002 127.078 44.8463 126.828 46.3443L122.753 70.7566C122.503 72.2547 123.454 73.0374 124.876 72.5049L148.055 63.8275C149.477 63.295 150.833 61.6489 151.083 60.1508L155.158 35.7385C155.408 34.2405 154.457 33.4577 153.035 33.9902Z" stroke="#1C75BC" stroke-width="5.5" stroke-linecap="round" stroke-linejoin="round"/>
<path d="M106.607 59.0011L96.3048 62.8578C95.5936 63.124 94.9157 63.9471 94.7907 64.6961L92.9798 75.546C92.8548 76.295 93.33 76.6864 94.0412 76.4201L104.343 72.5635C105.054 72.2973 105.732 71.4742 105.857 70.7252L107.668 59.8753C107.793 59.1262 107.318 58.7349 106.607 59.0011Z" fill="#1C75BC"/>
<path d="M114.403 48.4531L91.2244 57.1306C89.802 57.6631 88.4462 59.3091 88.1962 60.8072L84.1216 85.2195C83.8716 86.7176 84.8219 87.5003 86.2443 86.9678L109.423 78.2904C110.846 77.7579 112.201 76.1118 112.451 74.6137L116.526 50.2014C116.776 48.7034 115.826 47.9206 114.403 48.4531Z" stroke="#1C75BC" stroke-width="5.5" stroke-linecap="round" stroke-linejoin="round"/>
<path d="M99.8156 99.6886L89.5138 103.545C88.8026 103.812 88.1247 104.635 87.9997 105.384L86.1888 116.233C86.0638 116.983 86.5389 117.374 87.2501 117.108L97.5519 113.251C98.2631 112.985 98.941 112.162 99.066 111.413L100.877 100.563C101.002 99.8137 100.527 99.4224 99.8156 99.6886Z" fill="#1C75BC"/>
<path d="M107.612 89.1406L84.4334 97.8181C83.011 98.3506 81.6552 99.9966 81.4052 101.495L77.3306 125.907C77.0806 127.405 78.0309 128.188 79.4533 127.655L102.632 118.978C104.055 118.445 105.41 116.799 105.66 115.301L109.735 90.8889C109.985 89.3909 109.035 88.6081 107.612 89.1406Z" stroke="#1C75BC" stroke-width="5.5" stroke-linecap="round" stroke-linejoin="round"/>
<path d="M239.585 98.0913C239.676 98.0913 239.859 98.1467 239.859 98.368C239.859 98.5893 239.676 98.6447 239.585 98.6447C239.493 98.6447 239.311 98.5893 239.311 98.368C239.311 98.1467 239.493 98.0913 239.585 98.0913Z" fill="#1C75BC"/>
<path fill-rule="evenodd" clip-rule="evenodd" d="M264.784 105.008C268.619 98.6447 265.332 86.4711 257.663 88.1311C257.158 88.0801 256.34 88.0517 255.635 88.1488C259.299 91.1193 259.948 99.7514 258.951 95.848C258.154 92.7253 255.96 89.5141 254.963 88.2989C254.698 88.3896 254.488 88.5147 254.376 88.6845C254.132 89.0535 253.78 89.7506 253.489 90.4598C256.002 94.7443 255.619 106.061 254.963 102.128C254.465 99.1365 253.879 93.312 253.317 90.8978C253.047 91.6285 252.879 92.3013 253.006 92.5579C253.137 92.8231 252.752 95.3771 252.424 98.3913C252.277 99.7478 252.14 101.198 252.068 102.574C251.966 104.519 251.992 106.317 252.293 107.498C252.561 108.561 252.916 110.184 254.261 112.202C255.377 113.876 257.175 115.821 260.171 117.943C259.948 117.581 256.459 112.596 257.954 112.098C258.927 111.773 258.932 116.879 260.7 118.311C260.781 118.366 260.862 118.422 260.945 118.477C261.125 118.598 261.309 118.72 261.497 118.842C261.456 118.283 261.445 117.533 261.486 116.65C259.45 114.59 259.948 109.605 260.447 109.605C260.845 109.605 261.313 114.159 261.497 116.435C261.518 116.06 261.548 115.662 261.59 115.245C261.885 112.282 262.747 108.389 264.784 105.008ZM256.957 95.1484C257.289 98.4721 258.054 105.219 258.453 105.617C258.951 106.115 258.279 96.1454 256.957 95.1484Z" fill="#1C75BC"/>
<path fill-rule="evenodd" clip-rule="evenodd" d="M251.495 93.6346C251.52 93.5755 251.541 93.5241 251.558 93.4815C251.619 93.332 251.637 93.2885 251.637 93.3879C251.637 93.4373 251.587 93.5216 251.495 93.6346ZM252.654 95.6948C252.715 95.5453 252.732 95.5019 252.732 95.6013C252.732 95.6165 252.727 95.6352 252.718 95.6569C252.697 95.7055 252.654 95.7699 252.591 95.848C252.616 95.7889 252.636 95.7375 252.654 95.6948Z" fill="#1C75BC"/>
<path fill-rule="evenodd" clip-rule="evenodd" d="M240.407 90.8978C240.437 90.6671 240.477 90.4448 240.526 90.2307C240.531 90.2099 240.536 90.1892 240.541 90.1685C241.216 87.3456 243.419 85.9818 244.515 85.6411C246.124 86.4107 249.224 88.0368 249.666 88.7987C249.704 88.9364 249.718 89.0327 249.722 89.0716C249.721 89.0515 249.719 89.0153 249.719 88.9612C249.719 88.9129 249.701 88.8584 249.666 88.7987C249.466 88.0615 248.597 86.1373 244.952 85.4688C245.884 85.1285 247.184 84.8064 248.624 84.7131C250.167 84.6132 251.87 84.7762 253.451 85.4617C254.219 85.7946 254.958 86.2508 255.635 86.8599C255.42 86.8921 255.183 86.9457 254.923 87.0244C252.184 87.8544 251.911 90.6212 251.911 91.1745C251.911 91.7279 251.637 93.1112 253.006 92.5579C253.137 92.8231 252.752 95.3771 252.424 98.3913C252.504 97.2163 252.582 96.2175 252.718 95.6569C252.727 95.6352 252.732 95.6165 252.732 95.6013C252.732 95.5019 252.715 95.5453 252.654 95.6948C252.636 95.7375 252.616 95.7889 252.591 95.848C251.861 96.7476 248.491 99.4652 246.706 100.858C250.975 100.133 252.216 96.734 252.591 95.848C252.654 95.7699 252.697 95.7055 252.718 95.6569C252.582 96.2175 252.504 97.2163 252.424 98.3913C252.277 99.7478 252.14 101.198 252.068 102.574C251.877 104.067 251.585 105.398 251.089 106.115C248.624 106.392 247.254 105.008 244.789 103.625C242.817 102.518 242.324 100.766 242.324 100.028C242.598 99.8436 242.926 99.3087 242.05 98.6447C240.954 97.8147 239.859 95.0479 240.407 90.8978ZM251.495 93.6346C250.765 94.5342 247.395 97.2518 245.611 98.6447C248.981 98.368 251.12 94.5207 251.495 93.6346C251.587 93.5216 251.637 93.4373 251.637 93.3879C251.637 93.2885 251.619 93.332 251.558 93.4815C251.541 93.5241 251.52 93.5755 251.495 93.6346Z" fill="#1C75BC"/>
<path fill-rule="evenodd" clip-rule="evenodd" d="M239.943 150.382C240.092 150.283 240.133 149.636 240.133 149.276H257.662C257.662 149.574 257.687 149.947 257.743 150.382C257.91 151.668 258.359 153.488 259.291 155.468C259.995 156.963 260.975 158.549 262.319 160.066C266.044 164.271 267.888 180.448 268.345 188.01L273.549 242.515C271.084 243.898 265.551 246.277 263.141 244.728C260.874 243.271 257.988 228.353 256.347 219.871C255.807 217.076 255.401 214.98 255.197 214.294C254.548 212.109 251.491 191.768 249.986 181.488C249.967 181.355 249.948 181.223 249.929 181.093C249.556 181.4 249.207 181.68 248.898 181.923L235.476 216.507L234.928 243.621C233.037 245.116 228.733 247.149 225.335 244.63C224.96 244.352 224.595 244.018 224.246 243.621C221.1 240.046 221.342 231.05 221.526 224.213C221.598 221.527 221.662 219.174 221.507 217.614C221.069 213.187 224.611 199.907 226.437 193.82C227.989 188.379 231.696 176.113 234.107 170.58C235.456 167.481 236.829 162.909 237.941 158.707C238.816 155.404 239.529 152.331 239.943 150.382ZM249.929 181.093C251.456 179.837 253.39 178.132 254.723 176.666C254.941 176.666 255.191 176.664 255.46 176.659C254.575 178.296 252.9 180.19 249.986 181.488L249.929 181.093Z" fill="#1C75BC"/>
<path d="M276.562 265.478C277.566 266.216 279.41 268.411 278.753 271.288C278.096 274.166 270.627 273.779 266.975 273.225C263.141 272.303 255.581 269.684 256.019 266.585C256.11 266.216 256.403 265.423 256.841 265.202C257.028 265.107 257.055 265.272 257.098 265.529C257.179 266.024 257.317 266.862 258.758 266.862C259.959 266.862 260.173 267.86 260.346 268.67C260.489 269.338 260.605 269.878 261.223 269.628C262.017 269.308 262.535 268.429 262.937 267.747C263.228 267.252 263.458 266.862 263.688 266.862C264.236 266.862 276.014 266.862 276.562 265.478Z" fill="#1C75BC"/>
<path d="M235.75 264.372C236.754 266.308 238.325 270.403 236.572 271.288C234.819 272.174 222.146 272.58 216.029 272.672C213.564 272.395 209.291 270.846 211.92 266.862C212.012 267.323 212.304 268.245 212.742 268.245C213.29 268.245 214.933 268.245 215.207 268.522C215.295 268.61 215.438 268.867 215.61 269.176C215.977 269.836 216.477 270.735 216.851 270.735C217.1 270.735 217.692 270.217 218.366 269.628C219.169 268.924 220.089 268.119 220.685 267.968C220.924 267.908 221.761 267.743 222.926 267.513C227.111 266.686 235.536 265.021 235.75 264.372Z" fill="#1C75BC"/>
<path fill-rule="evenodd" clip-rule="evenodd" d="M222.697 254.891C222.725 255.752 223.665 257.404 224.246 258.285V261.605H229.998C230.421 261.083 231.134 260.307 231.876 259.706C232.63 260.308 234.077 260.976 233.833 258.838C234.928 259.06 235.568 262.619 235.75 264.372C235.536 265.021 227.111 266.686 222.926 267.513C221.761 267.743 220.924 267.908 220.685 267.968C220.089 268.119 219.169 268.924 218.366 269.628C217.692 270.217 217.1 270.735 216.851 270.735C216.477 270.735 215.977 269.836 215.61 269.176C215.438 268.867 215.295 268.61 215.207 268.522C214.933 268.245 213.29 268.245 212.742 268.245C212.304 268.245 212.012 267.323 211.92 266.862C214.568 264.925 220.411 260.609 222.603 258.838C222.527 257.841 222.463 255.898 222.697 254.891Z" fill="#1C75BC"/>
<path fill-rule="evenodd" clip-rule="evenodd" d="M264.51 255.795C264.072 256.459 265.423 258.838 266.154 259.945L265.88 261.882L269.166 262.158C269.804 261.3 271.264 259.744 272.909 258.984C273.906 260.155 274.505 260.172 274.903 258.613C276.591 259.156 276.728 263.291 276.562 265.478C276.014 266.862 264.236 266.862 263.688 266.862C263.458 266.862 263.228 267.252 262.937 267.747C262.535 268.429 262.017 269.308 261.223 269.628C260.605 269.878 260.489 269.338 260.346 268.67C260.173 267.86 259.959 266.862 258.758 266.862C257.317 266.862 257.179 266.024 257.098 265.529C257.055 265.272 257.028 265.107 256.841 265.202C257.754 264.372 260.347 262.822 263.414 263.265C265.533 263.571 264.976 261.511 264.423 259.467C263.975 257.811 263.53 256.166 264.51 255.795Z" fill="#1C75BC"/>
<path fill-rule="evenodd" clip-rule="evenodd" d="M240.526 90.2307C240.531 90.2099 240.536 90.1892 240.541 90.1685C240.55 90.1824 240.559 90.1963 240.568 90.2101C240.554 90.2145 240.54 90.2214 240.526 90.2307Z" fill="#1C75BC"/>
<path fill-rule="evenodd" clip-rule="evenodd" d="M211.681 94.5666C211.921 94.0253 212.258 92.8706 211.681 92.5819C211.553 92.5181 211.301 92.4599 210.959 92.4133C209.482 92.2124 206.325 92.2284 204.216 92.9429C204.051 92.9987 203.893 93.0587 203.743 93.1231C203.502 94.5063 203.454 97.1283 205.186 96.551C204.103 96.0098 205.005 94.9274 205.908 94.5666C206.629 94.2779 210.057 94.4463 211.681 94.5666Z" fill="#1C75BC"/>
<path d="M228.11 92.67C228.17 88.0394 229.878 78.5617 236.229 77.6958C240.258 76.1923 248.497 71.5257 249.218 64.8865C250.121 56.5875 248.677 39.8092 234.064 33.8556C219.45 27.9019 195.636 26.6391 184.992 32.0514C174.347 37.4638 167.492 43.0564 169.115 53.8812C170.739 64.7059 173.445 72.2832 188.239 79.4997C203.033 86.7162 212.956 74.4485 228.11 92.67Z" fill="#1C75BC"/>
<path d="M244.515 85.6411C244.65 85.5838 244.796 85.5261 244.952 85.4688M244.515 85.6411C246.124 86.4107 249.224 88.0368 249.666 88.7987M244.515 85.6411C243.419 85.9818 241.216 87.3456 240.541 90.1685M240.407 90.8978C239.859 95.0479 240.954 97.8147 242.05 98.6447C242.926 99.3087 242.598 99.8436 242.324 100.028C242.324 100.766 242.817 102.518 244.789 103.625C247.254 105.008 248.624 106.392 251.089 106.115C251.585 105.398 251.877 104.067 252.068 102.574M240.407 90.8978C240.359 91.0644 240.309 91.2499 240.255 91.4512C239.884 92.8532 239.39 95.0267 239.15 96.9847M240.407 90.8978C240.437 90.6671 240.477 90.4448 240.526 90.2307M257.662 88.1311C265.332 86.4711 268.619 98.6447 264.784 105.008C262.747 108.389 261.885 112.282 261.59 115.245M257.662 88.1311C257.662 87.5621 257.237 86.6205 255.635 86.8599M257.662 88.1311C257.158 88.0801 256.34 88.0517 255.635 88.1488M253.006 92.5579C251.637 93.1112 251.911 91.7279 251.911 91.1745C251.911 90.6212 252.184 87.8544 254.923 87.0244C255.183 86.9457 255.42 86.8921 255.635 86.8599M253.006 92.5579C252.879 92.3013 253.047 91.6285 253.317 90.8978M253.006 92.5579C253.137 92.8231 252.752 95.3771 252.424 98.3913M255.635 86.8599C254.958 86.2508 254.219 85.7946 253.451 85.4616C251.87 84.7762 250.167 84.6132 248.624 84.7131C247.184 84.8064 245.884 85.1285 244.952 85.4688M249.719 88.9612C249.719 88.9129 249.701 88.8584 249.666 88.7987M249.719 88.9612C249.719 89.0153 249.721 89.0515 249.722 89.0716M249.719 88.9612C249.719 89.0865 249.727 89.1156 249.722 89.0716M244.952 85.4688C248.597 86.1373 249.466 88.0615 249.666 88.7987M252.732 95.6013C252.732 95.5019 252.715 95.5453 252.654 95.6948C252.636 95.7375 252.616 95.7889 252.591 95.848M252.732 95.6013C252.732 95.6165 252.727 95.6352 252.718 95.6569M252.732 95.6013C252.727 95.6193 252.723 95.6379 252.718 95.6569M239.15 96.9847C239.295 96.8924 239.694 96.7633 240.133 96.9847M239.15 96.9847C239.127 97.1714 239.107 97.3561 239.089 97.538C239.008 98.3594 238.98 99.1235 239.037 99.7514C239.152 101.034 239.219 102.316 239.442 103.474M239.442 103.474C239.748 105.065 240.349 106.421 241.776 107.222C244.241 108.605 244.789 107.498 245.337 111.372C245.789 111.315 246.353 111.261 246.98 111.221C249.413 111.069 252.794 111.146 254.261 112.202M239.442 103.474C239.855 103.793 240.9 104.239 241.776 103.474M254.261 112.202C252.916 110.184 252.561 108.561 252.293 107.498C251.992 106.317 251.966 104.519 252.068 102.574M254.261 112.202C255.377 113.876 257.175 115.821 260.171 117.943M261.59 115.245C261.895 116.813 262.321 120.114 261.59 120.779C260.858 121.443 260.493 123.329 260.402 124.19V147.064V149.276M261.59 115.245C261.548 115.662 261.518 116.06 261.497 116.435M260.402 149.276H257.662M260.402 149.276C260.402 149.64 259.867 150.364 257.743 150.382M239.037 149.276V147.616L237.841 129.206C237.841 127.185 223.889 122.831 216.913 120.907C217.094 119.006 217.492 117.28 217.995 115.764M239.037 149.276C238.946 149.46 238.982 149.94 239.859 150.382C239.89 150.4 239.918 150.399 239.943 150.382M239.037 149.276H240.133M257.662 150.382C257.69 150.382 257.717 150.382 257.743 150.382M240.133 149.276C240.133 149.636 240.092 150.283 239.943 150.382M240.133 149.276H257.662M239.943 150.382C239.529 152.331 238.816 155.404 237.941 158.707C236.829 162.909 235.456 167.481 234.107 170.58C231.696 176.113 227.989 188.379 226.437 193.82C224.611 199.907 221.069 213.187 221.507 217.614C221.662 219.174 221.598 221.527 221.526 224.213C221.342 231.05 221.1 240.046 224.246 243.621M224.246 243.621L224.794 248.601C225.001 248.666 225.277 248.734 225.616 248.8M224.246 243.621C224.595 244.018 224.96 244.352 225.335 244.63C228.733 247.149 233.037 245.116 234.928 243.621M234.928 243.621L235.476 216.507L248.898 181.923M234.928 243.621L233.833 248.601M248.898 181.923C249.207 181.68 249.556 181.4 249.929 181.093M248.898 181.923C249.278 181.787 249.641 181.642 249.986 181.488M254.723 176.666C255.655 175.642 256.293 174.734 256.293 174.176C256.235 174.791 255.989 175.679 255.46 176.659M254.723 176.666C253.39 178.132 251.456 179.837 249.929 181.093M254.723 176.666C254.941 176.666 255.191 176.664 255.46 176.659M259.58 176.113C259.392 176.493 257.078 176.628 255.46 176.659M249.929 181.093L249.986 181.488M249.929 181.093C249.948 181.223 249.967 181.355 249.986 181.488M263.141 244.728C265.551 246.277 271.084 243.898 273.549 242.515M263.141 244.728L264.236 249.708C264.546 249.718 264.894 249.723 265.268 249.72M263.141 244.728C260.874 243.271 257.988 228.353 256.347 219.871C255.807 217.076 255.401 214.98 255.197 214.294C254.548 212.109 251.491 191.768 249.986 181.488M273.549 242.515L268.345 188.01C267.888 180.448 266.044 164.271 262.319 160.066C260.975 158.549 259.995 156.963 259.291 155.468C258.359 153.488 257.91 151.668 257.743 150.382M273.549 242.515V247.218M257.662 149.276C257.662 149.574 257.687 149.947 257.743 150.382M233.833 248.601C230.214 249.332 227.218 249.108 225.616 248.8M233.833 248.601L231.924 259.668M273.549 247.218C272.772 249.181 268.203 249.693 265.268 249.72M273.549 247.218V258.735M225.616 248.8V256.071M224.246 258.285L225.616 257.732V256.071M224.246 258.285V261.605H229.998C230.421 261.083 231.134 260.307 231.876 259.706M224.246 258.285C223.665 257.404 222.725 255.752 222.697 254.891M222.877 254.411C223.534 253.969 224.977 255.334 225.616 256.071M222.877 254.411C222.803 254.523 222.744 254.688 222.697 254.891M222.877 254.411C222.743 254.502 222.69 254.67 222.697 254.891M233.833 258.838C234.928 259.06 235.568 262.619 235.75 264.372M233.833 258.838C233.313 258.733 232.608 259.122 231.924 259.668M233.833 258.838C234.077 260.976 232.63 260.308 231.876 259.706M235.75 264.372C236.754 266.308 238.325 270.403 236.572 271.288C234.819 272.174 222.146 272.58 216.029 272.672C213.564 272.395 209.291 270.846 211.92 266.862M235.75 264.372C235.536 265.021 227.111 266.686 222.926 267.513C221.761 267.743 220.924 267.908 220.685 267.968C220.089 268.119 219.169 268.924 218.366 269.628C217.692 270.217 217.1 270.735 216.851 270.735C216.477 270.735 215.977 269.836 215.61 269.176C215.438 268.867 215.295 268.61 215.207 268.522C214.933 268.245 213.29 268.245 212.742 268.245C212.304 268.245 212.012 267.323 211.92 266.862M211.92 266.862C214.568 264.925 220.411 260.609 222.603 258.838C222.527 257.841 222.463 255.898 222.697 254.891M265.268 249.72L266.104 255.518M266.154 259.945L266.701 259.668L266.104 255.518M266.154 259.945C265.423 258.838 264.072 256.459 264.51 255.795M266.154 259.945L265.88 261.882L269.166 262.158C269.804 261.3 271.264 259.744 272.909 258.984M264.51 255.795C264.948 255.131 265.755 255.334 266.104 255.518M264.51 255.795C263.53 256.166 263.975 257.811 264.423 259.467C264.976 261.511 265.533 263.571 263.414 263.265C260.347 262.822 257.754 264.372 256.841 265.202M276.562 265.478C277.566 266.216 279.41 268.411 278.753 271.288C278.096 274.166 270.627 273.779 266.975 273.225C263.141 272.303 255.581 269.684 256.019 266.585C256.11 266.216 256.403 265.423 256.841 265.202M276.562 265.478C276.014 266.862 264.236 266.862 263.688 266.862C263.458 266.862 263.228 267.252 262.937 267.747C262.535 268.429 262.017 269.308 261.223 269.628C260.605 269.878 260.489 269.338 260.346 268.67C260.173 267.86 259.959 266.862 258.758 266.862C257.317 266.862 257.179 266.024 257.098 265.529C257.055 265.272 257.028 265.107 256.841 265.202M276.562 265.478C276.728 263.291 276.591 259.156 274.903 258.613M231.924 259.668C231.908 259.681 231.892 259.694 231.876 259.706M273.549 258.735C273.821 258.649 274.096 258.589 274.371 258.562C274.563 258.542 274.741 258.561 274.903 258.613M273.549 258.735C273.334 258.803 273.12 258.887 272.909 258.984M249.666 88.7987C249.704 88.9364 249.718 89.0327 249.722 89.0716M249.722 89.0716C249.725 89.0966 249.723 89.098 249.722 89.0716ZM251.495 93.6346C250.765 94.5342 247.395 97.2518 245.611 98.6447C248.981 98.368 251.12 94.5206 251.495 93.6346ZM251.495 93.6346C251.587 93.5216 251.637 93.4373 251.637 93.3879C251.637 93.2885 251.619 93.332 251.558 93.4815C251.541 93.5241 251.52 93.5755 251.495 93.6346ZM252.591 95.848C251.861 96.7476 248.491 99.4652 246.706 100.858C250.975 100.133 252.216 96.734 252.591 95.848ZM252.591 95.848C252.654 95.7699 252.697 95.7055 252.718 95.6569M253.317 90.8978C253.879 93.312 254.465 99.1365 254.963 102.128C255.619 106.061 256.002 94.7443 253.489 90.4598M253.317 90.8978C253.371 90.7532 253.428 90.6062 253.489 90.4598M253.489 90.4598C253.78 89.7506 254.132 89.0535 254.376 88.6845C254.488 88.5147 254.698 88.3896 254.963 88.2989M254.963 88.2989C255.96 89.5141 258.154 92.7253 258.951 95.848C259.948 99.7514 259.299 91.1193 255.635 88.1488M254.963 88.2989C255.162 88.231 255.392 88.1824 255.635 88.1488M260.171 117.943C259.948 117.581 256.459 112.596 257.954 112.098C258.927 111.773 258.932 116.879 260.7 118.311M260.171 117.943C260.343 118.065 260.519 118.188 260.7 118.311M260.945 118.477C261.125 118.598 261.309 118.72 261.497 118.842C261.456 118.283 261.445 117.533 261.486 116.65M260.945 118.477C260.862 118.422 260.781 118.366 260.7 118.311M260.945 118.477C260.86 118.43 260.778 118.375 260.7 118.311M261.497 116.435C261.313 114.159 260.845 109.605 260.447 109.605C259.948 109.605 259.45 114.59 261.486 116.65M261.497 116.435C261.493 116.508 261.489 116.58 261.486 116.65M252.424 98.3913C252.504 97.2163 252.582 96.2175 252.718 95.6569M252.424 98.3913C252.277 99.7478 252.14 101.198 252.068 102.574M252.424 98.3913C252.336 99.6882 252.244 101.2 252.068 102.574M255.46 176.659C254.575 178.296 252.9 180.19 249.986 181.488M272.909 258.984C273.906 260.155 274.505 260.172 274.903 258.613M228.327 81.7309C227.942 82.03 227.562 82.2375 227.27 82.0917C226.693 81.8031 227.03 80.5281 227.27 79.9267C227.752 79.3253 229.435 78.4834 232.322 79.9267C233.993 80.7619 237.287 85.2322 240.541 90.1685M228.327 81.7309C228.895 81.2895 229.474 80.6484 229.796 80.6484M228.327 81.7309C228.491 82.3717 228.898 83.2515 229.569 83.7155M232.322 82.9938C232.322 82.6931 232.105 82.0917 231.24 82.0917C230.374 82.0917 231.36 83.0539 231.961 83.535C230.95 84.2094 230.157 84.1223 229.569 83.7155M229.569 83.7155C229.293 84.377 228.699 85.7 228.533 85.7C228.327 85.7 228.714 86.4216 230.518 87.3237C231.527 87.8283 235.529 93.8095 238.859 99.0452C239.15 96.2464 239.883 90.6597 240.526 90.2307M240.526 90.2307C240.531 90.2099 240.536 90.1892 240.541 90.1685M240.526 90.2307C240.54 90.2214 240.554 90.2145 240.568 90.2101C240.559 90.1963 240.55 90.1824 240.541 90.1685M244.877 111.345C240.005 111.766 228.531 111.922 221.603 109.18C221.424 109.368 221.217 109.609 220.992 109.902M220.992 109.902C218.971 109.36 214.748 108.242 214.026 108.097C213.304 107.953 212.763 104.189 212.583 102.324L211.681 94.5666M220.992 109.902C220.082 111.085 218.878 113.102 217.995 115.764M211.681 94.5666C210.057 94.4463 206.629 94.2779 205.908 94.5666C205.005 94.9274 204.103 96.0098 205.186 96.551M211.681 94.5666C211.921 94.0253 212.258 92.8706 211.681 92.5819C211.553 92.5181 211.301 92.4599 210.959 92.4133M205.186 96.551C203.454 97.1283 203.502 94.5063 203.743 93.1231C203.893 93.0587 204.051 92.9987 204.216 92.9429M205.186 96.551L206.629 107.195C206.629 108.819 207.495 112.463 210.959 114.051C214.423 115.639 217.093 115.854 217.995 115.764M210.959 92.4133C210.839 89.2823 209.119 83.0562 203.201 83.2005C203.322 82.1181 202.913 80.0974 200.315 80.6748C197.717 81.2521 197.548 82.8398 197.789 83.5615C196.346 82.479 193.279 80.4584 192.557 81.0357C191.655 81.7573 193.459 83.7419 197.969 85.7264C200.521 86.849 201.86 87.7407 202.705 88.3035C203.354 88.7356 203.712 88.9738 204.103 88.9738C204.825 88.9738 204.479 91.6199 204.216 92.9429M210.959 92.4133C209.482 92.2124 206.325 92.2284 204.216 92.9429M239.585 98.0913C239.676 98.0913 239.859 98.1467 239.859 98.368C239.859 98.5894 239.676 98.6447 239.585 98.6447C239.493 98.6447 239.311 98.5894 239.311 98.368C239.311 98.1467 239.493 98.0913 239.585 98.0913ZM256.957 95.1484C257.289 98.4721 258.054 105.219 258.453 105.617C258.951 106.115 258.279 96.1454 256.957 95.1484ZM228.11 92.67C228.17 88.0394 229.878 78.5617 236.229 77.6958C240.258 76.1923 248.497 71.5257 249.218 64.8865C250.121 56.5875 248.677 39.8092 234.064 33.8556C219.45 27.9019 195.636 26.6391 184.992 32.0514C174.347 37.4638 167.492 43.0564 169.115 53.8812C170.739 64.7059 173.445 72.2832 188.239 79.4997C203.033 86.7162 212.956 74.4485 228.11 92.67Z" stroke="#1C75BC" stroke-width="0.360825"/>
<path d="M214.241 55.2635V59.9023H218.878V64.5396H223.517V69.1811H218.878V64.5424H214.241V69.1811H209.6V64.5424H214.238V59.9036H209.6V55.2635H214.241ZM203.337 55.2635C204.259 55.2635 205.144 55.6301 205.797 56.2826C206.45 56.9351 206.816 57.8201 206.816 58.7429V65.7017C206.816 66.6245 206.45 67.5095 205.797 68.162C205.144 68.8145 204.259 69.1811 203.337 69.1811H196.378C195.455 69.1811 194.57 68.8145 193.918 68.162C193.265 67.5095 192.899 66.6245 192.899 65.7017V58.7429C192.899 57.8201 193.265 56.9351 193.918 56.2826C194.57 55.6301 195.455 55.2635 196.378 55.2635H203.337ZM203.337 58.047H196.378C196.193 58.047 196.016 58.1204 195.886 58.2509C195.755 58.3814 195.682 58.5584 195.682 58.7429V65.7017C195.682 65.8862 195.755 66.0632 195.886 66.1937C196.016 66.3242 196.193 66.3976 196.378 66.3976H203.337C203.521 66.3976 203.698 66.3242 203.829 66.1937C203.959 66.0632 204.033 65.8862 204.033 65.7017V58.7429C204.033 58.5584 203.959 58.3814 203.829 58.2509C203.698 58.1204 203.521 58.047 203.337 58.047ZM202.293 59.7867V64.6579H197.422V59.7867H202.293ZM223.517 55.2635V59.9023H218.878V55.2635H223.517ZM203.337 38.5625C204.259 38.5625 205.144 38.9291 205.797 39.5816C206.45 40.2341 206.816 41.1191 206.816 42.0419V49.0006C206.816 49.9234 206.45 50.8084 205.797 51.4609C205.144 52.1135 204.259 52.48 203.337 52.48H196.378C195.455 52.48 194.57 52.1135 193.918 51.4609C193.265 50.8084 192.899 49.9234 192.899 49.0006V42.0419C192.899 41.1191 193.265 40.2341 193.918 39.5816C194.57 38.9291 195.455 38.5625 196.378 38.5625H203.337ZM220.038 38.5625C220.961 38.5625 221.846 38.9291 222.498 39.5816C223.151 40.2341 223.517 41.1191 223.517 42.0419V49.0006C223.517 49.9234 223.151 50.8084 222.498 51.4609C221.846 52.1135 220.961 52.48 220.038 52.48H213.079C212.156 52.48 211.271 52.1135 210.619 51.4609C209.966 50.8084 209.6 49.9234 209.6 49.0006V42.0419C209.6 41.1191 209.966 40.2341 210.619 39.5816C211.271 38.9291 212.156 38.5625 213.079 38.5625H220.038ZM203.337 41.346H196.378C196.193 41.346 196.016 41.4193 195.886 41.5498C195.755 41.6803 195.682 41.8573 195.682 42.0419V49.0006C195.682 49.1852 195.755 49.3622 195.886 49.4927C196.016 49.6232 196.193 49.6965 196.378 49.6965H203.337C203.521 49.6965 203.698 49.6232 203.829 49.4927C203.959 49.3622 204.033 49.1852 204.033 49.0006V42.0419C204.033 41.8573 203.959 41.6803 203.829 41.5498C203.698 41.4193 203.521 41.346 203.337 41.346ZM220.038 41.346H213.079C212.894 41.346 212.717 41.4193 212.587 41.5498C212.456 41.6803 212.383 41.8573 212.383 42.0419V49.0006C212.383 49.1852 212.456 49.3622 212.587 49.4927C212.717 49.6232 212.894 49.6965 213.079 49.6965H220.038C220.222 49.6965 220.399 49.6232 220.53 49.4927C220.66 49.3622 220.734 49.1852 220.734 49.0006V42.0419C220.734 41.8573 220.66 41.6803 220.53 41.5498C220.399 41.4193 220.222 41.346 220.038 41.346ZM218.994 43.0857V47.9568H214.123V43.0857H218.994ZM202.289 43.0885V47.9527H197.426V43.0885H202.289Z" fill="white"/>
<path d="M250.14 274.159C248.74 271.931 252.898 271.093 255.152 270.952L277.688 269.358C292.384 284.289 251.891 276.944 250.14 274.159Z" fill="url(#paint0_linear_2646_136)"/>
<path d="M208.23 270.478C206.829 268.25 210.987 267.412 213.241 267.272L235.777 265.678C250.473 280.608 209.98 273.263 208.23 270.478Z" fill="url(#paint1_linear_2646_136)"/>
<defs>
<linearGradient id="paint0_linear_2646_136" x1="279.896" y1="274.814" x2="251.402" y2="275.402" gradientUnits="userSpaceOnUse">
<stop stop-color="#1C75BC" stop-opacity="0.11"/>
<stop offset="1" stop-color="#737373" stop-opacity="0"/>
</linearGradient>
<linearGradient id="paint1_linear_2646_136" x1="237.985" y1="271.133" x2="209.491" y2="271.722" gradientUnits="userSpaceOnUse">
<stop stop-color="#1C75BC" stop-opacity="0.11"/>
<stop offset="1" stop-color="#737373" stop-opacity="0"/>
</linearGradient>
</defs>
</svg>
