<?xml version="1.0" encoding="UTF-8" standalone="no"?>
<svg
   width="193"
   height="311"
   viewBox="0 0 193 311"
   fill="none"
   version="1.1"
   id="svg22"
   sodipodi:docname="verification done illustration.svg"
   inkscape:version="1.4 (86a8ad7, 2024-10-11)"
   xmlns:inkscape="http://www.inkscape.org/namespaces/inkscape"
   xmlns:sodipodi="http://sodipodi.sourceforge.net/DTD/sodipodi-0.dtd"
   xmlns="http://www.w3.org/2000/svg"
   xmlns:svg="http://www.w3.org/2000/svg">
  <defs
     id="defs22" />
  <sodipodi:namedview
     id="namedview22"
     pagecolor="#ffffff"
     bordercolor="#000000"
     borderopacity="0.25"
     inkscape:showpageshadow="2"
     inkscape:pageopacity="0.0"
     inkscape:pagecheckerboard="0"
     inkscape:deskcolor="#d1d1d1"
     inkscape:zoom="15.660937"
     inkscape:cx="96.22668"
     inkscape:cy="130.29233"
     inkscape:window-width="1920"
     inkscape:window-height="1121"
     inkscape:window-x="-9"
     inkscape:window-y="1341"
     inkscape:window-maximized="1"
     inkscape:current-layer="svg22" />
  <path
     d="M34.2786 9.56561C33.7088 9.67957 32.5692 10.2494 32.5692 11.6169C32.5692 12.9845 33.7088 13.3263 34.2786 13.3263C34.9624 13.3263 36.2615 12.9845 35.988 11.6169C35.6461 9.9075 35.3042 9.56561 34.2786 9.56561Z"
     fill="#1C75BC"
     id="path1" />
  <path
     d="M26.7571 8.88184C26.1873 8.99581 25.0477 9.56561 25.0477 10.9332C25.0477 12.3007 26.1873 12.6426 26.7571 12.6426C27.4409 12.6426 28.7401 12.3007 28.4665 10.9332C28.1246 9.22373 27.7828 8.88184 26.7571 8.88184Z"
     fill="#1C75BC"
     id="path2" />
  <path
     d="M19.2356 8.19807C18.6658 8.31204 17.5262 8.88184 17.5262 10.2494C17.5262 11.6169 18.6658 11.9588 19.2356 11.9588C19.9194 11.9588 21.2186 11.6169 20.9451 10.2494C20.6032 8.53996 20.2613 8.19807 19.2356 8.19807Z"
     fill="#1C75BC"
     id="path3" />
  <path
     d="M13.6341 2.29021C10.5828 1.23704 5.18416 2.22523 5.44698 14.0523C5.72049 26.3602 5.56094 139.98 5.44698 195.252C4.7632 197.873 6.88289 202.636 20.8318 200.722C4.69482 205.098 0.888504 196.163 1.00247 191.149V6.53103C1.00247 -0.65434 9.20219 0.640444 13.6341 2.29021Z"
     fill="#1C75BC"
     id="path4" />
  <path
     d="M99.7528 67.4741C99.4884 67.4741 98.9597 67.6328 98.9597 68.2672C98.9597 68.9017 99.4884 69.0603 99.7528 69.0603C100.017 69.0603 100.546 68.9017 100.546 68.2672C100.546 67.6328 100.017 67.4741 99.7528 67.4741Z"
     fill="#1C75BC"
     id="path5" />
  <path
     d="M87.0631 67.2759C87.0631 66.0201 87.1821 63.35 87.6579 62.7155C88.1579 62.0489 89.078 59.4214 92.6552 58.6001C92.6338 58.4637 92.5984 58.3395 92.551 58.2267C91.5944 57.714 89.5 58 88.8476 57.3621C87.6111 56.153 91.7184 56.2469 92.551 58.2267C92.7457 58.331 92.9153 58.4311 93.0517 58.5187C93.5341 58.4309 94.0613 58.3748 94.6379 58.3585C92.551 56.5 92.6552 56.1724 93.4483 56.1724C94.0828 56.1724 94.7432 57.6264 94.9941 58.3534C95.6293 58.3534 96.2384 58.3924 96.819 58.4702C96.837 58.3918 96.8541 58.3018 96.8686 58.2035C95.5 56.5 95.2479 55.4113 96.2241 55.9741C96.9473 56.3911 96.9717 57.5072 96.8686 58.2035C96.8587 58.2915 96.8425 58.3805 96.819 58.4702C101.313 59.0728 104.092 62.0081 103.917 67.2759C104.181 67.4081 104.868 67.6724 105.503 67.6724C105.965 65.6236 106.415 60.8517 104.511 58.1552C102.132 54.7845 97.9683 53 95.589 53C92.6552 53 87.658 55.181 86.0717 58.5517C84.8028 61.2483 84.6177 65.2965 84.6838 66.9835C85.5363 66.8171 86.4752 67.0338 87.0631 67.2759Z"
     fill="#1C75BC"
     id="path6" />
  <path
     d="M139.576 133.952C139.667 133.952 139.85 134.007 139.85 134.229C139.85 134.451 139.667 134.507 139.576 134.507C139.484 134.507 139.301 134.451 139.301 134.229C139.301 134.007 139.484 133.952 139.576 133.952Z"
     fill="#1C75BC"
     id="path7" />
  <path
     fill-rule="evenodd"
     clip-rule="evenodd"
     d="M164.85 140.889C168.696 134.507 165.4 122.297 157.707 123.962C157.201 123.911 156.381 123.882 155.674 123.979C159.349 126.959 160 135.617 159 131.702C158.2 128.57 156 125.349 155 124.13C154.734 124.221 154.523 124.346 154.411 124.517C154.167 124.887 153.814 125.586 153.521 126.297C156.042 130.595 155.658 141.945 155 138C154.5 135 153.913 129.158 153.349 126.737C153.078 127.47 152.91 128.144 153.037 128.402C153.169 128.668 152.782 131.229 152.453 134.253C152.305 135.613 152.169 137.067 152.097 138.448C151.994 140.398 152.02 142.202 152.322 143.387C152.591 144.453 152.947 146.081 154.296 148.104C155.415 149.783 157.218 151.735 160.224 153.863C160 153.5 156.5 148.5 158 148C158.976 147.675 158.981 152.795 160.754 154.232C160.835 154.287 160.917 154.343 161 154.399C161.181 154.52 161.365 154.642 161.554 154.764C161.512 154.203 161.501 153.452 161.543 152.566C159.5 150.5 160 145.5 160.5 145.5C160.9 145.5 161.369 150.067 161.554 152.351C161.575 151.974 161.605 151.575 161.647 151.157C161.943 148.185 162.807 144.28 164.85 140.889ZM157 131C157.333 134.334 158.1 141.101 158.5 141.5C159 141.999 158.326 132 157 131Z"
     fill="#1C75BC"
     id="path8" />
  <path
     fill-rule="evenodd"
     clip-rule="evenodd"
     d="M133.257 168.362L133.806 168.084L132.433 166.419L131.439 166.635L128.587 167.252L125.839 170.027L125.565 170.304L125.839 171.692L127.488 173.357L127.766 173.079L130.785 170.068L131.059 168.362H133.257ZM128.587 168.362L126.664 170.304L128.037 171.414L129.686 169.472L128.587 168.362Z"
     fill="#1C75BC"
     id="path9" />
  <path
     fill-rule="evenodd"
     clip-rule="evenodd"
     d="M151.521 129.482C151.546 129.422 151.567 129.371 151.585 129.328C151.646 129.178 151.664 129.134 151.664 129.234C151.664 129.284 151.613 129.368 151.521 129.482ZM152.684 131.548C152.745 131.398 152.762 131.354 152.762 131.454C152.762 131.47 152.758 131.488 152.748 131.51C152.727 131.559 152.684 131.623 152.62 131.702C152.645 131.642 152.666 131.591 152.684 131.548Z"
     fill="#1C75BC"
     id="path10" />
  <path
     fill-rule="evenodd"
     clip-rule="evenodd"
     d="M140.4 126.737C140.839 123.407 143.33 121.834 144.521 121.464C146.134 122.236 149.244 123.867 149.687 124.631C149.725 124.769 149.739 124.866 149.743 124.905C149.742 124.885 149.74 124.849 149.74 124.794C149.74 124.746 149.722 124.691 149.687 124.631C149.487 123.892 148.614 121.962 144.959 121.291C145.893 120.95 147.197 120.627 148.642 120.533C150.189 120.433 151.898 120.597 153.483 121.284C154.253 121.618 154.995 122.076 155.674 122.687C155.458 122.719 155.221 122.773 154.96 122.852C152.213 123.684 151.938 126.459 151.938 127.014C151.938 127.569 151.664 128.957 153.037 128.402C153.169 128.668 152.782 131.229 152.453 134.253C152.534 133.074 152.612 132.072 152.748 131.51C152.758 131.488 152.762 131.47 152.762 131.454C152.762 131.354 152.745 131.398 152.684 131.548C152.666 131.591 152.645 131.642 152.62 131.702C151.888 132.604 148.508 135.33 146.719 136.727C151 136 152.245 132.59 152.62 131.702C152.684 131.623 152.727 131.559 152.748 131.51C152.612 132.072 152.534 133.074 152.453 134.253C152.305 135.613 152.169 137.067 152.097 138.448C151.905 139.946 151.612 141.281 151.114 141.999C148.642 142.277 147.268 140.889 144.795 139.502C142.817 138.392 142.323 136.634 142.323 135.894C142.598 135.709 142.927 135.173 142.048 134.507C140.949 133.674 139.85 130.899 140.4 126.737ZM151.521 129.482C150.789 130.384 147.409 133.11 145.62 134.507C149 134.229 151.146 130.37 151.521 129.482C151.613 129.368 151.664 129.284 151.664 129.234C151.664 129.134 151.646 129.178 151.585 129.328C151.567 129.371 151.546 129.422 151.521 129.482Z"
     fill="#1C75BC"
     id="path11" />
  <path
     fill-rule="evenodd"
     clip-rule="evenodd"
     d="M106.987 160.037H82.3711C81.1176 160.037 78.6104 160.926 78.6104 164.482V172.345C78.3825 172.915 78.6788 174.123 81.6874 174.397C84.696 174.67 100.491 174.511 108.013 174.397C108.81 174.283 110.406 173.713 110.406 172.345C110.27 169.538 110 163.533 110 161.979C110 160.425 107.991 160.037 106.987 160.037ZM90.5 171L86 167.5L86.5 165.5L90.5 169L101 162.5L102 163.5L90.5 171Z"
     fill="#1C75BC"
     id="path12" />
  <path
     d="M84.4855 71.9645C85.1609 72.4601 85.91 72.8229 86.4683 73.0259C87.1332 74.134 88.5289 75.9358 90.4338 77.4759L90.0373 83.7328L88.624 83.7893C89.5 81 90 77.5 88.2528 77.1897V83.8041L86.4683 83.8755C87.5 81 87 76 85.9138 75.8017L86.0717 83.8914L85.0804 83.931L84.4855 71.9645Z"
     fill="#1C75BC"
     id="path13" />
  <path
     fill-rule="evenodd"
     clip-rule="evenodd"
     d="M139.935 186.399C140.085 186.3 140.125 185.651 140.125 185.289H157.707C157.707 185.588 157.732 185.963 157.788 186.399C157.956 187.688 158.406 189.514 159.341 191.5C160.047 192.999 161.03 194.591 162.378 196.112C166.114 200.33 167.964 216.554 168.422 224.139L173.641 278.807C171.169 280.195 165.62 282.581 163.202 281.027C160.929 279.566 158.034 264.604 156.388 256.096C155.846 253.292 155.439 251.19 155.235 250.502C154.584 248.31 151.517 227.909 150.008 217.598C149.989 217.464 149.97 217.332 149.951 217.202C149.577 217.51 149.227 217.79 148.916 218.034L135.455 252.722L134.905 279.917C133.009 281.416 128.692 283.456 125.283 280.929C124.907 280.65 124.541 280.315 124.191 279.917C121.035 276.331 121.278 267.308 121.463 260.451C121.535 257.757 121.599 255.397 121.444 253.832C121.004 249.392 124.557 236.072 126.389 229.967C127.946 224.509 131.664 212.207 134.081 206.657C135.435 203.549 136.812 198.963 137.927 194.749C138.804 191.436 139.52 188.353 139.935 186.399ZM149.951 217.202C151.483 215.942 153.423 214.232 154.76 212.762C154.978 212.762 155.228 212.76 155.498 212.755C154.611 214.397 152.93 216.296 150.008 217.598L149.951 217.202Z"
     fill="#1C75BC"
     id="path14" />
  <path
     d="M176.663 301.84C177.671 302.58 179.521 304.781 178.861 307.667C178.202 310.553 170.711 310.165 167.048 309.61C163.202 308.685 155.62 306.058 156.059 302.95C156.151 302.58 156.444 301.784 156.883 301.562C157.071 301.467 157.098 301.632 157.141 301.891C157.223 302.387 157.361 303.227 158.806 303.227C160.011 303.227 160.225 304.228 160.399 305.041C160.542 305.711 160.658 306.253 161.279 306.002C162.075 305.68 162.595 304.799 162.998 304.115C163.29 303.619 163.521 303.227 163.751 303.227C164.301 303.227 176.114 303.227 176.663 301.84Z"
     fill="white"
     id="path15" />
  <path
     d="M135.73 300.73C136.737 302.672 138.312 306.779 136.554 307.667C134.795 308.555 122.085 308.962 115.949 309.055C113.477 308.777 109.191 307.223 111.828 303.227C111.92 303.69 112.213 304.615 112.653 304.615C113.202 304.615 114.85 304.615 115.125 304.892C115.213 304.981 115.356 305.238 115.529 305.548C115.897 306.211 116.399 307.112 116.774 307.112C117.024 307.112 117.617 306.593 118.293 306.002C119.099 305.296 120.022 304.488 120.62 304.337C120.859 304.277 121.698 304.111 122.867 303.88C127.064 303.051 135.515 301.381 135.73 300.73Z"
     fill="white"
     id="path16" />
  <path
     d="M91.4252 67.4741C91.1608 67.4741 90.6321 67.6328 90.6321 68.2672C90.6321 68.9017 91.1608 69.0603 91.4252 69.0603C91.6896 69.0603 92.2183 68.9017 92.2183 68.2672C92.2183 67.6328 91.6896 67.4741 91.4252 67.4741Z"
     fill="#1C75BC"
     id="path17" />
  <path
     fill-rule="evenodd"
     clip-rule="evenodd"
     d="M122.637 291.221C122.665 292.084 123.608 293.741 124.191 294.625V297.955H129.96C130.384 297.431 131.1 296.653 131.844 296.051C132.6 296.654 134.052 297.323 133.806 295.18C134.905 295.402 135.546 298.972 135.73 300.73C135.515 301.381 127.064 303.051 122.867 303.88C121.698 304.111 120.859 304.277 120.62 304.337C120.022 304.488 119.099 305.296 118.293 306.002C117.617 306.593 117.024 307.112 116.774 307.112C116.399 307.112 115.897 306.211 115.529 305.548C115.356 305.238 115.213 304.981 115.125 304.892C114.85 304.615 113.202 304.615 112.653 304.615C112.213 304.615 111.92 303.69 111.828 303.227C114.484 301.285 120.345 296.956 122.543 295.18C122.467 294.179 122.403 292.23 122.637 291.221Z"
     fill="#1C75BC"
     id="path19" />
  <path
     fill-rule="evenodd"
     clip-rule="evenodd"
     d="M164.576 292.127C164.136 292.793 165.491 295.18 166.224 296.29L165.949 298.232L169.246 298.51C169.885 297.649 171.35 296.088 173 295.326C174 296.5 174.6 296.517 175 294.954C176.693 295.499 176.83 299.646 176.663 301.84C176.114 303.227 164.301 303.227 163.751 303.227C163.521 303.227 163.29 303.619 162.998 304.115C162.595 304.799 162.075 305.68 161.279 306.002C160.658 306.253 160.542 305.711 160.399 305.041C160.225 304.228 160.011 303.227 158.806 303.227C157.361 303.227 157.223 302.387 157.141 301.891C157.098 301.632 157.071 301.467 156.883 301.562C157.799 300.73 160.4 299.176 163.477 299.62C165.602 299.926 165.043 297.861 164.488 295.81C164.039 294.15 163.592 292.5 164.576 292.127Z"
     fill="#1C75BC"
     id="path20" />
  <path
     d="M145.345 147.272C147.512 147.772 147.298 152.749 151.845 155.272C154.96 157 163.345 159.272 160.845 150.272C164.845 163.772 155.5 166.5 150.845 160.272C149.085 157.918 146.678 150.772 145.345 147.272Z"
     fill="#1C75BC"
     id="path21" />
  <path
     d="M 192.117,42.7706 C 193.028,39.1239 192.254,31.4201 181.86,29.779 171.467,28.138 65.6189,10.8614 13.9941,2.42819 M 192.117,42.7706 V 178.157 c 0.226,4.787 -2.193,14.086 -13.676,12.992 -0.592,-0.056 -1.161,-0.104 -1.71,-0.145 M 192.117,42.7706 176.048,40.2985 M 13.9941,2.42819 c -0.1169,-0.04615 -0.237,-0.0922 -0.36,-0.13798 m 0.36,0.13798 C 13.8784,2.37922 13.7582,2.33303 13.6341,2.29021 M 5.44698,14.0523 c 0.2735,12.3079 0.11396,125.9277 0,181.1997 -0.68377,2.621 1.43591,7.384 15.38482,5.47 M 5.44698,14.0523 171.945,39.6673 M 5.44698,14.0523 C 5.18416,2.22523 10.5828,1.23704 13.6341,2.29021 M 20.8318,200.722 c 13.9489,-1.915 74.6449,-4.445 103.2492,-5.47 l 13.846,-0.503 M 20.8318,200.722 C 4.69482,205.098 0.88851,196.163 1.00247,191.149 M 176.048,40.2985 171.945,39.6673 m 4.103,0.6312 0.182,40.0797 0.15,33.1628 0.351,77.463 m 0,0 c -1.824,-0.135 -3.41,-0.184 -4.786,-0.168 m 0,-151.1687 v 40.7109 33.1628 77.295 m 0,0 -12.604,0.664 m -47.91,-94.0275 c 4.445,4.1025 13.334,5.1285 15.727,-2.3932 C 129.073,89.0621 126.5,84.5 122.03,82.7714 m -10.599,14.7011 c -1.075,-1.1655 -2.744,-3.9249 -2.608,-7.1796 0.037,-0.8826 0.207,-1.8016 0.557,-2.7351 1.641,-4.3761 8.12,-6.0578 12.65,-4.7864 m -10.599,14.7011 c -2.598,1.2991 -8.894,3.8425 -15.3844,4.8175 -0.9111,0.137 -1.8261,0.243 -2.7351,0.311 -3.2909,0.244 -7.9722,-0.642 -12.6498,-3.0145 C 76.2424,97.3455 71.8263,93.778 68.5894,88.5835 65.6421,83.8539 63.6723,77.7756 63.5675,70.1217 63.294,50.1556 81,43.1127 93.3115,43.1127 122.5,43.5 124.423,71.7171 122.03,82.7714 m -4.445,2.3932 v 12.3079 m 5.47,-6.1539 h -11.282 m -4.786,68.7184 H 82.3711 m 24.6159,0 H 82.3711 m 24.6159,0 c 1.004,0 3.013,0.388 3.013,1.942 0,1.554 0.27,7.559 0.406,10.366 0,1.368 -1.596,1.938 -2.393,2.052 -7.522,0.114 -23.317,0.273 -26.3256,0 -3.0086,-0.274 -3.3049,-1.482 -3.077,-2.052 m 3.7607,-12.308 c -1.2535,0 -3.7607,0.889 -3.7607,4.445 m 0,0 v 7.863 m 0,-7.863 v 7.863 M 1.00247,6.53103 V 191.149 m 0,-184.61797 V 191.149 m 0,-184.61797 c 0,-7.18537 8.19973,-5.890586 12.63163,-4.24082 m 81.36,56.06319 c -0.2509,-0.727 -0.9113,-2.181 -1.5458,-2.181 -0.7931,0 -0.8973,0.3276 1.1896,2.1861 m 0.3562,-0.0051 c -0.1207,0 -0.2395,0.0017 -0.3562,0.0051 m 0.3562,-0.0051 c 0.6352,0 1.2443,0.039 1.8249,0.1168 m 8.684,9.2022 c -0.635,0 -1.322,-0.2644 -1.586,-0.3965 0.175,-5.2678 -2.604,-8.2031 -7.098,-8.8057 m 8.684,9.2022 c 0.793,0 1.983,0.5948 2.181,2.3793 0.198,1.7845 -0.793,3.3707 -3.173,3.3707 h -0.594 c -0.561,1.8672 -2.09,4.9344 -4.5608,6.2398 m 6.1468,-11.9898 c 0.462,-2.0488 0.912,-6.8207 -0.992,-9.5172 C 102.132,54.7845 97.9683,53 95.589,53 c -2.9338,0 -7.931,2.181 -9.5173,5.5517 -1.2689,2.6966 -1.454,6.7448 -1.3879,8.4318 m 11.1035,0.8872 c 0.3304,0.9914 0.912,3.0138 0.5948,3.1724 -0.3173,0.1586 -0.9253,-0.0661 -1.1897,-0.1983 m -6.3448,-5.3534 c 0.727,-0.5948 2.6966,-1.5466 4.7586,-0.5948 m 4.3621,0.1982 c 0.9914,-0.3965 3.2117,-0.8327 4.1637,0.5949 m -17.4482,1.2938 c -0.7768,0.1517 -1.482,0.6215 -1.7845,1.6803 -0.3909,1.3681 0.5026,2.5054 1.5862,3.3007 m 0.1983,-4.981 c 0.8525,-0.1664 1.7914,0.0503 2.3793,0.2924 0,-1.2558 0.119,-3.9259 0.5948,-4.5604 0.5,-0.6666 1.4201,-3.2941 4.9973,-4.1154 m -8.1697,13.3644 c 0.6754,0.4956 1.4245,0.8584 1.9828,1.0614 0.6649,1.1081 2.0606,2.9099 3.9655,4.45 m -5.9483,-5.5114 0.5949,11.9665 m 0,0 C 81.5775,85.7816 74.889,90.7517 76.158,95.8276 m 8.9224,-11.8966 0.9913,-0.0396 m 3.9656,-0.1586 0.3965,-6.2569 m -0.3965,6.2569 c 2.2207,2.5379 6.8735,1.0574 8.9224,0 m -8.9224,0 -1.4133,0.0565 m 1.8098,-6.3134 c 1.5035,1.2155 3.3243,2.2681 5.3535,2.6879 1.3511,0.2795 2.5414,0.0413 3.5689,-0.5016 m 0,0 -0.3965,4.0706 m 0,0 c 2.1153,0.2643 6.7413,1.0707 8.3273,2.181 1.586,1.1103 1.586,9.1868 1.388,13.0862 M 86.0717,83.8914 85.9138,75.8017 C 87,76 87.5,81 86.4683,83.8755 m -0.3966,0.0159 0.3966,-0.0159 m 0,0 1.7845,-0.0714 m 0,0 V 77.1897 C 90,77.5 89.5,81 88.624,83.7893 m -0.3712,0.0148 0.3712,-0.0148 m 4.4277,-25.2706 c -0.1357,0.0247 -0.2678,0.0519 -0.3965,0.0814 m 0.3965,-0.0814 c 0.4824,-0.0878 1.0096,-0.1439 1.5862,-0.1602 m -1.5862,0.1602 c -0.1364,-0.0876 -0.306,-0.1877 -0.5007,-0.292 m 0.1042,0.3734 C 92.6338,58.4637 92.5984,58.3395 92.551,58.2267 m 4.268,0.2435 c 0.018,-0.0784 0.0351,-0.1684 0.0496,-0.2667 m -0.0496,0.2667 c 0.0235,-0.0897 0.0397,-0.1787 0.0496,-0.2667 M 92.551,58.2267 C 91.5944,57.714 89.5,58 88.8476,57.3621 87.6111,56.153 91.7184,56.2469 92.551,58.2267 Z m 4.3176,-0.0232 C 95.5,56.5 95.2479,55.4113 96.2241,55.9741 c 0.7232,0.417 0.7476,1.5331 0.6445,2.2294 z m 47.6524,63.2605 c -1.191,0.37 -3.682,1.943 -4.121,5.273 m 4.121,-5.273 c 0.135,-0.057 0.281,-0.115 0.438,-0.173 m -0.438,0.173 c 1.613,0.772 4.723,2.403 5.166,3.167 m -9.287,2.106 c -0.55,4.162 0.549,6.937 1.648,7.77 0.879,0.666 0.55,1.202 0.275,1.387 0,0.74 0.494,2.498 2.472,3.608 2.473,1.387 3.847,2.775 6.319,2.497 M 140.4,126.737 c -0.047,0.167 -0.098,0.353 -0.152,0.555 m 10.866,14.707 c 0.498,-0.718 0.791,-2.053 0.983,-3.551 m -0.983,3.551 c 0.282,1.501 0.918,4.501 1.208,4.501 m 5.385,-22.538 c 7.693,-1.665 10.989,10.545 7.143,16.927 -2.043,3.391 -2.907,7.296 -3.203,10.268 m -3.94,-27.195 c 0,-0.571 -0.426,-1.515 -2.033,-1.275 m 2.033,1.275 c -0.506,-0.051 -1.326,-0.08 -2.033,0.017 m -2.637,4.423 c -1.373,0.555 -1.099,-0.833 -1.099,-1.388 0,-0.555 0.275,-3.33 3.022,-4.162 0.261,-0.079 0.498,-0.133 0.714,-0.165 m -2.637,5.715 c -0.127,-0.258 0.041,-0.932 0.312,-1.665 m -0.312,1.665 c 0.132,0.266 -0.255,2.827 -0.584,5.851 m 3.221,-11.566 c -0.679,-0.611 -1.421,-1.069 -2.191,-1.403 m -3.743,3.51 c 0,-0.048 -0.018,-0.103 -0.053,-0.163 m 0.053,0.163 c 0,0.055 0.002,0.091 0.003,0.111 m -0.003,-0.111 c 0,0.126 0.008,0.155 0.003,0.111 m -4.784,-3.614 c 0.934,-0.341 2.238,-0.664 3.683,-0.758 1.547,-0.1 3.256,0.064 4.841,0.751 m -8.524,0.007 c 3.655,0.671 4.528,2.601 4.728,3.34 m 3.075,6.823 c 0,-0.1 -0.017,-0.056 -0.078,0.094 -0.018,0.043 -0.039,0.094 -0.064,0.154 m 0.142,-0.248 c 0,0.016 -0.004,0.034 -0.014,0.056 m 0.014,-0.056 c -0.004,0.018 -0.009,0.037 -0.014,0.056 m -7.403,15.762 c -2.015,0.647 -6.374,3.33 -7.692,8.88 -1.319,5.55 -1.099,11.747 -0.825,14.152 m 8.517,-23.032 c 2.167,0.5 1.953,5.477 6.5,8 3.115,1.728 11.5,4 9,-5 4,13.5 -5.345,16.228 -10,10 -1.76,-2.354 -4.167,-9.5 -5.5,-13 z m 0,0 c -0.013,-0.094 -0.027,-0.184 -0.04,-0.272 m -6.165,-14.158 c 0.145,-0.093 0.546,-0.222 0.985,0 m -0.985,0 c -0.023,0.187 -0.044,0.372 -0.062,0.555 m 0.062,-0.555 c 0.24,-1.964 0.736,-4.144 1.108,-5.55 m -0.815,12.059 c -0.224,-1.162 -0.291,-2.448 -0.407,-3.734 -0.056,-0.63 -0.029,-1.396 0.052,-2.22 m 0.355,5.954 c 0.307,1.595 0.91,2.955 2.34,3.758 2.413,1.354 2.995,0.33 3.532,3.891 m -5.872,-7.649 c 0.414,0.319 1.461,0.767 2.34,0 m 12.523,8.753 c -1.349,-2.023 -1.705,-3.651 -1.974,-4.717 -0.302,-1.185 -0.328,-2.989 -0.225,-4.939 m 2.199,9.656 c 1.119,1.679 2.922,3.631 5.928,5.759 m -5.928,-5.759 -1.974,-1.604 m -15.494,23.804 c -0.091,0.278 0,0.888 1.099,1.11 m -1.099,-1.11 c 0.316,-0.038 0.687,-0.078 1.099,-0.118 m 7.693,1.228 v -1.346 m 0,1.346 c 1.186,-0.07 2.892,-0.291 2.472,-0.687 m -2.472,0.687 c -0.275,2.313 -0.989,7.382 -1.649,9.158 -0.374,1.008 -0.975,1.902 -1.725,2.499 -0.902,0.718 -2.02,1.008 -3.22,0.553 m 6.594,-13.556 c 0.505,0.057 0.97,0.134 1.373,0.236 0.628,0.159 0.968,0.3 1.099,0.423 m -2.472,-0.659 c -2.343,-0.262 -5.568,-0.084 -7.693,0.118 m 10.165,0.541 c 0.092,-3.101 0.11,-9.469 -0.549,-10.135 m -9.616,10.822 v -1.228 m 0,1.228 0.138,2.22 m 0.137,2.22 -0.137,-2.22 m 0,0 -4.808,-5.272 m 0,0 0.549,-0.278 -1.373,-1.665 -0.994,0.216 m 1.818,1.727 h -2.198 l -0.274,1.706 -3.019,3.011 m 3.673,-6.444 -2.852,0.617 -2.748,2.775 m 5.6,-3.392 c -1.867,-1.182 -5.764,-3.934 -6.424,-5.488 -0.379,-0.895 -0.777,-1.097 -1.099,-1.019 m 1.923,9.899 -0.274,0.277 0.274,1.388 1.649,1.665 0.278,-0.278 m -1.927,-3.052 c -0.274,-0.278 -3.022,0.277 -8.791,-0.833 -4.615,-0.888 -2.289,-2.22 -0.549,-2.775 -0.824,0.072 -2.473,-0.05 -2.473,-1.11 0,-1.06 1.649,-1.366 2.473,-1.387 -0.824,-0.093 -2.528,-0.5 -2.747,-1.388 -0.22,-0.888 1.923,-0.555 3.022,-0.277 -0.916,-0.463 -2.528,-1.554 -1.649,-2.22 0.08,-0.06 0.172,-0.104 0.275,-0.135 m 8.516,0.226 c -0.237,0.058 -0.432,0.268 -0.549,0.464 -0.458,0.647 -1.593,1.831 -2.473,1.387 -1.019,-0.515 -4.167,-2.463 -5.494,-2.077 m 8.516,0.226 v -0.924 m 0,0 H 115.4 m 8.516,0 h 0.55 v -0.555 h -0.824 v -1.11 h -5.77 v -0.832 h -3.571 v 2.497 h 1.099 m 0,0 v 0.698 m 12.366,13.177 c 2.015,2.16 5.569,5.833 8.234,8.238 m 3.026,2.307 v 1.665 m 0,-1.665 c -0.585,-0.221 -1.695,-1.106 -3.026,-2.307 m 25.647,-30.16 c 0.305,1.572 0.733,4.884 0,5.55 -0.734,0.666 -1.101,2.558 -1.192,3.421 v 22.943 2.218 m 1.192,-34.132 c -0.042,0.418 -0.072,0.817 -0.093,1.194 m -1.099,32.938 h -2.748 m 2.748,0 c 0,0.366 -0.536,1.092 -2.667,1.11 m -18.762,-1.11 c -0.091,0.185 -0.055,0.666 0.824,1.11 0.032,0.018 0.06,0.017 0.085,0 m -0.909,-1.11 h 1.099 m 17.582,1.11 h 0.081 m -17.663,-1.11 c 0,0.362 -0.04,1.011 -0.19,1.11 m 0.19,-1.11 h 17.582 m -17.772,1.11 c -0.415,1.954 -1.131,5.037 -2.008,8.35 m -13.736,85.168 0.55,4.995 c 0.207,0.065 0.484,0.134 0.824,0.199 m -1.374,-5.194 c -3.156,-3.586 -2.913,-12.609 -2.728,-19.466 0.072,-2.694 0.136,-5.054 -0.019,-6.619 -0.44,-4.44 3.113,-17.76 4.945,-23.865 1.557,-5.458 5.275,-17.76 7.692,-23.31 1.354,-3.108 2.731,-7.694 3.846,-11.908 m -13.736,85.168 c 0.35,0.398 0.716,0.733 1.092,1.012 3.409,2.527 7.726,0.487 9.622,-1.012 m 0,0 0.55,-27.195 13.461,-34.688 m -14.011,61.883 -1.099,4.995 m 15.11,-66.878 c 0.311,-0.244 0.661,-0.524 1.035,-0.832 m -1.035,0.832 c 0.382,-0.136 0.746,-0.282 1.092,-0.436 m 4.752,-4.836 c 0.934,-1.028 1.574,-1.939 1.574,-2.498 -0.058,0.617 -0.305,1.508 -0.836,2.491 m -0.738,0.007 c -1.337,1.47 -3.277,3.18 -4.809,4.44 m 4.809,-4.44 c 0.218,0 0.468,-0.002 0.738,-0.007 m 4.133,-0.548 c -0.189,0.381 -2.509,0.517 -4.133,0.548 m -5.547,4.447 0.057,0.396 m -0.057,-0.396 c 0.019,0.13 0.038,0.262 0.057,0.396 m 13.194,63.429 c 2.418,1.554 7.967,-0.832 10.439,-2.22 m -10.439,2.22 1.099,4.995 c 0.311,0.011 0.659,0.015 1.035,0.012 m -2.134,-5.007 c -2.273,-1.461 -5.168,-16.423 -6.814,-24.931 -0.542,-2.804 -0.949,-4.906 -1.153,-5.594 -0.651,-2.192 -3.718,-22.593 -5.227,-32.904 m 23.633,61.209 -5.219,-54.668 c -0.458,-7.585 -2.308,-23.809 -6.044,-28.027 -1.348,-1.521 -2.331,-3.113 -3.037,-4.612 m 14.3,87.307 v 4.718 m -15.934,-98.236 c 0,0.299 0.025,0.674 0.081,1.11 m -23.982,98.513 c -3.629,0.733 -6.634,0.508 -8.241,0.199 m 8.241,-0.199 -1.914,11.1 m 41.749,-12.487 c -0.779,1.969 -5.362,2.482 -8.305,2.509 m 8.305,-2.509 v 11.551 m -48.076,-9.965 v 7.294 m -1.374,2.22 1.374,-0.555 v -1.665 m -1.374,2.22 v 3.33 h 5.769 c 0.424,-0.524 1.14,-1.302 1.884,-1.904 m -7.653,-1.426 c -0.583,-0.884 -1.526,-2.541 -1.554,-3.404 m 0.18,-0.481 c 0.66,-0.444 2.107,0.925 2.748,1.665 m -2.748,-1.665 c -0.073,0.111 -0.133,0.277 -0.18,0.481 m 0.18,-0.481 c -0.134,0.09 -0.187,0.259 -0.18,0.481 m 11.169,3.959 c 1.099,0.222 1.74,3.792 1.924,5.55 m -1.924,-5.55 c -0.521,-0.106 -1.228,0.284 -1.914,0.832 m 1.914,-0.832 c 0.246,2.143 -1.206,1.474 -1.962,0.871 m 3.886,4.679 c 1.007,1.942 2.582,6.049 0.824,6.937 -1.759,0.888 -14.469,1.295 -20.605,1.388 -2.472,-0.278 -6.758,-1.832 -4.121,-5.828 m 23.902,-2.497 c -0.215,0.651 -8.666,2.321 -12.863,3.15 -1.169,0.231 -2.008,0.397 -2.247,0.457 -0.598,0.151 -1.521,0.959 -2.327,1.665 -0.676,0.591 -1.269,1.11 -1.519,1.11 -0.375,0 -0.877,-0.901 -1.245,-1.564 -0.173,-0.31 -0.316,-0.567 -0.404,-0.656 -0.275,-0.277 -1.923,-0.277 -2.472,-0.277 -0.44,0 -0.733,-0.925 -0.825,-1.388 m 0,0 c 2.656,-1.942 8.517,-6.271 10.715,-8.047 -0.076,-1.001 -0.14,-2.95 0.094,-3.959 m 42.699,-5.187 0.838,5.816 m 0.05,4.44 0.549,-0.278 -0.599,-4.162 m 0.05,4.44 c -0.733,-1.11 -2.088,-3.497 -1.648,-4.163 m 1.648,4.163 -0.275,1.942 3.297,0.278 c 0.639,-0.861 2.104,-2.422 3.754,-3.184 m -8.424,-3.199 c 0.439,-0.666 1.248,-0.462 1.598,-0.277 m -1.598,0.277 c -0.984,0.373 -0.537,2.023 -0.088,3.683 0.555,2.051 1.114,4.116 -1.011,3.81 -3.077,-0.444 -5.678,1.11 -6.594,1.942 m 19.78,0.278 c 1.008,0.74 2.858,2.941 2.198,5.827 -0.659,2.886 -8.15,2.498 -11.813,1.943 -3.846,-0.925 -11.428,-3.552 -10.989,-6.66 0.092,-0.37 0.385,-1.166 0.824,-1.388 m 19.78,0.278 c -0.549,1.387 -12.362,1.387 -12.912,1.387 -0.23,0 -0.461,0.392 -0.753,0.888 -0.403,0.684 -0.923,1.565 -1.719,1.887 -0.621,0.251 -0.737,-0.291 -0.88,-0.961 -0.174,-0.813 -0.388,-1.814 -1.593,-1.814 -1.445,0 -1.583,-0.84 -1.665,-1.336 -0.043,-0.259 -0.07,-0.424 -0.258,-0.329 m 19.78,0.278 c 0.167,-2.194 0.03,-6.341 -1.663,-6.886 M 139.078,133.397 c -1.136,-1.534 -2.836,-3.832 -4.356,-5.897 m -3.388,-4.648 c -0.55,-0.833 1.374,-0.555 1.648,-0.278 0.035,0.036 0.084,0.09 0.143,0.156 m -1.791,0.122 c 0.064,0.097 0.223,0.321 0.455,0.643 m -0.455,-0.643 c -0.092,0.155 -0.275,0.484 -0.275,0.554 0,0.071 0.259,0.258 0.388,0.342 m 4.008,-1.451 c 0.824,1.11 -0.55,1.942 -0.824,1.942 -0.15,0 -0.545,-0.412 -0.918,-0.833 m 1.742,-1.109 1.373,-1.11 m -1.373,1.11 -1.742,1.109 m 3.115,-2.219 c 0.458,0.462 1.374,1.831 1.374,3.607 l 2.046,2.498 m -3.42,-6.105 c 0.092,-0.278 0.275,-0.888 0.275,-1.111 0,-0.222 -0.549,0.093 -0.824,0.278 m -3.846,1.943 c 0.275,-0.463 0.934,-1.388 1.373,-1.388 0.053,0 0.119,-0.007 0.194,-0.021 m 2.279,-0.534 c 0,0.222 -2.103,1.677 -3.154,2.376 m 3.154,-2.376 c 0,-0.251 -1.571,0.405 -2.279,0.534 m -0.875,1.842 c 0.15,0.17 0.365,0.425 0.588,0.676 m -1.555,0.598 c -0.183,0.078 -0.494,0.29 -0.275,0.512 0.22,0.222 0.524,0.093 0.649,0 m -0.374,-0.512 c 0.115,0.158 0.24,0.33 0.374,0.512 m -0.374,-0.512 c -0.137,-0.189 -0.261,-0.36 -0.369,-0.509 m 0.369,0.509 -0.824,0.79 h -0.824 l 0.274,-0.555 0.663,-0.491 m 1.085,0.768 c -0.125,0.093 -0.319,0.333 -0.099,0.555 0.22,0.222 0.381,0.029 0.435,-0.095 m -0.336,-0.46 c 0.107,0.147 0.219,0.3 0.336,0.46 m 0,0 c -0.13,0.124 -0.311,0.428 0,0.65 0.311,0.222 0.447,0.093 0.476,0 m -0.476,-0.65 c 0.151,0.207 0.311,0.425 0.476,0.65 m 0,0 c 0.425,0.58 0.892,1.215 1.378,1.874 m -2.933,-4.005 -0.342,0.253 m 0.445,172.264 -0.048,0.039 m 41.797,-0.975 c 0.273,-0.086 0.549,-0.146 0.825,-0.174 0.193,-0.019 0.371,0 0.534,0.052 m -1.359,0.122 c -0.215,0.068 -0.43,0.153 -0.641,0.25 M 149.687,124.631 c 0.038,0.138 0.052,0.235 0.056,0.274 m 0,0 c 0.003,0.025 0.002,0.026 0,0 z m 1.778,4.577 c -0.732,0.902 -4.112,3.628 -5.901,5.025 3.38,-0.278 5.526,-4.137 5.901,-5.025 z m 0,0 c 0.092,-0.114 0.143,-0.198 0.143,-0.248 0,-0.1 -0.018,-0.056 -0.079,0.094 -0.018,0.043 -0.039,0.094 -0.064,0.154 z m 1.099,2.22 c -0.732,0.902 -4.112,3.628 -5.901,5.025 4.281,-0.727 5.526,-4.137 5.901,-5.025 z m 0,0 c 0.064,-0.079 0.107,-0.143 0.128,-0.192 m 5.04,54.889 c 0.168,1.289 0.618,3.115 1.553,5.101 m -5.992,-64.763 C 153.913,129.158 154.5,135 155,138 c 0.658,3.945 1.042,-7.405 -1.479,-11.703 m -0.172,0.44 c 0.054,-0.145 0.112,-0.293 0.172,-0.44 m 0,0 c 0.293,-0.711 0.646,-1.41 0.89,-1.78 0.112,-0.171 0.323,-0.296 0.589,-0.387 m 0,0 c 1,1.219 3.2,4.44 4,7.572 1,3.915 0.349,-4.743 -3.326,-7.723 M 155,124.13 c 0.199,-0.068 0.43,-0.117 0.674,-0.151 m 4.55,29.884 C 160,153.5 156.5,148.5 158,148 c 0.976,-0.325 0.981,4.795 2.754,6.232 m -0.53,-0.369 c 0.172,0.122 0.349,0.245 0.53,0.369 m 0.246,0.167 c 0.181,0.121 0.365,0.243 0.554,0.365 -0.042,-0.561 -0.053,-1.312 -0.011,-2.198 M 161,154.399 c -0.083,-0.056 -0.165,-0.112 -0.246,-0.167 m 0.246,0.167 c -0.085,-0.047 -0.167,-0.103 -0.246,-0.167 m 0.8,-1.881 c -0.185,-2.284 -0.654,-6.851 -1.054,-6.851 -0.5,0 -1,5 1.043,7.066 m 0.011,-0.215 c -0.004,0.072 -0.008,0.144 -0.011,0.215 M 134,120.888 c 0,-2.89 -2.76,-3.595 -4.141,-3.586 h -4.41 l -67.3517,-2.735 c -3.6468,-0.684 -11.1455,-0.616 -11.966,5.128 -0.8205,5.744 5.3562,8.319 8.5471,8.889 L 123.739,129.952 129,130 c 1.815,-0.167 5.499,-0.9 5.722,-2.5 m 18.761,-6.216 v -16.52 l 1.368,-52.7622 c 0,-3.9011 -2.257,-11.7033 -11.282,-11.7033 -9.026,0 -74.8733,-10.4317 -106.6686,-15.6476 -4.6724,-1.0256 -14.0857,-0.6153 -14.3592,9.2309 -0.2735,9.8463 -0.1139,100.2862 0,144.2752 1.0257,2.394 5.607,7.317 15.7268,7.864 10.1198,0.547 65.87,-2.786 92.48,-4.521 L 136,181.317 m 16.453,-47.064 c 0.081,-1.179 0.159,-2.181 0.295,-2.743 m -0.295,2.743 c -0.148,1.36 -0.284,2.814 -0.356,4.195 m 0.356,-4.195 c -0.088,1.3 -0.18,2.816 -0.356,4.195 m 3.401,74.307 c -0.887,1.642 -2.568,3.541 -5.49,4.843 M 173,295.326 c 1,1.174 1.6,1.191 2,-0.372 M 152.322,146.5 c 0.289,0 -1.636,1.333 -2.635,2 -1.291,-0.659 -3.974,-1.881 -4.382,-1.5 m -16.779,-7.476 -74.5313,-1.025 c -2.6211,0.228 -7.8634,1.914 -7.8634,6.837 0,4.924 5.6981,6.382 8.5471,6.496 h 69.2686 c 3.287,0 9.898,-1.166 10.053,-5.832 0.155,-4.666 -3.585,-6.261 -5.474,-6.476 z M 34.2786,9.56561 c -0.5698,0.11396 -1.7094,0.68379 -1.7094,2.05129 0,1.3676 1.1396,1.7094 1.7094,1.7094 0.6838,0 1.9829,-0.3418 1.7094,-1.7094 C 35.6461,9.9075 35.3043,9.56561 34.2786,9.56561 Z M 26.7571,8.88184 c -0.5698,0.11397 -1.7094,0.68377 -1.7094,2.05136 0,1.3675 1.1396,1.7094 1.7094,1.7094 0.6838,0 1.9829,-0.3419 1.7094,-1.7094 C 28.1247,9.22373 27.7828,8.88184 26.7571,8.88184 Z M 19.2356,8.19807 c -0.5698,0.11397 -1.7094,0.68377 -1.7094,2.05133 0,1.3675 1.1396,1.7094 1.7094,1.7094 0.6838,0 1.983,-0.3419 1.7095,-1.7094 C 20.6032,8.53996 20.2613,8.19807 19.2356,8.19807 Z M 86,167.5 l 4.5,3.5 11.5,-7.5 -1,-1 -10.5,6.5 -4,-3.5 z M 92.2183,73.4224 H 97.77 c -0.2643,0.7931 -1.1896,2.3397 -2.7758,2.181 -1.5862,-0.1586 -2.5115,-1.5201 -2.7759,-2.181 z m -0.7931,-5.9483 c -0.2644,0 -0.7931,0.1587 -0.7931,0.7931 0,0.6345 0.5287,0.7931 0.7931,0.7931 0.2644,0 0.7931,-0.1586 0.7931,-0.7931 0,-0.6344 -0.5287,-0.7931 -0.7931,-0.7931 z m 8.3276,0 c -0.2644,0 -0.7931,0.1587 -0.7931,0.7931 0,0.6345 0.5287,0.7931 0.7931,0.7931 0.2642,0 0.7932,-0.1586 0.7932,-0.7931 0,-0.6344 -0.529,-0.7931 -0.7932,-0.7931 z m 39.8232,66.4779 c 0.091,0 0.274,0.055 0.274,0.277 0,0.222 -0.183,0.278 -0.274,0.278 -0.092,0 -0.275,-0.056 -0.275,-0.278 0,-0.222 0.183,-0.277 0.275,-0.277 z m -12.912,36.352 1.923,-1.942 1.099,1.11 -1.649,1.942 z M 157,131 c 0.333,3.334 1.1,10.101 1.5,10.5 0.5,0.499 -0.174,-9.5 -1.5,-10.5 z"
     stroke="#1c75bc"
     stroke-width="0.68377"
     id="path22"
     sodipodi:nodetypes="cccccccccccccccccccccccccccccccccccccccccccccccccccccccccccccccscccccccccccccccccscccccccccssccccsccccccccccccccccccccccccccccccccsccccsccccccccccccccccccccccccccccccccccccccccccccccccccccccccscccccccccccccccccccccccccccccccccccccccccccccccccccccccccccccccccccsccccccccccccccccccccccccccccccccccccscscccccccccccccccccccccccccccccccccccccccccccccccccccccccccccccccccccccccccccccccccccccccccccccccccccccccccccccccccccccccccccccccccccccccccccccccccsccscccccccccccccccccccccccccccscccsccccccccccccsccscccccccccsccsccccccccccccccccccccsccccsccccccccccccccccccccccsccccccccccccccccccsccccccccccccccccscccccccscccccccscscscccccccccccccccccscssccsscccsscccsscccccccccccccssssssssssssssscccccccc" />
</svg>
