<svg width="235" height="449" viewBox="0 0 235 449" fill="none" xmlns="http://www.w3.org/2000/svg">
<path d="M97.3802 47.9492C96.6107 47.7761 95.0717 47.9492 95.0717 50.0264C95.0717 52.1036 96.6107 52.2767 97.3802 52.1036C97.9573 52.1036 99.1116 51.6881 99.1116 50.0264C99.1116 48.3647 97.9573 47.9492 97.3802 47.9492Z" fill="currentColor"/>
<path d="M117.58 50.5457C116.81 50.5457 115.271 50.9611 115.271 52.6229C115.271 54.2846 116.81 54.7 117.58 54.7C118.349 54.7 119.888 54.2846 119.888 52.6229C119.888 50.9611 118.349 50.5457 117.58 50.5457Z" fill="currentColor"/>
<path fill-rule="evenodd" clip-rule="evenodd" d="M82.3749 53.662C82.3749 52.1041 82.3749 50.5462 79.4893 48.4691C76.6036 46.3919 72.5637 44.834 75.4494 39.1218C76.0941 37.8455 76.883 37.0876 77.7193 36.7093C74.5123 7.97154 102.528 9.01608 90.4547 12.6371C80.7589 15.5452 79.5049 29.7738 80.0899 36.5245C82.2345 37.0486 84.1063 39.201 84.1063 40.6797C84.1063 43.2761 91.6089 32.8899 91.0318 30.8128C90.4547 28.7356 109.5 29.7742 114.117 30.8128C118.734 31.8513 126.814 35.486 127.391 37.0438C127.852 38.2901 127.583 43.4484 127.391 45.8718C127.583 46.218 128.199 46.7027 129.122 45.8718C135.278 37.5632 140.896 18.1418 114.117 6.92513C113.347 4.50168 109.384 -0.0336399 99.6887 1.21266C98.1497 1.55896 95.0717 2.45929 95.0717 3.29016C95.0717 4.32874 88.7233 0.174407 85.8377 3.29016C82.952 6.40591 79.4893 6.40591 75.4494 19.3882C71.5249 31.9997 73.0467 57.3526 69.9623 58.7905L71.9866 58.3356C72.7099 58.1187 73.5842 57.8428 74.515 57.5308C75.2112 55.3755 76.6036 50.7534 76.6036 49.5071C76.6036 47.9492 79.4893 52.1483 76.6036 56.7996C79.5482 55.7207 82.3749 54.4582 82.3749 53.662ZM99.6887 9.52159C102.19 8.6561 107.884 7.02899 110.654 7.44442C114.117 7.96371 103.151 2.2515 99.6887 9.52159Z" fill="currentColor"/>
<path d="M28.7021 117.534C28.3173 117.015 27.5478 115.146 27.5478 111.822C24.0851 117.188 17.1596 130.101 17.1596 138.825C17.9357 139.723 19.2804 140.949 21.1994 142.318C25.5603 145.43 32.8865 149.285 43.2428 151.724C38.8052 142.148 35.4734 130.384 33.8962 123.247C30.6643 123.247 29.0868 119.438 28.7021 117.534Z" fill="currentColor"/>
<path d="M42.5531 415.088C41.3989 415.088 39.0904 411.973 39.0904 410.415C39.0904 409.998 38.8323 407.992 38.4456 405.222C34.6978 405.637 34.6206 416.473 35.0505 421.839C36.8973 421.839 50.0558 430.84 56.4042 435.341C57.1737 437.245 59.1744 441.261 61.0212 442.092C62.868 442.923 64.8687 440.014 65.6382 438.457C72.3714 438.803 86.5302 439.184 89.3004 437.937C89.7351 437.742 89.9158 437.382 89.8956 436.899C89.8677 436.231 89.4558 435.329 88.8002 434.302C86.908 431.339 82.9857 427.339 80.4068 424.955C80.3317 424.998 80.2193 425.001 80.0664 424.955C78.335 424.436 71.9866 428.59 67.9467 429.629C63.9068 430.667 63.3297 429.629 63.3297 427.551C63.3297 425.89 70.64 421.666 74.2951 419.762L72.5637 418.019C68.0983 419.327 60.8669 421.598 60.4441 422.359C59.8669 423.397 56.4042 421.839 57.5584 420.281C58.7127 418.724 60.4441 414.569 67.9467 413.011L67.3696 411.453C66.8256 409.74 66.1214 407.222 65.5165 404.982C65.0946 403.419 64.7211 401.992 64.484 401.068C64.2916 400.721 62.7526 400.237 58.1356 401.068C57.7364 401.139 57.3517 401.271 56.9813 401.455C53.0673 403.397 50.7588 411.135 50.0558 415.088H42.5531Z" fill="currentColor"/>
<path d="M67.3696 411.453L67.9467 413.011C69.101 413.011 71.6403 413.323 72.5637 414.569C73.4871 415.815 73.718 417.166 73.718 417.685C80.6435 416.854 89.6852 425.994 93.3403 430.667C93.5327 428.763 96.3414 425.682 106.037 428.59C117.12 431.914 119.999 426.987 119.527 426.12C119.459 426.077 119.387 426.035 119.311 425.994C118.388 425.994 111.231 418.377 107.768 414.569C103.536 417.339 94.7254 422.462 93.3403 420.801C91.6089 418.724 97.9573 411.453 106.037 411.453C104.883 410.415 101.997 410.415 101.42 409.896C100.958 409.48 100.458 407.991 100.266 407.299C96.2259 410.415 87.4536 416.023 84.6834 413.531C81.9132 411.038 90.0699 405.222 94.4946 402.625C93.1095 402.625 91.6089 400.548 91.0318 399.51C91.2242 397.086 91.0318 392.136 88.7233 391.72C86.4148 391.305 83.9139 394.663 82.952 396.394C81.7978 397.779 79.6047 401.898 80.0664 407.299C73.1409 410.207 67.4808 406.966 65.5165 404.982C66.1214 407.222 66.8256 409.74 67.3696 411.453Z" fill="currentColor"/>
<path d="M57.5584 370.949C52.4797 377.18 36.2047 375.969 28.7021 374.584C29.664 378.392 31.934 386.008 33.3191 386.008C33.6326 386.008 34.4569 386.059 35.6276 386.124C40.1573 386.376 49.8728 386.839 55.2499 385.371C56.1587 385.123 56.9435 384.819 57.5584 384.45C58.0201 383.204 57.7508 374.93 57.5584 370.949Z" fill="currentColor"/>
<path d="M73.1409 367.314C65.2919 368.145 61.1851 364.544 60.1128 362.64C59.9232 364.299 59.6786 365.672 59.4088 366.794L60.4441 377.18C60.9529 377.384 61.741 377.629 62.7526 377.853C65.1827 378.391 68.9028 378.805 73.1409 378.219C77.1096 377.669 80.2877 376.938 82.3749 376.356C83.4442 376.058 84.2272 375.798 84.6834 375.622L85.2252 364.198C82.9522 365.307 78.9088 366.703 73.1409 367.314Z" fill="currentColor"/>
<path fill-rule="evenodd" clip-rule="evenodd" d="M85.8377 73.3945C80.7589 72.1482 74.4875 62.8359 71.9866 58.3356L69.9623 58.7905C69.8717 58.8328 69.777 58.8544 69.6781 58.8544C63.5221 59.2006 49.9404 61.9701 44.8616 70.2788C38.5132 80.6646 27.5478 107.668 27.5478 111.822C27.5478 115.146 28.3173 117.015 28.7021 117.534C30.0346 116.957 31.876 116.375 34.0491 115.976C39.1038 115.049 45.9529 115.112 52.3643 118.527C53.9408 119.366 55.4909 120.409 56.9813 121.689C56.2419 121.964 54.5231 122.514 53.5636 122.514C56.3029 131.866 59.9105 145.817 58.7127 148.479C58.3301 149.329 60.1695 151.392 63.3285 154.125C67.5743 153.936 69.6484 153.055 70.2552 152.327L83.5292 125.843C85.9996 123.209 88.8298 117.011 91.5879 109.532C93.7916 103.556 95.9494 96.7635 97.8409 90.3182C99.776 83.7243 101.432 77.4941 102.574 72.8752C101.035 73.0483 97.2648 72.9791 94.4946 71.3174C94.057 71.0549 93.5466 70.6422 92.9873 70.119C92.9684 70.1012 92.8972 70.1084 92.7632 70.2788L91.0318 72.356C89.6467 74.0177 86.9919 73.7407 85.8377 73.3945ZM56.9813 121.689H58.7127C65.1765 114.797 64.8687 102.75 63.9068 97.5883C63.9068 107.143 59.2898 117.636 56.9813 121.689Z" fill="currentColor"/>
<path d="M71.9866 58.3356C72.7099 58.1187 73.5842 57.8428 74.515 57.5308M71.9866 58.3356C74.4875 62.8359 80.7589 72.1482 85.8377 73.3945C86.9919 73.7407 89.6467 74.0177 91.0318 72.356L92.7632 70.2788C92.8972 70.1084 92.9684 70.1012 92.9873 70.119M71.9866 58.3356L69.9623 58.7905M129.122 45.8718C128.199 46.7027 127.583 46.218 127.391 45.8718C127.583 43.4484 127.852 38.2901 127.391 37.0438C126.814 35.486 118.734 31.8513 114.117 30.8128C109.5 29.7742 90.4547 28.7356 91.0318 30.8128C91.6089 32.8899 84.1063 43.2761 84.1063 40.6797C84.1063 39.201 82.2345 37.0486 80.0898 36.5245M129.122 45.8718C130.276 44.8332 133.739 44.3155 133.739 48.4691C133.739 52.6226 131.431 56.2576 124.505 56.7769C122.028 68.4088 108.853 72.3558 102.574 72.8752M129.122 45.8718C135.278 37.5632 140.896 18.1418 114.117 6.92513C113.347 4.50168 109.384 -0.03364 99.6887 1.21266C98.1497 1.55896 95.0717 2.45929 95.0717 3.29016C95.0717 4.32874 88.7233 0.174407 85.8377 3.29016C82.952 6.40591 79.4893 6.40591 75.4494 19.3882C71.5249 31.9997 73.0467 57.3526 69.9623 58.7905M80.0898 36.5245C79.5049 29.7738 80.7589 15.5452 90.4547 12.6371C102.528 9.01608 74.5123 7.97154 77.7193 36.7093M80.0898 36.5245C79.3101 36.334 78.4943 36.3587 77.7193 36.7093M77.7579 37.0438C77.7445 36.9319 77.7317 36.8204 77.7193 36.7093M69.6781 58.8544C63.5221 59.2006 49.9404 61.9701 44.8616 70.2788C38.5132 80.6646 27.5478 107.668 27.5478 111.822M69.6781 58.8544L69.9623 58.7905M69.6781 58.8544C69.777 58.8544 69.8717 58.8328 69.9623 58.7905M74.515 57.5308C75.2112 55.3755 76.6036 50.7534 76.6036 49.5071C76.6036 47.9492 79.4893 52.1483 76.6036 56.7996M74.515 57.5308C75.1934 57.3034 75.9019 57.0567 76.6036 56.7996M76.6036 56.7996C79.5482 55.7207 82.3749 54.4582 82.3749 53.662C82.3749 52.1041 82.3749 50.5462 79.4893 48.4691C76.6036 46.3919 72.5637 44.834 75.4494 39.1218C76.0941 37.8455 76.883 37.0876 77.7193 36.7093M83.5291 58.3356C85.6351 61.3964 90.0053 67.3291 92.9873 70.119M102.574 72.8752C101.035 73.0483 97.2648 72.9791 94.4946 71.3174C94.057 71.0549 93.5466 70.6422 92.9873 70.119M102.574 72.8752C101.432 77.4941 99.776 83.7243 97.8409 90.3182M108.346 51.5843C107.576 53.8345 106.268 58.6467 107.191 59.893C108.346 61.4508 103.151 59.893 103.151 59.3737M92.1861 41.7177C95.0717 41.3715 101.536 41.6139 104.306 45.3528M113.54 46.9107C115.271 45.8721 120.004 44.2103 125.082 45.8721M97.3802 60.9315C98.3421 62.8356 101.997 65.9167 108.923 63.0087M27.5478 111.822C27.5478 115.146 28.3173 117.015 28.7021 117.534M27.5478 111.822C24.0851 117.188 17.1596 130.101 17.1596 138.825C17.9357 139.723 19.2804 140.949 21.1994 142.318M28.7021 117.534C29.0868 119.438 30.6643 123.247 33.8962 123.247M28.7021 117.534C30.0346 116.957 31.876 116.375 34.0491 115.976M56.9813 121.689C59.2898 117.636 63.9068 107.143 63.9068 97.5883C64.8687 102.75 65.1765 114.797 58.7127 121.689H56.9813ZM56.9813 121.689C55.4909 120.409 53.9408 119.366 52.3643 118.527M56.9813 121.689C56.2419 121.964 54.5231 122.514 53.5636 122.514M33.8962 123.247L34.0491 115.976M33.8962 123.247C35.4734 130.384 38.8052 142.148 43.2428 151.724M34.0491 115.976C39.1038 115.049 45.9529 115.112 52.3643 118.527M70.2552 152.327L83.5291 125.843C85.9996 123.209 88.8298 117.011 91.5879 109.532C93.7916 103.556 95.9494 96.7635 97.8409 90.3182M70.2552 152.327C69.6484 153.055 67.5743 153.936 63.3285 154.125M70.2552 152.327C71.7159 154.955 73.0742 158.493 74.3283 162.678M70.2552 152.327C72.102 154.159 73.7401 159.991 74.3283 162.678M21.1994 142.318L9.07978 166.348C6.38652 169.637 1 180.576 1 198.025C1 215.473 9.07978 275.226 13.1197 302.921C16.0053 325.251 23.1617 370.845 28.7021 374.584M21.1994 142.318C25.5603 145.43 32.8865 149.284 43.2428 151.724M28.7021 374.584C36.2047 375.969 52.4797 377.18 57.5584 370.949M28.7021 374.584C29.664 378.392 31.934 386.008 33.3191 386.008C33.6326 386.008 34.4569 386.059 35.6276 386.124M57.5584 370.949C57.7508 374.93 58.0201 383.204 57.5584 384.45C56.9435 384.819 56.1587 385.123 55.2499 385.371M57.5584 370.949C58.0772 370.56 58.8057 369.304 59.4088 366.794M60.4441 190.754C59.2898 194.39 50.0558 199.582 52.3643 200.621C54.6728 201.66 59.8669 334.079 60.4441 351.216C60.6055 356.008 60.4424 359.756 60.1128 362.64M60.1128 362.64C61.1851 364.544 65.2919 368.145 73.1409 367.314C78.9088 366.703 82.9522 365.307 85.2252 364.198M60.1128 362.64C59.9232 364.299 59.6786 365.672 59.4088 366.794M85.2605 248.915C88.4924 264.286 87.7614 331.483 86.9919 363.159C86.6349 363.435 86.0452 363.798 85.2252 364.198M85.2605 248.915C85.2605 235.589 83.0115 205.623 78.6778 181.656M85.2605 248.915C84.1424 229.592 81.2605 189.087 78.6778 181.656M59.4088 366.794L60.4441 377.18C60.9529 377.384 61.741 377.629 62.7526 377.853M85.2252 364.198L84.6834 375.622C84.2272 375.798 83.4442 376.058 82.3749 376.356M35.6276 386.124C36.3959 391.168 37.6757 399.708 38.4456 405.222M35.6276 386.124C40.1573 386.376 49.8728 386.839 55.2499 385.371M42.5531 415.088C41.3989 415.088 39.0904 411.973 39.0904 410.415C39.0904 409.998 38.8323 407.992 38.4456 405.222M42.5531 415.088C43.4765 415.088 47.9397 415.088 50.0558 415.088M42.5531 415.088H50.0558M50.0558 415.088C50.7588 411.135 53.0673 403.397 56.9813 401.455M64.484 401.068C64.2916 400.721 62.7526 400.237 58.1356 401.068C57.7364 401.139 57.3517 401.271 56.9813 401.455M64.484 401.068L62.7526 377.853M64.484 401.068C64.7211 401.992 65.0946 403.419 65.5165 404.982M67.9467 413.011L67.3696 411.453C66.8256 409.74 66.1214 407.222 65.5165 404.982M67.9467 413.011C69.101 413.011 71.6403 413.323 72.5637 414.569C73.4871 415.815 73.718 417.166 73.718 417.685M67.9467 413.011C60.4441 414.569 58.7127 418.724 57.5584 420.281C56.4042 421.839 59.8669 423.397 60.4441 422.359C60.8669 421.598 68.0983 419.327 72.5637 418.019M73.718 417.685C73.3616 417.787 72.9744 417.899 72.5637 418.019M73.718 417.685C80.6435 416.854 89.6852 425.994 93.3403 430.667C93.5327 428.763 96.3414 425.682 106.037 428.59C117.12 431.914 119.999 426.987 119.527 426.12M72.5637 418.019L74.2951 419.762M74.2951 419.762C70.64 421.666 63.3297 425.89 63.3297 427.551C63.3297 429.629 63.9068 430.667 67.9467 429.629C71.9866 428.59 78.335 424.436 80.0664 424.955C80.2193 425.001 80.3317 424.998 80.4068 424.955M74.2951 419.762C77.9782 419.762 81.1816 424.51 80.4068 424.955M80.4068 424.955C82.9857 427.339 86.908 431.339 88.8002 434.302M35.0505 421.839C36.8973 421.839 50.0558 430.84 56.4042 435.341C57.1737 437.245 59.1744 441.261 61.0212 442.092C62.868 442.923 64.8687 440.014 65.6382 438.457C72.3714 438.803 86.5302 439.184 89.3004 437.937C89.7351 437.742 89.9158 437.382 89.8956 436.899M35.0505 421.839C34.6206 416.473 34.6978 405.637 38.4456 405.222M35.0505 421.839C33.8962 422.359 31.3569 424.332 30.4335 428.071C29.5101 431.81 30.0487 436.206 30.4335 437.937C31.1579 438.284 33.7744 439.287 38.4456 440.534C43.1167 441.78 53.9033 444.861 58.7127 446.246C68.5238 447.977 88.9541 449.258 92.1861 440.534C92.3905 439.668 92.2186 437.73 89.8956 436.899M89.8956 436.899C89.8677 436.231 89.4558 435.329 88.8002 434.302M55.2499 385.371L56.9813 401.455M62.7526 377.853C65.1827 378.391 68.9028 378.805 73.1409 378.219C77.1096 377.669 80.2877 376.938 82.3749 376.356M82.3749 376.356L82.952 396.394M82.952 396.394C81.7978 397.779 79.6047 401.898 80.0664 407.299C73.1409 410.207 67.4808 406.966 65.5165 404.982M82.952 396.394C83.9139 394.663 86.4148 391.305 88.7233 391.72C91.0318 392.136 91.2242 397.086 91.0318 399.51C91.6089 400.548 93.1095 402.625 94.4946 402.625M94.4946 402.625C96.2259 402.625 100.843 404.703 100.266 407.299M94.4946 402.625C90.0699 405.222 81.9132 411.038 84.6834 413.531C87.4536 416.023 96.2259 410.415 100.266 407.299M100.266 407.299C100.458 407.991 100.958 409.48 101.42 409.896C101.997 410.415 104.883 410.415 106.037 411.453M106.037 411.453C106.961 412.284 107.576 413.877 107.768 414.569M106.037 411.453C97.9573 411.453 91.6089 418.724 93.3403 420.801C94.7254 422.462 103.536 417.339 107.768 414.569M107.768 414.569C111.231 418.377 118.388 425.994 119.311 425.994M119.311 425.994C119.387 426.035 119.459 426.077 119.527 426.12M119.311 425.994C119.41 425.994 119.483 426.039 119.527 426.12M88.8002 434.302C98.0086 435.168 117.003 435.652 119.311 430.667C120.241 429.663 121.531 427.396 119.527 426.12M52.3643 118.527C52.7284 119.703 53.1354 121.052 53.5636 122.514M43.2428 151.724C46.3833 158.5 50.0776 164.18 54.0957 166.348C59.5662 169.299 69.3359 175.52 78.6778 181.656M63.3285 154.125C60.1695 151.392 58.3301 149.329 58.7127 148.479C59.9105 145.817 56.3029 131.866 53.5636 122.514M63.3285 154.125C66.1545 156.57 70.0364 159.55 74.3283 162.678M78.6778 181.656C85.8931 186.395 92.8532 191.084 97.3802 194.177C97.3185 194.482 97.2618 194.836 97.2195 195.215M74.3283 162.678C82.6093 168.713 92.4168 175.297 99.1116 179.636C101.805 177.905 107.307 174.859 107.768 176.521C108.23 178.182 107.191 180.329 106.614 181.194C108.346 180.848 111.808 180.675 111.808 182.752C111.808 184.829 106.807 185.349 104.306 185.349C106.868 185.019 111.87 185.223 112.348 188.464M97.8409 90.3182C109.807 80.0344 134.663 59.6134 138.356 60.1993M76.0265 120.348C99.0275 111.553 124.858 83.9757 134.899 71.2865C134.994 70.6276 135.038 70.0123 135.039 69.4385C136.589 68.9252 139.964 67.8986 141.06 67.8986C142.155 67.8986 142.2 66.6667 142.086 66.0508M138.321 60.1993C141.333 61.4312 142.086 63.3816 142.086 64.2029L138.321 64.8189L142.086 66.0508M142.086 66.0508L143.113 65.4348C170.381 85.6587 226.766 131.342 234.159 152.285M234.159 152.285C217.958 159.445 171.865 176.43 117.1 187.086M234.159 152.285C231.307 175.28 221.632 228.848 205.75 259.153M117.1 187.086L205.75 259.153M117.1 187.086L112.348 188.464M205.75 259.153C172.594 255.765 102.333 246.772 86.5341 237.902M89.7282 129.186C97.141 130.29 105.914 131.623 115.376 133.093M115.376 133.093C127.041 134.907 139.753 136.93 152.252 138.994M115.376 133.093L115.363 120.563M115.376 133.093L115.389 145.201M152.252 138.994C187.138 144.754 220.37 150.827 224.575 153.516M152.252 138.994C156.516 132.539 161.863 124.541 165.361 119.331M152.252 138.994C148.45 144.751 145.509 149.28 145.509 149.513M184.529 148.589L163.992 161.524M112.348 188.464C112.373 188.629 112.385 188.802 112.385 188.984C112.385 192.722 106.999 190.541 104.306 188.984C106.614 191.407 110.539 196.254 107.768 196.254C104.998 196.254 103.151 193.83 102.574 192.619C102.382 195.042 101.42 199.889 99.1116 199.889C97.173 199.889 96.998 197.203 97.2195 195.215M97.2195 195.215C95.157 196.081 90.9164 198.123 90.4547 199.369M99.6887 9.52159C102.19 8.6561 107.884 7.02899 110.654 7.44442C114.117 7.96371 103.151 2.2515 99.6887 9.52159ZM117.58 50.5457C116.81 50.5457 115.271 50.9611 115.271 52.6229C115.271 54.2846 116.81 54.7 117.58 54.7C118.349 54.7 119.888 54.2846 119.888 52.6229C119.888 50.9611 118.349 50.5457 117.58 50.5457ZM97.3802 47.9492C96.6107 47.7761 95.0717 47.9492 95.0717 50.0264C95.0717 52.1036 96.6107 52.2767 97.3802 52.1036C97.9573 52.1036 99.1116 51.6881 99.1116 50.0264C99.1116 48.3647 97.9573 47.9492 97.3802 47.9492Z" stroke="currentColor" stroke-width="1.03858"/>
</svg>
