<svg width="290" height="384" viewBox="0 0 290 384" fill="none" xmlns="http://www.w3.org/2000/svg">
<g filter="url(#filter0_d_1332_69211)">
<path d="M112.362 22.7483C107.606 28.6363 109.437 45.0172 110.947 52.4716C111.217 53.8868 114.344 61.5303 116.891 61.8134C118.929 62.0398 118.495 54.7364 118.024 51.0564C118.967 50.3958 120.741 47.716 120.288 42.2809C119.835 36.8458 129.535 30.2029 134.442 27.5608C133.876 40.5824 150.011 19.9177 153.975 27.5608C157.938 35.2039 165.864 28.9762 166.147 32.3731C166.373 35.0907 171.337 38.6009 173.79 40.0163C173.979 46.5271 174.696 59.6053 176.055 59.8318C177.223 60.0266 178.476 55.6275 179.164 52.4717C179.276 51.9587 179.373 51.4786 179.452 51.0564C187.378 35.6569 182.377 27.8439 178.886 25.8623C179.357 24.0695 179.112 19.0684 174.356 13.4068C169.601 7.74527 163.127 7.46219 160.485 8.02835C157.315 3.04616 150.295 4.06513 147.181 5.19739C131.894 -0.464185 118.307 15.3882 112.362 22.7483Z" fill="currentColor"/>
<path d="M159.919 54.7364C158.032 54.7364 154.314 55.7555 154.541 59.8318C154.767 63.9081 158.221 64.5498 159.919 64.3611C161.618 64.1723 164.958 63.0023 164.732 59.8318C164.449 55.8687 161.618 55.0195 159.919 54.7364Z" fill="currentColor"/>
<path d="M129.347 59.8318C129.347 63.6817 132.366 64.4554 133.876 64.3611C135.386 64.2667 138.405 63.2287 138.405 59.8318C138.405 55.5856 135.163 55.0206 133.812 55.02C132.282 55.047 129.347 56.0359 129.347 59.8318Z" fill="currentColor"/>
<path d="M194.738 291.39C170.899 292.451 131.047 294.139 106.134 294.965C109.72 296.887 117.061 301.015 117.74 302.147C121.987 302.053 131.045 302.544 133.31 305.261C136.141 308.658 137.273 318.566 136.707 319.132C147.275 310.64 173.677 293.202 194.738 291.39Z" fill="currentColor"/>
<path d="M144.067 119.845C124.534 116.165 122.836 104.275 125.667 99.7459C126.649 98.1744 127.418 96.7236 127.997 95.4997C121.936 95.5941 106.417 97.4813 92.8295 104.275C80.2027 110.589 76.7022 112.828 76.4216 113.264C76.4181 113.288 76.4145 113.311 76.4109 113.334C74.4293 125.223 69.0509 127.488 69.9001 131.451C70.5795 134.621 65.8426 176.743 63.3893 197.408C66.3333 196.955 71.5986 200.239 73.8632 201.937C75.373 202.692 78.3359 204.372 78.1094 205.051C80.404 203.301 83.5866 199.204 86.4404 192.313L85.1864 210.996C119.25 208.26 189.643 203.919 198.701 208.448C200.789 209.492 202.305 212.782 203.379 217.507C203.271 217.018 201.348 187.863 200.4 173.346C207.382 188.916 221.63 220.394 222.763 221.753C223.139 222.205 225.656 221.292 229.218 219.663C235.186 216.935 244.089 212.199 250.788 208.511C252.114 207.78 253.354 207.091 254.468 206.467C252.297 204.485 245.239 192.879 234.369 162.306C220.781 124.091 208.326 116.731 202.664 109.371C198.135 103.483 174.274 98.2362 162.909 96.349C162.918 97.7353 163.45 99.0159 163.502 100C167.748 99.4339 163.599 123.525 144.067 119.845Z" fill="currentColor"/>
<path d="M40.4599 335.834C34.2322 339.325 22.6259 350.271 26.0229 366.123C26.7778 369.143 30.4389 375.635 39.0445 377.446C47.8032 379.29 46.0522 376.067 53.8095 374.5C32.1871 376.804 28.726 359.586 47.2538 345.175C67.6355 329.323 102.737 325.926 112.079 325.36C119.552 324.907 123.685 328.946 124.817 331.021C125.114 329.909 124.776 328.255 123.074 326.492C120.445 323.768 114.562 320.782 102.737 319.132C83.2614 316.415 53.1041 329.134 40.4599 335.834Z" fill="currentColor"/>
<path d="M60.8416 373.2V373.766C61.0303 373.861 61.521 374.163 61.9739 374.616C62.4268 375.069 63.2949 374.238 63.6724 373.766C63.6576 373.312 63.6416 372.839 63.6245 372.351C63.2041 360.381 62.0816 339.013 60.5585 339.231C58.9733 339.457 60.0867 361.971 60.8416 373.2Z" fill="currentColor"/>
<path d="M68.7678 339.231C68.2016 339.136 67.0693 339.287 67.0693 340.646C67.0693 342.085 67.8815 365.249 69.334 372.135C69.5965 373.38 69.8799 374.093 70.1832 374.049C72.1647 373.766 71.3155 338.382 68.7678 339.231Z" fill="currentColor"/>
<path d="M87.451 338.382C86.8849 338.287 85.7525 338.438 85.7525 339.797C85.7525 341.26 85.3325 364.355 86.6632 370.369C86.8774 371.338 87.137 371.863 87.451 371.785C87.7124 371.719 87.9473 371.213 88.1546 370.369C89.1576 366.287 89.512 354.311 89.0699 346.224C88.8117 341.501 88.2819 338.105 87.451 338.382Z" fill="currentColor"/>
<path d="M77.8263 339.231C77.3545 339.325 76.4109 339.91 76.4109 341.495C76.4109 343.153 76.0146 364.63 77.875 370.936C78.2381 372.166 78.6871 372.819 79.2417 372.634C79.6933 372.484 80.0699 371.783 80.374 370.68C82.3578 363.492 81.2626 339.231 77.8263 339.231Z" fill="currentColor"/>
<path d="M228.141 347.44C228.141 347.157 225.877 341.082 226.16 339.59C225.389 339.86 224.633 340.119 223.895 340.365C224.084 342.724 224.574 347.497 225.027 347.723C225.594 348.006 226.726 349.705 228.141 347.44Z" fill="currentColor"/>
<path d="M220.498 342.198C219.863 342.58 219.202 342.976 218.517 343.383C218.44 344.55 218.45 346.694 218.932 347.6C219.048 347.817 219.191 347.962 219.366 348.006C219.567 348.056 219.734 347.898 219.874 347.6C220.361 346.552 220.498 343.777 220.498 342.198Z" fill="currentColor"/>
<path d="M245.975 331.296C247.108 332.809 249.033 336.796 247.674 340.646C246.315 344.496 238.993 346.025 235.501 346.308C234.441 346.512 232.921 346.793 231.538 347.029C232.954 347.75 243.711 348.572 244.843 348.855C245.975 349.139 255.6 343.76 257.581 339.231C259.167 335.607 257.487 328.684 256.449 325.675C253.04 327.687 249.508 329.567 245.975 331.296Z" fill="currentColor"/>
<path d="M217.95 242.135L211.44 239.304L206.344 241.569L218.234 247.513L224.461 245.532L217.95 242.135Z" fill="currentColor"/>
<path d="M110.947 52.4716C109.437 45.0172 107.606 28.6363 112.362 22.7483C118.307 15.3882 131.894 -0.464185 147.181 5.19739C150.295 4.06513 157.315 3.04616 160.485 8.02835C163.127 7.46219 169.601 7.74527 174.356 13.4068C179.112 19.0684 179.357 24.0695 178.886 25.8623C182.377 27.8439 187.378 35.6569 179.452 51.0564C179.373 51.4786 179.276 51.9587 179.164 52.4717M110.947 52.4716C111.217 53.8868 114.344 61.5303 116.891 61.8134C118.929 62.0398 118.495 54.7364 118.024 51.0564C118.967 50.3958 120.741 47.716 120.288 42.2809C119.835 36.8458 129.535 30.2029 134.442 27.5608C133.876 40.5824 150.011 19.9177 153.975 27.5608C157.938 35.2039 165.864 28.9762 166.147 32.3731C166.373 35.0907 171.337 38.6009 173.79 40.0163C173.979 46.5271 174.696 59.6053 176.055 59.8318C177.223 60.0266 178.476 55.6275 179.164 52.4717M110.947 52.4716C108.399 53.0378 103.983 55.9819 106.7 63.2287C109.418 70.4756 115.193 72.2873 117.74 72.2873C118.212 77.0996 121.194 87.8 129.347 92.1028C129.186 92.6906 128.754 93.9017 127.997 95.4998M179.164 52.4717C192.974 54.9628 182.657 67.6637 175.772 73.7027C174.922 86.4412 163.316 92.669 163.033 93.8013C162.931 94.2099 162.902 95.2098 162.909 96.349M127.997 95.4998C127.418 96.7236 126.649 98.1744 125.667 99.7459C122.836 104.275 124.534 116.165 144.067 119.845C163.599 123.525 167.748 99.4339 163.502 100C163.45 99.0159 162.918 97.7353 162.909 96.349M127.997 95.4998C121.936 95.5941 106.417 97.4813 92.8295 104.275C80.2027 110.589 76.7022 112.828 76.4216 113.264M76.4109 113.334C74.4293 125.223 69.0509 127.488 69.9001 131.451C70.5795 134.621 65.8426 176.743 63.3893 197.408M76.4109 113.334C76.4145 113.311 76.4181 113.288 76.4216 113.264M76.4109 113.334C76.3976 113.32 76.4003 113.298 76.4216 113.264M73.8632 201.937C71.5986 200.239 66.3333 196.955 63.3893 197.408M73.8632 201.937C75.373 202.692 78.3359 204.372 78.1094 205.051M73.8632 201.937C73.661 203.277 73.3483 204.81 72.9138 206.467M63.3893 197.408C59.7093 197.974 65.0878 209.298 62.257 214.11M78.1094 205.051C77.8829 205.731 74.5513 206.278 72.9138 206.467M78.1094 205.051C80.404 203.301 83.5866 199.204 86.4404 192.313M72.9138 206.467C70.1049 217.177 62.2038 233.074 46.1215 235.624C22.909 239.304 43.8568 148.719 41.5922 144.472C39.3276 140.226 18.6628 89.5551 24.0413 88.1397C29.4198 86.7243 32.8167 106.54 34.5152 105.691C36.2137 104.841 24.6074 84.4597 30.269 80.7796C35.9306 77.0996 40.4599 99.4629 41.5922 98.8967C42.7245 98.3305 34.2321 76.8165 39.3276 75.6842C44.423 74.5519 49.8015 99.1798 50.6507 98.8967C51.5 98.6136 50.0846 94.0844 47.2538 86.4412C44.423 78.7981 48.3861 78.2319 48.3861 78.515C56.8785 76.2504 58.0108 117.58 64.2385 117.58C70.4663 117.58 67.6355 99.7459 73.2971 98.3305C77.8073 97.203 77.2648 107.771 76.4216 113.264M93.1126 144.472C93.9113 166.97 90.5104 182.484 86.4404 192.313M86.4404 192.313L85.1864 210.996M85.1864 210.996C119.25 208.26 189.643 203.919 198.701 208.448C200.789 209.492 202.305 212.782 203.379 217.507M85.1864 210.996C76.4109 210.996 78.1094 218.922 79.2417 248.079C79.465 253.829 79.6773 258.907 79.8894 263.366M83.2048 290.541C85.1864 291.957 153.975 290.824 178.602 289.126C192.725 288.152 199.546 286.053 202.381 284.352M83.2048 290.541C82.4499 291.862 81.5063 294.674 83.771 295.353C84.5379 295.584 93.3775 295.387 106.134 294.965M83.2048 290.541C81.614 289.405 80.753 281.518 79.8894 263.366M83.2048 290.541C82.8408 289.786 81.8216 288.277 80.6571 288.277C80.1871 288.277 76.2666 287.139 71.0324 285.553M194.738 291.39C170.899 292.451 131.047 294.14 106.134 294.965M194.738 291.39C173.677 293.202 147.275 310.64 136.707 319.132M194.738 291.39C196.956 291.182 200.899 289.98 202.071 286.861M202.381 284.352C203.501 283.68 203.999 283.069 204.08 282.615C204.388 279.056 204.69 274.915 204.946 270.443M202.381 284.352C202.467 285.301 202.344 286.133 202.071 286.861M162.909 96.349C174.274 98.2362 198.135 103.483 202.664 109.371C208.326 116.731 220.781 124.091 234.369 162.306C245.239 192.879 252.297 204.485 254.468 206.467C253.354 207.091 252.114 207.78 250.788 208.511M200.4 173.346C207.382 188.916 221.63 220.394 222.763 221.753C223.139 222.205 225.656 221.292 229.218 219.663M200.4 173.346C199.739 164.854 198.475 147.7 198.701 147.02M200.4 173.346C201.348 187.863 203.271 217.018 203.379 217.507M203.379 217.507C206.236 230.085 205.951 252.833 204.946 270.443M79.8894 263.366C56.7441 261.667 9.49105 264.271 5.64118 288.277C0.828833 318.283 8.00599 319.981 40.4599 335.834M40.4599 335.834C34.2322 339.325 22.6259 350.271 26.0229 366.123C26.7778 369.143 30.4389 375.635 39.0445 377.446C47.8032 379.29 46.0522 376.067 53.8095 374.5M40.4599 335.834C53.1041 329.134 83.2614 316.415 102.737 319.132C114.562 320.782 120.445 323.768 123.074 326.492M46.1215 277.803C52.6975 279.885 63.2988 283.209 71.0324 285.553M71.0324 285.553L79.5248 284.313M60.8416 373.766V373.2M60.8416 373.766C61.0303 373.861 61.521 374.163 61.9739 374.616C62.4268 375.069 63.2949 374.238 63.6724 373.766C63.6576 373.312 63.6416 372.839 63.6245 372.351M60.8416 373.766C57.8441 373.872 55.5793 374.143 53.8095 374.5M124.817 331.021C123.685 328.946 119.552 324.907 112.079 325.36C102.737 325.926 67.6355 329.323 47.2538 345.175C28.726 359.586 32.1871 376.804 53.8095 374.5M124.817 331.021C124.634 331.159 124.268 331.344 123.685 331.558M124.817 331.021C125.114 329.909 124.776 328.255 123.074 326.492M60.8416 373.2C60.0867 361.971 58.9733 339.457 60.5585 339.231C62.0816 339.013 63.2041 360.381 63.6245 372.351M60.8416 373.2C58.3183 373.844 55.973 374.27 53.8095 374.5M94.2449 344.937C96.3231 341.297 102.102 334.715 110.947 333.852C117.971 333.167 121.874 332.222 123.685 331.558M94.2449 344.937C94.1413 345.119 94.0469 345.293 93.9618 345.459C92.5767 346.025 89.7316 347.044 89.4326 346.591C89.3795 346.629 89.2327 346.609 89.0699 346.224M94.2449 344.937C95.6603 345.771 98.5477 347.553 98.7742 348.006C99.0573 348.572 98.4911 363.009 99.3403 363.576C100.19 364.142 112.928 362.16 114.627 361.877M114.627 361.877C116.325 361.594 94.8028 371.785 88.1546 370.369M114.627 361.877C118.873 360.933 127.648 359.386 128.781 360.745M88.1546 370.369C87.9473 371.213 87.7124 371.719 87.451 371.785C87.137 371.863 86.8774 371.338 86.6632 370.369M88.1546 370.369C89.1576 366.287 89.512 354.311 89.0699 346.224M63.6245 372.351L69.334 372.135M69.334 372.135C67.8815 365.249 67.0693 342.085 67.0693 340.646C67.0693 339.287 68.2016 339.136 68.7678 339.231C71.3155 338.382 72.1647 373.766 70.1832 374.049C69.8799 374.093 69.5965 373.38 69.334 372.135ZM71.0324 371.502L77.875 370.936M77.875 370.936C76.0146 364.63 76.4109 343.153 76.4109 341.495C76.4109 339.91 77.3545 339.325 77.8263 339.231C81.2626 339.231 82.3578 363.492 80.374 370.68M77.875 370.936C78.2381 372.166 78.6871 372.819 79.2417 372.634C79.6933 372.484 80.0699 371.783 80.374 370.68M80.374 370.68C82.4218 370.388 86.5464 369.917 86.6632 370.369M86.6632 370.369C85.3325 364.355 85.7525 341.26 85.7525 339.797C85.7525 338.438 86.8849 338.287 87.451 338.382C88.2819 338.105 88.8117 341.501 89.0699 346.224M123.685 331.558C125.006 341.287 127.875 360.745 128.781 360.745M123.685 331.558C135.008 330.679 133.31 325.36 135.008 327.058M128.781 360.745C129.686 360.745 138.028 360.745 142.085 360.745M142.085 360.745C140.292 350.082 136.367 328.417 135.008 327.058M142.085 360.745C143.972 364.33 151.37 370.822 165.864 368.105C177.003 366.016 197.103 355.657 211.723 347.333M135.008 327.058C134.914 325.737 134.725 322.982 134.725 322.529C134.725 321.963 136.141 319.698 136.707 319.132M106.134 294.965C109.72 296.887 117.061 301.015 117.74 302.147M117.74 302.147C118.59 303.563 125.294 304.978 123.074 326.492M117.74 302.147C121.987 302.053 131.045 302.544 133.31 305.261C136.141 308.658 137.273 318.566 136.707 319.132M235.784 263.083C268.622 261.497 279.85 276.602 281.36 284.352C289.645 300.098 274.849 314.814 256.449 325.675M235.784 263.083C233.52 263.762 226.527 266.385 223.313 267.612M235.784 263.083C243.805 261.101 259.846 254.76 259.846 245.249C259.846 235.737 253.807 216.794 250.788 208.511M234.086 270.159C223.971 274.217 203.408 283.238 202.071 286.861M228.991 219.205C229.064 219.353 229.14 219.505 229.218 219.663M217.95 242.135C223.329 240.153 234.256 235.85 234.935 234.492C235.592 233.177 231.534 224.338 229.218 219.663M217.95 242.135L211.44 239.304L206.344 241.569M217.95 242.135L224.461 245.532M206.344 241.569L218.234 247.513L224.461 245.532M206.344 241.569C206.155 242.418 205.891 244.456 206.344 245.815C206.797 247.173 213.893 249.967 217.384 251.193C218.234 250.91 219.989 250.174 220.215 249.495C220.498 248.645 225.027 251.476 222.763 259.686C220.498 267.895 214.837 272.707 208.892 269.593M224.461 245.532C224.65 246.098 224.971 247.4 224.744 248.079C224.461 248.929 228.424 253.741 227.009 260.818C226.437 263.677 224.988 265.935 223.313 267.612M208.892 269.593C209.175 271.575 214.27 271.292 216.535 271.292C217.885 271.292 220.843 270.085 223.313 267.612M208.892 269.593C207.677 269.782 205.186 270.216 204.946 270.443M250.788 208.511C244.089 212.199 235.186 216.935 229.218 219.663M125.95 49.641C128.592 49.0748 134.895 48.7351 138.971 51.9056M153.975 51.6225C155.956 49.7422 161.391 46.7702 167.279 49.924M133.876 55.0195C133.855 55.0195 133.833 55.0196 133.812 55.02M133.812 55.02C132.282 55.047 129.347 56.0359 129.347 59.8318C129.347 63.6817 132.366 64.4554 133.876 64.3611C135.386 64.2667 138.405 63.2287 138.405 59.8318C138.405 55.5856 135.163 55.0206 133.812 55.02ZM146.331 58.6995C145.01 62.3795 142.595 69.7396 143.501 69.7396C144.633 69.7396 147.747 70.5888 148.313 69.1734M245.975 331.296C247.108 332.809 249.033 336.796 247.674 340.646C246.315 344.496 238.993 346.025 235.501 346.308C234.441 346.512 232.921 346.793 231.538 347.029M245.975 331.296C239.06 334.682 232.145 337.491 226.16 339.59M245.975 331.296C249.508 329.567 253.04 327.687 256.449 325.675M228.141 347.44C228.141 347.157 225.877 341.082 226.16 339.59M228.141 347.44C226.726 349.705 225.594 348.006 225.027 347.723M228.141 347.44C228.141 347.569 229.722 347.338 231.538 347.029M226.16 339.59C225.389 339.86 224.633 340.119 223.895 340.365M223.895 340.365C223.609 340.461 223.326 340.554 223.046 340.646C222.256 341.133 221.404 341.652 220.498 342.198M223.895 340.365C224.084 342.724 224.574 347.497 225.027 347.723M225.027 347.723L219.874 347.6M218.517 343.383C219.202 342.976 219.863 342.58 220.498 342.198M218.517 343.383C216.449 344.611 214.162 345.943 211.723 347.333M218.517 343.383C218.44 344.55 218.45 346.694 218.932 347.6M220.498 342.198C220.498 343.777 220.361 346.552 219.874 347.6M211.723 347.333C214.101 347.38 218.873 347.501 218.932 347.6M218.932 347.6C219.048 347.817 219.191 347.962 219.366 348.006C219.567 348.056 219.734 347.898 219.874 347.6M256.449 325.675C257.487 328.684 259.167 335.607 257.581 339.231C255.6 343.76 245.975 349.139 244.843 348.855C243.711 348.572 232.954 347.75 231.538 347.029M159.919 54.7364C158.032 54.7364 154.314 55.7555 154.541 59.8318C154.767 63.9081 158.221 64.5498 159.919 64.3611C161.618 64.1723 164.958 63.0023 164.732 59.8318C164.449 55.8687 161.618 55.0195 159.919 54.7364ZM135.008 78.2319C140.387 78.7037 152.389 79.251 157.372 77.6658C163.599 75.6842 144.633 91.8197 135.008 78.2319Z" stroke="currentColor" stroke-width="1.45"/>
</g>
<defs>
<filter id="filter0_d_1332_69211" x="0.558594" y="0.273438" width="288.887" height="383.453" filterUnits="userSpaceOnUse" color-interpolation-filters="sRGB">
<feFlood flood-opacity="0" result="BackgroundImageFix"/>
<feColorMatrix in="SourceAlpha" type="matrix" values="0 0 0 0 0 0 0 0 0 0 0 0 0 0 0 0 0 0 127 0" result="hardAlpha"/>
<feOffset dx="1" dy="1"/>
<feGaussianBlur stdDeviation="2"/>
<feComposite in2="hardAlpha" operator="out"/>
<feColorMatrix type="matrix" values="0 0 0 0 0 0 0 0 0 0 0 0 0 0 0 0 0 0 0.2 0"/>
<feBlend mode="normal" in2="BackgroundImageFix" result="effect1_dropShadow_1332_69211"/>
<feBlend mode="normal" in="SourceGraphic" in2="effect1_dropShadow_1332_69211" result="shape"/>
</filter>
</defs>
</svg>


