<svg width="214" height="362" viewBox="0 0 214 362" fill="none" xmlns="http://www.w3.org/2000/svg">
<path d="M98.6324 26.7653C97.5723 28.9739 95.4521 33.497 95.4521 33.9211C95.4521 34.4511 91.7417 42.932 96.7772 44.7872C100.806 46.2714 102.166 44.1688 102.343 42.932C103.491 44.5222 106.636 47.7555 110.029 47.9676C114.269 48.2326 112.944 40.0167 116.919 41.8719C120.825 43.6945 120.382 45.773 134.941 46.0967C135.201 46.1025 135.466 46.1077 135.736 46.1124C136.885 44.7872 138.705 40.2287 136.796 32.5959C134.888 24.9631 129.994 21.8181 127.786 21.1997C127.786 20.9703 125.352 20.5919 122.485 20.043C121.69 35.318 116.389 34.4511 118.244 33.391C119.729 32.5429 120.983 24.0006 121.425 19.8355C120.897 19.7296 120.363 19.6182 119.835 19.501C115.594 22.3078 113.739 31.0058 111.619 33.9211C109.993 36.1568 115.064 23.4381 118.244 19.1242C117.881 19.0315 117.526 18.9358 117.184 18.837C117.178 18.8351 117.171 18.8333 117.165 18.8314C113.703 17.8693 104.2 36.561 105.258 31.0058C106.106 26.5533 113.032 20.8755 116.389 18.5932C114.926 18.1156 113.815 17.5725 113.474 16.9593C110.029 17.2243 102.237 19.5566 98.6324 26.7653Z" fill="currentColor"/>
<path d="M128.846 1.05761C119.517 1.69367 116.301 10.1299 115.859 14.2686C116.584 14.4268 117.394 14.6131 118.244 14.8209C118.598 11.8234 120.683 5.77547 126.195 5.56345C133.086 5.29842 140.507 9.53887 142.362 15.6345C144.217 21.7302 146.072 30.2103 146.602 31.0058C146.178 31.0058 143.069 21.2883 141.567 16.4296C136.001 8.74379 131.761 7.68331 126.195 7.15362C121.743 6.72987 119.746 12.2653 119.305 15.0861C123.087 16.0546 127.29 17.3779 128.316 18.5495C128.328 18.5641 128.341 18.5787 128.353 18.5932C128.783 17.6953 131.072 17.0657 136.796 21.7302C143.952 27.5608 142.627 46.1124 145.012 50.0882C146.921 53.2688 147.928 49.9997 148.193 47.9676C148.193 54.0632 158.529 53.0035 153.758 51.6783C148.988 50.3532 152.168 29.681 151.373 21.7302C150.737 15.3695 146.868 9.71531 145.012 7.68331C143.51 5.20971 138.175 0.42154 128.846 1.05761Z" fill="currentColor"/>
<path d="M126.195 5.56345C120.683 5.77547 118.598 11.8234 118.244 14.8209C118.592 14.9058 118.946 14.9944 119.305 15.0861C119.746 12.2653 121.743 6.72987 126.195 7.15362C131.761 7.68331 136.001 8.74379 141.567 16.4296C143.069 21.2883 146.178 31.0058 146.602 31.0058C146.072 30.2103 144.217 21.7302 142.362 15.6345C140.507 9.53887 133.086 5.29842 126.195 5.56345Z" fill="currentColor"/>
<path d="M104.728 56.7138C104.905 56.7138 105.258 56.8199 105.258 57.2439C105.258 57.6679 104.905 57.774 104.728 57.774C104.551 57.774 104.198 57.6679 104.198 57.2439C104.198 56.8199 104.551 56.7138 104.728 56.7138Z" fill="currentColor"/>
<path d="M150.843 61.2193C142.786 61.8554 138.652 67.4917 137.592 70.2303C136.796 72.7039 135.206 78.8172 135.206 83.4817C135.206 88.1462 134.146 104.154 133.616 111.575C134.371 111.549 135.266 111.537 136.266 111.543C140.169 111.566 145.661 111.874 150.578 112.83C149.253 126.012 147.398 129.597 148.988 133.307C149.155 133.697 149.711 134.019 150.578 134.283C155.329 135.731 169.418 135.445 179.996 135.118C182.56 135.039 184.918 134.957 186.887 134.897C187.417 111.84 181.321 101.504 177.346 89.0473C173.37 76.591 167.805 72.3505 162.239 66.5199C157.787 61.8554 152.786 61.0426 150.843 61.2193Z" fill="currentColor"/>
<path d="M94.6574 260.785C95.0814 258.877 93.4206 257.87 92.5371 257.605C89.0918 260.52 92.5371 262.906 93.0672 262.906C93.5972 262.906 94.1273 263.171 94.6574 260.785Z" fill="currentColor"/>
<path d="M95.1874 254.425C95.0486 254.425 95.2005 252.68 95.529 250.714C94.2986 250.432 93.1536 249.321 92.2721 248.947C91.4996 248.62 90.9295 248.858 90.6819 250.714C90.4385 252.54 91.4249 253.471 92.5371 253.945C93.8467 254.502 95.3307 254.425 95.1874 254.425Z" fill="currentColor"/>
<path d="M93.3322 276.687C92.8905 276.864 92.1661 277.535 92.8022 278.807C93.4382 280.079 96.6009 279.161 98.1027 278.542L106.584 269.266L111.884 262.906L119.626 234.813C119.613 234.813 119.596 234.808 119.573 234.8C116.656 234.222 107.626 250.734 104.728 253.945C102.396 256.529 102.697 259.759 103.138 261.05C103.58 263.171 104.251 267.464 103.403 267.676C102.343 267.941 99.4279 268.471 98.3677 268.736C97.5197 268.948 94.6574 274.125 93.3322 276.687Z" fill="currentColor"/>
<path d="M124.681 232.692L119.49 251.774C120.808 251.095 123.794 248.811 126.461 246.247C128.993 243.812 131.238 241.125 131.496 239.318C131.687 237.98 130.819 236.7 129.583 235.608C128.477 234.63 127.077 233.804 125.878 233.222C125.445 233.012 125.038 232.834 124.681 232.692Z" fill="currentColor"/>
<path d="M79.3049 213.615C81.2125 214.064 83.9717 218.388 85.1163 220.501C85.5632 220.297 86.0491 220.071 86.5644 219.83C91.3026 217.606 98.5237 213.973 100.672 212.02C101.016 211.708 101.23 211.439 101.283 211.225C101.411 210.712 101.252 209.959 100.927 209.105C100.18 207.137 98.5584 204.63 97.5727 203.274C92.2037 206.883 81.0648 213.982 79.3049 213.615Z" fill="currentColor"/>
<path d="M97.591 202.479C97.5917 202.759 97.5853 203.025 97.5727 203.274C98.5584 204.63 100.18 207.137 100.927 209.105C102.24 208.625 104.189 207.868 105.523 207.243C106.644 206.718 107.333 206.286 106.849 206.19C105.789 205.978 104.11 200.447 103.403 197.709C102.797 198.68 100.786 200.995 97.591 202.479Z" fill="currentColor"/>
<path d="M102.078 134.897L104.463 130.127H109.234L107.643 134.897H102.078Z" fill="currentColor"/>
<path d="M134.677 190.818C133.646 191.127 127.025 189.947 119.04 188.317C118.775 189.062 118.563 190.712 119.835 191.348C120.903 191.882 126.757 192.895 130.966 193.502C133.022 193.799 134.685 193.998 135.207 193.998C135.558 193.998 136.555 194.115 138.122 194.262C143.003 194.72 153.409 195.476 167.01 193.94C168.811 193.737 170.668 193.493 172.576 193.203C173.547 193.179 174.629 193.134 175.756 193.067C182.725 192.65 191.45 191.353 186.887 188.433C186.826 188.394 186.765 188.355 186.703 188.317C186.519 190.056 187.947 188.317 169.13 190.818C154.077 192.819 139.889 191.652 134.677 190.818Z" fill="currentColor"/>
<path d="M127.521 248.064L127.256 250.714L178.936 251.774L178.406 248.594L127.521 248.064Z" fill="currentColor"/>
<path d="M180.585 259.689L124.075 259.99L123.28 263.171L181.476 263.966L180.585 259.689Z" fill="currentColor"/>
<path d="M117.337 259.689L116.39 263.171H119.49L120.211 259.99L117.337 259.689Z" fill="currentColor"/>
<path d="M187.947 250.184L187.553 248.859H182.427L183.066 252.039H187.052L187.947 250.184Z" fill="currentColor"/>
<path d="M185.297 262.906L188.742 256.28L187.947 250.184L187.052 252.039L184.237 257.87L185.297 262.906Z" fill="currentColor"/>
<path d="M57.2884 142.848C56.5817 144.085 55.6452 146.611 57.5534 146.823C59.4616 147.035 85.9114 147.795 98.8978 148.148C99.354 148.041 100.033 147.82 100.753 147.48C101.845 146.964 103.029 146.174 103.668 145.092C102.47 145.123 101.078 145.1 99.5636 145.037C85.9136 144.837 58.4545 144.385 57.8185 144.173C57.1824 143.961 57.2001 143.201 57.2884 142.848Z" fill="currentColor"/>
<path d="M55.4332 142.053L43.2419 103.359C43.0415 102.723 43.6885 102.21 44.037 102.034C45.6272 101.504 49.1785 100.337 50.6627 99.9134C51.3051 99.7299 51.8052 99.7714 52.1801 99.9134C52.0275 99.56 51.5633 98.8533 50.9273 98.8533C50.2912 98.8533 44.4783 100.797 41.6513 101.769C41.2979 102.21 40.7502 103.518 41.3863 105.214C42.0223 106.91 48.8957 130.127 52.2529 141.523C52.5179 142.76 53.631 145.074 55.9633 144.438L57.2884 142.848C56.0163 143.484 55.5215 142.583 55.4332 142.053Z" fill="currentColor"/>
<path d="M77.6955 142.848C76.1186 142.991 73.6421 143.119 71.5999 143.005L70.8048 144.173H76.6355L77.6955 142.848Z" fill="currentColor"/>
<path d="M30.3827 44.9506C29.4863 44.0115 27.194 42.6968 25.1962 44.9506C22.699 47.768 23.5955 49.7529 25.1962 51.0976C26.797 52.4422 37.2341 63.5835 39.2829 63.0712C40.9219 62.6615 53.6257 47.832 59.7726 40.4685C60.4128 38.0354 60.0284 33.6173 53.3694 35.4101L41.9722 49.2407C40.5781 50.6251 39.0204 53.2211 35.8253 50.009L30.3827 44.9506Z" fill="currentColor"/>
<path d="M96.7772 44.7872C91.7417 42.932 95.4521 34.4511 95.4521 33.9211C95.4521 33.497 97.5723 28.9739 98.6324 26.7653C102.237 19.5566 110.029 17.2243 113.474 16.9593M96.7772 44.7872C100.806 46.2714 102.166 44.1688 102.343 42.932C103.491 44.5222 106.636 47.7555 110.029 47.9676C114.269 48.2326 112.944 40.0167 116.919 41.8719C120.825 43.6945 120.382 45.773 134.941 46.0967M96.7772 44.7872C97.3823 46.9657 99.0236 51.1834 101.701 55.1237M127.786 21.1997C129.994 21.8181 134.888 24.9631 136.796 32.5959C138.705 40.2287 136.885 44.7872 135.736 46.1124C135.466 46.1077 135.201 46.1025 134.941 46.0967M127.786 21.1997C127.786 20.9703 125.352 20.5919 122.485 20.043M127.786 21.1997C128.574 21.0246 129.779 20.259 128.353 18.5932M113.474 16.9593C112.414 15.0511 113.916 14.2207 114.799 14.044C115.125 14.1106 115.48 14.1857 115.859 14.2686M113.474 16.9593C113.815 17.5725 114.926 18.1156 116.389 18.5932M116.389 18.5932C113.032 20.8755 106.106 26.5533 105.258 31.0058C104.2 36.561 113.703 17.8693 117.165 18.8314M116.389 18.5932C116.638 18.6745 116.898 18.7539 117.165 18.8314M118.244 19.1242C117.881 19.0315 117.526 18.9358 117.184 18.837C117.178 18.8351 117.171 18.8333 117.165 18.8314M118.244 19.1242C115.064 23.4381 109.993 36.1568 111.619 33.9211C113.739 31.0058 115.594 22.3078 119.835 19.501M118.244 19.1242C118.761 19.2558 119.295 19.3814 119.835 19.501M119.835 19.501C120.363 19.6182 120.897 19.7296 121.425 19.8355M121.425 19.8355C120.983 24.0006 119.729 32.5429 118.244 33.391C116.389 34.4511 121.69 35.318 122.485 20.043M121.425 19.8355C121.782 19.9072 122.137 19.9764 122.485 20.043M115.859 14.2686C116.301 10.1299 119.517 1.69367 128.846 1.05761C138.175 0.42154 143.511 5.20971 145.012 7.68331C146.868 9.71531 150.737 15.3695 151.373 21.7302C152.168 29.681 148.988 50.3532 153.758 51.6783C158.529 53.0035 148.193 54.0632 148.193 47.9676C147.928 49.9997 146.921 53.2688 145.012 50.0882C142.627 46.1124 143.952 27.5608 136.796 21.7302C131.072 17.0657 128.783 17.6953 128.353 18.5932M115.859 14.2686C116.584 14.4268 117.394 14.6131 118.244 14.8209M128.353 18.5932C128.341 18.5787 128.328 18.5641 128.316 18.5495C127.29 17.3779 123.087 16.0546 119.305 15.0861M118.244 14.8209C118.598 11.8234 120.683 5.77547 126.195 5.56345C133.086 5.29842 140.507 9.53887 142.362 15.6345C144.217 21.7302 146.072 30.2103 146.602 31.0058C146.178 31.0058 143.069 21.2883 141.567 16.4296C136.001 8.74379 131.761 7.68331 126.195 7.15362C121.743 6.72987 119.746 12.2653 119.305 15.0861M118.244 14.8209C118.592 14.9058 118.946 14.9944 119.305 15.0861M137.592 70.2303L130.171 64.6647C128.846 66.5199 125.453 70.4423 122.485 71.2904C118.775 72.3505 113.474 66.2549 113.209 65.9898C112.944 65.7248 112.414 66.2549 111.884 66.2549C111.46 66.2549 111.707 65.0181 111.884 64.3997C111.707 64.9297 111.248 65.8838 110.824 65.4598C110.4 65.0357 109.587 64.3997 109.234 64.1346C108.597 65.1947 107.025 65.2831 106.318 65.1947C106.848 62.5445 106.318 59.8942 106.053 60.1592C104.383 58.6897 102.933 56.936 101.701 55.1237M137.592 70.2303C138.652 67.4917 142.786 61.8554 150.843 61.2193M137.592 70.2303C136.796 72.7039 135.206 78.8172 135.206 83.4817C135.206 88.1462 134.146 104.154 133.616 111.575C134.371 111.549 135.266 111.537 136.266 111.543M150.843 61.2193L134.941 46.0967M150.843 61.2193C152.786 61.0426 157.787 61.8554 162.239 66.5199C167.805 72.3505 173.37 76.5909 177.346 89.0473C181.321 101.504 187.417 111.84 186.887 134.897C184.918 134.957 182.56 135.039 179.996 135.118M114.799 47.9676C114.711 47.1726 114.693 45.5297 115.329 45.3176C116.124 45.0526 117.449 45.3176 117.714 46.3778C117.979 47.4379 119.835 50.6182 119.57 51.6783C119.358 52.5264 118.775 52.3851 118.51 52.2084M101.701 55.1237C101.827 54.1519 102.608 52.1554 104.728 51.9433M162.239 90.9025C158.794 93.8178 158.794 108.129 158.794 112.105C158.794 115.285 158.087 115.373 157.734 115.02C155.75 114.06 153.249 113.349 150.578 112.83M148.988 133.307C147.398 129.597 149.253 126.012 150.578 112.83M148.988 133.307C147.398 133.307 147.133 135.692 143.952 138.873C141.408 141.417 134.588 142.583 131.496 142.848L109.002 144.438M148.988 133.307C149.155 133.697 149.711 134.019 150.578 134.283M150.578 112.83C145.661 111.874 140.169 111.566 136.266 111.543M136.266 111.543C136.266 115.061 135.971 120.863 135.007 124.826M110.294 130.657C116.478 130.392 129.588 129.703 132.556 129.066C133.651 128.832 134.444 127.143 135.007 124.826M110.294 130.657V129.597C108.438 129.42 104.622 129.119 104.198 129.332C103.957 129.452 103.224 130.667 102.545 131.982M110.294 130.657C109.675 132.247 108.385 135.533 108.173 135.957C108.1 136.104 107.577 136.149 106.848 136.132M103.01 135.767C102.13 135.639 101.445 135.508 101.283 135.427C100.994 135.283 101.73 133.56 102.545 131.982M103.01 135.767C104.204 135.94 105.757 136.106 106.848 136.132M103.01 135.767C103.198 138.173 103.978 142.881 105.672 144.968M106.848 136.132C106.772 138.439 107.141 142.848 109.002 144.438M110.029 144.968C109.605 145.816 107.555 145.852 106.583 145.763C106.254 145.584 105.951 145.311 105.672 144.968M110.029 144.968C109.644 144.879 109.304 144.696 109.002 144.438M110.029 144.968C121.73 146.558 145.439 150.004 146.663 151.064M135.007 124.826L92.8018 128.536C88.2963 128.183 78.9143 127.688 77.4302 128.536C75.575 129.597 72.9247 130.657 73.1897 132.512C73.2968 133.262 73.8593 133.547 74.5151 133.6M102.545 131.982C97.6179 132.194 83.0422 132.954 76.3703 133.307C75.8894 133.482 75.1575 133.652 74.5151 133.6M74.5151 133.6C71.7765 134.297 66.5642 136.275 67.6244 138.607M67.6244 138.607C68.5076 137.841 71.3873 136.272 75.8398 136.132M67.6244 138.607C67.5124 138.747 67.3808 138.937 67.2736 139.138M71.8649 138.607C71.5999 138.342 68.154 140.463 67.3589 140.198C66.9244 140.053 67.0425 139.57 67.2736 139.138M71.8649 138.607C72.077 138.82 74.4269 138.519 75.5753 138.342M71.8649 138.607C70.466 139.184 67.9019 140.572 68.0713 141.788M77.6955 142.848C76.1186 142.991 73.6421 143.119 71.5999 143.005M77.6955 142.848L76.6355 144.173H70.8048L71.5999 143.005M77.6955 142.848C79.3448 143.081 81.4712 143.361 83.8319 143.643M105.672 144.968C105.092 145.033 104.418 145.073 103.668 145.092M57.2884 142.848C56.0163 143.484 55.5215 142.583 55.4332 142.053L43.2419 103.359C43.0415 102.723 43.6885 102.21 44.037 102.034C45.6272 101.504 49.1785 100.337 50.6627 99.9134C51.3051 99.7299 51.8052 99.7714 52.1801 99.9134M57.2884 142.848L55.9633 144.438C53.631 145.074 52.5179 142.76 52.2529 141.523C48.8957 130.127 42.0223 106.91 41.3863 105.214C40.7502 103.518 41.2979 102.21 41.6513 101.769C44.4783 100.797 50.2912 98.8533 50.9273 98.8533C51.5633 98.8533 52.0275 99.56 52.1801 99.9134M57.2884 142.848C56.5817 144.085 55.6452 146.611 57.5534 146.823M57.2884 142.848C57.2001 143.201 57.1824 143.961 57.8185 144.173C58.4545 144.385 85.9136 144.837 99.5636 145.037M57.2884 142.848C58.5605 142.212 62.0589 140.109 63.6491 139.138M63.6491 139.138C64.0024 138.873 64.6032 138.077 64.1791 137.017C63.7551 135.957 56.5816 112.37 53.0479 100.708C52.9477 100.458 52.6713 100.099 52.1801 99.9134M63.6491 139.138H67.2736M57.5534 146.823C59.4616 147.035 85.9114 147.795 98.8978 148.148C99.3541 148.041 100.033 147.82 100.753 147.48M57.5534 146.823C54.7265 147.353 48.8075 149.58 47.7474 154.244C46.4223 160.075 46.4222 169.881 57.2884 186.843C68.1545 203.804 76.9005 213.08 79.2857 213.61C79.292 213.612 79.2984 213.613 79.3049 213.615M103.668 145.092C102.47 145.123 101.078 145.1 99.5636 145.037M103.668 145.092C103.029 146.174 101.845 146.964 100.753 147.48M99.5636 145.037C94.7871 144.837 89.0638 142.525 83.8319 143.643M68.0713 141.788C68.0837 141.877 68.111 141.966 68.1545 142.053C68.4161 142.576 69.5834 142.848 71.0699 142.969M68.0713 141.788H67.3589L64.1791 143.908H70.0098L71.0699 142.969M71.0699 142.969C71.2425 142.983 71.4195 142.995 71.5999 143.005M78.4906 143.005L77.6955 143.908L83.5262 144.173L83.8319 143.643M100.753 147.48C109.852 149.381 131.072 153.82 143.157 156.364C144.218 156.322 146.391 155.362 146.603 151.859C146.617 151.619 146.637 151.352 146.663 151.064M150.578 134.283C149.075 134.454 147.099 146.09 146.663 151.064M150.578 134.283C155.329 135.731 169.418 135.445 179.996 135.118M97.5727 203.274C97.5853 203.025 97.5917 202.759 97.591 202.479M97.5727 203.274C98.5584 204.63 100.18 207.137 100.927 209.105M97.5727 203.274C92.2037 206.883 81.0648 213.982 79.3049 213.615M83.2612 178.627C79.9925 177.92 72.713 175.446 69.7447 171.206M83.2612 178.627L94.1273 182.867C95.7114 183.233 97.5025 183.642 99.4279 184.076M83.2612 178.627C94.7681 185.491 97.5773 196.903 97.591 202.479M134.677 190.818C133.646 191.127 127.025 189.947 119.04 188.317M134.677 190.818C136.86 190.163 158.837 194.906 171.25 185.18M134.677 190.818C139.889 191.652 154.077 192.819 169.13 190.818C187.947 188.317 186.519 190.056 186.703 188.317M179.996 135.118C180.791 141.17 186.092 156.364 177.611 176.772C176.118 180.364 173.903 183.102 171.25 185.18M99.4279 184.076C101.106 186.5 104.251 192.62 103.403 197.709M99.4279 184.076C105.396 185.422 112.654 187.013 119.04 188.317M103.403 197.709C102.797 198.68 100.786 200.995 97.591 202.479M103.403 197.709C104.11 200.447 105.789 205.978 106.849 206.19C107.333 206.286 106.644 206.718 105.523 207.243M100.927 209.105C101.252 209.959 101.411 210.712 101.283 211.225C101.23 211.439 101.016 211.708 100.672 212.02M100.927 209.105C102.24 208.625 104.189 207.868 105.523 207.243M119.04 188.317C118.775 189.062 118.563 190.712 119.835 191.348C120.903 191.882 126.757 192.895 130.966 193.502M135.207 193.998C134.685 193.998 133.022 193.799 130.966 193.502M135.207 193.998L131.097 209.105M135.207 193.998C135.558 193.998 136.555 194.115 138.122 194.262M171.25 185.18C174.219 184.855 181.418 185.036 186.703 188.317M186.703 188.317C186.765 188.355 186.826 188.394 186.887 188.433C191.45 191.353 182.725 192.65 175.756 193.067M105.523 207.243C107.644 212.104 112.149 222.515 113.209 225.272M113.209 225.272C112.785 225.696 111.973 227.829 111.619 228.843M113.209 225.272C113.563 225.007 114.481 224.583 115.33 225.007C116.178 225.431 119.327 228.894 120.795 230.572M100.672 212.02L109.234 229.247M100.672 212.02C98.5236 213.973 91.3026 217.606 86.5644 219.83M109.234 229.247C109.499 230.572 109.764 233.488 108.704 234.548C108.439 235.519 107.273 237.834 104.728 239.318C102.731 240.483 100.525 241.961 98.8978 243.425M109.234 229.247C109.587 228.805 110.453 228.028 111.089 228.452C111.183 228.515 111.367 228.651 111.619 228.843M95.529 250.714C95.8278 248.926 96.2726 246.954 96.7776 245.944C97.172 245.155 97.9334 244.293 98.8978 243.425M95.529 250.714C95.2005 252.68 95.0486 254.425 95.1874 254.425C95.3307 254.425 93.8467 254.502 92.5371 253.945M95.529 250.714C94.2986 250.432 93.1536 249.321 92.2721 248.947M98.8978 243.425C99.0745 242.586 98.7388 240.378 95.9825 238.258C95.7464 238.076 95.5065 237.9 95.2648 237.728M89.0918 233.222C89.7278 232.586 93.2439 234.548 94.9224 235.608M89.0918 233.222C88.3512 233.963 91.9795 235.393 95.2648 237.728M89.0918 233.222C88.4734 233.134 87.4486 233.328 88.2967 234.813C89.3568 236.668 91.742 238.523 91.477 241.703C91.265 244.248 91.9187 247.593 92.2721 248.947M94.9224 235.608L95.2648 237.728M94.9224 235.608C93.5909 231.891 90.0552 223.533 86.5644 219.83M86.5644 219.83C86.0491 220.071 85.5632 220.297 85.1163 220.501C83.9717 218.388 81.2125 214.064 79.3049 213.615M92.2721 248.947C91.4996 248.62 90.9295 248.858 90.6819 250.714C90.4385 252.54 91.4249 253.471 92.5371 253.945M92.5371 253.945V257.605M92.5371 257.605C93.4206 257.87 95.0814 258.877 94.6574 260.785C94.1273 263.171 93.5972 262.906 93.0672 262.906C92.5371 262.906 89.0918 260.52 92.5371 257.605ZM93.3322 263.171C92.8905 266.793 92.2721 274.567 93.3322 276.687M93.3322 276.687C92.8905 276.864 92.1661 277.535 92.8022 278.807C93.4382 280.079 96.6009 279.161 98.1027 278.542L106.584 269.266L111.884 262.906M93.3322 276.687C94.6574 274.125 97.5197 268.948 98.3677 268.736C99.4279 268.471 102.343 267.941 103.403 267.676C104.251 267.464 103.58 263.171 103.138 261.05C102.697 259.759 102.396 256.529 104.728 253.945C107.626 250.734 116.656 234.222 119.573 234.8M111.884 262.906L90.947 338.439C88.8267 344.092 85.3814 355.877 88.5617 357.786C91.742 359.694 99.2512 328.368 102.608 312.466L116.39 263.171M111.884 262.906L119.626 234.813M130.966 193.502L121.16 229.247L120.795 230.572M116.39 263.171L117.337 259.689M116.39 263.171H119.49M119.626 234.813L120.211 232.692M119.626 234.813C119.613 234.813 119.596 234.808 119.573 234.8M119.626 234.813C119.609 234.808 119.591 234.804 119.573 234.8M111.619 228.843C113.045 229.927 116.654 232.785 118.51 234.114M120.795 230.572L120.211 232.692M120.211 232.692C119.644 233.022 118.51 233.768 118.51 234.114M118.51 234.114C119.033 234.489 119.416 234.742 119.573 234.8M124.681 232.692L119.49 251.774M124.681 232.692C125.038 232.834 125.445 233.012 125.878 233.222M124.681 232.692L131.097 209.105M119.49 251.774L118.51 255.377M119.49 251.774C120.808 251.095 123.794 248.811 126.461 246.247M118.51 255.377L127.521 248.064M118.51 255.377L117.687 258.4M127.521 248.064L127.256 250.714M127.521 248.064L178.406 248.594M117.687 258.4L121.16 255.611M117.687 258.4L117.337 259.689M127.256 250.714L178.936 251.774M127.256 250.714L125.401 252.205M178.406 248.594L178.936 251.774M178.406 248.594L167.01 193.94M178.936 251.774L180.585 259.689M126.461 248.594V246.247M126.461 246.247C128.993 243.812 131.238 241.125 131.496 239.318C131.687 237.98 130.819 236.7 129.583 235.608M125.878 233.222L131.097 209.105M125.878 233.222C127.077 233.804 128.477 234.63 129.583 235.608M129.583 235.608L138.122 194.262M138.122 194.262C143.003 194.72 153.409 195.476 167.01 193.94M167.01 193.94C168.811 193.737 170.668 193.493 172.576 193.203C173.547 193.179 174.629 193.134 175.756 193.067M185.297 262.906L198.018 322.537L205.439 358.846C205.439 359.464 205.121 360.754 203.849 360.966C202.577 361.178 201.729 360.348 201.464 359.906L181.476 263.966M185.297 262.906L188.742 256.28M185.297 262.906L184.237 257.87M188.742 256.28L209.414 328.368C209.856 328.898 211.005 329.905 212.065 329.693C213.125 329.481 213.037 327.661 212.86 326.777L203.849 292.854L191.393 248.594L175.756 193.067M188.742 256.28L187.947 250.184M184.237 257.87L183.066 252.039M184.237 257.87L187.052 252.039M187.947 250.184L187.553 248.859M187.947 250.184L187.052 252.039M182.427 248.859L171.78 195.854L187.553 248.859M182.427 248.859H187.553M182.427 248.859L183.066 252.039M183.066 252.039H187.052M121.16 255.611L120.211 259.99M121.16 255.611L125.401 252.205M120.211 259.99L117.337 259.689M120.211 259.99L119.49 263.171M125.401 252.205L124.075 259.99M124.075 259.99L180.585 259.689M124.075 259.99L123.28 263.171M180.585 259.689L181.476 263.966M119.49 263.171L106.584 322.537C106.23 324.039 105.895 327.095 107.379 327.307C108.863 327.519 110.294 323.509 110.824 321.477L123.28 263.171M123.28 263.171L181.476 263.966M104.728 56.7138C104.905 56.7138 105.258 56.8199 105.258 57.2439C105.258 57.6679 104.905 57.774 104.728 57.774C104.551 57.774 104.198 57.6679 104.198 57.2439C104.198 56.8199 104.551 56.7138 104.728 56.7138ZM102.078 134.897L104.463 130.127H109.234L107.643 134.897H102.078ZM31.0228 73.9564C33.6694 78.0757 39.4364 86.2502 41.3317 85.9941C43.227 85.738 49.3782 77.7342 52.2169 73.7643L53.3694 72.2916C53.5188 71.9288 54.4195 71.2031 56.8271 71.2031C59.2346 71.2031 65.2577 71.0323 67.9683 70.947C72.173 71.011 80.7104 68.8724 81.2226 59.8057C81.8629 48.4723 81.0938 32.2297 80.5823 30.1596C79.9302 27.52 79.3017 22.2198 67.5201 22.0918C58.0949 21.9893 31.7912 22.0491 19.8175 22.0918C13.7346 21.4942 1.47918 23.5388 1.12061 36.4986C0.762035 49.4583 1.56882 58.0342 2.01703 60.7021C1.80366 63.6902 4.05339 69.7816 14.5031 71.011C17.8327 71.5233 28.2825 70.8061 29.1021 71.7794C29.9217 72.7526 30.7241 73.6363 31.0228 73.9564ZM30.3827 44.9506C29.4863 44.0115 27.194 42.6968 25.1962 44.9506C22.699 47.768 23.5955 49.7529 25.1962 51.0976C26.797 52.4422 37.2341 63.5835 39.2829 63.0712C40.9219 62.6615 53.6257 47.832 59.7726 40.4685C60.4128 38.0354 60.0284 33.6173 53.3694 35.4101L41.9722 49.2407C40.5781 50.6251 39.0204 53.2211 35.8253 50.009L30.3827 44.9506Z" stroke="currentColor"/>
</svg>


