<svg width="282" height="279" viewBox="0 0 282 279" fill="none" xmlns="http://www.w3.org/2000/svg">
<path d="M118.906 198.648C116.938 199.005 113.27 201.194 114.34 207.097C115.41 213.001 120.039 211.908 122.22 210.623C123.506 210.009 125.864 207.6 125.008 202.877C124.151 198.154 120.583 198.09 118.906 198.648Z" fill="currentColor"/>
<path d="M50.1865 171.884L47.7065 223.614L47.7065 231.785C47.6273 233.451 49.7696 237.28 58.9718 239.27C55.6734 236.21 59.9118 147.637 62.4433 103.733L62.8702 96.7958C62.907 95.9404 62.9455 95.0426 62.9854 94.1072C63.819 74.6034 65.298 38.8221 65.3524 32.7028C65.4095 26.2901 67.9281 24.487 69.1803 24.387L159.396 9.96535C162.755 9.45501 169.874 8.74053 171.474 9.96535C169.255 8.13237 162.333 4.46642 152.396 4.46642C126.474 8.49644 69.8674 18.927 61.6024 20.4252C53.3375 21.9234 52.878 28.3584 53.6813 31.3886L50.1865 171.884Z" fill="currentColor"/>
<path d="M58.9718 239.27C49.7696 237.28 47.6273 233.451 47.7065 231.785L47.7065 223.614M58.9718 239.27C59.9218 239.606 62.6068 239.983 65.7468 238.804C68.8867 237.625 107.194 220.62 125.955 212.265L164.974 194.171C167.491 192.708 172.252 188.742 174.475 182.29M58.9718 239.27C55.6734 236.21 59.9118 147.637 62.4433 103.733L62.8702 96.7958M58.9718 239.27C51.9457 237.385 37.6935 233.248 36.8935 231.785C36.0935 230.321 38.5601 228.728 39.8935 228.115L47.7065 223.614M58.9718 239.27L90.3935 251.114C92.2268 252.114 97.0935 253.514 101.893 251.114C106.693 248.714 159.893 223.12 185.893 210.623L201.893 203.114C205.727 200.781 213.793 196.971 207.393 194.171C200.994 191.371 183.281 183.731 174.475 182.29M62.8702 96.7958C62.907 95.9404 62.9455 95.0426 62.9854 94.1072M62.8702 96.7958L62.9854 94.1072M62.9854 94.1072C63.819 74.6034 65.298 38.8221 65.3524 32.7028C65.4095 26.2901 67.9281 24.487 69.1803 24.387L159.396 9.96535C162.755 9.45501 169.874 8.74053 171.474 9.96535M171.474 9.96535C173.141 58.6424 173.874 159.174 175.474 171.884C175.976 175.872 175.491 179.341 174.475 182.29M171.474 9.96535C169.255 8.13237 162.333 4.46642 152.396 4.46642C126.474 8.49644 69.8674 18.927 61.6024 20.4252C53.3375 21.9234 52.8779 28.3584 53.6813 31.3886L50.1865 171.884L47.7065 223.614M118.906 198.648C116.938 199.005 113.27 201.194 114.34 207.097C115.41 213.001 120.039 211.908 122.22 210.623C123.506 210.009 125.864 207.6 125.008 202.877C124.151 198.154 120.583 198.09 118.906 198.648ZM120.653 194.171L67.3351 216.032C66.1721 216.624 63.9941 216.942 64.5862 213.481C65.1784 210.02 67.4115 145.515 68.454 113.695L68.9258 98.7469L70.6518 32.5044L161.396 16.9654L161.396 171.884C161.589 173.922 160.274 177.096 155.474 179.496C150.674 181.896 130.427 190.78 120.653 194.171Z" stroke="currentColor" stroke-width="0.695302"/>
<path d="M138.722 85.5705L128.421 89.4271C127.709 89.6933 127.031 90.5164 126.906 91.2654L125.096 102.115C124.971 102.864 125.446 103.256 126.157 102.989L136.459 99.1328C137.17 98.8666 137.848 98.0436 137.973 97.2945L139.784 86.4446C139.909 85.6956 139.433 85.3042 138.722 85.5705Z" fill="currentColor"/>
<path d="M127.655 79.5415L119.928 82.4339C119.217 82.7002 118.539 83.5232 118.414 84.2723L117.056 92.4097C116.931 93.1587 117.406 93.5501 118.117 93.2838L125.844 90.3914C126.555 90.1251 127.233 89.3021 127.358 88.553L128.716 80.4156C128.841 79.6666 128.366 79.2752 127.655 79.5415Z" fill="currentColor"/>
<path d="M146.76 95.2768L139.034 98.1693C138.323 98.4355 137.645 99.2586 137.52 100.008L136.162 108.145C136.037 108.894 136.512 109.285 137.223 109.019L144.949 106.127C145.66 105.86 146.338 105.037 146.463 104.288L147.821 96.151C147.947 95.4019 147.471 95.0106 146.76 95.2768Z" fill="currentColor"/>
<path d="M150.833 70.864L145.682 72.7923C144.971 73.0586 144.293 73.8816 144.168 74.6307L143.263 80.0556C143.138 80.8046 143.613 81.196 144.324 80.9298L149.475 79.0014C150.186 78.7352 150.864 77.9122 150.989 77.1631L151.894 71.7382C152.02 70.9891 151.544 70.5978 150.833 70.864Z" fill="currentColor"/>
<path d="M120.552 107.631L115.401 109.559C114.69 109.825 114.012 110.648 113.887 111.397L112.981 116.822C112.856 117.571 113.332 117.963 114.043 117.696L119.194 115.768C119.905 115.502 120.583 114.679 120.708 113.93L121.613 108.505C121.738 107.756 121.263 107.364 120.552 107.631Z" fill="currentColor"/>
<path d="M145.511 44.883L135.21 48.7396C134.498 49.0058 133.821 49.8289 133.696 50.5779L131.885 61.4278C131.76 62.1769 132.235 62.5682 132.946 62.302L143.248 58.4453C143.959 58.1791 144.637 57.3561 144.762 56.607L146.573 45.7571C146.698 45.0081 146.223 44.6167 145.511 44.883Z" fill="currentColor"/>
<path d="M153.309 34.335L130.13 43.0124C128.708 43.5449 127.352 45.191 127.102 46.689L123.027 71.1013C122.777 72.5994 123.728 73.3821 125.15 72.8497L148.329 64.1722C149.751 63.6397 151.107 61.9936 151.357 60.4956L155.432 36.0833C155.682 34.5852 154.731 33.8025 153.309 34.335Z" stroke="currentColor" stroke-width="5.5" stroke-linecap="round" stroke-linejoin="round"/>
<path d="M106.879 59.3458L96.5768 63.2025C95.8656 63.4687 95.1877 64.2918 95.0627 65.0408L93.2518 75.8907C93.1268 76.6397 93.6019 77.0311 94.3131 76.7649L104.615 72.9082C105.326 72.642 106.004 71.8189 106.129 71.0699L107.94 60.22C108.065 59.471 107.59 59.0796 106.879 59.3458Z" fill="currentColor"/>
<path d="M114.676 48.7978L91.4973 57.4753C90.0749 58.0078 88.7192 59.6539 88.4691 61.1519L84.3946 85.5642C84.1445 87.0623 85.0949 87.845 86.5173 87.3125L109.696 78.6351C111.119 78.1026 112.474 76.4565 112.724 74.9585L116.799 50.5462C117.049 49.0481 116.099 48.2653 114.676 48.7978Z" stroke="currentColor" stroke-width="5.5" stroke-linecap="round" stroke-linejoin="round"/>
<path d="M100.089 100.033L89.7877 103.89C89.0765 104.156 88.3987 104.979 88.2736 105.728L86.4627 116.578C86.3377 117.327 86.8129 117.719 87.5241 117.452L97.8258 113.596C98.537 113.329 99.2149 112.506 99.3399 111.757L101.151 100.908C101.276 100.158 100.801 99.7671 100.089 100.033Z" fill="currentColor"/>
<path d="M107.887 89.4853L84.7083 98.1628C83.2859 98.6953 81.9301 100.341 81.6801 101.839L77.6055 126.252C77.3555 127.75 78.3058 128.533 79.7282 128L102.907 119.323C104.33 118.79 105.685 117.144 105.935 115.646L110.01 91.2337C110.26 89.7356 109.31 88.9528 107.887 89.4853Z" stroke="currentColor" stroke-width="5.5" stroke-linecap="round" stroke-linejoin="round"/>
<path d="M138.964 85.2257L128.663 89.0824C127.952 89.3486 127.274 90.1717 127.149 90.9207L125.338 101.771C125.213 102.52 125.688 102.911 126.399 102.645L136.701 98.7881C137.412 98.5219 138.09 97.6988 138.215 96.9498L140.026 86.0999C140.151 85.3509 139.676 84.9595 138.964 85.2257Z" fill="currentColor"/>
<path d="M127.897 79.1967L120.171 82.0892C119.459 82.3555 118.781 83.1785 118.656 83.9275L117.298 92.065C117.173 92.814 117.648 93.2054 118.36 92.9391L126.086 90.0466C126.797 89.7804 127.475 88.9573 127.6 88.2083L128.958 80.0709C129.083 79.3219 128.608 78.9305 127.897 79.1967Z" fill="currentColor"/>
<path d="M147.002 94.9321L139.276 97.8246C138.565 98.0908 137.887 98.9138 137.762 99.6629L136.404 107.8C136.279 108.549 136.754 108.941 137.465 108.674L145.191 105.782C145.903 105.516 146.58 104.693 146.705 103.944L148.064 95.8062C148.189 95.0572 147.714 94.6658 147.002 94.9321Z" fill="currentColor"/>
<path d="M151.075 70.5193L145.924 72.4476C145.213 72.7139 144.535 73.5369 144.41 74.2859L143.505 79.7109C143.38 80.4599 143.855 80.8513 144.566 80.585L149.717 78.6567C150.428 78.3905 151.106 77.5674 151.231 76.8184L152.137 71.3934C152.262 70.6444 151.787 70.253 151.075 70.5193Z" fill="currentColor"/>
<path d="M120.794 107.286L115.643 109.214C114.932 109.48 114.254 110.303 114.129 111.053L113.224 116.477C113.099 117.227 113.574 117.618 114.285 117.352L119.436 115.423C120.147 115.157 120.825 114.334 120.95 113.585L121.855 108.16C121.98 107.411 121.505 107.02 120.794 107.286Z" fill="currentColor"/>
<path d="M145.754 44.5382L135.452 48.3949C134.741 48.6611 134.063 49.4842 133.938 50.2332L132.127 61.0831C132.002 61.8321 132.477 62.2235 133.188 61.9573L143.49 58.1006C144.201 57.8344 144.879 57.0113 145.004 56.2623L146.815 45.4124C146.94 44.6634 146.465 44.272 145.754 44.5382Z" fill="currentColor"/>
<path d="M153.551 33.9902L130.372 42.6677C128.95 43.2002 127.594 44.8463 127.344 46.3443L123.27 70.7566C123.02 72.2547 123.97 73.0374 125.392 72.5049L148.571 63.8275C149.994 63.295 151.349 61.6489 151.599 60.1508L155.674 35.7385C155.924 34.2405 154.974 33.4577 153.551 33.9902Z" stroke="currentColor" stroke-width="5.5" stroke-linecap="round" stroke-linejoin="round"/>
<path d="M107.121 59.0011L96.819 62.8578C96.1078 63.124 95.4299 63.9471 95.3049 64.6961L93.494 75.546C93.3689 76.295 93.8441 76.6864 94.5553 76.4201L104.857 72.5635C105.568 72.2973 106.246 71.4742 106.371 70.7252L108.182 59.8753C108.307 59.1262 107.832 58.7349 107.121 59.0011Z" fill="currentColor"/>
<path d="M114.918 48.4531L91.7395 57.1306C90.3171 57.6631 88.9614 59.3091 88.7113 60.8072L84.6367 85.2195C84.3867 86.7176 85.3371 87.5003 86.7595 86.9678L109.938 78.2904C111.361 77.7579 112.717 76.1118 112.967 74.6137L117.041 50.2014C117.291 48.7034 116.341 47.9206 114.918 48.4531Z" stroke="currentColor" stroke-width="5.5" stroke-linecap="round" stroke-linejoin="round"/>
<path d="M100.332 99.6886L90.0299 103.545C89.3187 103.812 88.6408 104.635 88.5158 105.384L86.7049 116.233C86.5799 116.983 87.0551 117.374 87.7662 117.108L98.068 113.251C98.7792 112.985 99.4571 112.162 99.5821 111.413L101.393 100.563C101.518 99.8137 101.043 99.4224 100.332 99.6886Z" fill="currentColor"/>
<path d="M108.129 89.1406L84.9504 97.8181C83.5281 98.3506 82.1723 99.9966 81.9223 101.495L77.8477 125.907C77.5976 127.405 78.548 128.188 79.9704 127.655L103.149 118.978C104.572 118.445 105.927 116.799 106.178 115.301L110.252 90.8889C110.502 89.3909 109.552 88.6081 108.129 89.1406Z" stroke="currentColor" stroke-width="5.5" stroke-linecap="round" stroke-linejoin="round"/>
<path d="M240.1 98.0913C240.191 98.0913 240.373 98.1467 240.373 98.368C240.373 98.5893 240.191 98.6447 240.1 98.6447C240.008 98.6447 239.826 98.5893 239.826 98.368C239.826 98.1467 240.008 98.0913 240.1 98.0913Z" fill="currentColor"/>
<path fill-rule="evenodd" clip-rule="evenodd" d="M265.299 105.008C269.133 98.6447 265.847 86.4711 258.177 88.1311C257.672 88.0801 256.854 88.0517 256.15 88.1488C259.814 91.1193 260.463 99.7514 259.466 95.848C258.668 92.7253 256.475 89.5141 255.478 88.2989C255.212 88.3896 255.002 88.5147 254.89 88.6845C254.647 89.0535 254.295 89.7506 254.003 90.4598C256.517 94.7443 256.133 106.061 255.478 102.128C254.979 99.1365 254.394 93.312 253.832 90.8978C253.561 91.6285 253.394 92.3013 253.521 92.5579C253.652 92.8231 253.267 95.3771 252.939 98.3913C252.791 99.7478 252.655 101.198 252.583 102.574C252.481 104.519 252.507 106.317 252.808 107.498C253.076 108.561 253.431 110.184 254.776 112.202C255.892 113.876 257.69 115.821 260.686 117.943C260.463 117.581 256.973 112.596 258.469 112.098C259.442 111.773 259.447 116.879 261.214 118.311C261.295 118.366 261.377 118.422 261.46 118.477C261.64 118.598 261.824 118.72 262.012 118.842C261.971 118.283 261.959 117.533 262.001 116.65C259.964 114.59 260.463 109.605 260.961 109.605C261.36 109.605 261.828 114.159 262.012 116.435C262.033 116.06 262.063 115.662 262.105 115.245C262.4 112.282 263.262 108.389 265.299 105.008ZM257.472 95.1484C257.804 98.4721 258.569 105.219 258.967 105.617C259.466 106.115 258.794 96.1454 257.472 95.1484Z" fill="currentColor"/>
<path fill-rule="evenodd" clip-rule="evenodd" d="M252.01 93.6346C252.035 93.5755 252.056 93.5241 252.073 93.4815C252.134 93.332 252.151 93.2885 252.151 93.3879C252.151 93.4373 252.101 93.5216 252.01 93.6346ZM253.169 95.6948C253.229 95.5453 253.247 95.5019 253.247 95.6013C253.247 95.6165 253.242 95.6352 253.233 95.6569C253.212 95.7055 253.169 95.7699 253.105 95.848C253.13 95.7889 253.151 95.7375 253.169 95.6948Z" fill="currentColor"/>
<path fill-rule="evenodd" clip-rule="evenodd" d="M240.921 90.8978C240.952 90.6671 240.992 90.4448 241.041 90.2307C241.046 90.2099 241.051 90.1892 241.056 90.1685C241.731 87.3456 243.933 85.9818 245.03 85.6411C246.638 86.4107 249.739 88.0368 250.181 88.7987C250.218 88.9364 250.232 89.0327 250.237 89.0716C250.235 89.0515 250.234 89.0153 250.234 88.9612C250.234 88.9129 250.216 88.8584 250.181 88.7987C249.981 88.0615 249.111 86.1373 245.467 85.4688C246.398 85.1285 247.699 84.8064 249.138 84.7131C250.681 84.6132 252.385 84.7762 253.966 85.4617C254.734 85.7946 255.473 86.2508 256.15 86.8599C255.935 86.8921 255.698 86.9457 255.438 87.0244C252.699 87.8544 252.425 90.6212 252.425 91.1745C252.425 91.7279 252.151 93.1112 253.521 92.5579C253.652 92.8231 253.267 95.3771 252.939 98.3913C253.019 97.2163 253.097 96.2175 253.233 95.6569C253.242 95.6352 253.247 95.6165 253.247 95.6013C253.247 95.5019 253.229 95.5453 253.169 95.6948C253.151 95.7375 253.13 95.7889 253.105 95.848C252.375 96.7476 249.006 99.4652 247.221 100.858C251.49 100.133 252.731 96.734 253.105 95.848C253.169 95.7699 253.212 95.7055 253.233 95.6569C253.097 96.2175 253.019 97.2163 252.939 98.3913C252.791 99.7478 252.655 101.198 252.583 102.574C252.392 104.067 252.1 105.398 251.604 106.115C249.138 106.392 247.769 105.008 245.304 103.625C243.332 102.518 242.839 100.766 242.839 100.028C243.113 99.8436 243.441 99.3087 242.565 98.6447C241.469 97.8147 240.373 95.0479 240.921 90.8978ZM252.01 93.6346C251.28 94.5342 247.91 97.2518 246.125 98.6447C249.496 98.368 251.635 94.5207 252.01 93.6346C252.101 93.5216 252.151 93.4373 252.151 93.3879C252.151 93.2885 252.134 93.332 252.073 93.4815C252.056 93.5241 252.035 93.5755 252.01 93.6346Z" fill="currentColor"/>
<path fill-rule="evenodd" clip-rule="evenodd" d="M240.458 150.382C240.607 150.283 240.647 149.636 240.647 149.276H258.177C258.177 149.574 258.202 149.947 258.258 150.382C258.425 151.668 258.873 153.488 259.806 155.468C260.51 156.963 261.49 158.549 262.834 160.066C266.559 164.271 268.403 180.448 268.86 188.01L274.064 242.515C271.599 243.898 266.066 246.277 263.655 244.728C261.389 243.271 258.503 228.353 256.862 219.871C256.321 217.076 255.916 214.98 255.712 214.294C255.063 212.109 252.006 191.768 250.501 181.488C250.482 181.355 250.462 181.223 250.443 181.093C250.071 181.4 249.722 181.68 249.412 181.923L235.991 216.507L235.443 243.621C233.552 245.116 229.248 247.149 225.85 244.63C225.474 244.352 225.11 244.018 224.761 243.621C221.614 240.046 221.857 231.05 222.041 224.213C222.113 221.527 222.176 219.174 222.022 217.614C221.584 213.187 225.126 199.907 226.952 193.82C228.504 188.379 232.211 176.113 234.621 170.58C235.971 167.481 237.344 162.909 238.456 158.707C239.33 155.404 240.044 152.331 240.458 150.382ZM250.443 181.093C251.971 179.837 253.905 178.132 255.238 176.666C255.456 176.666 255.706 176.664 255.975 176.659C255.09 178.296 253.414 180.19 250.501 181.488L250.443 181.093Z" fill="currentColor"/>
<path d="M277.077 265.478C278.081 266.216 279.925 268.411 279.268 271.288C278.611 274.166 271.142 273.779 267.49 273.225C263.655 272.303 256.096 269.684 256.534 266.585C256.625 266.216 256.917 265.423 257.356 265.202C257.543 265.107 257.57 265.272 257.612 265.529C257.694 266.024 257.832 266.862 259.273 266.862C260.474 266.862 260.688 267.86 260.861 268.67C261.004 269.338 261.119 269.878 261.738 269.628C262.532 269.308 263.05 268.429 263.452 267.747C263.743 267.252 263.973 266.862 264.203 266.862C264.751 266.862 276.529 266.862 277.077 265.478Z" fill="currentColor"/>
<path d="M236.265 264.372C237.269 266.308 238.84 270.403 237.087 271.288C235.334 272.174 222.661 272.58 216.544 272.672C214.079 272.395 209.806 270.846 212.435 266.862C212.526 267.323 212.819 268.245 213.257 268.245C213.805 268.245 215.448 268.245 215.722 268.522C215.809 268.61 215.952 268.867 216.124 269.176C216.492 269.836 216.992 270.735 217.365 270.735C217.615 270.735 218.207 270.217 218.88 269.628C219.684 268.924 220.604 268.119 221.2 267.968C221.439 267.908 222.275 267.743 223.441 267.513C227.625 266.686 236.051 265.021 236.265 264.372Z" fill="currentColor"/>
<path fill-rule="evenodd" clip-rule="evenodd" d="M223.212 254.891C223.239 255.752 224.179 257.404 224.761 258.285V261.605H230.513C230.936 261.083 231.649 260.307 232.391 259.706C233.145 260.308 234.592 260.976 234.348 258.838C235.443 259.06 236.082 262.619 236.265 264.372C236.051 265.021 227.625 266.686 223.441 267.513C222.275 267.743 221.439 267.908 221.2 267.968C220.604 268.119 219.684 268.924 218.88 269.628C218.207 270.217 217.615 270.735 217.365 270.735C216.992 270.735 216.492 269.836 216.124 269.176C215.952 268.867 215.809 268.61 215.722 268.522C215.448 268.245 213.805 268.245 213.257 268.245C212.819 268.245 212.526 267.323 212.435 266.862C215.083 264.925 220.926 260.609 223.117 258.838C223.041 257.841 222.978 255.898 223.212 254.891Z" fill="currentColor"/>
<path fill-rule="evenodd" clip-rule="evenodd" d="M265.025 255.795C264.587 256.459 265.938 258.838 266.668 259.945L266.394 261.882L269.681 262.158C270.318 261.3 271.779 259.744 273.424 258.984C274.421 260.155 275.019 260.172 275.418 258.613C277.106 259.156 277.243 263.291 277.077 265.478C276.529 266.862 264.751 266.862 264.203 266.862C263.973 266.862 263.743 267.252 263.452 267.747C263.05 268.429 262.532 269.308 261.738 269.628C261.119 269.878 261.004 269.338 260.861 268.67C260.688 267.86 260.474 266.862 259.273 266.862C257.832 266.862 257.694 266.024 257.612 265.529C257.57 265.272 257.543 265.107 257.356 265.202C258.269 264.372 260.862 262.822 263.929 263.265C266.048 263.571 265.491 261.511 264.938 259.467C264.49 257.811 264.044 256.166 265.025 255.795Z" fill="currentColor"/>
<path fill-rule="evenodd" clip-rule="evenodd" d="M241.041 90.2307C241.046 90.2099 241.051 90.1892 241.056 90.1685C241.065 90.1824 241.074 90.1963 241.083 90.2101C241.069 90.2145 241.055 90.2214 241.041 90.2307Z" fill="currentColor"/>
<path fill-rule="evenodd" clip-rule="evenodd" d="M212.196 94.5666C212.436 94.0253 212.773 92.8706 212.196 92.5819C212.068 92.5181 211.816 92.4599 211.474 92.4133C209.997 92.2124 206.839 92.2284 204.73 92.9429C204.566 92.9987 204.408 93.0587 204.257 93.1231C204.017 94.5063 203.969 97.1283 205.701 96.551C204.618 96.0098 205.52 94.9274 206.422 94.5666C207.144 94.2779 210.572 94.4463 212.196 94.5666Z" fill="currentColor"/>
<path d="M228.625 92.67C228.685 88.0394 230.393 78.5617 236.744 77.6958C240.773 76.1923 249.012 71.5257 249.733 64.8865C250.635 56.5875 249.192 39.8092 234.579 33.8556C219.965 27.9019 196.151 26.6391 185.506 32.0514C174.862 37.4638 168.006 43.0564 169.63 53.8812C171.254 64.7059 173.96 72.2832 188.754 79.4997C203.548 86.7162 213.47 74.4485 228.625 92.67Z" fill="currentColor"/>
<path d="M245.03 85.6411C245.164 85.5838 245.311 85.5261 245.467 85.4688M245.03 85.6411C246.638 86.4107 249.739 88.0368 250.181 88.7987M245.03 85.6411C243.933 85.9818 241.731 87.3456 241.056 90.1685M240.921 90.8978C240.373 95.0479 241.469 97.8147 242.565 98.6447C243.441 99.3087 243.113 99.8436 242.839 100.028C242.839 100.766 243.332 102.518 245.304 103.625C247.769 105.008 249.138 106.392 251.604 106.115C252.1 105.398 252.392 104.067 252.583 102.574M240.921 90.8978C240.874 91.0644 240.823 91.2499 240.77 91.4512C240.399 92.8532 239.905 95.0267 239.665 96.9847M240.921 90.8978C240.952 90.6671 240.992 90.4448 241.041 90.2307M258.177 88.1311C265.847 86.4711 269.133 98.6447 265.299 105.008C263.262 108.389 262.4 112.282 262.105 115.245M258.177 88.1311C258.177 87.5621 257.752 86.6205 256.15 86.8599M258.177 88.1311C257.672 88.0801 256.854 88.0517 256.15 88.1488M253.521 92.5579C252.151 93.1112 252.425 91.7279 252.425 91.1745C252.425 90.6212 252.699 87.8544 255.438 87.0244C255.698 86.9457 255.935 86.8921 256.15 86.8599M253.521 92.5579C253.394 92.3013 253.561 91.6285 253.832 90.8978M253.521 92.5579C253.652 92.8231 253.267 95.3771 252.939 98.3913M256.15 86.8599C255.473 86.2508 254.734 85.7946 253.966 85.4616C252.385 84.7762 250.681 84.6132 249.138 84.7131C247.699 84.8064 246.398 85.1285 245.467 85.4688M250.234 88.9612C250.234 88.9129 250.216 88.8584 250.181 88.7987M250.234 88.9612C250.234 89.0153 250.235 89.0515 250.237 89.0716M250.234 88.9612C250.234 89.0865 250.241 89.1156 250.237 89.0716M245.467 85.4688C249.111 86.1373 249.981 88.0615 250.181 88.7987M253.247 95.6013C253.247 95.5019 253.229 95.5453 253.169 95.6948C253.151 95.7375 253.13 95.7889 253.105 95.848M253.247 95.6013C253.247 95.6165 253.242 95.6352 253.233 95.6569M253.247 95.6013C253.242 95.6193 253.238 95.6379 253.233 95.6569M239.665 96.9847C239.81 96.8924 240.209 96.7633 240.647 96.9847M239.665 96.9847C239.642 97.1714 239.621 97.3561 239.604 97.538C239.523 98.3594 239.495 99.1235 239.552 99.7514C239.667 101.034 239.734 102.316 239.957 103.474M239.957 103.474C240.263 105.065 240.864 106.421 242.291 107.222C244.756 108.605 245.304 107.498 245.852 111.372C246.304 111.315 246.868 111.261 247.495 111.221C249.928 111.069 253.309 111.146 254.776 112.202M239.957 103.474C240.37 103.793 241.414 104.239 242.291 103.474M254.776 112.202C253.431 110.184 253.076 108.561 252.808 107.498C252.507 106.317 252.481 104.519 252.583 102.574M254.776 112.202C255.892 113.876 257.69 115.821 260.686 117.943M262.105 115.245C262.409 116.813 262.836 120.114 262.105 120.779C261.373 121.443 261.008 123.329 260.916 124.19V147.064V149.276M262.105 115.245C262.063 115.662 262.033 116.06 262.012 116.435M260.916 149.276H258.177M260.916 149.276C260.916 149.64 260.382 150.364 258.258 150.382M239.552 149.276V147.616L238.355 129.206C238.355 127.185 224.403 122.831 217.427 120.907C217.609 119.006 218.007 117.28 218.51 115.764M239.552 149.276C239.46 149.46 239.497 149.94 240.373 150.382C240.405 150.4 240.433 150.399 240.458 150.382M239.552 149.276H240.647M258.177 150.382C258.204 150.382 258.231 150.382 258.258 150.382M240.647 149.276C240.647 149.636 240.607 150.283 240.458 150.382M240.647 149.276H258.177M240.458 150.382C240.044 152.331 239.33 155.404 238.456 158.707C237.344 162.909 235.971 167.481 234.621 170.58C232.211 176.113 228.504 188.379 226.952 193.82C225.126 199.907 221.584 213.187 222.022 217.614C222.176 219.174 222.113 221.527 222.041 224.213C221.857 231.05 221.614 240.046 224.761 243.621M224.761 243.621L225.309 248.601C225.516 248.666 225.792 248.734 226.13 248.8M224.761 243.621C225.11 244.018 225.474 244.352 225.85 244.63C229.248 247.149 233.552 245.116 235.443 243.621M235.443 243.621L235.991 216.507L249.412 181.923M235.443 243.621L234.348 248.601M249.412 181.923C249.722 181.68 250.071 181.4 250.443 181.093M249.412 181.923C249.793 181.787 250.156 181.642 250.501 181.488M255.238 176.666C256.17 175.642 256.808 174.734 256.808 174.176C256.75 174.791 256.504 175.679 255.975 176.659M255.238 176.666C253.905 178.132 251.971 179.837 250.443 181.093M255.238 176.666C255.456 176.666 255.706 176.664 255.975 176.659M260.095 176.113C259.907 176.493 257.593 176.628 255.975 176.659M250.443 181.093L250.501 181.488M250.443 181.093C250.462 181.223 250.482 181.355 250.501 181.488M263.655 244.728C266.066 246.277 271.599 243.898 274.064 242.515M263.655 244.728L264.751 249.708C265.061 249.718 265.409 249.723 265.783 249.72M263.655 244.728C261.389 243.271 258.503 228.353 256.862 219.871C256.321 217.076 255.916 214.98 255.712 214.294C255.063 212.109 252.006 191.768 250.501 181.488M274.064 242.515L268.86 188.01C268.403 180.448 266.559 164.271 262.834 160.066C261.49 158.549 260.51 156.963 259.806 155.468C258.873 153.488 258.425 151.668 258.258 150.382M274.064 242.515V247.218M258.177 149.276C258.177 149.574 258.202 149.947 258.258 150.382M234.348 248.601C230.729 249.332 227.733 249.108 226.13 248.8M234.348 248.601L232.438 259.668M274.064 247.218C273.286 249.181 268.717 249.693 265.783 249.72M274.064 247.218V258.735M226.13 248.8V256.071M224.761 258.285L226.13 257.732V256.071M224.761 258.285V261.605H230.513C230.936 261.083 231.649 260.307 232.391 259.706M224.761 258.285C224.179 257.404 223.239 255.752 223.212 254.891M223.391 254.411C224.049 253.969 225.491 255.334 226.13 256.071M223.391 254.411C223.318 254.523 223.259 254.688 223.212 254.891M223.391 254.411C223.257 254.502 223.204 254.67 223.212 254.891M234.348 258.838C235.443 259.06 236.082 262.619 236.265 264.372M234.348 258.838C233.828 258.733 233.123 259.122 232.438 259.668M234.348 258.838C234.592 260.976 233.145 260.308 232.391 259.706M236.265 264.372C237.269 266.308 238.84 270.403 237.087 271.288C235.334 272.174 222.661 272.58 216.544 272.672C214.079 272.395 209.806 270.846 212.435 266.862M236.265 264.372C236.051 265.021 227.625 266.686 223.441 267.513C222.275 267.743 221.439 267.908 221.2 267.968C220.604 268.119 219.684 268.924 218.88 269.628C218.207 270.217 217.615 270.735 217.365 270.735C216.992 270.735 216.492 269.836 216.124 269.176C215.952 268.867 215.809 268.61 215.722 268.522C215.448 268.245 213.805 268.245 213.257 268.245C212.819 268.245 212.526 267.323 212.435 266.862M212.435 266.862C215.083 264.925 220.926 260.609 223.117 258.838C223.041 257.841 222.978 255.898 223.212 254.891M265.783 249.72L266.618 255.518M266.668 259.945L267.216 259.668L266.618 255.518M266.668 259.945C265.938 258.838 264.587 256.459 265.025 255.795M266.668 259.945L266.394 261.882L269.681 262.158C270.318 261.3 271.779 259.744 273.424 258.984M265.025 255.795C265.463 255.131 266.27 255.334 266.618 255.518M265.025 255.795C264.044 256.166 264.49 257.811 264.938 259.467C265.491 261.511 266.048 263.571 263.929 263.265C260.862 262.822 258.269 264.372 257.356 265.202M277.077 265.478C278.081 266.216 279.925 268.411 279.268 271.288C278.611 274.166 271.142 273.779 267.49 273.225C263.655 272.303 256.096 269.684 256.534 266.585C256.625 266.216 256.917 265.423 257.356 265.202M277.077 265.478C276.529 266.862 264.751 266.862 264.203 266.862C263.973 266.862 263.743 267.252 263.452 267.747C263.05 268.429 262.532 269.308 261.738 269.628C261.119 269.878 261.004 269.338 260.861 268.67C260.688 267.86 260.474 266.862 259.273 266.862C257.832 266.862 257.694 266.024 257.612 265.529C257.57 265.272 257.543 265.107 257.356 265.202M277.077 265.478C277.243 263.291 277.106 259.156 275.418 258.613M232.438 259.668C232.423 259.681 232.407 259.694 232.391 259.706M274.064 258.735C274.336 258.649 274.611 258.589 274.885 258.562C275.078 258.542 275.255 258.561 275.418 258.613M274.064 258.735C273.848 258.803 273.635 258.887 273.424 258.984M250.181 88.7987C250.218 88.9364 250.232 89.0327 250.237 89.0716M250.237 89.0716C250.239 89.0966 250.238 89.098 250.237 89.0716ZM252.01 93.6346C251.28 94.5342 247.91 97.2518 246.125 98.6447C249.496 98.368 251.635 94.5206 252.01 93.6346ZM252.01 93.6346C252.101 93.5216 252.151 93.4373 252.151 93.3879C252.151 93.2885 252.134 93.332 252.073 93.4815C252.056 93.5241 252.035 93.5755 252.01 93.6346ZM253.105 95.848C252.375 96.7476 249.006 99.4652 247.221 100.858C251.49 100.133 252.731 96.734 253.105 95.848ZM253.105 95.848C253.169 95.7699 253.212 95.7055 253.233 95.6569M253.832 90.8978C254.394 93.312 254.979 99.1365 255.478 102.128C256.133 106.061 256.517 94.7443 254.003 90.4598M253.832 90.8978C253.886 90.7532 253.943 90.6062 254.003 90.4598M254.003 90.4598C254.295 89.7506 254.647 89.0535 254.89 88.6845C255.002 88.5147 255.212 88.3896 255.478 88.2989M255.478 88.2989C256.475 89.5141 258.668 92.7253 259.466 95.848C260.463 99.7514 259.814 91.1193 256.15 88.1488M255.478 88.2989C255.677 88.231 255.907 88.1824 256.15 88.1488M260.686 117.943C260.463 117.581 256.973 112.596 258.469 112.098C259.442 111.773 259.447 116.879 261.214 118.311M260.686 117.943C260.858 118.065 261.034 118.188 261.214 118.311M261.46 118.477C261.64 118.598 261.824 118.72 262.012 118.842C261.971 118.283 261.959 117.533 262.001 116.65M261.46 118.477C261.377 118.422 261.295 118.366 261.214 118.311M261.46 118.477C261.375 118.43 261.293 118.375 261.214 118.311M262.012 116.435C261.828 114.159 261.36 109.605 260.961 109.605C260.463 109.605 259.964 114.59 262.001 116.65M262.012 116.435C262.008 116.508 262.004 116.58 262.001 116.65M252.939 98.3913C253.019 97.2163 253.097 96.2175 253.233 95.6569M252.939 98.3913C252.791 99.7478 252.655 101.198 252.583 102.574M252.939 98.3913C252.851 99.6882 252.759 101.2 252.583 102.574M255.975 176.659C255.09 178.296 253.414 180.19 250.501 181.488M273.424 258.984C274.421 260.155 275.019 260.172 275.418 258.613M228.841 81.7309C228.456 82.03 228.077 82.2375 227.785 82.0917C227.208 81.8031 227.545 80.5281 227.785 79.9267C228.266 79.3253 229.95 78.4834 232.837 79.9267C234.507 80.7619 237.802 85.2322 241.056 90.1685M228.841 81.7309C229.409 81.2895 229.988 80.6484 230.311 80.6484M228.841 81.7309C229.006 82.3717 229.413 83.2515 230.084 83.7155M232.837 82.9938C232.837 82.6931 232.62 82.0917 231.754 82.0917C230.888 82.0917 231.875 83.0539 232.476 83.535C231.464 84.2094 230.672 84.1223 230.084 83.7155M230.084 83.7155C229.807 84.377 229.214 85.7 229.048 85.7C228.841 85.7 229.229 86.4216 231.033 87.3237C232.042 87.8283 236.043 93.8095 239.374 99.0452C239.665 96.2464 240.398 90.6597 241.041 90.2307M241.041 90.2307C241.046 90.2099 241.051 90.1892 241.056 90.1685M241.041 90.2307C241.055 90.2214 241.069 90.2145 241.083 90.2101C241.074 90.1963 241.065 90.1824 241.056 90.1685M245.391 111.345C240.52 111.766 229.046 111.922 222.118 109.18C221.938 109.368 221.732 109.609 221.507 109.902M221.507 109.902C219.485 109.36 215.263 108.242 214.541 108.097C213.819 107.953 213.278 104.189 213.098 102.324L212.196 94.5666M221.507 109.902C220.596 111.085 219.393 113.102 218.51 115.764M212.196 94.5666C210.572 94.4463 207.144 94.2779 206.422 94.5666C205.52 94.9274 204.618 96.0098 205.701 96.551M212.196 94.5666C212.436 94.0253 212.773 92.8706 212.196 92.5819C212.068 92.5181 211.816 92.4599 211.474 92.4133M205.701 96.551C203.969 97.1283 204.017 94.5063 204.257 93.1231C204.408 93.0587 204.566 92.9987 204.73 92.9429M205.701 96.551L207.144 107.195C207.144 108.819 208.01 112.463 211.474 114.051C214.938 115.639 217.608 115.854 218.51 115.764M211.474 92.4133C211.354 89.2823 209.634 83.0562 203.716 83.2005C203.836 82.1181 203.427 80.0974 200.83 80.6748C198.232 81.2521 198.063 82.8398 198.304 83.5615C196.86 82.479 193.793 80.4584 193.072 81.0357C192.17 81.7573 193.974 83.7419 198.484 85.7264C201.036 86.849 202.375 87.7407 203.22 88.3035C203.869 88.7356 204.226 88.9738 204.618 88.9738C205.34 88.9738 204.994 91.6199 204.73 92.9429M211.474 92.4133C209.997 92.2124 206.839 92.2284 204.73 92.9429M240.1 98.0913C240.191 98.0913 240.373 98.1467 240.373 98.368C240.373 98.5894 240.191 98.6447 240.1 98.6447C240.008 98.6447 239.826 98.5894 239.826 98.368C239.826 98.1467 240.008 98.0913 240.1 98.0913ZM257.472 95.1484C257.804 98.4721 258.569 105.219 258.967 105.617C259.466 106.115 258.794 96.1454 257.472 95.1484ZM228.625 92.67C228.685 88.0394 230.393 78.5617 236.744 77.6958C240.773 76.1923 249.012 71.5257 249.733 64.8865C250.635 56.5875 249.192 39.8092 234.579 33.8556C219.965 27.9019 196.151 26.6391 185.506 32.0514C174.862 37.4638 168.006 43.0564 169.63 53.8812C171.254 64.7059 173.96 72.2832 188.754 79.4997C203.548 86.7162 213.47 74.4485 228.625 92.67Z" stroke="currentColor" stroke-width="0.360825"/>
<path d="M214.757 55.2645V59.9032H219.394V64.5405H224.033V69.182H219.394V64.5433H214.757V69.182H210.115V64.5433H214.754V59.9046H210.115V55.2645H214.757ZM203.852 55.2645C204.775 55.2645 205.66 55.6311 206.313 56.2836C206.965 56.9361 207.332 57.8211 207.332 58.7439V65.7027C207.332 66.6255 206.965 67.5104 206.313 68.163C205.66 68.8155 204.775 69.182 203.852 69.182H196.893C195.971 69.182 195.086 68.8155 194.433 68.163C193.781 67.5104 193.414 66.6255 193.414 65.7027V58.7439C193.414 57.8211 193.781 56.9361 194.433 56.2836C195.086 55.6311 195.971 55.2645 196.893 55.2645H203.852ZM203.852 58.048H196.893C196.709 58.048 196.532 58.1213 196.401 58.2518C196.271 58.3823 196.198 58.5593 196.198 58.7439V65.7027C196.198 65.8872 196.271 66.0642 196.401 66.1947C196.532 66.3252 196.709 66.3985 196.893 66.3985H203.852C204.037 66.3985 204.214 66.3252 204.344 66.1947C204.475 66.0642 204.548 65.8872 204.548 65.7027V58.7439C204.548 58.5593 204.475 58.3823 204.344 58.2518C204.214 58.1213 204.037 58.048 203.852 58.048ZM202.808 59.7877V64.6588H197.937V59.7877H202.808ZM224.033 55.2645V59.9032H219.394V55.2645H224.033ZM203.852 38.5635C204.775 38.5635 205.66 38.9301 206.313 39.5826C206.965 40.2351 207.332 41.1201 207.332 42.0429V49.0016C207.332 49.9244 206.965 50.8094 206.313 51.4619C205.66 52.1144 204.775 52.481 203.852 52.481H196.893C195.971 52.481 195.086 52.1144 194.433 51.4619C193.781 50.8094 193.414 49.9244 193.414 49.0016V42.0429C193.414 41.1201 193.781 40.2351 194.433 39.5826C195.086 38.9301 195.971 38.5635 196.893 38.5635H203.852ZM220.553 38.5635C221.476 38.5635 222.361 38.9301 223.014 39.5826C223.666 40.2351 224.033 41.1201 224.033 42.0429V49.0016C224.033 49.9244 223.666 50.8094 223.014 51.4619C222.361 52.1144 221.476 52.481 220.553 52.481H213.594C212.672 52.481 211.787 52.1144 211.134 51.4619C210.482 50.8094 210.115 49.9244 210.115 49.0016V42.0429C210.115 41.1201 210.482 40.2351 211.134 39.5826C211.787 38.9301 212.672 38.5635 213.594 38.5635H220.553ZM203.852 41.347H196.893C196.709 41.347 196.532 41.4203 196.401 41.5508C196.271 41.6813 196.198 41.8583 196.198 42.0429V49.0016C196.198 49.1862 196.271 49.3632 196.401 49.4937C196.532 49.6242 196.709 49.6975 196.893 49.6975H203.852C204.037 49.6975 204.214 49.6242 204.344 49.4937C204.475 49.3632 204.548 49.1862 204.548 49.0016V42.0429C204.548 41.8583 204.475 41.6813 204.344 41.5508C204.214 41.4203 204.037 41.347 203.852 41.347ZM220.553 41.347H213.594C213.41 41.347 213.233 41.4203 213.102 41.5508C212.972 41.6813 212.899 41.8583 212.899 42.0429V49.0016C212.899 49.1862 212.972 49.3632 213.102 49.4937C213.233 49.6242 213.41 49.6975 213.594 49.6975H220.553C220.738 49.6975 220.915 49.6242 221.045 49.4937C221.176 49.3632 221.249 49.1862 221.249 49.0016V42.0429C221.249 41.8583 221.176 41.6813 221.045 41.5508C220.915 41.4203 220.738 41.347 220.553 41.347ZM219.509 43.0867V47.9578H214.638V43.0867H219.509ZM202.804 43.0895V47.9536H197.941V43.0895H202.804Z" fill="white"/>
<path d="M250.656 274.159C249.256 271.931 253.414 271.093 255.668 270.952L278.204 269.358C292.9 284.289 252.407 276.944 250.656 274.159Z" fill="url(#paint0_linear_888_43882)"/>
<path d="M208.746 270.478C207.346 268.25 211.504 267.412 213.758 267.272L236.294 265.678C250.99 280.608 210.496 273.263 208.746 270.478Z" fill="url(#paint1_linear_888_43882)"/>
<defs>
<linearGradient id="paint0_linear_888_43882" x1="280.412" y1="274.814" x2="251.918" y2="275.402" gradientUnits="userSpaceOnUse">
<stop stop-color="currentColor" stop-opacity="0.11"/>
<stop offset="1" stop-color="#737373" stop-opacity="0"/>
</linearGradient>
<linearGradient id="paint1_linear_888_43882" x1="238.502" y1="271.133" x2="210.008" y2="271.722" gradientUnits="userSpaceOnUse">
<stop stop-color="currentColor" stop-opacity="0.11"/>
<stop offset="1" stop-color="#737373" stop-opacity="0"/>
</linearGradient>
</defs>
</svg>


