<svg width="178" height="287" viewBox="0 0 178 287" fill="none" xmlns="http://www.w3.org/2000/svg">
<path d="M31.426 8.90032C30.9005 9.00543 29.8494 9.53098 29.8494 10.7923C29.8494 12.0536 30.9005 12.369 31.426 12.369C32.0567 12.369 33.2549 12.0536 33.0027 10.7923C32.6873 9.21565 32.372 8.90032 31.426 8.90032Z" fill="currentColor"/>
<path d="M24.4887 8.26966C23.9632 8.37477 22.9121 8.90032 22.9121 10.1616C22.9121 11.423 23.9632 11.7383 24.4887 11.7383C25.1194 11.7383 26.3177 11.423 26.0654 10.1616C25.7501 8.58499 25.4347 8.26966 24.4887 8.26966Z" fill="currentColor"/>
<path d="M17.5515 7.639C17.0259 7.74411 15.9748 8.26966 15.9748 9.53098C15.9748 10.7923 17.0259 11.1076 17.5515 11.1076C18.1821 11.1076 19.3804 10.7923 19.1281 9.53098C18.8128 7.95433 18.4975 7.639 17.5515 7.639Z" fill="currentColor"/>
<path d="M12.385 2.19C9.57066 1.21863 4.59135 2.13007 4.83376 13.0385C5.08601 24.3904 4.93887 129.186 4.83376 180.164C4.20309 182.582 6.15814 186.975 19.0237 185.209C4.14001 189.246 0.629349 181.005 0.734451 176.38V6.10143C0.734451 -0.525847 8.29732 0.668371 12.385 2.19Z" fill="currentColor"/>
<path d="M91.8148 62.3111C91.571 62.3111 91.0833 62.4574 91.0833 63.0426C91.0833 63.6278 91.571 63.7741 91.8148 63.7741C92.0587 63.7741 92.5463 63.6278 92.5463 63.0426C92.5463 62.4574 92.0587 62.3111 91.8148 62.3111Z" fill="currentColor"/>
<path d="M80.1108 62.1282C80.1108 60.97 80.2205 58.5073 80.6594 57.9221C81.1205 57.3073 81.9692 54.8838 85.2685 54.1263C85.2488 54.0005 85.2162 53.886 85.1724 53.7819C84.2901 53.309 82.3584 53.5728 81.7567 52.9844C80.6162 51.8692 84.4045 51.9559 85.1724 53.7819C85.352 53.8781 85.5085 53.9704 85.6343 54.0512C86.0792 53.9702 86.5654 53.9185 87.0973 53.9034C85.1724 52.1893 85.2685 51.8872 86 51.8872C86.5852 51.8872 87.1944 53.2283 87.4258 53.8988C88.0116 53.8988 88.5734 53.9347 89.1089 54.0065C89.1255 53.9342 89.1413 53.8512 89.1547 53.7605C87.8924 52.1893 87.6599 51.1852 88.5603 51.7043C89.2273 52.0889 89.2497 53.1183 89.1547 53.7605C89.1456 53.8417 89.1306 53.9238 89.1089 54.0065C93.254 54.5623 95.8172 57.2696 95.6552 62.1282C95.8991 62.2501 96.533 62.494 97.1182 62.494C97.5449 60.6043 97.9594 56.203 96.2038 53.7159C94.0094 50.607 90.169 48.9612 87.9744 48.9612C85.2685 48.9612 80.6594 50.9728 79.1964 54.0817C78.026 56.5688 77.8553 60.3026 77.9163 61.8586C78.7026 61.7051 79.5686 61.905 80.1108 62.1282Z" fill="currentColor"/>
<path d="M128.545 123.625C128.629 123.625 128.798 123.677 128.798 123.881C128.798 124.086 128.629 124.137 128.545 124.137C128.46 124.137 128.291 124.086 128.291 123.881C128.291 123.677 128.46 123.625 128.545 123.625Z" fill="currentColor"/>
<path fill-rule="evenodd" clip-rule="evenodd" d="M151.856 130.024C155.404 124.137 152.363 112.876 145.268 114.411C144.801 114.364 144.044 114.338 143.393 114.428C146.782 117.176 147.383 125.161 146.46 121.55C145.722 118.661 143.693 115.691 142.771 114.566C142.525 114.65 142.331 114.766 142.228 114.923C142.002 115.265 141.677 115.909 141.407 116.565C143.732 120.529 143.377 130.998 142.771 127.359C142.31 124.592 141.768 119.204 141.248 116.971C140.998 117.647 140.843 118.269 140.961 118.506C141.082 118.752 140.726 121.114 140.422 123.903C140.286 125.158 140.16 126.499 140.093 127.772C139.999 129.571 140.023 131.235 140.301 132.328C140.549 133.311 140.877 134.812 142.121 136.679C143.154 138.227 144.817 140.027 147.589 141.99C147.383 141.655 144.155 137.044 145.538 136.583C146.438 136.283 146.443 141.005 148.078 142.33C148.153 142.381 148.228 142.433 148.305 142.484C148.472 142.596 148.642 142.708 148.816 142.821C148.778 142.304 148.767 141.611 148.805 140.794C146.922 138.888 147.383 134.277 147.844 134.277C148.213 134.277 148.645 138.489 148.816 140.595C148.835 140.248 148.863 139.879 148.901 139.494C149.175 136.753 149.972 133.151 151.856 130.024ZM144.616 120.903C144.923 123.978 145.63 130.219 145.999 130.587C146.46 131.048 145.838 121.825 144.616 120.903Z" fill="currentColor"/>
<path fill-rule="evenodd" clip-rule="evenodd" d="M122.717 155.363L123.224 155.107L121.957 153.571L121.04 153.77L118.409 154.339L115.875 156.899L115.622 157.154L115.875 158.434L117.396 159.97L117.652 159.714L120.436 156.937L120.69 155.363H122.717ZM118.409 155.363L116.636 157.154L117.902 158.178L119.423 156.387L118.409 155.363Z" fill="currentColor"/>
<path fill-rule="evenodd" clip-rule="evenodd" d="M139.563 119.503C139.586 119.448 139.605 119.4 139.621 119.361C139.677 119.223 139.694 119.182 139.694 119.274C139.694 119.32 139.647 119.398 139.563 119.503ZM140.635 121.408C140.691 121.27 140.707 121.23 140.707 121.322C140.707 121.336 140.703 121.353 140.694 121.373C140.675 121.418 140.635 121.478 140.576 121.55C140.599 121.495 140.619 121.448 140.635 121.408Z" fill="currentColor"/>
<path fill-rule="evenodd" clip-rule="evenodd" d="M129.305 116.971C129.71 113.899 132.008 112.449 133.106 112.108C134.594 112.82 137.462 114.324 137.871 115.029C137.905 115.156 137.918 115.245 137.922 115.281C137.921 115.263 137.92 115.229 137.92 115.179C137.92 115.134 137.903 115.084 137.871 115.029C137.686 114.347 136.881 112.567 133.51 111.948C134.372 111.634 135.574 111.336 136.906 111.249C138.334 111.157 139.91 111.308 141.372 111.942C142.082 112.25 142.766 112.672 143.393 113.235C143.194 113.265 142.975 113.315 142.734 113.387C140.2 114.155 139.947 116.715 139.947 117.227C139.947 117.739 139.694 119.018 140.961 118.506C141.082 118.752 140.726 121.114 140.422 123.903C140.496 122.816 140.568 121.892 140.694 121.373C140.703 121.353 140.707 121.336 140.707 121.322C140.707 121.23 140.691 121.27 140.635 121.408C140.619 121.448 140.599 121.495 140.576 121.55C139.901 122.382 136.784 124.896 135.133 126.185C139.082 125.515 140.23 122.37 140.576 121.55C140.635 121.478 140.675 121.418 140.694 121.373C140.568 121.892 140.496 122.816 140.422 123.903C140.286 125.158 140.16 126.499 140.093 127.772C139.916 129.154 139.646 130.385 139.187 131.048C136.906 131.304 135.64 130.024 133.359 128.744C131.535 127.721 131.079 126.1 131.079 125.417C131.332 125.246 131.636 124.752 130.825 124.137C129.812 123.369 128.798 120.81 129.305 116.971ZM139.563 119.503C138.887 120.335 135.77 122.849 134.119 124.137C137.237 123.881 139.216 120.322 139.563 119.503C139.647 119.398 139.694 119.32 139.694 119.274C139.694 119.182 139.677 119.223 139.621 119.361C139.605 119.4 139.586 119.448 139.563 119.503Z" fill="currentColor"/>
<path fill-rule="evenodd" clip-rule="evenodd" d="M98.4871 147.685H75.7832C74.627 147.685 72.3146 148.505 72.3146 151.784V159.037C72.1044 159.563 72.3777 160.677 75.1526 160.929C77.9275 161.181 92.4958 161.034 99.4331 160.929C100.169 160.824 101.64 160.298 101.64 159.037C101.516 156.447 101.266 150.909 101.266 149.476C101.266 148.043 99.4134 147.685 98.4871 147.685ZM83.2807 157.796L79.1302 154.568L79.5914 152.723L83.2807 155.951L92.9652 149.956L93.8875 150.879L83.2807 157.796Z" fill="currentColor"/>
<path d="M77.7334 66.4527C78.3563 66.9098 79.0473 67.2444 79.5621 67.4316C80.1754 68.4537 81.4627 70.1155 83.2197 71.536L82.8539 77.3069L81.5504 77.3591C82.3584 74.7864 82.8196 71.5583 81.208 71.272V77.3727L79.5621 77.4386C80.5137 74.7864 80.0526 70.1748 79.0507 69.9919L79.1964 77.4532L78.282 77.4898L77.7334 66.4527Z" fill="currentColor"/>
<path fill-rule="evenodd" clip-rule="evenodd" d="M128.876 171.999C129.014 171.908 129.051 171.309 129.051 170.976H145.268C145.268 171.251 145.291 171.597 145.343 171.999C145.497 173.188 145.912 174.872 146.775 176.704C147.426 178.087 148.333 179.554 149.576 180.958C153.022 184.848 154.728 199.812 155.15 206.808L159.965 257.23C157.684 258.51 152.566 260.711 150.336 259.277C148.239 257.93 145.57 244.13 144.052 236.283C143.551 233.697 143.176 231.758 142.988 231.123C142.387 229.102 139.559 210.285 138.167 200.775C138.149 200.651 138.131 200.53 138.114 200.41C137.769 200.693 137.446 200.952 137.16 201.177L124.744 233.171L124.237 258.254C122.488 259.637 118.506 261.517 115.362 259.187C115.015 258.93 114.678 258.621 114.355 258.254C111.444 254.946 111.668 246.624 111.839 240.299C111.905 237.815 111.964 235.638 111.821 234.195C111.416 230.099 114.693 217.814 116.382 212.183C117.818 207.15 121.247 195.803 123.477 190.684C124.725 187.817 125.995 183.587 127.024 179.7C127.833 176.645 128.493 173.802 128.876 171.999ZM138.114 200.41C139.527 199.247 141.316 197.671 142.549 196.314C142.751 196.314 142.982 196.312 143.231 196.308C142.412 197.822 140.862 199.574 138.167 200.775L138.114 200.41Z" fill="currentColor"/>
<path d="M162.752 278.474C163.681 279.156 165.387 281.187 164.779 283.848C164.171 286.51 157.262 286.152 153.883 285.64C150.336 284.787 143.342 282.364 143.748 279.497C143.832 279.156 144.103 278.422 144.508 278.218C144.681 278.13 144.707 278.282 144.746 278.52C144.821 278.978 144.948 279.753 146.282 279.753C147.393 279.753 147.59 280.676 147.751 281.426C147.883 282.044 147.99 282.544 148.562 282.313C149.297 282.016 149.776 281.203 150.148 280.572C150.417 280.115 150.63 279.753 150.843 279.753C151.349 279.753 162.245 279.753 162.752 278.474Z" fill="white"/>
<path d="M124.997 277.45C125.926 279.241 127.379 283.029 125.757 283.848C124.136 284.667 112.412 285.043 106.753 285.128C104.473 284.872 100.52 283.439 102.953 279.753C103.037 280.18 103.307 281.033 103.713 281.033C104.22 281.033 105.74 281.033 105.993 281.289C106.074 281.371 106.206 281.608 106.365 281.894C106.705 282.505 107.168 283.337 107.514 283.337C107.745 283.337 108.292 282.858 108.915 282.312C109.658 281.661 110.51 280.916 111.061 280.777C111.282 280.721 112.056 280.568 113.134 280.355C117.005 279.59 124.799 278.05 124.997 277.45Z" fill="white"/>
<path d="M84.1341 62.3111C83.8902 62.3111 83.4025 62.4574 83.4025 63.0426C83.4025 63.6278 83.8902 63.7741 84.1341 63.7741C84.3779 63.7741 84.8656 63.6278 84.8656 63.0426C84.8656 62.4574 84.3779 62.3111 84.1341 62.3111Z" fill="currentColor"/>
<path d="M52.5901 109.401L52.439 114.766L51.8104 114.748L49.006 110.454L48.9536 110.452L48.8349 114.664L48.1854 114.646L48.3365 109.282L48.9651 109.299L51.7797 113.604L51.8321 113.606L51.951 109.383L52.5901 109.401ZM55.3394 114.931C54.9517 114.92 54.6198 114.825 54.3435 114.646C54.0689 114.465 53.8601 114.218 53.7169 113.905C53.5755 113.59 53.5105 113.226 53.5221 112.814C53.5338 112.402 53.6191 112.041 53.7781 111.731C53.9389 111.419 54.1571 111.179 54.4327 111.01C54.7102 110.84 55.0305 110.76 55.3937 110.77C55.6032 110.776 55.8091 110.817 56.0115 110.892C56.2138 110.968 56.3966 111.087 56.5598 111.248C56.723 111.409 56.8508 111.618 56.9431 111.878C57.0354 112.137 57.0763 112.455 57.0657 112.83L57.0583 113.092L53.9572 113.005L53.9722 112.47L56.4448 112.54C56.4511 112.313 56.4115 112.109 56.3257 111.929C56.2416 111.748 56.1181 111.604 55.9551 111.496C55.7939 111.389 55.6015 111.332 55.378 111.325C55.1318 111.318 54.9171 111.373 54.7338 111.491C54.5523 111.606 54.4108 111.759 54.3093 111.95C54.2078 112.142 54.1539 112.348 54.1477 112.57L54.1376 112.926C54.1291 113.23 54.1742 113.489 54.273 113.703C54.3736 113.916 54.5167 114.08 54.7022 114.195C54.8877 114.308 55.1053 114.369 55.355 114.376C55.5174 114.38 55.6647 114.362 55.797 114.32C55.931 114.277 56.0473 114.21 56.146 114.12C56.2447 114.029 56.3222 113.914 56.3785 113.776L56.971 113.96C56.9024 114.161 56.7917 114.336 56.639 114.485C56.4863 114.633 56.2996 114.747 56.0789 114.826C55.8583 114.904 55.6118 114.939 55.3394 114.931ZM58.8594 114.946L57.7469 110.889L58.3964 110.907L59.1793 114.012L59.2212 114.013L60.167 110.957L60.8271 110.975L61.5892 114.069L61.6311 114.07L62.5872 111.025L63.2367 111.043L61.8976 115.032L61.29 115.015L60.497 111.899L60.4341 111.898L59.467 114.963L58.8594 114.946ZM66.0989 115.15L66.2499 109.786L68.0624 109.837C68.4833 109.849 68.8251 109.935 69.088 110.094C69.3527 110.252 69.546 110.461 69.668 110.721C69.79 110.981 69.8465 111.27 69.8376 111.586C69.8287 111.902 69.756 112.187 69.6195 112.442C69.4848 112.697 69.2817 112.897 69.0102 113.043C68.7387 113.188 68.3943 113.254 67.977 113.242L66.6779 113.206L66.6941 112.63L67.9723 112.666C68.2604 112.674 68.4932 112.63 68.6706 112.536C68.848 112.441 68.9784 112.31 69.0617 112.143C69.1469 111.974 69.1925 111.782 69.1985 111.568C69.2046 111.353 69.1698 111.16 69.0943 110.988C69.0205 110.816 68.8967 110.68 68.7231 110.579C68.5495 110.476 68.3169 110.421 68.0253 110.413L66.8833 110.381L66.7484 115.169L66.0989 115.15ZM71.8781 115.407C71.6232 115.4 71.3932 115.346 71.1881 115.244C70.9831 115.14 70.822 114.995 70.7049 114.808C70.5879 114.62 70.5331 114.394 70.5405 114.132C70.547 113.902 70.5976 113.716 70.6925 113.576C70.7874 113.433 70.9119 113.323 71.0661 113.245C71.2204 113.168 71.3897 113.111 71.5742 113.076C71.7605 113.04 71.9473 113.012 72.1349 112.993C72.3802 112.968 72.5791 112.95 72.7314 112.939C72.8856 112.925 72.9982 112.9 73.0691 112.862C73.1419 112.823 73.1796 112.755 73.1824 112.655L73.183 112.634C73.1903 112.376 73.1252 112.173 72.9878 112.026C72.8522 111.879 72.642 111.801 72.3574 111.793C72.0623 111.785 71.8291 111.843 71.6578 111.967C71.4866 112.092 71.3648 112.226 71.2926 112.371L70.7118 112.145C70.8234 111.904 70.9685 111.717 71.1469 111.586C71.3272 111.453 71.522 111.362 71.7313 111.314C71.9424 111.264 72.1492 111.242 72.3518 111.248C72.481 111.251 72.629 111.271 72.7957 111.307C72.9643 111.342 73.1258 111.408 73.2803 111.507C73.4365 111.606 73.5644 111.752 73.6638 111.945C73.7632 112.138 73.8084 112.395 73.7994 112.714L73.7247 115.365L73.1066 115.348L73.1219 114.803L73.0905 114.802C73.0461 114.888 72.9737 114.979 72.8731 115.076C72.7725 115.173 72.64 115.254 72.4757 115.319C72.3113 115.385 72.1121 115.414 71.8781 115.407ZM71.9881 114.855C72.2325 114.862 72.4399 114.819 72.6103 114.728C72.7823 114.637 72.9133 114.516 73.0031 114.367C73.0947 114.217 73.1429 114.059 73.1476 113.891L73.1635 113.326C73.1365 113.356 73.078 113.383 72.9882 113.407C72.9002 113.429 72.7983 113.448 72.6826 113.464C72.5686 113.478 72.4572 113.491 72.3486 113.502C72.2417 113.511 72.155 113.519 72.0884 113.526C71.9272 113.542 71.776 113.572 71.635 113.615C71.4958 113.657 71.3821 113.723 71.2939 113.813C71.2076 113.901 71.1622 114.024 71.1577 114.181C71.1517 114.396 71.2266 114.561 71.3824 114.675C71.54 114.788 71.7419 114.848 71.9881 114.855ZM77.7906 112.355L77.2309 112.496C77.1986 112.403 77.1496 112.312 77.084 112.222C77.0201 112.131 76.9314 112.055 76.8177 111.995C76.7041 111.934 76.5574 111.901 76.3775 111.896C76.1313 111.889 75.9246 111.94 75.7572 112.049C75.5917 112.156 75.5065 112.296 75.5016 112.469C75.4973 112.622 75.5497 112.745 75.659 112.837C75.7682 112.93 75.9408 113.009 76.1766 113.075L76.7696 113.238C77.1269 113.336 77.3911 113.477 77.5624 113.662C77.7338 113.845 77.8155 114.077 77.8076 114.358C77.8011 114.589 77.7289 114.793 77.5911 114.971C77.455 115.148 77.2676 115.287 77.029 115.385C76.7903 115.483 76.5147 115.527 76.2021 115.519C75.7918 115.507 75.4546 115.408 75.1908 115.223C74.9269 115.037 74.7639 114.772 74.702 114.428L75.2928 114.298C75.3426 114.516 75.4437 114.681 75.596 114.794C75.7501 114.906 75.9538 114.966 76.207 114.974C76.4951 114.982 76.7256 114.927 76.8984 114.81C77.073 114.69 77.1627 114.544 77.1676 114.371C77.1715 114.232 77.1259 114.113 77.0308 114.016C76.9357 113.918 76.7876 113.842 76.5863 113.789L75.9202 113.613C75.5543 113.515 75.2874 113.372 75.1197 113.184C74.9538 112.994 74.8748 112.76 74.8826 112.483C74.889 112.256 74.9584 112.057 75.0908 111.886C75.2249 111.715 75.4042 111.583 75.6288 111.489C75.8551 111.396 76.1097 111.353 76.3926 111.361C76.7907 111.373 77.1008 111.469 77.3229 111.65C77.5467 111.831 77.7026 112.066 77.7906 112.355ZM81.6441 112.463L81.0844 112.605C81.0521 112.511 81.0031 112.42 80.9375 112.331C80.8736 112.24 80.7849 112.164 80.6713 112.103C80.5576 112.042 80.4109 112.009 80.2311 112.004C79.9848 111.997 79.7781 112.048 79.6107 112.157C79.4452 112.264 79.36 112.404 79.3551 112.577C79.3508 112.731 79.4033 112.854 79.5125 112.946C79.6218 113.038 79.7943 113.117 80.0301 113.183L80.6231 113.347C80.9804 113.444 81.2447 113.585 81.416 113.77C81.5873 113.953 81.669 114.185 81.6611 114.467C81.6546 114.697 81.5824 114.901 81.4446 115.079C81.3085 115.257 81.1212 115.395 80.8825 115.493C80.6438 115.591 80.3682 115.636 80.0556 115.627C79.6453 115.616 79.3082 115.517 79.0443 115.331C78.7804 115.146 78.6175 114.881 78.5555 114.536L79.1463 114.406C79.1961 114.624 79.2972 114.79 79.4496 114.902C79.6037 115.015 79.8073 115.075 80.0605 115.082C80.3486 115.09 80.5791 115.036 80.7519 114.918C80.9265 114.799 81.0163 114.653 81.0211 114.48C81.025 114.34 80.9795 114.222 80.8843 114.125C80.7892 114.026 80.6411 113.95 80.4399 113.897L79.7738 113.721C79.4078 113.624 79.141 113.481 78.9733 113.293C78.8073 113.103 78.7283 112.869 78.7361 112.591C78.7425 112.364 78.8119 112.165 78.9443 111.994C79.0784 111.823 79.2578 111.691 79.4823 111.598C79.7086 111.505 79.9632 111.462 80.2461 111.47C80.6442 111.481 80.9543 111.577 81.1764 111.758C81.4002 111.939 81.5561 112.174 81.6441 112.463ZM83.4715 115.639L82.359 111.582L83.0086 111.6L83.7914 114.705L83.8333 114.706L84.7792 111.65L85.4392 111.669L86.2014 114.762L86.2433 114.763L87.1993 111.718L87.8489 111.736L86.5098 115.725L85.9021 115.708L85.1091 112.592L85.0462 112.591L84.0791 115.657L83.4715 115.639ZM90.0479 115.909C89.6847 115.898 89.3685 115.803 89.0992 115.622C88.8317 115.442 88.6255 115.194 88.4806 114.879C88.3374 114.564 88.2717 114.198 88.2834 113.783C88.2952 113.364 88.3815 113 88.5422 112.692C88.7046 112.384 88.9245 112.147 89.2018 111.982C89.4808 111.816 89.8019 111.739 90.1651 111.749C90.5283 111.759 90.8437 111.855 91.1112 112.035C91.3805 112.216 91.5866 112.465 91.7298 112.782C91.8746 113.098 91.9411 113.466 91.9293 113.885C91.9176 114.301 91.8306 114.662 91.6682 114.969C91.5075 115.275 91.2877 115.511 91.0086 115.676C90.7314 115.841 90.4111 115.919 90.0479 115.909ZM90.0636 115.353C90.3395 115.361 90.5685 115.297 90.7506 115.16C90.9326 115.024 91.0697 114.842 91.1618 114.614C91.2538 114.385 91.3036 114.137 91.3112 113.868C91.3188 113.599 91.2831 113.347 91.204 113.113C91.125 112.878 90.9985 112.687 90.8244 112.538C90.6503 112.39 90.4253 112.312 90.1495 112.305C89.8736 112.297 89.6445 112.362 89.4624 112.5C89.2803 112.638 89.1431 112.822 89.051 113.052C88.9589 113.282 88.9091 113.531 88.9015 113.8C88.894 114.069 88.9297 114.32 89.0088 114.553C89.0878 114.786 89.2144 114.976 89.3886 115.122C89.5627 115.268 89.7877 115.346 90.0636 115.353ZM92.8169 115.903L92.9302 111.88L93.5273 111.896L93.5102 112.504L93.5521 112.505C93.6311 112.308 93.7683 112.15 93.9639 112.032C94.1595 111.913 94.3777 111.857 94.6187 111.864C94.6641 111.865 94.7208 111.868 94.7889 111.872C94.8569 111.875 94.9084 111.879 94.9432 111.884L94.9255 112.512C94.9047 112.507 94.8569 112.497 94.7821 112.485C94.7091 112.471 94.6316 112.462 94.5495 112.46C94.3539 112.454 94.1782 112.491 94.0222 112.568C93.868 112.644 93.7444 112.753 93.6513 112.893C93.56 113.032 93.5118 113.193 93.5067 113.374L93.435 115.92L92.8169 115.903ZM96.9555 116.103C96.6202 116.094 96.3266 116.001 96.0747 115.824C95.8229 115.646 95.6288 115.399 95.4927 115.084C95.3565 114.768 95.2945 114.396 95.3065 113.97C95.3184 113.548 95.4012 113.183 95.5548 112.876C95.7085 112.569 95.917 112.335 96.1802 112.173C96.4434 112.011 96.7443 111.935 97.0831 111.944C97.345 111.951 97.5507 112.001 97.7002 112.093C97.8514 112.182 97.9657 112.283 98.0429 112.396C98.1219 112.506 98.1831 112.597 98.2265 112.668L98.2789 112.67L98.3347 110.69L98.9528 110.707L98.8018 116.071L98.2046 116.054L98.222 115.436L98.1487 115.434C98.1012 115.506 98.034 115.597 97.947 115.706C97.8601 115.814 97.7377 115.909 97.5798 115.992C97.422 116.073 97.2139 116.11 96.9555 116.103ZM97.0549 115.55C97.3029 115.557 97.5142 115.498 97.689 115.374C97.8638 115.248 97.999 115.071 98.0945 114.843C98.1901 114.613 98.2422 114.346 98.2508 114.043C98.2592 113.742 98.223 113.478 98.142 113.25C98.0611 113.021 97.9368 112.841 97.7693 112.71C97.6017 112.578 97.3922 112.509 97.1408 112.501C96.8789 112.494 96.6587 112.555 96.4803 112.685C96.3037 112.812 96.1685 112.99 96.0748 113.216C95.9828 113.44 95.9329 113.694 95.9249 113.977C95.9168 114.263 95.9532 114.525 96.0339 114.761C96.1164 114.996 96.2421 115.185 96.4111 115.328C96.5819 115.469 96.7965 115.543 97.0549 115.55Z" fill="currentColor"/>
<path fill-rule="evenodd" clip-rule="evenodd" d="M112.922 268.679C112.947 269.475 113.817 271.004 114.355 271.819V274.89H119.676C120.067 274.407 120.727 273.689 121.413 273.134C122.111 273.69 123.45 274.308 123.224 272.331C124.237 272.536 124.828 275.829 124.997 277.45C124.799 278.05 117.005 279.59 113.134 280.355C112.056 280.568 111.282 280.721 111.061 280.777C110.51 280.916 109.658 281.661 108.915 282.312C108.292 282.858 107.745 283.337 107.514 283.337C107.168 283.337 106.705 282.505 106.365 281.894C106.206 281.608 106.074 281.371 105.993 281.289C105.74 281.033 104.22 281.033 103.713 281.033C103.307 281.033 103.037 280.18 102.953 279.753C105.402 277.962 110.808 273.969 112.835 272.331C112.764 271.408 112.706 269.61 112.922 268.679Z" fill="currentColor"/>
<path fill-rule="evenodd" clip-rule="evenodd" d="M151.603 269.515C151.197 270.13 152.447 272.331 153.123 273.355L152.87 275.146L155.91 275.402C156.5 274.608 157.851 273.168 159.373 272.466C160.295 273.549 160.849 273.565 161.218 272.123C162.779 272.625 162.906 276.45 162.752 278.474C162.245 279.753 151.349 279.753 150.843 279.753C150.63 279.753 150.417 280.115 150.148 280.572C149.776 281.203 149.297 282.016 148.562 282.313C147.99 282.544 147.883 282.044 147.751 281.426C147.59 280.676 147.393 279.753 146.282 279.753C144.948 279.753 144.821 278.978 144.746 278.52C144.707 278.282 144.681 278.13 144.508 278.218C145.353 277.45 147.751 276.016 150.589 276.426C152.55 276.709 152.034 274.803 151.522 272.912C151.108 271.381 150.696 269.859 151.603 269.515Z" fill="currentColor"/>
<path d="M133.866 135.911C135.864 136.372 135.667 140.963 139.861 143.29C142.734 144.883 150.468 146.979 148.162 138.678C151.851 151.129 143.232 153.646 138.939 147.901C137.316 145.73 135.096 139.139 133.866 135.911Z" fill="currentColor"/>
<path d="M177.005 39.5263C177.846 36.1628 177.131 29.0573 167.545 27.5437C157.959 26.0302 60.3322 10.0954 12.717 2.31726M177.005 39.5263V164.398C177.213 168.812 174.982 177.389 164.391 176.38C163.845 176.328 163.32 176.284 162.815 176.246M177.005 39.5263L162.184 37.2462M12.717 2.31726C12.6092 2.27469 12.4984 2.23222 12.385 2.19M12.717 2.31726C12.6103 2.27209 12.4994 2.22949 12.385 2.19M4.83376 13.0385C5.08602 24.3904 4.93887 129.186 4.83376 180.164C4.20309 182.582 6.15814 186.975 19.0236 185.209M4.83376 13.0385L158.4 36.664M4.83376 13.0385C4.59135 2.13007 9.57067 1.21863 12.385 2.19M19.0236 185.209C31.8892 183.444 87.8709 181.11 114.254 180.164L127.024 179.7M19.0236 185.209C4.14002 189.246 0.629346 181.005 0.734456 176.38M162.184 37.2462L158.4 36.664M162.184 37.2462L162.352 74.2129L162.49 104.8L162.815 176.246M162.815 176.246C161.132 176.122 159.669 176.077 158.4 176.091M158.4 36.664V74.2129V104.8V176.091M158.4 176.091L146.775 176.704M102.586 89.9795C106.686 93.7635 114.884 94.7095 117.092 87.7722C118.857 82.2223 116.485 78.0146 112.362 76.4202M102.586 89.9795C101.594 88.9045 100.055 86.3595 100.181 83.3575C100.215 82.5435 100.372 81.6959 100.694 80.8349C102.208 76.7986 108.184 75.2476 112.362 76.4202M102.586 89.9795C100.19 91.1777 94.3826 93.5237 88.3965 94.4233C87.5561 94.5496 86.7123 94.6473 85.8738 94.7094C82.8386 94.9343 78.5209 94.1171 74.2066 91.9293C70.1305 89.8623 66.0574 86.5719 63.0719 81.7809C60.3535 77.4186 58.5367 71.8124 58.44 64.753C58.1878 46.3377 74.5186 39.8419 85.8738 39.8419C112.795 40.199 114.569 66.2245 112.362 76.4202M108.262 78.6276V89.9795M113.308 84.3035H102.902M98.4871 147.685C95.7122 147.685 82.195 147.685 75.7832 147.685M98.4871 147.685H75.7832M98.4871 147.685C99.4134 147.685 101.266 148.043 101.266 149.476C101.266 150.909 101.516 156.447 101.64 159.037C101.64 160.298 100.169 160.824 99.4331 160.929C92.4958 161.034 77.9275 161.181 75.1526 160.929C72.3777 160.677 72.1044 159.563 72.3146 159.037M75.7832 147.685C74.627 147.685 72.3146 148.505 72.3146 151.784M72.3146 151.784C72.3146 155.064 72.3146 157.986 72.3146 159.037M72.3146 151.784V159.037M0.734456 6.10143C0.734456 12.9126 0.734456 122.459 0.734456 176.38M0.734456 6.10143V176.38M0.734456 6.10143C0.734456 -0.525847 8.29731 0.668371 12.385 2.19M87.4258 53.8988C87.1944 53.2283 86.5852 51.8872 86 51.8872C85.2685 51.8872 85.1724 52.1893 87.0973 53.9034M87.4258 53.8988C87.3144 53.8988 87.2049 53.9004 87.0973 53.9034M87.4258 53.8988C88.0116 53.8988 88.5734 53.9347 89.1089 54.0065M97.1182 62.494C96.533 62.494 95.8991 62.2501 95.6552 62.1282C95.8172 57.2696 93.254 54.5623 89.1089 54.0065M97.1182 62.494C97.8497 62.494 98.947 63.0426 99.1299 64.6885C99.3127 66.3344 98.3984 67.7974 96.2039 67.7974H95.6552C95.1386 69.5195 93.7279 72.3485 91.4491 73.5526M97.1182 62.494C97.5449 60.6043 97.9595 56.203 96.2039 53.7159C94.0094 50.607 90.169 48.9612 87.9745 48.9612C85.2685 48.9612 80.6594 50.9728 79.1964 54.0817C78.026 56.5688 77.8553 60.3026 77.9163 61.8586M88.1573 62.6768C88.4621 63.5912 88.9986 65.4566 88.706 65.6029C88.4133 65.7492 87.8525 65.5419 87.6087 65.42M81.7567 60.4823C82.4272 59.9337 84.2438 59.0559 86.1457 59.9337M90.169 60.1166C91.0833 59.7508 93.1315 59.3485 94.0093 60.6652M77.9163 61.8586C77.1998 61.9985 76.5494 62.4318 76.2704 63.4084C75.9099 64.6702 76.7339 65.7192 77.7334 66.4527M77.9163 61.8586C78.7026 61.7051 79.5686 61.905 80.1108 62.1282C80.1108 60.97 80.2205 58.5073 80.6594 57.9221C81.1205 57.3073 81.9692 54.8838 85.2685 54.1263M77.7334 66.4527C78.3563 66.9098 79.0473 67.2444 79.5622 67.4316C80.1754 68.4537 81.4627 70.1155 83.2197 71.536M77.7334 66.4527L78.282 77.4898M78.282 77.4898C75.0512 79.1966 68.8822 83.7807 70.0526 88.4623M78.282 77.4898L79.1964 77.4532M82.8539 77.3069L83.2197 71.536M82.8539 77.3069C84.9021 79.6477 89.1936 78.2822 91.0833 77.3069M82.8539 77.3069L81.5504 77.3591M83.2197 71.536C84.6064 72.6571 86.2858 73.6279 88.1573 74.0151C89.4035 74.273 90.5014 74.0533 91.4491 73.5526M91.4491 73.5526L91.0833 77.3069M91.0833 77.3069C93.034 77.5507 97.3011 78.2944 98.7641 79.3185C100.227 80.3427 100.227 87.7918 100.044 91.3883M79.1964 77.4532L79.0507 69.9919C80.0526 70.1748 80.5137 74.7864 79.5622 77.4386M79.1964 77.4532L79.5622 77.4386M79.5622 77.4386L81.208 77.3727M81.208 77.3727V71.272C82.8196 71.5583 82.3584 74.7864 81.5504 77.3591M81.208 77.3727L81.5504 77.3591M85.6343 54.0512C85.5091 54.074 85.3872 54.0991 85.2685 54.1263M85.6343 54.0512C86.0792 53.9702 86.5654 53.9185 87.0973 53.9034M85.6343 54.0512C85.5085 53.9704 85.352 53.8781 85.1724 53.7819M85.2685 54.1263C85.2488 54.0005 85.2162 53.886 85.1724 53.7819M89.1089 54.0065C89.1255 53.9342 89.1413 53.8512 89.1547 53.7605M89.1089 54.0065C89.1306 53.9238 89.1456 53.8417 89.1547 53.7605M85.1724 53.7819C84.2901 53.309 82.3584 53.5728 81.7567 52.9844C80.6162 51.8692 84.4045 51.9559 85.1724 53.7819ZM89.1547 53.7605C87.8924 52.1893 87.6599 51.1852 88.5603 51.7043C89.2273 52.0889 89.2497 53.1183 89.1547 53.7605ZM133.106 112.108C132.008 112.449 129.71 113.899 129.305 116.971M133.106 112.108C133.23 112.055 133.365 112.001 133.51 111.948M133.106 112.108C134.594 112.82 137.462 114.324 137.871 115.029M129.305 116.971C128.798 120.81 129.812 123.369 130.825 124.137C131.636 124.752 131.332 125.246 131.079 125.417C131.079 126.1 131.535 127.721 133.359 128.744C135.64 130.024 136.906 131.304 139.187 131.048M129.305 116.971C129.261 117.125 129.214 117.296 129.165 117.483M139.187 131.048C139.646 130.385 139.916 129.154 140.093 127.772M139.187 131.048C139.447 132.432 140.034 135.199 140.301 135.199M145.268 114.411C152.363 112.876 155.404 124.137 151.856 130.024C149.972 133.151 149.175 136.753 148.901 139.494M145.268 114.411C145.268 113.885 144.874 113.014 143.393 113.235M145.268 114.411C144.801 114.364 144.044 114.338 143.393 114.428M140.961 118.506C139.694 119.018 139.947 117.739 139.947 117.227C139.947 116.715 140.2 114.155 142.734 113.387C142.975 113.315 143.194 113.265 143.393 113.235M140.961 118.506C140.843 118.269 140.998 117.647 141.248 116.971M140.961 118.506C141.082 118.752 140.726 121.114 140.422 123.903M143.393 113.235C142.766 112.672 142.082 112.25 141.372 111.942M137.92 115.179C137.92 115.134 137.903 115.084 137.871 115.029M137.92 115.179C137.92 115.229 137.921 115.263 137.922 115.281M137.92 115.179C137.92 115.295 137.927 115.322 137.922 115.281M133.51 111.948C134.372 111.634 135.574 111.336 136.906 111.249C138.334 111.157 139.91 111.308 141.372 111.942M133.51 111.948C136.881 112.567 137.686 114.347 137.871 115.029M140.707 121.322C140.707 121.23 140.691 121.27 140.635 121.408C140.619 121.448 140.599 121.495 140.576 121.55M140.707 121.322C140.707 121.336 140.703 121.353 140.694 121.373M140.707 121.322C140.703 121.339 140.698 121.356 140.694 121.373M133.866 135.911C132.008 136.508 127.987 138.982 126.771 144.101C125.555 149.22 125.757 154.936 126.011 157.154M133.866 135.911C135.864 136.372 135.667 140.963 139.861 143.289C142.734 144.883 150.468 146.979 148.162 138.678C151.851 151.129 143.232 153.646 138.939 147.901C137.316 145.73 135.096 139.139 133.866 135.911ZM133.866 135.911C133.854 135.825 133.841 135.741 133.829 135.66M128.143 122.602C128.277 122.516 128.646 122.397 129.051 122.602M128.143 122.602C128.121 122.774 128.102 122.945 128.086 123.113M128.143 122.602C128.365 120.79 128.822 118.78 129.165 117.483M128.413 128.605C128.206 127.533 128.145 126.347 128.038 125.161C127.986 124.58 128.011 123.873 128.086 123.113M128.413 128.605C128.696 130.076 129.252 131.331 130.572 132.072C132.797 133.321 133.334 132.376 133.829 135.66M128.413 128.605C128.795 128.9 129.761 129.312 130.572 128.605M142.121 136.679C140.877 134.812 140.549 133.311 140.301 132.328C140.023 131.235 139.999 129.571 140.093 127.772M142.121 136.679C143.154 138.227 144.817 140.027 147.589 141.99M142.121 136.679L140.301 135.199M126.011 157.154C125.926 157.41 126.011 157.974 127.024 158.178M126.011 157.154C126.302 157.119 126.644 157.082 127.024 157.046M134.119 158.178V156.937M134.119 158.178C135.213 158.113 136.787 157.91 136.4 157.545M134.119 158.178C133.866 160.311 133.207 164.986 132.599 166.625C132.254 167.554 131.7 168.379 131.008 168.929C130.176 169.592 129.145 169.859 128.038 169.44M134.119 156.937C134.585 156.989 135.014 157.06 135.386 157.154C135.966 157.301 136.279 157.431 136.4 157.545M134.119 156.937C131.958 156.695 128.984 156.859 127.024 157.046M136.4 157.545C136.484 154.685 136.501 148.811 135.893 148.196M127.024 158.178V157.046M127.024 158.178L127.151 160.226M127.278 162.273L127.151 160.226M127.151 160.226L122.717 155.363M122.717 155.363L123.224 155.107L121.957 153.571L121.04 153.77M122.717 155.363H120.69L120.436 156.937L117.652 159.714M121.04 153.77L118.409 154.339L115.875 156.899M121.04 153.77C119.318 152.68 115.723 150.142 115.115 148.708C114.765 147.883 114.398 147.697 114.102 147.769M115.875 156.899L115.622 157.154L115.875 158.434L117.396 159.97L117.652 159.714M115.875 156.899C115.622 156.643 113.088 157.154 107.767 156.131C103.51 155.312 105.655 154.083 107.26 153.571C106.5 153.637 104.98 153.525 104.98 152.547C104.98 151.57 106.5 151.287 107.26 151.268C106.5 151.182 104.929 150.807 104.726 149.988C104.524 149.169 106.5 149.476 107.514 149.732C106.669 149.305 105.182 148.299 105.993 147.684C106.066 147.629 106.151 147.588 106.247 147.561M114.102 147.769C113.883 147.822 113.702 148.015 113.595 148.196C113.173 148.794 112.125 149.886 111.314 149.476C110.374 149.001 107.47 147.204 106.247 147.561M114.102 147.769V146.917M114.102 146.917H106.247M114.102 146.917H114.608V146.405H113.848V145.381H108.527V144.613H105.233V146.917H106.247M106.247 146.917V147.561M117.652 159.714C119.511 161.705 122.788 165.094 125.247 167.312M128.038 169.44V170.976M128.038 169.44C127.498 169.235 126.474 168.419 125.247 167.312M148.901 139.494C149.183 140.944 149.578 143.999 148.901 144.613C148.225 145.227 147.887 146.973 147.802 147.769V168.929V170.976M148.901 139.494C148.863 139.879 148.835 140.248 148.816 140.595M147.802 170.976H145.268M147.802 170.976C147.802 171.313 147.308 171.983 145.343 171.999M128.038 170.976C127.953 171.146 127.987 171.59 128.798 171.999C128.827 172.016 128.853 172.015 128.876 171.999M128.038 170.976H129.051M145.268 171.999C145.293 171.999 145.318 171.999 145.343 171.999M129.051 170.976C129.051 171.309 129.014 171.908 128.876 171.999M129.051 170.976H145.268M128.876 171.999C128.493 173.802 127.833 176.645 127.024 179.7M114.355 258.254L114.862 262.861C115.053 262.92 115.309 262.984 115.622 263.044M114.355 258.254C111.444 254.946 111.668 246.624 111.839 240.299C111.905 237.815 111.964 235.638 111.821 234.195C111.416 230.099 114.693 217.814 116.382 212.183C117.818 207.15 121.247 195.803 123.477 190.684C124.725 187.817 125.995 183.587 127.024 179.7M114.355 258.254C114.678 258.621 115.015 258.93 115.362 259.187C118.506 261.517 122.488 259.637 124.237 258.254M124.237 258.254L124.744 233.171L137.16 201.177M124.237 258.254L123.224 262.861M137.16 201.177C137.446 200.952 137.769 200.693 138.114 200.41M137.16 201.177C137.512 201.052 137.848 200.917 138.167 200.775M142.549 196.314C143.411 195.367 144.001 194.526 144.001 194.011C143.948 194.579 143.72 195.401 143.231 196.308M142.549 196.314C141.316 197.671 139.527 199.247 138.114 200.41M142.549 196.314C142.751 196.314 142.982 196.312 143.231 196.308M147.042 195.803C146.868 196.154 144.728 196.279 143.231 196.308M138.114 200.41L138.167 200.775M138.114 200.41C138.131 200.53 138.149 200.651 138.167 200.775M150.336 259.277C152.566 260.711 157.684 258.51 159.965 257.23M150.336 259.277L151.349 263.885C151.636 263.894 151.958 263.898 152.304 263.895M150.336 259.277C148.239 257.93 145.57 244.13 144.052 236.283C143.551 233.697 143.176 231.758 142.988 231.123C142.387 229.102 139.559 210.285 138.167 200.775M159.965 257.23L155.15 206.808C154.728 199.812 153.022 184.848 149.576 180.958C148.333 179.554 147.426 178.087 146.775 176.704M159.965 257.23V261.581M145.268 170.976C145.268 171.251 145.291 171.597 145.343 171.999M123.224 262.861C119.876 263.537 117.105 263.329 115.622 263.044M123.224 262.861L121.457 273.099M159.965 261.581C159.246 263.397 155.019 263.871 152.304 263.895M159.965 261.581V272.235M115.622 263.044V269.771M114.355 271.819L115.622 271.307V269.771M114.355 271.819V274.89H119.676C120.067 274.407 120.727 273.689 121.413 273.134M114.355 271.819C113.817 271.004 112.947 269.475 112.922 268.679M113.088 268.236C113.696 267.826 115.031 269.089 115.622 269.771M113.088 268.236C113.02 268.339 112.965 268.491 112.922 268.679M113.088 268.236C112.964 268.319 112.915 268.475 112.922 268.679M123.224 272.331C124.237 272.536 124.828 275.829 124.997 277.45M123.224 272.331C122.743 272.234 122.091 272.593 121.457 273.099M123.224 272.331C123.45 274.308 122.111 273.69 121.413 273.134M124.997 277.45C125.926 279.241 127.379 283.029 125.757 283.848C124.136 284.667 112.412 285.043 106.753 285.128C104.473 284.872 100.52 283.439 102.953 279.753M124.997 277.45C124.799 278.05 117.005 279.59 113.134 280.355C112.056 280.568 111.282 280.721 111.061 280.777C110.51 280.916 109.658 281.661 108.915 282.312C108.292 282.858 107.745 283.337 107.514 283.337C107.168 283.337 106.705 282.505 106.365 281.894C106.206 281.608 106.074 281.371 105.993 281.289C105.74 281.033 104.22 281.033 103.713 281.033C103.307 281.033 103.037 280.18 102.953 279.753M102.953 279.753C105.402 277.962 110.808 273.969 112.835 272.331C112.764 271.408 112.706 269.61 112.922 268.679M152.304 263.895L153.077 269.259M153.123 273.355L153.63 273.099L153.077 269.259M153.123 273.355C152.447 272.331 151.197 270.13 151.603 269.515M153.123 273.355L152.87 275.146L155.91 275.402C156.5 274.608 157.851 273.168 159.373 272.466M151.603 269.515C152.008 268.901 152.754 269.089 153.077 269.259M151.603 269.515C150.696 269.859 151.108 271.381 151.522 272.912C152.034 274.803 152.55 276.709 150.589 276.426C147.751 276.016 145.353 277.45 144.508 278.218M162.752 278.474C163.681 279.156 165.387 281.187 164.779 283.848C164.171 286.51 157.262 286.152 153.883 285.64C150.336 284.787 143.342 282.364 143.748 279.497C143.832 279.156 144.103 278.422 144.508 278.218M162.752 278.474C162.245 279.753 151.349 279.753 150.843 279.753C150.63 279.753 150.417 280.115 150.148 280.572C149.776 281.203 149.297 282.016 148.562 282.313C147.99 282.544 147.883 282.044 147.751 281.426C147.59 280.676 147.393 279.753 146.282 279.753C144.948 279.753 144.821 278.978 144.746 278.52C144.707 278.282 144.681 278.13 144.508 278.218M162.752 278.474C162.906 276.45 162.779 272.625 161.218 272.123M128.086 123.113C127.038 121.699 125.47 119.579 124.068 117.675M120.943 113.387C120.436 112.62 122.21 112.876 122.463 113.132C122.496 113.164 122.541 113.214 122.595 113.275M120.943 113.387C121.002 113.477 121.149 113.684 121.363 113.981M120.943 113.387C120.859 113.531 120.69 113.834 120.69 113.899C120.69 113.964 120.928 114.136 121.048 114.214M124.744 112.876C125.504 113.899 124.237 114.667 123.984 114.667C123.846 114.667 123.481 114.287 123.138 113.899M124.744 112.876L126.011 111.852M124.744 112.876L123.138 113.899M126.011 111.852C126.433 112.278 127.278 113.541 127.278 115.179L129.165 117.483M126.011 111.852C126.095 111.596 126.264 111.033 126.264 110.828C126.264 110.623 125.757 110.913 125.504 111.084M121.957 112.876C122.21 112.449 122.818 111.596 123.224 111.596C123.272 111.596 123.333 111.589 123.402 111.576M125.504 111.084C125.504 111.289 123.565 112.63 122.595 113.275M125.504 111.084C125.504 110.853 124.055 111.458 123.402 111.576M122.595 113.275C122.733 113.432 122.932 113.667 123.138 113.899M121.703 114.45C121.534 114.522 121.247 114.718 121.45 114.923C121.653 115.128 121.933 115.008 122.048 114.923M121.703 114.45C121.81 114.596 121.925 114.754 122.048 114.923M121.703 114.45C121.577 114.276 121.463 114.119 121.363 113.981M121.703 114.45L120.943 115.179L120.183 115.179L120.436 114.667L121.048 114.214M122.048 114.923C121.933 115.008 121.754 115.23 121.957 115.435C122.159 115.64 122.309 115.462 122.358 115.347M122.048 114.923C122.147 115.058 122.25 115.2 122.358 115.347M122.358 115.347C122.238 115.462 122.071 115.742 122.358 115.947C122.645 116.151 122.771 116.032 122.797 115.947M122.358 115.347C122.498 115.538 122.645 115.738 122.797 115.947M122.797 115.947C123.189 116.481 123.62 117.067 124.068 117.675M121.363 113.981L121.048 114.214M121.457 273.099C121.443 273.11 121.428 273.122 121.413 273.134M159.965 272.235C160.216 272.156 160.471 272.101 160.725 272.075C160.903 272.057 161.067 272.074 161.218 272.123M159.965 272.235C159.765 272.298 159.568 272.376 159.373 272.466M137.871 115.029C137.905 115.156 137.918 115.245 137.922 115.281M137.922 115.281C137.925 115.304 137.924 115.306 137.922 115.281ZM139.563 119.502C138.887 120.335 135.77 122.849 134.119 124.137C137.237 123.881 139.216 120.322 139.563 119.502ZM139.563 119.502C139.647 119.398 139.694 119.32 139.694 119.274C139.694 119.182 139.677 119.223 139.621 119.361C139.605 119.4 139.586 119.448 139.563 119.502ZM140.576 121.55C139.901 122.382 136.784 124.896 135.133 126.185C139.082 125.515 140.23 122.37 140.576 121.55ZM140.576 121.55C140.635 121.478 140.675 121.418 140.694 121.373M145.343 171.999C145.497 173.188 145.912 174.872 146.775 176.704M141.248 116.971C141.768 119.204 142.31 124.592 142.771 127.359C143.377 130.998 143.732 120.529 141.407 116.565M141.248 116.971C141.298 116.837 141.351 116.701 141.407 116.565M141.407 116.565C141.677 115.909 142.002 115.265 142.228 114.923C142.331 114.766 142.525 114.65 142.771 114.566M142.771 114.566C143.693 115.691 145.722 118.661 146.46 121.55C147.383 125.161 146.782 117.176 143.393 114.428M142.771 114.566C142.955 114.504 143.168 114.459 143.393 114.428M147.589 141.99C147.383 141.655 144.155 137.044 145.538 136.583C146.438 136.283 146.443 141.005 148.078 142.33M147.589 141.99C147.748 142.103 147.911 142.216 148.078 142.33M148.305 142.484C148.472 142.596 148.642 142.708 148.816 142.821C148.778 142.304 148.767 141.611 148.805 140.794M148.305 142.484C148.228 142.433 148.153 142.381 148.078 142.33M148.305 142.484C148.226 142.441 148.151 142.389 148.078 142.33M148.816 140.595C148.645 138.489 148.213 134.277 147.844 134.277C147.383 134.277 146.922 138.888 148.805 140.794M148.816 140.595C148.812 140.662 148.809 140.729 148.805 140.794M123.402 111.576C123.402 108.911 120.856 108.261 119.583 108.269H115.515L53.3947 105.746C50.0312 105.115 43.1149 105.178 42.3581 110.476C41.6013 115.774 47.2983 118.149 50.2414 118.675L113.938 119.936L118.79 119.981C120.464 119.827 123.863 119.15 124.068 117.675M141.372 111.942V96.705L142.633 48.0405C142.633 44.4424 140.552 37.2462 132.227 37.2462C123.903 37.2462 63.17 27.6247 33.8442 22.814C29.5347 21.868 20.8526 22.2464 20.6003 31.3279C20.348 40.4094 20.4952 123.825 20.6003 164.398C21.5463 166.605 25.7717 171.146 35.1055 171.65C44.4393 172.155 95.8593 169.081 120.403 167.481L125.247 167.312M140.422 123.903C140.496 122.816 140.568 121.892 140.694 121.373M140.422 123.903C140.286 125.158 140.16 126.499 140.093 127.772M140.422 123.903C140.34 125.103 140.256 126.501 140.093 127.772M143.231 196.308C142.412 197.822 140.862 199.574 138.167 200.775M159.373 272.466C160.295 273.549 160.849 273.565 161.218 272.123M140.301 135.199C140.568 135.199 138.792 136.429 137.871 137.044C136.68 136.436 134.205 135.309 133.829 135.66M118.353 128.765L49.6108 127.819C47.1932 128.029 42.3581 129.585 42.3581 134.126C42.3581 138.667 47.6137 140.012 50.2414 140.117H114.13C117.161 140.117 123.259 139.041 123.402 134.738C123.545 130.434 120.095 128.963 118.353 128.765ZM31.426 8.90032C30.9005 9.00543 29.8494 9.53098 29.8494 10.7923C29.8494 12.0536 30.9005 12.369 31.426 12.369C32.0567 12.369 33.2549 12.0536 33.0027 10.7923C32.6873 9.21565 32.372 8.90032 31.426 8.90032ZM24.4887 8.26966C23.9632 8.37477 22.9121 8.90032 22.9121 10.1616C22.9121 11.423 23.9632 11.7383 24.4887 11.7383C25.1194 11.7383 26.3177 11.423 26.0654 10.1616C25.7501 8.58499 25.4347 8.26966 24.4887 8.26966ZM17.5515 7.639C17.0259 7.74411 15.9748 8.26966 15.9748 9.53098C15.9748 10.7923 17.0259 11.1076 17.5515 11.1076C18.1821 11.1076 19.3804 10.7923 19.1281 9.53098C18.8128 7.95433 18.4975 7.639 17.5515 7.639ZM79.1302 154.568L83.2807 157.796L93.8875 150.879L92.9652 149.956L83.2807 155.951L79.5914 152.723L79.1302 154.568ZM84.8656 67.7974H89.9861C89.7422 68.5289 88.8888 69.9553 87.4258 69.809C85.9628 69.6627 85.1094 68.407 84.8656 67.7974ZM84.1341 62.3111C83.8902 62.3111 83.4026 62.4574 83.4026 63.0426C83.4026 63.6278 83.8902 63.7741 84.1341 63.7741C84.3779 63.7741 84.8656 63.6278 84.8656 63.0426C84.8656 62.4574 84.3779 62.3111 84.1341 62.3111ZM91.8148 62.3111C91.571 62.3111 91.0833 62.4574 91.0833 63.0426C91.0833 63.6278 91.571 63.7741 91.8148 63.7741C92.0587 63.7741 92.5463 63.6278 92.5463 63.0426C92.5463 62.4574 92.0587 62.3111 91.8148 62.3111ZM128.545 123.625C128.629 123.625 128.798 123.677 128.798 123.881C128.798 124.086 128.629 124.137 128.545 124.137C128.46 124.137 128.291 124.086 128.291 123.881C128.291 123.677 128.46 123.625 128.545 123.625ZM116.636 157.154L118.409 155.363L119.423 156.387L117.902 158.178L116.636 157.154ZM144.616 120.903C144.923 123.978 145.63 130.219 145.999 130.587C146.46 131.048 145.838 121.825 144.616 120.903ZM52.5901 109.401L52.439 114.766L51.8104 114.748L49.0059 110.454L48.9536 110.452L48.835 114.664L48.1854 114.646L48.3365 109.282L48.9651 109.299L51.7797 113.604L51.8321 113.606L51.951 109.383L52.5901 109.401ZM55.3394 114.931C54.9517 114.92 54.6198 114.825 54.3435 114.646C54.0689 114.465 53.8601 114.218 53.7169 113.905C53.5755 113.59 53.5105 113.226 53.5222 112.814C53.5338 112.402 53.6191 112.041 53.7781 111.731C53.9389 111.419 54.1571 111.179 54.4327 111.01C54.7102 110.84 55.0305 110.76 55.3937 110.77C55.6032 110.776 55.8091 110.817 56.0115 110.892C56.2138 110.968 56.3966 111.087 56.5598 111.248C56.723 111.409 56.8508 111.618 56.9431 111.878C57.0354 112.137 57.0763 112.455 57.0657 112.83L57.0583 113.092L53.9572 113.005L53.9722 112.47L56.4448 112.54C56.4511 112.313 56.4115 112.109 56.3257 111.929C56.2416 111.748 56.1181 111.604 55.9551 111.496C55.7939 111.389 55.6015 111.332 55.378 111.325C55.1318 111.318 54.9171 111.373 54.7338 111.491C54.5523 111.606 54.4108 111.759 54.3093 111.95C54.2078 112.142 54.1539 112.348 54.1477 112.57L54.1376 112.926C54.1291 113.23 54.1742 113.489 54.273 113.703C54.3736 113.916 54.5167 114.08 54.7022 114.195C54.8877 114.308 55.1053 114.369 55.355 114.376C55.5174 114.38 55.6647 114.362 55.797 114.32C55.931 114.277 56.0473 114.21 56.146 114.12C56.2447 114.029 56.3222 113.914 56.3785 113.776L56.971 113.96C56.9024 114.161 56.7917 114.336 56.639 114.485C56.4863 114.633 56.2996 114.747 56.0789 114.826C55.8583 114.904 55.6118 114.939 55.3394 114.931ZM58.8594 114.946L57.7469 110.889L58.3964 110.907L59.1793 114.012L59.2212 114.013L60.167 110.957L60.8271 110.975L61.5892 114.069L61.6311 114.07L62.5872 111.025L63.2367 111.043L61.8976 115.032L61.29 115.015L60.497 111.899L60.4341 111.898L59.467 114.963L58.8594 114.946ZM66.0989 115.15L66.2499 109.786L68.0624 109.837C68.4833 109.849 68.8251 109.935 69.088 110.094C69.3527 110.252 69.546 110.461 69.668 110.721C69.79 110.981 69.8465 111.27 69.8376 111.586C69.8287 111.902 69.756 112.187 69.6195 112.442C69.4848 112.697 69.2817 112.897 69.0102 113.043C68.7387 113.188 68.3943 113.254 67.977 113.242L66.6779 113.206L66.6941 112.63L67.9723 112.666C68.2604 112.674 68.4932 112.63 68.6706 112.536C68.848 112.441 68.9784 112.31 69.0617 112.143C69.1469 111.974 69.1925 111.782 69.1985 111.568C69.2046 111.353 69.1698 111.16 69.0943 110.988C69.0205 110.816 68.8967 110.68 68.7231 110.579C68.5495 110.476 68.3169 110.421 68.0253 110.413L66.8833 110.381L66.7484 115.169L66.0989 115.15ZM71.8781 115.407C71.6232 115.4 71.3932 115.346 71.1881 115.244C70.9831 115.14 70.822 114.995 70.7049 114.808C70.5879 114.62 70.5331 114.394 70.5405 114.132C70.547 113.902 70.5976 113.716 70.6925 113.576C70.7874 113.433 70.9119 113.323 71.0661 113.245C71.2204 113.168 71.3897 113.111 71.5742 113.076C71.7605 113.04 71.9474 113.012 72.1349 112.992C72.3802 112.968 72.5791 112.95 72.7314 112.939C72.8856 112.925 72.9982 112.9 73.0691 112.862C73.1419 112.823 73.1796 112.755 73.1824 112.655L73.183 112.634C73.1903 112.376 73.1252 112.173 72.9878 112.026C72.8522 111.879 72.642 111.801 72.3574 111.793C72.0623 111.785 71.8291 111.843 71.6578 111.967C71.4866 112.092 71.3648 112.226 71.2926 112.371L70.7118 112.145C70.8234 111.904 70.9685 111.717 71.1469 111.586C71.3272 111.453 71.522 111.362 71.7313 111.314C71.9424 111.264 72.1492 111.242 72.3518 111.248C72.481 111.251 72.629 111.271 72.7957 111.307C72.9643 111.342 73.1258 111.408 73.2803 111.507C73.4365 111.606 73.5644 111.752 73.6638 111.945C73.7632 112.138 73.8084 112.395 73.7994 112.714L73.7247 115.365L73.1066 115.348L73.1219 114.803L73.0905 114.802C73.0461 114.888 72.9737 114.979 72.8731 115.076C72.7725 115.173 72.64 115.254 72.4757 115.319C72.3113 115.385 72.1121 115.414 71.8781 115.407ZM71.9881 114.855C72.2325 114.862 72.4399 114.819 72.6103 114.728C72.7823 114.637 72.9133 114.516 73.0031 114.367C73.0947 114.217 73.1429 114.059 73.1476 113.891L73.1635 113.326C73.1365 113.356 73.078 113.383 72.9882 113.407C72.9002 113.429 72.7983 113.448 72.6826 113.464C72.5686 113.478 72.4572 113.491 72.3486 113.502C72.2417 113.511 72.155 113.519 72.0884 113.526C71.9272 113.542 71.776 113.572 71.635 113.615C71.4958 113.657 71.3821 113.723 71.2939 113.813C71.2076 113.901 71.1622 114.024 71.1577 114.181C71.1517 114.396 71.2266 114.561 71.3824 114.675C71.54 114.788 71.7419 114.848 71.9881 114.855ZM77.7906 112.355L77.2309 112.496C77.1986 112.403 77.1496 112.312 77.084 112.222C77.0201 112.131 76.9314 112.055 76.8177 111.995C76.7041 111.934 76.5574 111.901 76.3775 111.896C76.1313 111.889 75.9246 111.94 75.7572 112.049C75.5917 112.156 75.5065 112.296 75.5016 112.469C75.4973 112.622 75.5497 112.745 75.659 112.837C75.7682 112.93 75.9408 113.009 76.1766 113.075L76.7696 113.238C77.1269 113.336 77.3911 113.477 77.5624 113.662C77.7338 113.845 77.8155 114.077 77.8076 114.358C77.8011 114.589 77.7289 114.793 77.5911 114.971C77.455 115.148 77.2676 115.287 77.029 115.385C76.7903 115.483 76.5147 115.527 76.2021 115.519C75.7918 115.507 75.4546 115.408 75.1908 115.223C74.9269 115.037 74.7639 114.772 74.702 114.428L75.2928 114.298C75.3426 114.516 75.4437 114.681 75.596 114.794C75.7501 114.906 75.9538 114.966 76.207 114.974C76.4951 114.982 76.7256 114.927 76.8984 114.81C77.073 114.69 77.1627 114.544 77.1676 114.371C77.1715 114.232 77.1259 114.113 77.0308 114.016C76.9357 113.918 76.7876 113.842 76.5863 113.789L75.9203 113.613C75.5543 113.515 75.2874 113.372 75.1197 113.184C74.9538 112.994 74.8748 112.76 74.8826 112.483C74.889 112.256 74.9584 112.057 75.0908 111.886C75.2249 111.715 75.4042 111.583 75.6288 111.489C75.8551 111.396 76.1097 111.353 76.3926 111.361C76.7907 111.373 77.1008 111.469 77.3229 111.65C77.5467 111.831 77.7026 112.066 77.7906 112.355ZM81.6441 112.463L81.0844 112.605C81.0521 112.511 81.0031 112.42 80.9375 112.331C80.8736 112.24 80.7849 112.164 80.6713 112.103C80.5577 112.042 80.4109 112.009 80.2311 112.004C79.9849 111.997 79.7781 112.048 79.6107 112.157C79.4452 112.264 79.36 112.404 79.3551 112.577C79.3508 112.731 79.4033 112.854 79.5125 112.946C79.6218 113.038 79.7943 113.117 80.0301 113.183L80.6231 113.347C80.9804 113.444 81.2447 113.585 81.416 113.77C81.5873 113.953 81.669 114.185 81.6611 114.467C81.6546 114.697 81.5824 114.901 81.4446 115.079C81.3085 115.257 81.1212 115.395 80.8825 115.493C80.6438 115.591 80.3682 115.636 80.0556 115.627C79.6453 115.616 79.3082 115.517 79.0443 115.331C78.7804 115.146 78.6175 114.881 78.5555 114.536L79.1463 114.406C79.1961 114.624 79.2972 114.79 79.4496 114.902C79.6037 115.015 79.8073 115.075 80.0605 115.082C80.3486 115.09 80.5791 115.036 80.7519 114.918C80.9265 114.799 81.0162 114.653 81.0211 114.48C81.0251 114.34 80.9795 114.222 80.8843 114.125C80.7892 114.026 80.6411 113.95 80.4399 113.897L79.7738 113.721C79.4078 113.624 79.141 113.481 78.9733 113.293C78.8073 113.103 78.7283 112.869 78.7361 112.591C78.7425 112.364 78.8119 112.165 78.9443 111.994C79.0784 111.823 79.2578 111.691 79.4823 111.598C79.7086 111.505 79.9632 111.462 80.2461 111.47C80.6442 111.481 80.9543 111.577 81.1764 111.758C81.4002 111.939 81.5561 112.174 81.6441 112.463ZM83.4715 115.639L82.359 111.582L83.0086 111.6L83.7914 114.705L83.8333 114.706L84.7792 111.65L85.4392 111.669L86.2014 114.762L86.2433 114.763L87.1993 111.718L87.8489 111.736L86.5098 115.725L85.9021 115.708L85.1091 112.592L85.0462 112.591L84.0791 115.657L83.4715 115.639ZM90.0479 115.909C89.6847 115.898 89.3685 115.803 89.0992 115.622C88.8317 115.442 88.6255 115.194 88.4806 114.879C88.3374 114.564 88.2717 114.198 88.2834 113.783C88.2952 113.364 88.3815 113 88.5422 112.692C88.7046 112.384 88.9245 112.147 89.2018 111.982C89.4808 111.816 89.8019 111.739 90.1651 111.749C90.5283 111.759 90.8436 111.855 91.1112 112.035C91.3805 112.216 91.5866 112.465 91.7298 112.782C91.8746 113.098 91.9411 113.466 91.9293 113.885C91.9176 114.301 91.8306 114.662 91.6682 114.969C91.5075 115.275 91.2877 115.511 91.0086 115.676C90.7314 115.841 90.4111 115.919 90.0479 115.909ZM90.0636 115.353C90.3395 115.361 90.5685 115.297 90.7506 115.16C90.9326 115.024 91.0697 114.842 91.1618 114.614C91.2538 114.385 91.3036 114.137 91.3112 113.868C91.3188 113.599 91.2831 113.347 91.204 113.113C91.125 112.878 90.9985 112.687 90.8244 112.538C90.6503 112.39 90.4253 112.312 90.1494 112.305C89.8736 112.297 89.6445 112.362 89.4624 112.5C89.2803 112.638 89.1431 112.822 89.051 113.052C88.9589 113.282 88.9091 113.531 88.9015 113.8C88.894 114.069 88.9297 114.32 89.0088 114.553C89.0878 114.786 89.2144 114.976 89.3886 115.122C89.5627 115.268 89.7877 115.346 90.0636 115.353ZM92.8169 115.903L92.9302 111.88L93.5273 111.896L93.5102 112.504L93.5521 112.505C93.6311 112.308 93.7683 112.15 93.9639 112.032C94.1595 111.913 94.3777 111.857 94.6187 111.864C94.6641 111.865 94.7208 111.868 94.7889 111.872C94.8569 111.875 94.9084 111.879 94.9432 111.884L94.9255 112.512C94.9047 112.507 94.8569 112.497 94.7821 112.485C94.7091 112.471 94.6316 112.462 94.5495 112.46C94.3539 112.454 94.1782 112.491 94.0222 112.568C93.868 112.644 93.7444 112.753 93.6513 112.893C93.56 113.032 93.5118 113.193 93.5067 113.374L93.435 115.92L92.8169 115.903ZM96.9555 116.103C96.6202 116.094 96.3266 116.001 96.0747 115.824C95.8229 115.646 95.6288 115.399 95.4927 115.084C95.3565 114.768 95.2945 114.396 95.3065 113.97C95.3184 113.548 95.4012 113.183 95.5548 112.876C95.7085 112.569 95.917 112.335 96.1802 112.173C96.4434 112.011 96.7443 111.935 97.0831 111.944C97.345 111.951 97.5507 112.001 97.7002 112.093C97.8514 112.182 97.9657 112.283 98.0429 112.396C98.1219 112.506 98.1831 112.597 98.2266 112.668L98.2789 112.67L98.3347 110.69L98.9528 110.707L98.8018 116.071L98.2046 116.054L98.222 115.436L98.1487 115.434C98.1012 115.506 98.034 115.597 97.947 115.706C97.8601 115.814 97.7377 115.909 97.5798 115.992C97.422 116.073 97.2139 116.11 96.9555 116.103ZM97.0549 115.55C97.3029 115.557 97.5142 115.498 97.689 115.374C97.8638 115.248 97.999 115.071 98.0945 114.843C98.1901 114.613 98.2422 114.346 98.2508 114.043C98.2592 113.742 98.223 113.478 98.142 113.25C98.0611 113.021 97.9368 112.841 97.7693 112.71C97.6017 112.578 97.3922 112.509 97.1408 112.501C96.8789 112.494 96.6587 112.555 96.4803 112.685C96.3037 112.813 96.1685 112.99 96.0748 113.216C95.9828 113.44 95.9329 113.694 95.9249 113.977C95.9168 114.263 95.9532 114.525 96.0339 114.761C96.1164 114.996 96.2421 115.185 96.4111 115.328C96.5819 115.469 96.7965 115.543 97.0549 115.55Z" stroke="currentColor" stroke-width="0.630662"/>
</svg>


